G04*
G04 #@! TF.GenerationSoftware,Altium Limited,Altium Designer,23.2.1 (34)*
G04*
G04 Layer_Physical_Order=2*
G04 Layer_Color=36540*
%FSLAX42Y42*%
%MOMM*%
G71*
G04*
G04 #@! TF.SameCoordinates,D42B7736-0A14-4BE5-A4A9-6633498721EE*
G04*
G04*
G04 #@! TF.FilePolarity,Positive*
G04*
G01*
G75*
%ADD10C,0.20*%
%ADD11C,0.25*%
%ADD13C,0.50*%
%ADD69R,2.00X2.00*%
%ADD107C,0.50*%
%ADD108C,0.80*%
%ADD110C,0.35*%
%ADD114C,0.70*%
%ADD115R,5.50X5.50*%
%ADD117C,1.50*%
%ADD118C,2.00*%
%ADD119C,1.65*%
%ADD121R,1.50X1.50*%
%ADD122C,5.50*%
%ADD123C,0.60*%
%ADD124C,4.50*%
G36*
X10000Y0D02*
X0D01*
Y10000D01*
X10000D01*
Y0D01*
D02*
G37*
%LPC*%
G36*
X2805Y9878D02*
X2700D01*
Y9773D01*
X2805D01*
Y9878D01*
D02*
G37*
G36*
X1245D02*
X1140D01*
Y9773D01*
X1245D01*
Y9878D01*
D02*
G37*
G36*
X1090D02*
X985D01*
Y9773D01*
X1090D01*
Y9878D01*
D02*
G37*
G36*
X2650D02*
X2545D01*
Y9773D01*
X2650D01*
Y9878D01*
D02*
G37*
G36*
X7477Y9853D02*
X7448Y9849D01*
X7420Y9838D01*
X7397Y9820D01*
X7379Y9796D01*
X7367Y9769D01*
X7366Y9757D01*
X7365Y9752D01*
X7335D01*
X7334Y9757D01*
X7333Y9769D01*
X7321Y9796D01*
X7303Y9820D01*
X7280Y9838D01*
X7252Y9849D01*
X7223Y9853D01*
X7194Y9849D01*
X7166Y9838D01*
X7143Y9820D01*
X7125Y9796D01*
X7113Y9769D01*
X7112Y9757D01*
X7111Y9752D01*
X7081D01*
X7080Y9757D01*
X7079Y9769D01*
X7067Y9796D01*
X7049Y9820D01*
X7026Y9838D01*
X6998Y9849D01*
X6969Y9853D01*
X6940Y9849D01*
X6912Y9838D01*
X6889Y9820D01*
X6871Y9796D01*
X6859Y9769D01*
X6856Y9739D01*
X6859Y9710D01*
X6871Y9683D01*
X6889Y9659D01*
X6912Y9641D01*
X6940Y9630D01*
X6951Y9628D01*
X6957Y9628D01*
Y9597D01*
X6951Y9597D01*
X6940Y9595D01*
X6912Y9584D01*
X6889Y9566D01*
X6871Y9542D01*
X6859Y9515D01*
X6859Y9511D01*
X6969D01*
Y9486D01*
X6994D01*
Y9375D01*
X6998Y9376D01*
X7026Y9387D01*
X7049Y9405D01*
X7067Y9429D01*
X7079Y9456D01*
X7080Y9468D01*
X7081Y9473D01*
X7111D01*
X7112Y9468D01*
X7113Y9456D01*
X7125Y9429D01*
X7143Y9405D01*
X7166Y9387D01*
X7194Y9376D01*
X7223Y9372D01*
X7252Y9376D01*
X7280Y9387D01*
X7303Y9405D01*
X7321Y9429D01*
X7333Y9456D01*
X7334Y9468D01*
X7335Y9473D01*
X7365D01*
X7366Y9468D01*
X7367Y9456D01*
X7379Y9429D01*
X7397Y9405D01*
X7420Y9387D01*
X7448Y9376D01*
X7477Y9372D01*
X7506Y9376D01*
X7534Y9387D01*
X7557Y9405D01*
X7575Y9429D01*
X7587Y9456D01*
X7588Y9468D01*
X7589Y9473D01*
X7619D01*
X7620Y9468D01*
X7621Y9456D01*
X7633Y9429D01*
X7651Y9405D01*
X7674Y9387D01*
X7702Y9376D01*
X7731Y9372D01*
X7760Y9376D01*
X7788Y9387D01*
X7811Y9405D01*
X7829Y9429D01*
X7841Y9456D01*
X7844Y9486D01*
X7841Y9515D01*
X7829Y9542D01*
X7811Y9566D01*
X7788Y9584D01*
X7760Y9595D01*
X7746Y9597D01*
X7748Y9627D01*
X7843D01*
Y9852D01*
X7618D01*
Y9756D01*
X7589Y9754D01*
X7587Y9769D01*
X7575Y9796D01*
X7557Y9820D01*
X7534Y9838D01*
X7506Y9849D01*
X7477Y9853D01*
D02*
G37*
G36*
X2805Y9723D02*
X2700D01*
Y9618D01*
X2805D01*
Y9723D01*
D02*
G37*
G36*
X2650D02*
X2545D01*
Y9618D01*
X2650D01*
Y9723D01*
D02*
G37*
G36*
X1245D02*
X1140D01*
Y9618D01*
X1245D01*
Y9723D01*
D02*
G37*
G36*
X1090D02*
X985D01*
Y9618D01*
X1090D01*
Y9723D01*
D02*
G37*
G36*
X6240Y9648D02*
Y9570D01*
X6317D01*
X6317Y9572D01*
X6306Y9598D01*
X6289Y9620D01*
X6267Y9637D01*
X6242Y9647D01*
X6240Y9648D01*
D02*
G37*
G36*
X6190Y9648D02*
X6187Y9647D01*
X6162Y9637D01*
X6140Y9620D01*
X6123Y9598D01*
X6112Y9572D01*
X6112Y9570D01*
X6190D01*
Y9648D01*
D02*
G37*
G36*
X6317Y9520D02*
X6240D01*
Y9442D01*
X6242Y9443D01*
X6267Y9453D01*
X6289Y9470D01*
X6306Y9492D01*
X6317Y9518D01*
X6317Y9520D01*
D02*
G37*
G36*
X6190D02*
X6112D01*
X6112Y9518D01*
X6123Y9492D01*
X6140Y9470D01*
X6162Y9453D01*
X6187Y9443D01*
X6190Y9442D01*
Y9520D01*
D02*
G37*
G36*
X6065Y9650D02*
X5856D01*
Y9440D01*
X6065D01*
Y9650D01*
D02*
G37*
G36*
X3312Y9561D02*
X3289Y9557D01*
X3269Y9543D01*
X3256Y9523D01*
X3251Y9500D01*
X3256Y9477D01*
X3261Y9469D01*
X3256Y9461D01*
X3251Y9438D01*
X3256Y9414D01*
X3269Y9394D01*
X3289Y9381D01*
X3312Y9376D01*
X3336Y9381D01*
X3356Y9394D01*
X3369Y9414D01*
X3374Y9438D01*
X3369Y9461D01*
X3364Y9469D01*
X3369Y9477D01*
X3374Y9500D01*
X3369Y9523D01*
X3356Y9543D01*
X3336Y9557D01*
X3312Y9561D01*
D02*
G37*
G36*
X6944Y9461D02*
X6859D01*
X6859Y9456D01*
X6871Y9429D01*
X6889Y9405D01*
X6912Y9387D01*
X6940Y9376D01*
X6944Y9375D01*
Y9461D01*
D02*
G37*
G36*
X1250Y9436D02*
X1227Y9432D01*
X1207Y9418D01*
X1193Y9398D01*
X1189Y9375D01*
X1193Y9352D01*
X1207Y9332D01*
X1227Y9318D01*
X1250Y9314D01*
X1273Y9318D01*
X1293Y9332D01*
X1307Y9352D01*
X1311Y9375D01*
X1307Y9398D01*
X1293Y9418D01*
X1273Y9432D01*
X1250Y9436D01*
D02*
G37*
G36*
X9150Y9149D02*
X9127Y9144D01*
X9107Y9131D01*
X9093Y9111D01*
X9089Y9088D01*
X9093Y9064D01*
X9107Y9044D01*
X9127Y9031D01*
X9150Y9026D01*
X9173Y9031D01*
X9193Y9044D01*
X9207Y9064D01*
X9211Y9088D01*
X9207Y9111D01*
X9193Y9131D01*
X9173Y9144D01*
X9150Y9149D01*
D02*
G37*
G36*
X505Y8917D02*
Y8839D01*
X583D01*
X582Y8842D01*
X572Y8867D01*
X555Y8889D01*
X533Y8906D01*
X507Y8917D01*
X505Y8917D01*
D02*
G37*
G36*
X455Y8917D02*
X453Y8917D01*
X427Y8906D01*
X405Y8889D01*
X388Y8867D01*
X378Y8842D01*
X377Y8839D01*
X455D01*
Y8917D01*
D02*
G37*
G36*
X6938Y9196D02*
X1250D01*
X1232Y9193D01*
X1215Y9186D01*
X1200Y9175D01*
X1065Y9040D01*
X1054Y9025D01*
X1047Y9008D01*
X1044Y8990D01*
Y8918D01*
X985D01*
Y8657D01*
X1245D01*
Y8918D01*
X1186D01*
Y8961D01*
X1279Y9054D01*
X6908D01*
X6992Y8971D01*
Y8875D01*
Y8812D01*
X6994Y8794D01*
X7001Y8777D01*
X7013Y8763D01*
X7027Y8751D01*
X7044Y8744D01*
X7062Y8742D01*
X7081Y8744D01*
X7098Y8751D01*
X7112Y8763D01*
X7124Y8777D01*
X7131Y8794D01*
X7133Y8812D01*
Y8875D01*
Y9000D01*
X7131Y9018D01*
X7124Y9035D01*
X7112Y9050D01*
X6987Y9175D01*
X6973Y9186D01*
X6956Y9193D01*
X6938Y9196D01*
D02*
G37*
G36*
X6500Y8836D02*
X6477Y8832D01*
X6457Y8818D01*
X6443Y8798D01*
X6439Y8775D01*
X6443Y8752D01*
X6457Y8732D01*
X6477Y8718D01*
X6500Y8714D01*
X6523Y8718D01*
X6543Y8732D01*
X6557Y8752D01*
X6561Y8775D01*
X6557Y8798D01*
X6543Y8818D01*
X6523Y8832D01*
X6500Y8836D01*
D02*
G37*
G36*
X583Y8789D02*
X505D01*
Y8712D01*
X507Y8712D01*
X533Y8723D01*
X555Y8740D01*
X572Y8762D01*
X582Y8787D01*
X583Y8789D01*
D02*
G37*
G36*
X455D02*
X377D01*
X378Y8787D01*
X388Y8762D01*
X405Y8740D01*
X427Y8723D01*
X453Y8712D01*
X455Y8712D01*
Y8789D01*
D02*
G37*
G36*
X1500Y8749D02*
X1477Y8744D01*
X1457Y8731D01*
X1443Y8711D01*
X1439Y8688D01*
X1443Y8664D01*
X1457Y8644D01*
X1477Y8631D01*
X1500Y8626D01*
X1523Y8631D01*
X1543Y8644D01*
X1557Y8664D01*
X1561Y8688D01*
X1557Y8711D01*
X1543Y8731D01*
X1523Y8744D01*
X1500Y8749D01*
D02*
G37*
G36*
X2805Y8918D02*
X2545D01*
Y8657D01*
X2805D01*
Y8717D01*
X2883D01*
X3150Y8450D01*
X3165Y8439D01*
X3182Y8432D01*
X3200Y8429D01*
X4877D01*
X4901Y8400D01*
X4906Y8377D01*
X4919Y8357D01*
X4939Y8343D01*
X4962Y8339D01*
X4986Y8343D01*
X5006Y8357D01*
X5019Y8377D01*
X5024Y8400D01*
X5048Y8429D01*
X5210D01*
X5226Y8410D01*
X5231Y8387D01*
X5244Y8367D01*
X5264Y8353D01*
X5288Y8349D01*
X5311Y8353D01*
X5331Y8367D01*
X5344Y8387D01*
X5349Y8410D01*
X5365Y8429D01*
X7076D01*
X7085Y8399D01*
X7075Y8393D01*
X7062Y8373D01*
X7058Y8350D01*
X7062Y8327D01*
X7075Y8307D01*
X7095Y8293D01*
X7119Y8289D01*
X7415Y7992D01*
X7418Y7977D01*
X7432Y7957D01*
X7452Y7943D01*
X7475Y7939D01*
X7498Y7943D01*
X7518Y7957D01*
X7532Y7977D01*
X7536Y8000D01*
X7532Y8023D01*
X7518Y8043D01*
X7498Y8057D01*
X7475Y8061D01*
X7470Y8060D01*
X7180Y8350D01*
X7175Y8373D01*
X7162Y8393D01*
X7153Y8399D01*
X7162Y8429D01*
X7212D01*
X7231Y8432D01*
X7248Y8439D01*
X7262Y8450D01*
X7285Y8473D01*
X7304Y8466D01*
X7314Y8460D01*
X7318Y8439D01*
X7332Y8419D01*
X7352Y8406D01*
X7375Y8401D01*
X7398Y8406D01*
X7418Y8419D01*
X7432Y8439D01*
X7436Y8462D01*
X7432Y8486D01*
X7418Y8506D01*
X7406Y8514D01*
X7406Y8534D01*
X7408Y8543D01*
X7409Y8546D01*
X7423Y8551D01*
X7437Y8563D01*
X7449Y8577D01*
X7475Y8593D01*
X7486Y8592D01*
X7500Y8589D01*
X7523Y8593D01*
X7543Y8607D01*
X7557Y8627D01*
X7561Y8650D01*
X7557Y8673D01*
X7543Y8693D01*
X7523Y8707D01*
X7500Y8711D01*
X7477Y8707D01*
X7457Y8693D01*
X7453Y8688D01*
X7427Y8676D01*
X7414Y8677D01*
X7406Y8681D01*
X7388Y8683D01*
X7325D01*
X7307Y8681D01*
X7290Y8674D01*
X7275Y8662D01*
X7183Y8571D01*
X6247D01*
X6231Y8601D01*
X6232Y8602D01*
X6236Y8625D01*
X6232Y8648D01*
X6218Y8668D01*
X6198Y8682D01*
X6175Y8686D01*
X6152Y8682D01*
X6132Y8668D01*
X6118Y8648D01*
X6114Y8625D01*
X6118Y8602D01*
X6119Y8601D01*
X6103Y8571D01*
X5656D01*
X5647Y8601D01*
X5656Y8607D01*
X5669Y8627D01*
X5670Y8632D01*
X5681Y8630D01*
X5705Y8635D01*
X5724Y8648D01*
X5729Y8655D01*
X5731Y8655D01*
X5763Y8654D01*
X5769Y8644D01*
X5789Y8631D01*
X5812Y8626D01*
X5836Y8631D01*
X5856Y8644D01*
X5869Y8664D01*
X5874Y8688D01*
X5869Y8711D01*
X5856Y8731D01*
X5836Y8744D01*
X5812Y8749D01*
X5789Y8744D01*
X5769Y8731D01*
X5765Y8724D01*
X5763Y8723D01*
X5731Y8725D01*
X5724Y8734D01*
X5705Y8748D01*
X5681Y8752D01*
X5658Y8748D01*
X5638Y8734D01*
X5625Y8715D01*
X5623Y8709D01*
X5612Y8711D01*
X5589Y8707D01*
X5569Y8693D01*
X5556Y8673D01*
X5551Y8650D01*
X5556Y8627D01*
X5569Y8607D01*
X5578Y8601D01*
X5569Y8571D01*
X3384D01*
X3368Y8601D01*
X3369Y8602D01*
X3374Y8625D01*
X3369Y8648D01*
X3364Y8656D01*
X3369Y8664D01*
X3374Y8688D01*
X3369Y8711D01*
X3356Y8731D01*
X3336Y8744D01*
X3312Y8749D01*
X3289Y8744D01*
X3269Y8731D01*
X3256Y8711D01*
X3251Y8688D01*
X3256Y8664D01*
X3261Y8656D01*
X3256Y8648D01*
X3251Y8625D01*
X3253Y8619D01*
X3233Y8589D01*
X3231Y8588D01*
X3214Y8585D01*
X2962Y8837D01*
X2948Y8849D01*
X2931Y8856D01*
X2912Y8858D01*
X2805D01*
Y8918D01*
D02*
G37*
G36*
X585Y8665D02*
X375D01*
Y8456D01*
X585D01*
Y8665D01*
D02*
G37*
G36*
X500Y8311D02*
Y8233D01*
X578D01*
X577Y8235D01*
X567Y8261D01*
X550Y8283D01*
X528Y8300D01*
X502Y8310D01*
X500Y8311D01*
D02*
G37*
G36*
X450Y8311D02*
X448Y8310D01*
X422Y8300D01*
X400Y8283D01*
X383Y8261D01*
X373Y8235D01*
X372Y8233D01*
X450D01*
Y8311D01*
D02*
G37*
G36*
X1850Y8749D02*
X1827Y8744D01*
X1807Y8731D01*
X1793Y8711D01*
X1789Y8688D01*
X1793Y8664D01*
X1807Y8644D01*
X1827Y8631D01*
X1850Y8626D01*
X1853Y8627D01*
X1959Y8521D01*
Y8233D01*
X1929Y8210D01*
X1925Y8211D01*
X1902Y8207D01*
X1882Y8193D01*
X1868Y8173D01*
X1864Y8150D01*
X1868Y8127D01*
X1882Y8107D01*
X1884Y8105D01*
Y6956D01*
X1884Y6956D01*
X1887Y6940D01*
X1896Y6927D01*
X2671Y6153D01*
X2666Y6137D01*
X2658Y6123D01*
X2639Y6119D01*
X2635Y6116D01*
X2612Y6108D01*
X2590Y6116D01*
X2586Y6119D01*
X2562Y6124D01*
X2539Y6119D01*
X2535Y6116D01*
X2512Y6108D01*
X2490Y6116D01*
X2486Y6119D01*
X2462Y6124D01*
X2439Y6119D01*
X2419Y6106D01*
X2406Y6086D01*
X2401Y6062D01*
X2406Y6039D01*
X2419Y6019D01*
X2439Y6006D01*
X2462Y6001D01*
X2486Y6006D01*
X2490Y6009D01*
X2512Y6017D01*
X2535Y6009D01*
X2539Y6006D01*
X2562Y6001D01*
X2586Y6006D01*
X2590Y6009D01*
X2612Y6017D01*
X2635Y6009D01*
X2639Y6006D01*
X2662Y6001D01*
X2664Y6002D01*
X2694Y5978D01*
Y5889D01*
X2675Y5874D01*
X2652Y5869D01*
X2632Y5856D01*
X2623Y5843D01*
X2613Y5840D01*
X2599D01*
X2590Y5843D01*
X2581Y5856D01*
X2561Y5869D01*
X2538Y5874D01*
X2514Y5869D01*
X2494Y5856D01*
X2481Y5836D01*
X2478Y5820D01*
X2447D01*
X2444Y5836D01*
X2431Y5856D01*
X2411Y5869D01*
X2388Y5874D01*
X2364Y5869D01*
X2344Y5856D01*
X2331Y5836D01*
X2326Y5812D01*
X2331Y5789D01*
X2344Y5769D01*
X2364Y5756D01*
X2388Y5751D01*
X2411Y5756D01*
X2431Y5769D01*
X2444Y5789D01*
X2447Y5805D01*
X2478D01*
X2481Y5789D01*
X2494Y5769D01*
X2514Y5756D01*
X2538Y5751D01*
X2561Y5756D01*
X2581Y5769D01*
X2590Y5782D01*
X2599Y5785D01*
X2613D01*
X2623Y5782D01*
X2632Y5769D01*
X2652Y5756D01*
X2675Y5751D01*
X2694Y5736D01*
Y5464D01*
X2628Y5398D01*
X2625Y5399D01*
X2602Y5394D01*
X2581Y5381D01*
X2561Y5394D01*
X2538Y5399D01*
X2514Y5394D01*
X2494Y5381D01*
X2481Y5361D01*
X2476Y5338D01*
X2481Y5314D01*
X2494Y5294D01*
X2514Y5281D01*
X2538Y5276D01*
X2561Y5281D01*
X2581Y5294D01*
X2602Y5281D01*
X2625Y5276D01*
X2648Y5281D01*
X2668Y5294D01*
X2673Y5301D01*
X2705Y5295D01*
X2706Y5289D01*
X2719Y5269D01*
X2739Y5256D01*
X2762Y5251D01*
X2786Y5256D01*
X2806Y5269D01*
X2819Y5289D01*
X2824Y5312D01*
X2823Y5315D01*
X2841Y5334D01*
X2841Y5334D01*
X2850Y5347D01*
X2853Y5362D01*
Y6125D01*
X2850Y6141D01*
X2841Y6154D01*
X2841Y6154D01*
X2041Y6954D01*
Y8538D01*
X2038Y8553D01*
X2029Y8566D01*
X2029Y8566D01*
X1911Y8685D01*
X1911Y8688D01*
X1907Y8711D01*
X1893Y8731D01*
X1873Y8744D01*
X1850Y8749D01*
D02*
G37*
G36*
X8938Y8249D02*
X8914Y8244D01*
X8894Y8231D01*
X8881Y8211D01*
X8876Y8188D01*
X8875Y8187D01*
X8849Y8173D01*
X8836Y8182D01*
X8812Y8186D01*
X8789Y8182D01*
X8769Y8168D01*
X8756Y8148D01*
X8751Y8125D01*
X8750Y8124D01*
X8724Y8111D01*
X8711Y8119D01*
X8688Y8124D01*
X8664Y8119D01*
X8644Y8106D01*
X8631Y8086D01*
X8626Y8062D01*
X8631Y8039D01*
X8644Y8019D01*
X8664Y8006D01*
X8688Y8001D01*
X8711Y8006D01*
X8731Y8019D01*
X8744Y8039D01*
X8749Y8062D01*
X8750Y8063D01*
X8776Y8077D01*
X8789Y8068D01*
X8812Y8064D01*
X8836Y8068D01*
X8856Y8082D01*
X8869Y8102D01*
X8874Y8125D01*
X8875Y8126D01*
X8901Y8139D01*
X8914Y8131D01*
X8938Y8126D01*
X8961Y8131D01*
X8981Y8144D01*
X8994Y8164D01*
X8999Y8188D01*
X8994Y8211D01*
X8981Y8231D01*
X8961Y8244D01*
X8938Y8249D01*
D02*
G37*
G36*
X450Y8183D02*
X372D01*
X373Y8181D01*
X383Y8155D01*
X400Y8133D01*
X422Y8116D01*
X448Y8106D01*
X450Y8105D01*
Y8183D01*
D02*
G37*
G36*
X578D02*
X500D01*
Y8105D01*
X502Y8106D01*
X528Y8116D01*
X550Y8133D01*
X567Y8155D01*
X577Y8181D01*
X578Y8183D01*
D02*
G37*
G36*
X6338Y8224D02*
X6314Y8219D01*
X6294Y8206D01*
X6281Y8186D01*
X6276Y8162D01*
X6281Y8139D01*
X6294Y8119D01*
X6314Y8106D01*
X6338Y8101D01*
X6361Y8106D01*
X6381Y8119D01*
X6394Y8139D01*
X6399Y8162D01*
X6394Y8186D01*
X6381Y8206D01*
X6361Y8219D01*
X6338Y8224D01*
D02*
G37*
G36*
X1475Y8211D02*
X1452Y8207D01*
X1432Y8193D01*
X1418Y8173D01*
X1414Y8150D01*
X1418Y8127D01*
X1432Y8107D01*
X1452Y8093D01*
X1475Y8089D01*
X1498Y8093D01*
X1518Y8107D01*
X1532Y8127D01*
X1536Y8150D01*
X1532Y8173D01*
X1518Y8193D01*
X1498Y8207D01*
X1475Y8211D01*
D02*
G37*
G36*
X2475Y8249D02*
X2452Y8244D01*
X2432Y8231D01*
X2418Y8211D01*
X2414Y8188D01*
X2418Y8164D01*
X2424Y8156D01*
X2418Y8148D01*
X2414Y8125D01*
X2418Y8102D01*
X2432Y8082D01*
X2452Y8068D01*
X2475Y8064D01*
X2498Y8068D01*
X2518Y8082D01*
X2532Y8102D01*
X2536Y8125D01*
X2532Y8148D01*
X2526Y8156D01*
X2532Y8164D01*
X2536Y8188D01*
X2532Y8211D01*
X2518Y8231D01*
X2498Y8244D01*
X2475Y8249D01*
D02*
G37*
G36*
X1125D02*
X1102Y8244D01*
X1082Y8231D01*
X1068Y8211D01*
X1064Y8188D01*
X1068Y8164D01*
X1074Y8156D01*
X1068Y8148D01*
X1064Y8125D01*
X1068Y8102D01*
X1082Y8082D01*
X1102Y8068D01*
X1125Y8064D01*
X1148Y8068D01*
X1168Y8082D01*
X1182Y8102D01*
X1186Y8125D01*
X1182Y8148D01*
X1176Y8156D01*
X1182Y8164D01*
X1186Y8188D01*
X1182Y8211D01*
X1168Y8231D01*
X1148Y8244D01*
X1125Y8249D01*
D02*
G37*
G36*
X2975Y7936D02*
X2952Y7932D01*
X2944Y7926D01*
X2936Y7932D01*
X2912Y7936D01*
X2889Y7932D01*
X2869Y7918D01*
X2856Y7898D01*
X2851Y7875D01*
X2856Y7852D01*
X2869Y7832D01*
X2889Y7818D01*
X2912Y7814D01*
X2936Y7818D01*
X2944Y7824D01*
X2952Y7818D01*
X2975Y7814D01*
X2998Y7818D01*
X3018Y7832D01*
X3032Y7852D01*
X3036Y7875D01*
X3032Y7898D01*
X3018Y7918D01*
X2998Y7932D01*
X2975Y7936D01*
D02*
G37*
G36*
X475Y8060D02*
X448Y8056D01*
X422Y8046D01*
X400Y8029D01*
X383Y8007D01*
X373Y7981D01*
X369Y7954D01*
X373Y7927D01*
X383Y7901D01*
X400Y7879D01*
X422Y7862D01*
X448Y7852D01*
X475Y7848D01*
X502Y7852D01*
X528Y7862D01*
X550Y7879D01*
X567Y7901D01*
X577Y7927D01*
X581Y7954D01*
X577Y7981D01*
X567Y8007D01*
X550Y8029D01*
X528Y8046D01*
X502Y8056D01*
X475Y8060D01*
D02*
G37*
G36*
X4762Y7661D02*
X4739Y7657D01*
X4735Y7654D01*
X4712Y7646D01*
X4690Y7654D01*
X4686Y7657D01*
X4662Y7661D01*
X4639Y7657D01*
X4623Y7645D01*
X4593Y7643D01*
X4573Y7657D01*
X4550Y7661D01*
X4527Y7657D01*
X4526Y7656D01*
X4512D01*
X4511Y7657D01*
X4488Y7661D01*
X4464Y7657D01*
X4444Y7643D01*
X4431Y7623D01*
X4426Y7600D01*
X4431Y7577D01*
X4444Y7557D01*
X4464Y7543D01*
X4488Y7539D01*
X4511Y7543D01*
X4512Y7544D01*
X4526D01*
X4527Y7543D01*
X4535Y7542D01*
X4721Y7356D01*
X4719Y7318D01*
X4706Y7298D01*
X4701Y7275D01*
X4706Y7252D01*
X4719Y7232D01*
X4739Y7218D01*
X4762Y7214D01*
X4786Y7218D01*
X4806Y7232D01*
X4832Y7233D01*
X4856Y7209D01*
Y7174D01*
X4856Y7173D01*
X4851Y7150D01*
X4856Y7127D01*
X4856Y7126D01*
Y7086D01*
X4839Y7069D01*
X4012D01*
X4011Y7069D01*
X3988Y7074D01*
X3964Y7069D01*
X3944Y7056D01*
X3931Y7036D01*
X3926Y7013D01*
X3931Y6989D01*
X3944Y6969D01*
X3964Y6956D01*
X3988Y6951D01*
X4011Y6956D01*
X4012Y6956D01*
X4863D01*
X4884Y6961D01*
X4902Y6973D01*
X4952Y7023D01*
X4964Y7041D01*
X4969Y7062D01*
Y7126D01*
X4969Y7127D01*
X4974Y7150D01*
X4969Y7173D01*
X4969Y7174D01*
Y7244D01*
X4964Y7265D01*
X4952Y7284D01*
X4713Y7523D01*
X4730Y7548D01*
X4735Y7546D01*
X4739Y7543D01*
X4762Y7539D01*
X4786Y7543D01*
X4806Y7557D01*
X4819Y7577D01*
X4824Y7600D01*
X4819Y7623D01*
X4806Y7643D01*
X4786Y7657D01*
X4762Y7661D01*
D02*
G37*
G36*
X580Y7805D02*
X370D01*
Y7595D01*
X580D01*
Y7805D01*
D02*
G37*
G36*
X7450Y7599D02*
X7427Y7594D01*
X7407Y7581D01*
X7393Y7561D01*
X7389Y7538D01*
X7393Y7514D01*
X7407Y7494D01*
X7427Y7481D01*
X7450Y7476D01*
X7473Y7481D01*
X7493Y7494D01*
X7507Y7514D01*
X7511Y7538D01*
X7507Y7561D01*
X7493Y7581D01*
X7473Y7594D01*
X7450Y7599D01*
D02*
G37*
G36*
X505Y7446D02*
Y7368D01*
X583D01*
X582Y7371D01*
X572Y7396D01*
X555Y7418D01*
X533Y7435D01*
X507Y7446D01*
X505Y7446D01*
D02*
G37*
G36*
X455D02*
X453Y7446D01*
X427Y7435D01*
X405Y7418D01*
X388Y7396D01*
X378Y7371D01*
X377Y7368D01*
X455D01*
Y7446D01*
D02*
G37*
G36*
X6422Y7424D02*
X6399Y7419D01*
X6379Y7406D01*
X6366Y7386D01*
X6361Y7362D01*
X6366Y7339D01*
X6379Y7319D01*
X6399Y7306D01*
X6422Y7301D01*
X6446Y7306D01*
X6466Y7319D01*
X6479Y7339D01*
X6484Y7362D01*
X6479Y7386D01*
X6466Y7406D01*
X6446Y7419D01*
X6422Y7424D01*
D02*
G37*
G36*
X6212Y7399D02*
X6189Y7394D01*
X6169Y7381D01*
X6156Y7361D01*
X6151Y7338D01*
X6156Y7314D01*
X6169Y7294D01*
X6189Y7281D01*
X6212Y7276D01*
X6236Y7281D01*
X6256Y7294D01*
X6269Y7314D01*
X6274Y7338D01*
X6269Y7361D01*
X6256Y7381D01*
X6236Y7394D01*
X6212Y7399D01*
D02*
G37*
G36*
X5438Y7883D02*
X3250D01*
X3232Y7881D01*
X3215Y7874D01*
X3200Y7862D01*
X3163Y7825D01*
X3151Y7810D01*
X3144Y7793D01*
X3142Y7775D01*
Y6238D01*
X3144Y6219D01*
X3151Y6202D01*
X3163Y6188D01*
X3367Y5983D01*
Y5875D01*
X3369Y5857D01*
X3376Y5840D01*
X3388Y5825D01*
X3402Y5814D01*
X3419Y5807D01*
X3438Y5804D01*
X3456Y5807D01*
X3473Y5814D01*
X3487Y5825D01*
X3499Y5840D01*
X3506Y5857D01*
X3534Y5851D01*
Y5629D01*
X3528Y5623D01*
X3498Y5629D01*
X3494Y5639D01*
X3494Y5640D01*
X3499Y5662D01*
X3494Y5686D01*
X3481Y5706D01*
X3461Y5719D01*
X3438Y5724D01*
X3414Y5719D01*
X3394Y5706D01*
X3381Y5686D01*
X3376Y5662D01*
X3381Y5639D01*
X3394Y5619D01*
X3381Y5598D01*
X3376Y5575D01*
X3381Y5552D01*
X3394Y5532D01*
X3402Y5527D01*
X3409Y5491D01*
X3208Y5291D01*
X3170D01*
X3168Y5293D01*
X3148Y5307D01*
X3125Y5311D01*
X3102Y5307D01*
X3084Y5295D01*
X3074Y5297D01*
X3054Y5305D01*
Y5523D01*
X3062Y5530D01*
X3084Y5542D01*
X3100Y5539D01*
X3123Y5544D01*
X3143Y5557D01*
X3157Y5577D01*
X3161Y5600D01*
X3188Y5614D01*
X3211Y5618D01*
X3231Y5632D01*
X3244Y5652D01*
X3249Y5675D01*
X3244Y5698D01*
X3231Y5718D01*
X3211Y5732D01*
X3188Y5736D01*
X3164Y5732D01*
X3144Y5718D01*
X3131Y5698D01*
X3126Y5675D01*
X3100Y5661D01*
X3084Y5658D01*
X3062Y5670D01*
X3054Y5677D01*
Y5769D01*
X3084Y5785D01*
X3089Y5781D01*
X3112Y5776D01*
X3136Y5781D01*
X3156Y5794D01*
X3169Y5814D01*
X3174Y5838D01*
X3169Y5861D01*
X3156Y5881D01*
X3136Y5894D01*
X3112Y5899D01*
X3089Y5894D01*
X3084Y5890D01*
X3054Y5906D01*
Y7017D01*
X3051Y7035D01*
X3044Y7052D01*
X3033Y7067D01*
X2815Y7285D01*
X2826Y7316D01*
X2836Y7318D01*
X2856Y7332D01*
X2869Y7352D01*
X2874Y7375D01*
X2869Y7398D01*
X2856Y7418D01*
X2836Y7432D01*
X2812Y7436D01*
X2789Y7432D01*
X2769Y7418D01*
X2756Y7398D01*
X2754Y7388D01*
X2723Y7377D01*
X2550Y7550D01*
X2535Y7561D01*
X2518Y7568D01*
X2500Y7571D01*
X2188D01*
X2169Y7568D01*
X2152Y7561D01*
X2138Y7550D01*
X2126Y7535D01*
X2119Y7518D01*
X2117Y7500D01*
X2119Y7482D01*
X2126Y7465D01*
X2138Y7450D01*
X2152Y7439D01*
X2169Y7432D01*
X2188Y7429D01*
X2471D01*
X2810Y7090D01*
X2799Y7059D01*
X2789Y7057D01*
X2769Y7043D01*
X2756Y7023D01*
X2751Y7000D01*
X2750Y6975D01*
X2729Y6970D01*
X2727Y6969D01*
X2707Y6956D01*
X2693Y6936D01*
X2689Y6912D01*
X2693Y6889D01*
X2707Y6869D01*
X2727Y6856D01*
X2750Y6851D01*
X2773Y6856D01*
X2793Y6869D01*
X2807Y6889D01*
X2811Y6912D01*
X2812Y6937D01*
X2833Y6943D01*
X2836Y6943D01*
X2856Y6957D01*
X2864Y6970D01*
X2891Y6978D01*
X2900Y6979D01*
X2912Y6970D01*
Y6518D01*
X2882Y6497D01*
X2875Y6499D01*
X2852Y6494D01*
X2832Y6481D01*
X2818Y6461D01*
X2818Y6458D01*
X2812Y6437D01*
X2788Y6436D01*
X2764Y6432D01*
X2744Y6418D01*
X2731Y6398D01*
X2726Y6375D01*
X2731Y6352D01*
X2744Y6332D01*
X2764Y6318D01*
X2788Y6314D01*
X2811Y6318D01*
X2831Y6332D01*
X2844Y6352D01*
X2845Y6354D01*
X2850Y6375D01*
X2875Y6376D01*
X2882Y6378D01*
X2912Y6357D01*
Y4518D01*
X2882Y4497D01*
X2875Y4499D01*
X2852Y4494D01*
X2832Y4481D01*
X2830Y4478D01*
X2737D01*
X2732Y4484D01*
X2731Y4519D01*
X2744Y4539D01*
X2749Y4562D01*
X2744Y4586D01*
X2731Y4606D01*
X2711Y4619D01*
X2686Y4625D01*
X2682Y4648D01*
X2668Y4668D01*
X2648Y4682D01*
X2624Y4688D01*
X2619Y4711D01*
X2606Y4731D01*
X2586Y4744D01*
X2561Y4750D01*
X2557Y4773D01*
X2543Y4793D01*
X2523Y4807D01*
X2500Y4811D01*
X2477Y4807D01*
X2457Y4793D01*
X2443Y4773D01*
X2439Y4750D01*
X2443Y4727D01*
X2457Y4707D01*
X2477Y4693D01*
X2501Y4688D01*
X2506Y4664D01*
X2519Y4644D01*
X2539Y4631D01*
X2564Y4625D01*
X2568Y4602D01*
X2582Y4582D01*
X2602Y4568D01*
X2626Y4562D01*
X2631Y4539D01*
X2644Y4519D01*
X2643Y4484D01*
X2638Y4478D01*
X2579D01*
X2498Y4560D01*
X2499Y4562D01*
X2494Y4586D01*
X2481Y4606D01*
X2461Y4619D01*
X2438Y4624D01*
X2414Y4619D01*
X2394Y4606D01*
X2381Y4586D01*
X2376Y4562D01*
X2381Y4539D01*
X2394Y4519D01*
X2414Y4506D01*
X2438Y4501D01*
X2440Y4502D01*
X2534Y4409D01*
X2534Y4409D01*
X2547Y4400D01*
X2562Y4397D01*
X2830D01*
X2832Y4394D01*
X2852Y4381D01*
X2875Y4376D01*
X2898Y4381D01*
X2908Y4387D01*
X2922Y4383D01*
X2933Y4368D01*
X3539Y3763D01*
X3553Y3751D01*
X3570Y3744D01*
X3589Y3742D01*
X4271D01*
X4492Y3521D01*
Y1688D01*
Y1625D01*
X4494Y1607D01*
X4501Y1590D01*
X4513Y1575D01*
X4527Y1564D01*
X4544Y1557D01*
X4562Y1554D01*
X4581Y1557D01*
X4598Y1564D01*
X4612Y1575D01*
X4624Y1590D01*
X4631Y1607D01*
X4633Y1625D01*
Y1688D01*
Y3550D01*
X4631Y3568D01*
X4624Y3585D01*
X4612Y3600D01*
X4350Y3862D01*
X4335Y3874D01*
X4318Y3881D01*
X4300Y3883D01*
X3618D01*
X3282Y4219D01*
X3295Y4249D01*
X3320Y4259D01*
X3347Y4280D01*
X3364Y4303D01*
X3381Y4305D01*
X3399Y4303D01*
X3416Y4280D01*
X3443Y4259D01*
X3475Y4246D01*
X3508Y4242D01*
X3542Y4246D01*
X3574Y4259D01*
X3601Y4280D01*
X3618Y4303D01*
X3635Y4305D01*
X3653Y4303D01*
X3670Y4280D01*
X3697Y4259D01*
X3729Y4246D01*
X3762Y4242D01*
X3796Y4246D01*
X3828Y4259D01*
X3855Y4280D01*
X3872Y4303D01*
X3890Y4305D01*
X3907Y4303D01*
X3924Y4280D01*
X3951Y4259D01*
X3983Y4246D01*
X4017Y4242D01*
X4050Y4246D01*
X4082Y4259D01*
X4109Y4280D01*
X4126Y4303D01*
X4144Y4305D01*
X4161Y4303D01*
X4178Y4280D01*
X4205Y4259D01*
X4237Y4246D01*
X4246Y4245D01*
Y4373D01*
X4271D01*
Y4398D01*
X4398D01*
X4397Y4407D01*
X4384Y4439D01*
X4363Y4466D01*
X4362Y4467D01*
X4372Y4497D01*
X4401D01*
Y4757D01*
X4140D01*
Y4728D01*
X4110Y4718D01*
X4109Y4720D01*
X4082Y4741D01*
X4050Y4754D01*
X4017Y4758D01*
X3983Y4754D01*
X3951Y4741D01*
X3924Y4720D01*
X3907Y4697D01*
X3890Y4695D01*
X3872Y4697D01*
X3855Y4720D01*
X3828Y4741D01*
X3796Y4754D01*
X3762Y4758D01*
X3729Y4754D01*
X3697Y4741D01*
X3670Y4720D01*
X3653Y4697D01*
X3635Y4695D01*
X3618Y4697D01*
X3601Y4720D01*
X3574Y4741D01*
X3542Y4754D01*
X3508Y4758D01*
X3475Y4754D01*
X3443Y4741D01*
X3416Y4720D01*
X3399Y4697D01*
X3381Y4695D01*
X3364Y4697D01*
X3347Y4720D01*
X3320Y4741D01*
X3288Y4754D01*
X3254Y4758D01*
X3221Y4754D01*
X3189Y4741D01*
X3162Y4720D01*
X3141Y4693D01*
X3128Y4661D01*
X3123Y4627D01*
X3128Y4593D01*
X3141Y4561D01*
X3162Y4534D01*
X3184Y4517D01*
X3187Y4500D01*
X3184Y4483D01*
X3162Y4466D01*
X3141Y4439D01*
X3130Y4413D01*
X3100Y4401D01*
X3054Y4447D01*
Y4894D01*
X3084Y4910D01*
X3089Y4906D01*
X3112Y4901D01*
X3136Y4906D01*
X3156Y4919D01*
X3169Y4939D01*
X3174Y4962D01*
X3169Y4986D01*
X3156Y5006D01*
X3136Y5019D01*
X3120Y5022D01*
Y5053D01*
X3136Y5056D01*
X3156Y5069D01*
X3169Y5089D01*
X3174Y5112D01*
X3169Y5136D01*
X3156Y5156D01*
X3146Y5162D01*
X3148Y5184D01*
X3150Y5194D01*
X3168Y5207D01*
X3170Y5209D01*
X3225D01*
X3225Y5209D01*
X3241Y5212D01*
X3254Y5221D01*
X3387Y5355D01*
X3400Y5353D01*
X3422Y5347D01*
X3432Y5332D01*
X3452Y5318D01*
X3475Y5314D01*
X3498Y5318D01*
X3518Y5332D01*
X3532Y5352D01*
X3536Y5375D01*
X3532Y5398D01*
X3518Y5418D01*
X3503Y5428D01*
X3497Y5450D01*
X3495Y5463D01*
X3604Y5571D01*
X3604Y5571D01*
X3613Y5584D01*
X3616Y5600D01*
X3616Y5600D01*
Y5787D01*
X3646Y5800D01*
X3671Y5775D01*
X3689Y5763D01*
X3711Y5758D01*
X3723D01*
X3727Y5756D01*
X3750Y5751D01*
X3773Y5756D01*
X3774Y5756D01*
X4129D01*
X4136Y5744D01*
X4141Y5726D01*
X4131Y5711D01*
X4126Y5688D01*
X4131Y5664D01*
X4144Y5644D01*
X4164Y5631D01*
X4188Y5626D01*
X4211Y5631D01*
X4231Y5644D01*
X4244Y5664D01*
X4249Y5688D01*
X4244Y5711D01*
X4234Y5726D01*
X4239Y5744D01*
X4246Y5756D01*
X4288D01*
X4289Y5756D01*
X4312Y5751D01*
X4336Y5756D01*
X4337Y5756D01*
X4976D01*
X4977Y5756D01*
X5000Y5751D01*
X5023Y5756D01*
X5024Y5756D01*
X5426D01*
X5427Y5756D01*
X5450Y5751D01*
X5473Y5756D01*
X5493Y5769D01*
X5507Y5789D01*
X5511Y5812D01*
X5507Y5836D01*
X5493Y5856D01*
X5473Y5869D01*
X5450Y5874D01*
X5427Y5869D01*
X5426Y5869D01*
X5024D01*
X5023Y5869D01*
X5000Y5874D01*
X4977Y5869D01*
X4976Y5869D01*
X4337D01*
X4336Y5869D01*
X4312Y5874D01*
X4289Y5869D01*
X4288Y5869D01*
X3774D01*
X3773Y5869D01*
X3750Y5874D01*
X3748Y5873D01*
X3725Y5893D01*
X3725Y5921D01*
X3749Y5939D01*
X3750Y5939D01*
X3773Y5944D01*
X3793Y5957D01*
X3807Y5977D01*
X3811Y6000D01*
X3807Y6023D01*
X3793Y6043D01*
X3773Y6057D01*
X3750Y6061D01*
X3749Y6061D01*
X3719Y6085D01*
Y6328D01*
X3749Y6352D01*
X3750Y6351D01*
X3773Y6356D01*
X3793Y6369D01*
X3807Y6389D01*
X3811Y6412D01*
X3807Y6436D01*
X3793Y6456D01*
X3773Y6469D01*
X3750Y6474D01*
X3749Y6473D01*
X3719Y6497D01*
Y6728D01*
X3749Y6752D01*
X3750Y6751D01*
X3773Y6756D01*
X3793Y6769D01*
X3807Y6789D01*
X3811Y6812D01*
X3807Y6836D01*
X3794Y6856D01*
X3807Y6877D01*
X3811Y6900D01*
X3807Y6923D01*
X3794Y6942D01*
X3790Y6949D01*
X3781Y6969D01*
X3788Y6980D01*
X3794Y6989D01*
X3799Y7012D01*
X3794Y7036D01*
X3781Y7056D01*
X3761Y7069D01*
X3738Y7074D01*
X3714Y7069D01*
X3694Y7056D01*
X3681Y7036D01*
X3681Y7035D01*
X3646Y7000D01*
X3616Y7013D01*
Y7083D01*
X4054Y7522D01*
X4143D01*
X4144Y7519D01*
X4164Y7506D01*
X4188Y7501D01*
X4211Y7506D01*
X4231Y7519D01*
X4244Y7539D01*
X4249Y7562D01*
X4250Y7563D01*
X4276Y7577D01*
X4289Y7568D01*
X4312Y7564D01*
X4336Y7568D01*
X4356Y7582D01*
X4369Y7602D01*
X4374Y7625D01*
X4369Y7648D01*
X4356Y7668D01*
X4336Y7682D01*
X4312Y7686D01*
X4289Y7682D01*
X4269Y7668D01*
X4256Y7648D01*
X4251Y7625D01*
X4250Y7624D01*
X4224Y7611D01*
X4211Y7619D01*
X4188Y7624D01*
X4164Y7619D01*
X4144Y7606D01*
X4143Y7603D01*
X4038D01*
X4022Y7600D01*
X4009Y7591D01*
X4009Y7591D01*
X3546Y7129D01*
X3537Y7116D01*
X3534Y7100D01*
X3534Y7100D01*
Y6867D01*
X3513Y6859D01*
X3504Y6857D01*
X3486Y6869D01*
X3462Y6874D01*
X3439Y6869D01*
X3419Y6856D01*
X3406Y6836D01*
X3401Y6812D01*
X3406Y6789D01*
X3419Y6769D01*
X3406Y6748D01*
X3401Y6725D01*
X3400Y6724D01*
X3374Y6711D01*
X3361Y6719D01*
X3338Y6724D01*
X3314Y6719D01*
X3313Y6718D01*
X3283Y6734D01*
Y6891D01*
X3313Y6907D01*
X3314Y6906D01*
X3338Y6901D01*
X3361Y6906D01*
X3381Y6919D01*
X3394Y6939D01*
X3399Y6962D01*
X3419Y6982D01*
X3424Y6988D01*
X3450D01*
Y7013D01*
X3414D01*
X3381Y7012D01*
D01*
X3361Y7019D01*
X3354Y7020D01*
X3338Y7024D01*
X3314Y7019D01*
X3313Y7018D01*
X3283Y7034D01*
Y7742D01*
X5408D01*
X5567Y7583D01*
Y7400D01*
Y7338D01*
X5569Y7319D01*
X5576Y7302D01*
X5588Y7288D01*
X5602Y7276D01*
X5619Y7269D01*
X5638Y7267D01*
X5656Y7269D01*
X5673Y7276D01*
X5687Y7288D01*
X5699Y7302D01*
X5706Y7319D01*
X5708Y7338D01*
Y7400D01*
Y7612D01*
X5706Y7631D01*
X5699Y7648D01*
X5687Y7662D01*
X5487Y7862D01*
X5473Y7874D01*
X5456Y7881D01*
X5438Y7883D01*
D02*
G37*
G36*
X9500Y7374D02*
X9477Y7369D01*
X9457Y7356D01*
X9443Y7336D01*
X9439Y7312D01*
X9443Y7289D01*
X9457Y7269D01*
X9477Y7256D01*
X9500Y7251D01*
X9523Y7256D01*
X9543Y7269D01*
X9557Y7289D01*
X9561Y7312D01*
X9557Y7336D01*
X9543Y7356D01*
X9523Y7369D01*
X9500Y7374D01*
D02*
G37*
G36*
X7750D02*
X7727Y7369D01*
X7707Y7356D01*
X7693Y7336D01*
X7689Y7312D01*
X7693Y7289D01*
X7707Y7269D01*
X7727Y7256D01*
X7750Y7251D01*
X7773Y7256D01*
X7793Y7269D01*
X7807Y7289D01*
X7811Y7312D01*
X7807Y7336D01*
X7793Y7356D01*
X7773Y7369D01*
X7750Y7374D01*
D02*
G37*
G36*
X583Y7318D02*
X505D01*
Y7241D01*
X507Y7241D01*
X533Y7252D01*
X555Y7269D01*
X572Y7291D01*
X582Y7316D01*
X583Y7318D01*
D02*
G37*
G36*
X455D02*
X377D01*
X378Y7316D01*
X388Y7291D01*
X405Y7269D01*
X427Y7252D01*
X453Y7241D01*
X455Y7241D01*
Y7318D01*
D02*
G37*
G36*
X5212Y7336D02*
X5189Y7332D01*
X5169Y7318D01*
X5156Y7298D01*
X5151Y7275D01*
X5156Y7252D01*
X5169Y7232D01*
X5189Y7218D01*
X5212Y7214D01*
X5236Y7218D01*
X5256Y7232D01*
X5269Y7252D01*
X5274Y7275D01*
X5269Y7298D01*
X5256Y7318D01*
X5236Y7332D01*
X5212Y7336D01*
D02*
G37*
G36*
X5475Y7336D02*
X5452Y7332D01*
X5432Y7318D01*
X5418Y7298D01*
X5414Y7275D01*
X5418Y7252D01*
X5432Y7232D01*
X5452Y7218D01*
X5475Y7214D01*
X5498Y7218D01*
X5518Y7232D01*
X5532Y7252D01*
X5536Y7275D01*
X5532Y7298D01*
X5518Y7318D01*
X5498Y7332D01*
X5475Y7336D01*
D02*
G37*
G36*
X4562D02*
X4539Y7332D01*
X4519Y7318D01*
X4506Y7298D01*
X4501Y7275D01*
X4506Y7252D01*
X4519Y7232D01*
X4539Y7218D01*
X4562Y7214D01*
X4586Y7218D01*
X4606Y7232D01*
X4619Y7252D01*
X4624Y7275D01*
X4619Y7298D01*
X4606Y7318D01*
X4586Y7332D01*
X4562Y7336D01*
D02*
G37*
G36*
X4125D02*
X4102Y7332D01*
X4082Y7318D01*
X4068Y7298D01*
X4064Y7275D01*
X4068Y7252D01*
X4082Y7232D01*
X4102Y7218D01*
X4125Y7214D01*
X4148Y7218D01*
X4168Y7232D01*
X4182Y7252D01*
X4186Y7275D01*
X4182Y7298D01*
X4168Y7318D01*
X4148Y7332D01*
X4125Y7336D01*
D02*
G37*
G36*
X2375Y7186D02*
X2352Y7182D01*
X2351Y7181D01*
X2337D01*
X2336Y7182D01*
X2312Y7186D01*
X2289Y7182D01*
X2269Y7168D01*
X2256Y7148D01*
X2251Y7125D01*
X2256Y7102D01*
X2269Y7082D01*
X2289Y7068D01*
X2312Y7064D01*
X2336Y7068D01*
X2337Y7069D01*
X2351D01*
X2352Y7068D01*
X2375Y7064D01*
X2398Y7068D01*
X2418Y7082D01*
X2432Y7102D01*
X2436Y7125D01*
X2432Y7148D01*
X2418Y7168D01*
X2398Y7182D01*
X2375Y7186D01*
D02*
G37*
G36*
X7150Y7274D02*
X7127Y7269D01*
X7107Y7256D01*
X7093Y7236D01*
X7089Y7212D01*
X7093Y7189D01*
X7107Y7169D01*
X7127Y7156D01*
X7150Y7151D01*
X7173Y7156D01*
X7193Y7169D01*
X7207Y7189D01*
X7211Y7212D01*
X7207Y7236D01*
X7193Y7256D01*
X7173Y7269D01*
X7150Y7274D01*
D02*
G37*
G36*
X3438Y7186D02*
X3414Y7182D01*
X3394Y7168D01*
X3381Y7148D01*
X3376Y7125D01*
X3381Y7102D01*
X3394Y7082D01*
X3414Y7068D01*
X3438Y7064D01*
X3461Y7068D01*
X3481Y7082D01*
X3494Y7102D01*
X3499Y7125D01*
X3494Y7148D01*
X3481Y7168D01*
X3461Y7182D01*
X3438Y7186D01*
D02*
G37*
G36*
X480Y7195D02*
X453Y7192D01*
X427Y7181D01*
X405Y7164D01*
X388Y7142D01*
X378Y7117D01*
X374Y7089D01*
X378Y7062D01*
X388Y7037D01*
X405Y7015D01*
X427Y6998D01*
X453Y6987D01*
X480Y6984D01*
X507Y6987D01*
X533Y6998D01*
X555Y7015D01*
X572Y7037D01*
X582Y7062D01*
X586Y7089D01*
X582Y7117D01*
X572Y7142D01*
X555Y7164D01*
X533Y7181D01*
X507Y7192D01*
X480Y7195D01*
D02*
G37*
G36*
X7162Y7086D02*
X7139Y7082D01*
X7119Y7068D01*
X7106Y7048D01*
X7101Y7025D01*
X7106Y7002D01*
X7119Y6982D01*
X7139Y6968D01*
X7162Y6964D01*
X7186Y6968D01*
X7206Y6982D01*
X7219Y7002D01*
X7224Y7025D01*
X7219Y7048D01*
X7206Y7068D01*
X7186Y7082D01*
X7162Y7086D01*
D02*
G37*
G36*
X5625Y6974D02*
X5602Y6969D01*
X5582Y6956D01*
X5568Y6936D01*
X5564Y6912D01*
X5568Y6889D01*
X5582Y6869D01*
X5602Y6856D01*
X5625Y6851D01*
X5648Y6856D01*
X5668Y6869D01*
X5682Y6889D01*
X5686Y6912D01*
X5682Y6936D01*
X5668Y6956D01*
X5648Y6969D01*
X5625Y6974D01*
D02*
G37*
G36*
X480Y6941D02*
X453Y6938D01*
X427Y6927D01*
X405Y6910D01*
X388Y6888D01*
X378Y6863D01*
X374Y6836D01*
X378Y6808D01*
X388Y6783D01*
X405Y6761D01*
X427Y6744D01*
X453Y6733D01*
X480Y6730D01*
X507Y6733D01*
X533Y6744D01*
X555Y6761D01*
X572Y6783D01*
X582Y6808D01*
X586Y6836D01*
X582Y6863D01*
X572Y6888D01*
X555Y6910D01*
X533Y6927D01*
X507Y6938D01*
X480Y6941D01*
D02*
G37*
G36*
X9500Y6686D02*
X9477Y6682D01*
X9457Y6668D01*
X9443Y6648D01*
X9439Y6625D01*
X9443Y6602D01*
X9457Y6582D01*
X9477Y6568D01*
X9500Y6564D01*
X9523Y6568D01*
X9543Y6582D01*
X9557Y6602D01*
X9561Y6625D01*
X9557Y6648D01*
X9543Y6668D01*
X9523Y6682D01*
X9500Y6686D01*
D02*
G37*
G36*
X7750D02*
X7727Y6682D01*
X7707Y6668D01*
X7693Y6648D01*
X7689Y6625D01*
X7693Y6602D01*
X7707Y6582D01*
X7727Y6568D01*
X7750Y6564D01*
X7773Y6568D01*
X7793Y6582D01*
X7807Y6602D01*
X7811Y6625D01*
X7807Y6648D01*
X7793Y6668D01*
X7773Y6682D01*
X7750Y6686D01*
D02*
G37*
G36*
X5938Y6674D02*
X5914Y6669D01*
X5894Y6656D01*
X5881Y6636D01*
X5876Y6612D01*
X5881Y6589D01*
X5894Y6569D01*
X5914Y6556D01*
X5938Y6551D01*
X5961Y6556D01*
X5981Y6569D01*
X5994Y6589D01*
X5999Y6612D01*
X5994Y6636D01*
X5981Y6656D01*
X5961Y6669D01*
X5938Y6674D01*
D02*
G37*
G36*
X585Y6686D02*
X375D01*
Y6476D01*
X585D01*
Y6686D01*
D02*
G37*
G36*
X5562Y6524D02*
X5539Y6519D01*
X5519Y6506D01*
X5506Y6486D01*
X5501Y6462D01*
X5506Y6439D01*
X5519Y6419D01*
X5539Y6406D01*
X5562Y6401D01*
X5586Y6406D01*
X5606Y6419D01*
X5619Y6439D01*
X5624Y6462D01*
X5619Y6486D01*
X5606Y6506D01*
X5586Y6519D01*
X5562Y6524D01*
D02*
G37*
G36*
X5938Y6474D02*
X5914Y6469D01*
X5894Y6456D01*
X5881Y6436D01*
X5876Y6413D01*
X5881Y6389D01*
X5894Y6369D01*
X5914Y6356D01*
X5938Y6351D01*
X5961Y6356D01*
X5981Y6369D01*
X5994Y6389D01*
X5999Y6413D01*
X5994Y6436D01*
X5981Y6456D01*
X5961Y6469D01*
X5938Y6474D01*
D02*
G37*
G36*
X5562Y6261D02*
X5539Y6257D01*
X5519Y6243D01*
X5506Y6223D01*
X5501Y6200D01*
X5506Y6177D01*
X5519Y6157D01*
X5539Y6143D01*
X5562Y6139D01*
X5586Y6143D01*
X5606Y6157D01*
X5619Y6177D01*
X5624Y6200D01*
X5619Y6223D01*
X5606Y6243D01*
X5586Y6257D01*
X5562Y6261D01*
D02*
G37*
G36*
X1225Y7571D02*
X1162D01*
X1144Y7568D01*
X1127Y7561D01*
X1113Y7550D01*
X1101Y7535D01*
X1094Y7518D01*
X1092Y7500D01*
X1094Y7482D01*
X1101Y7465D01*
X1113Y7450D01*
X1127Y7439D01*
X1144Y7432D01*
X1154Y7430D01*
Y7188D01*
Y7125D01*
X1157Y7107D01*
X1164Y7090D01*
X1175Y7075D01*
X1298Y6952D01*
Y6196D01*
X1250D01*
X1232Y6193D01*
X1215Y6186D01*
X1200Y6175D01*
X1189Y6160D01*
X1182Y6143D01*
X1179Y6125D01*
X1182Y6107D01*
X1189Y6090D01*
X1200Y6075D01*
X1215Y6064D01*
X1232Y6057D01*
X1250Y6054D01*
X1298D01*
Y5903D01*
Y5821D01*
X1188D01*
X1169Y5818D01*
X1152Y5811D01*
X1138Y5800D01*
X1136Y5797D01*
X1108Y5807D01*
X1107Y5823D01*
X1106Y5832D01*
X1119Y5852D01*
X1124Y5875D01*
X1119Y5898D01*
X1106Y5918D01*
X1086Y5932D01*
X1061Y5938D01*
X1057Y5961D01*
X1043Y5981D01*
X1023Y5994D01*
X1000Y5999D01*
X977Y5994D01*
X957Y5981D01*
X943Y5961D01*
X939Y5938D01*
X943Y5914D01*
X957Y5894D01*
X959Y5893D01*
Y4320D01*
X957Y4318D01*
X943Y4298D01*
X939Y4275D01*
X943Y4252D01*
X957Y4232D01*
X977Y4218D01*
X1000Y4214D01*
X1023Y4218D01*
X1043Y4232D01*
X1057Y4252D01*
X1061Y4275D01*
X1057Y4298D01*
X1043Y4318D01*
X1041Y4320D01*
Y4402D01*
X1069Y4414D01*
X1199Y4284D01*
X1199Y4284D01*
X1212Y4275D01*
X1228Y4272D01*
X1268D01*
X1269Y4269D01*
X1289Y4256D01*
X1312Y4251D01*
X1336Y4256D01*
X1356Y4269D01*
X1369Y4289D01*
X1375Y4313D01*
X1398Y4318D01*
X1418Y4332D01*
X1432Y4352D01*
X1436Y4375D01*
X1432Y4398D01*
X1418Y4418D01*
X1398Y4432D01*
X1375Y4436D01*
X1352Y4432D01*
X1332Y4418D01*
X1331Y4416D01*
X1294D01*
X1293Y4418D01*
X1273Y4432D01*
X1250Y4436D01*
X1227Y4432D01*
X1207Y4418D01*
X1182Y4416D01*
X1103Y4495D01*
Y5690D01*
X1131Y5701D01*
X1153Y5686D01*
X1157Y5656D01*
X1143Y5636D01*
X1139Y5612D01*
X1143Y5589D01*
X1146Y5585D01*
X1157Y5556D01*
X1143Y5536D01*
X1139Y5512D01*
X1143Y5489D01*
X1157Y5469D01*
X1177Y5456D01*
X1200Y5451D01*
X1223Y5456D01*
X1243Y5469D01*
X1257Y5489D01*
X1261Y5512D01*
X1257Y5536D01*
X1254Y5540D01*
X1243Y5569D01*
X1257Y5589D01*
X1261Y5612D01*
X1257Y5636D01*
X1248Y5649D01*
X1255Y5672D01*
X1261Y5679D01*
X1298D01*
Y5294D01*
X1301Y5275D01*
X1308Y5258D01*
X1319Y5244D01*
X1442Y5121D01*
Y4738D01*
X1444Y4719D01*
X1451Y4702D01*
X1463Y4688D01*
X1477Y4676D01*
X1494Y4669D01*
X1512Y4667D01*
X1531Y4669D01*
X1548Y4676D01*
X1562Y4688D01*
X1574Y4702D01*
X1581Y4719D01*
X1611Y4739D01*
X1612Y4739D01*
X1629Y4742D01*
X1651Y4730D01*
X1659Y4723D01*
Y4640D01*
X1651Y4632D01*
X1629Y4620D01*
X1612Y4624D01*
X1589Y4619D01*
X1569Y4606D01*
X1548Y4619D01*
X1525Y4624D01*
X1502Y4619D01*
X1482Y4606D01*
X1468Y4586D01*
X1464Y4562D01*
X1468Y4539D01*
X1482Y4519D01*
X1502Y4506D01*
X1525Y4501D01*
X1548Y4506D01*
X1569Y4519D01*
X1589Y4506D01*
X1603Y4503D01*
X1615Y4477D01*
X1615Y4473D01*
X1058Y3916D01*
X857D01*
X856Y3918D01*
X836Y3932D01*
X812Y3936D01*
X789Y3932D01*
X769Y3918D01*
X756Y3898D01*
X751Y3875D01*
X756Y3852D01*
X769Y3832D01*
X789Y3818D01*
X812Y3814D01*
X836Y3818D01*
X856Y3832D01*
X857Y3834D01*
X1075D01*
X1075Y3834D01*
X1091Y3837D01*
X1104Y3846D01*
X1105Y3847D01*
X1109Y3845D01*
X1130Y3830D01*
X1126Y3812D01*
X1131Y3789D01*
X1144Y3769D01*
X1164Y3756D01*
X1188Y3751D01*
X1211Y3756D01*
X1231Y3769D01*
X1244Y3789D01*
X1249Y3812D01*
X1244Y3836D01*
X1231Y3856D01*
X1211Y3869D01*
X1188Y3874D01*
X1170Y3870D01*
X1155Y3891D01*
X1153Y3895D01*
X1525Y4267D01*
X1537Y4266D01*
X1559Y4259D01*
X1569Y4244D01*
X1589Y4231D01*
X1612Y4226D01*
X1636Y4231D01*
X1656Y4244D01*
X1669Y4264D01*
X1674Y4288D01*
X1669Y4311D01*
X1656Y4331D01*
X1641Y4341D01*
X1634Y4363D01*
X1633Y4375D01*
X1729Y4471D01*
X1738Y4484D01*
X1741Y4500D01*
X1741Y4500D01*
Y4538D01*
X1747Y4543D01*
X1782Y4544D01*
X1802Y4531D01*
X1825Y4526D01*
X1848Y4531D01*
X1852Y4533D01*
X1876Y4538D01*
X1890Y4525D01*
X1894Y4519D01*
X1914Y4506D01*
X1938Y4501D01*
X1961Y4506D01*
X1981Y4519D01*
X1994Y4539D01*
X1999Y4562D01*
X1994Y4586D01*
X1981Y4606D01*
X1961Y4619D01*
X1938Y4624D01*
X1914Y4619D01*
X1911Y4617D01*
X1887Y4612D01*
X1872Y4625D01*
X1868Y4631D01*
X1848Y4644D01*
X1825Y4649D01*
X1802Y4644D01*
X1782Y4631D01*
X1747Y4632D01*
X1741Y4637D01*
Y5075D01*
X1741Y5075D01*
X1738Y5091D01*
X1729Y5104D01*
X1686Y5147D01*
X1686Y5150D01*
X1682Y5173D01*
X1668Y5193D01*
X1648Y5207D01*
X1625Y5211D01*
X1602Y5207D01*
X1582Y5193D01*
X1555Y5207D01*
X1439Y5323D01*
Y5410D01*
X1469Y5419D01*
X1489Y5406D01*
X1512Y5401D01*
X1536Y5406D01*
X1556Y5419D01*
X1569Y5439D01*
X1574Y5462D01*
X1601Y5479D01*
X1611Y5481D01*
X1631Y5494D01*
X1644Y5514D01*
X1649Y5538D01*
X1644Y5561D01*
X1631Y5581D01*
X1611Y5594D01*
X1588Y5599D01*
X1564Y5594D01*
X1544Y5581D01*
X1531Y5561D01*
X1526Y5538D01*
X1499Y5521D01*
X1489Y5519D01*
X1469Y5506D01*
X1439Y5515D01*
Y5706D01*
X1469Y5727D01*
X1475Y5726D01*
X1498Y5731D01*
X1513Y5741D01*
X1519Y5732D01*
X1539Y5718D01*
X1562Y5714D01*
X1586Y5718D01*
X1606Y5732D01*
X1619Y5752D01*
X1624Y5775D01*
X1619Y5798D01*
X1617Y5802D01*
X1633Y5832D01*
X1742D01*
Y5788D01*
X1744Y5769D01*
X1751Y5752D01*
X1763Y5738D01*
X1777Y5726D01*
X1794Y5719D01*
X1812Y5717D01*
X1831Y5719D01*
X1848Y5726D01*
X1862Y5738D01*
X1874Y5752D01*
X1881Y5769D01*
X1883Y5788D01*
Y5832D01*
X1985D01*
X2001Y5812D01*
X2006Y5789D01*
X2019Y5769D01*
X2039Y5756D01*
X2062Y5751D01*
X2086Y5756D01*
X2106Y5769D01*
X2113Y5780D01*
X2144Y5772D01*
X2144Y5769D01*
X2151Y5752D01*
X2163Y5738D01*
X2177Y5726D01*
X2194Y5719D01*
X2212Y5717D01*
X2231Y5719D01*
X2248Y5726D01*
X2262Y5738D01*
X2274Y5752D01*
X2281Y5769D01*
X2283Y5788D01*
Y5856D01*
X2281Y5874D01*
X2274Y5891D01*
X2262Y5906D01*
X2216Y5952D01*
X2201Y5964D01*
X2184Y5971D01*
X2166Y5973D01*
X1439D01*
Y6135D01*
X1443Y6138D01*
X1469Y6144D01*
X1489Y6131D01*
X1512Y6126D01*
X1536Y6131D01*
X1540Y6134D01*
X1562Y6142D01*
X1585Y6134D01*
X1589Y6131D01*
X1612Y6126D01*
X1633Y6130D01*
X1645Y6120D01*
X1655Y6108D01*
X1651Y6088D01*
X1656Y6064D01*
X1669Y6044D01*
X1689Y6031D01*
X1712Y6026D01*
X1736Y6031D01*
X1756Y6044D01*
X1769Y6064D01*
X1774Y6088D01*
X1769Y6111D01*
X1766Y6115D01*
X1766Y6116D01*
X1772Y6126D01*
X1795Y6145D01*
X1814Y6131D01*
X1838Y6127D01*
X1861Y6131D01*
X1877Y6142D01*
X1881Y6145D01*
X1882Y6145D01*
X1885Y6146D01*
X1914Y6128D01*
X1914Y6125D01*
X1914Y6123D01*
X1918Y6102D01*
X1932Y6082D01*
X1952Y6068D01*
X1975Y6064D01*
X1998Y6068D01*
X2018Y6082D01*
X2027Y6095D01*
X2037Y6097D01*
X2051D01*
X2060Y6095D01*
X2069Y6082D01*
X2089Y6068D01*
X2112Y6064D01*
X2136Y6068D01*
X2156Y6082D01*
X2169Y6102D01*
X2188Y6126D01*
X2211Y6131D01*
X2231Y6144D01*
X2244Y6164D01*
X2249Y6188D01*
X2244Y6211D01*
X2231Y6231D01*
X2211Y6244D01*
X2188Y6249D01*
X2164Y6244D01*
X2144Y6231D01*
X2131Y6211D01*
X2128Y6207D01*
X2105Y6207D01*
X2097Y6208D01*
X2085Y6227D01*
X2065Y6240D01*
X2041Y6245D01*
X2018Y6240D01*
X1998Y6227D01*
X1985Y6207D01*
X1980Y6185D01*
X1975Y6186D01*
X1952Y6182D01*
X1936Y6171D01*
X1932Y6168D01*
X1931Y6168D01*
X1928Y6167D01*
X1899Y6185D01*
X1899Y6188D01*
X1899Y6190D01*
X1894Y6211D01*
X1881Y6231D01*
X1861Y6244D01*
X1838Y6249D01*
X1814Y6244D01*
X1795Y6231D01*
X1793Y6229D01*
X1757D01*
X1756Y6231D01*
X1736Y6244D01*
X1712Y6249D01*
X1689Y6244D01*
X1685Y6241D01*
X1662Y6233D01*
X1640Y6241D01*
X1636Y6244D01*
X1612Y6249D01*
X1589Y6244D01*
X1585Y6241D01*
X1562Y6233D01*
X1540Y6241D01*
X1536Y6244D01*
X1512Y6249D01*
X1489Y6244D01*
X1469Y6231D01*
X1439Y6240D01*
Y6981D01*
X1437Y7000D01*
X1430Y7017D01*
X1419Y7031D01*
X1296Y7154D01*
Y7188D01*
Y7500D01*
X1293Y7518D01*
X1286Y7535D01*
X1275Y7550D01*
X1260Y7561D01*
X1243Y7568D01*
X1225Y7571D01*
D02*
G37*
G36*
X312Y6061D02*
X289Y6057D01*
X269Y6043D01*
X256Y6023D01*
X251Y6000D01*
X256Y5977D01*
X269Y5957D01*
X289Y5943D01*
X312Y5939D01*
X336Y5943D01*
X356Y5957D01*
X369Y5977D01*
X374Y6000D01*
X369Y6023D01*
X356Y6043D01*
X336Y6057D01*
X312Y6061D01*
D02*
G37*
G36*
X9500Y5999D02*
X9477Y5994D01*
X9457Y5981D01*
X9443Y5961D01*
X9439Y5938D01*
X9443Y5914D01*
X9457Y5894D01*
X9477Y5881D01*
X9500Y5876D01*
X9523Y5881D01*
X9543Y5894D01*
X9557Y5914D01*
X9561Y5938D01*
X9557Y5961D01*
X9543Y5981D01*
X9523Y5994D01*
X9500Y5999D01*
D02*
G37*
G36*
X7750D02*
X7727Y5994D01*
X7707Y5981D01*
X7693Y5961D01*
X7689Y5938D01*
X7693Y5914D01*
X7707Y5894D01*
X7727Y5881D01*
X7750Y5876D01*
X7773Y5881D01*
X7793Y5894D01*
X7807Y5914D01*
X7811Y5938D01*
X7807Y5961D01*
X7793Y5981D01*
X7773Y5994D01*
X7750Y5999D01*
D02*
G37*
G36*
X5562D02*
X5539Y5994D01*
X5519Y5981D01*
X5506Y5961D01*
X5501Y5938D01*
X5506Y5914D01*
X5519Y5894D01*
X5539Y5881D01*
X5562Y5876D01*
X5586Y5881D01*
X5606Y5894D01*
X5619Y5914D01*
X5624Y5938D01*
X5619Y5961D01*
X5606Y5981D01*
X5586Y5994D01*
X5562Y5999D01*
D02*
G37*
G36*
X6250Y7061D02*
X6227Y7057D01*
X6207Y7043D01*
X6193Y7023D01*
X6188Y7000D01*
X6164Y6994D01*
X6144Y6981D01*
X6131Y6961D01*
X6126Y6938D01*
X6131Y6914D01*
X6144Y6894D01*
X6146Y6893D01*
Y6857D01*
X6144Y6856D01*
X6131Y6836D01*
X6126Y6812D01*
X6131Y6789D01*
X6144Y6769D01*
X6164Y6756D01*
X6188Y6751D01*
X6211Y6756D01*
X6231Y6769D01*
X6254Y6751D01*
X7042Y5963D01*
Y5768D01*
X7014Y5756D01*
X6554Y6216D01*
X6541Y6225D01*
X6525Y6228D01*
X6525Y6228D01*
X5982D01*
X5981Y6231D01*
X5961Y6244D01*
X5938Y6249D01*
X5914Y6244D01*
X5894Y6231D01*
X5881Y6211D01*
X5876Y6188D01*
X5881Y6164D01*
X5894Y6144D01*
X5914Y6131D01*
X5938Y6125D01*
X5943Y6102D01*
X5957Y6082D01*
X5977Y6068D01*
X6000Y6063D01*
X6006Y6039D01*
X6017Y6022D01*
X6006Y6006D01*
X6001Y5983D01*
X6006Y5959D01*
X6018Y5941D01*
X6006Y5923D01*
X6001Y5900D01*
X6005Y5883D01*
X6001Y5876D01*
X5965Y5866D01*
X5961Y5869D01*
X5938Y5874D01*
X5914Y5869D01*
X5894Y5856D01*
X5881Y5836D01*
X5876Y5812D01*
X5881Y5789D01*
X5887Y5780D01*
X5869Y5768D01*
X5856Y5748D01*
X5851Y5725D01*
X5856Y5702D01*
X5869Y5682D01*
X5889Y5669D01*
X5913Y5664D01*
X5928Y5667D01*
X5946Y5647D01*
X5948Y5643D01*
X5943Y5636D01*
X5939Y5612D01*
X5943Y5589D01*
X5946Y5585D01*
X5954Y5562D01*
X5946Y5540D01*
X5943Y5536D01*
X5939Y5512D01*
X5943Y5489D01*
X5956Y5469D01*
X5943Y5448D01*
X5939Y5425D01*
X5943Y5402D01*
X5946Y5397D01*
X5954Y5375D01*
X5946Y5353D01*
X5943Y5348D01*
X5939Y5325D01*
X5943Y5302D01*
X5957Y5282D01*
X5977Y5268D01*
X6000Y5264D01*
X6023Y5268D01*
X6043Y5282D01*
X6057Y5302D01*
X6061Y5325D01*
X6057Y5348D01*
X6054Y5353D01*
X6046Y5375D01*
X6054Y5397D01*
X6057Y5402D01*
X6061Y5425D01*
X6057Y5448D01*
X6044Y5469D01*
X6057Y5489D01*
X6061Y5512D01*
X6057Y5536D01*
X6054Y5540D01*
X6046Y5562D01*
X6054Y5585D01*
X6057Y5589D01*
X6061Y5612D01*
X6086Y5631D01*
X6106Y5644D01*
X6107Y5647D01*
X6646D01*
X6762Y5531D01*
Y5426D01*
X6732Y5417D01*
X6731Y5418D01*
X6711Y5432D01*
X6688Y5436D01*
X6664Y5432D01*
X6644Y5418D01*
X6631Y5398D01*
X6626Y5375D01*
X6631Y5352D01*
X6644Y5332D01*
X6664Y5318D01*
X6688Y5314D01*
X6711Y5318D01*
X6731Y5332D01*
X6732Y5333D01*
X6762Y5324D01*
Y3081D01*
X6732Y3060D01*
X6725Y3061D01*
X6702Y3057D01*
X6682Y3043D01*
X6668Y3023D01*
X6664Y3000D01*
X6668Y2977D01*
X6669Y2976D01*
Y2549D01*
X6668Y2548D01*
X6664Y2525D01*
X6668Y2502D01*
X6682Y2482D01*
X6702Y2468D01*
X6725Y2464D01*
X6748Y2468D01*
X6771Y2480D01*
X6791Y2464D01*
X7127Y2128D01*
X7126Y2125D01*
X7131Y2102D01*
X7144Y2082D01*
X7164Y2068D01*
X7188Y2064D01*
X7211Y2068D01*
X7231Y2082D01*
X7232Y2083D01*
X7270Y2088D01*
X7424Y1934D01*
X7424Y1934D01*
X7437Y1925D01*
X7453Y1922D01*
X7543D01*
X7544Y1919D01*
X7564Y1906D01*
X7588Y1901D01*
X7611Y1906D01*
X7631Y1919D01*
X7644Y1939D01*
X7649Y1962D01*
X7644Y1986D01*
X7668Y2004D01*
X7962Y1710D01*
Y1296D01*
X7957Y1293D01*
X7943Y1273D01*
X7939Y1250D01*
X7943Y1227D01*
X7957Y1207D01*
X7977Y1193D01*
X8000Y1189D01*
X8023Y1193D01*
X8043Y1207D01*
X8057Y1227D01*
X8061Y1250D01*
X8086Y1256D01*
X8106Y1269D01*
X8119Y1289D01*
X8124Y1312D01*
X8148Y1318D01*
X8168Y1332D01*
X8182Y1352D01*
X8186Y1375D01*
X8211Y1381D01*
X8231Y1394D01*
X8244Y1414D01*
X8249Y1438D01*
X8273Y1443D01*
X8293Y1457D01*
X8307Y1477D01*
X8311Y1500D01*
X8307Y1523D01*
X8293Y1543D01*
X8291Y1545D01*
Y1627D01*
X8318Y1639D01*
X8386Y1571D01*
X8394Y1543D01*
X8381Y1523D01*
X8376Y1500D01*
X8381Y1477D01*
X8394Y1457D01*
X8414Y1443D01*
X8438Y1439D01*
X8461Y1443D01*
X8481Y1457D01*
X8494Y1477D01*
X8499Y1500D01*
X8494Y1523D01*
X8481Y1543D01*
X8478Y1545D01*
Y1578D01*
X8478Y1578D01*
X8475Y1593D01*
X8466Y1606D01*
X8466Y1606D01*
X8196Y1876D01*
X8211Y1904D01*
X8225Y1901D01*
X8248Y1906D01*
X8268Y1919D01*
X8270Y1922D01*
X8805D01*
X8807Y1919D01*
X8827Y1906D01*
X8850Y1901D01*
X8873Y1906D01*
X8893Y1919D01*
X8895Y1922D01*
X9430D01*
X9432Y1919D01*
X9452Y1906D01*
X9475Y1901D01*
X9498Y1906D01*
X9518Y1919D01*
X9532Y1939D01*
X9536Y1962D01*
X9532Y1986D01*
X9518Y2006D01*
X9498Y2019D01*
X9475Y2024D01*
X9452Y2019D01*
X9432Y2006D01*
X9430Y2003D01*
X8895D01*
X8893Y2006D01*
X8873Y2019D01*
X8850Y2024D01*
X8827Y2019D01*
X8807Y2006D01*
X8805Y2003D01*
X8270D01*
X8268Y2006D01*
X8248Y2019D01*
X8225Y2024D01*
X8202Y2019D01*
X8182Y2006D01*
X8168Y1986D01*
X8164Y1962D01*
X8167Y1949D01*
X8139Y1934D01*
X7844Y2229D01*
X7850Y2265D01*
X7856Y2269D01*
X7857Y2272D01*
X8356D01*
X8376Y2250D01*
X8381Y2227D01*
X8394Y2207D01*
X8414Y2193D01*
X8438Y2189D01*
X8461Y2193D01*
X8481Y2207D01*
X8494Y2227D01*
X8499Y2250D01*
X8494Y2273D01*
X8481Y2293D01*
X8482Y2328D01*
X8487Y2334D01*
X8930D01*
X8932Y2332D01*
X8952Y2318D01*
X8975Y2314D01*
X8998Y2318D01*
X9018Y2332D01*
X9032Y2352D01*
X9036Y2375D01*
X9054Y2397D01*
X9558D01*
X9560Y2394D01*
X9580Y2381D01*
X9603Y2376D01*
X9626Y2381D01*
X9646Y2394D01*
X9660Y2414D01*
X9664Y2438D01*
X9660Y2461D01*
X9646Y2481D01*
X9626Y2494D01*
X9603Y2499D01*
X9594Y2523D01*
X9581Y2543D01*
X9561Y2557D01*
X9538Y2561D01*
X9514Y2557D01*
X9494Y2543D01*
X9493Y2541D01*
X8957D01*
X8956Y2543D01*
X8936Y2557D01*
X8912Y2561D01*
X8889Y2557D01*
X8869Y2543D01*
X8868Y2541D01*
X8332D01*
X8331Y2543D01*
X8311Y2557D01*
X8287Y2561D01*
X8264Y2557D01*
X8244Y2543D01*
X8242Y2541D01*
X7707D01*
X7706Y2543D01*
X7686Y2557D01*
X7662Y2561D01*
X7639Y2557D01*
X7619Y2543D01*
X7606Y2523D01*
X7604Y2512D01*
X7573Y2500D01*
X7573Y2500D01*
X7344Y2729D01*
X7350Y2765D01*
X7356Y2769D01*
X7357Y2772D01*
X7830D01*
X7832Y2769D01*
X7852Y2756D01*
X7875Y2751D01*
X7898Y2756D01*
X7918Y2769D01*
X7932Y2789D01*
X7936Y2812D01*
X7961Y2818D01*
X7981Y2832D01*
X7982Y2834D01*
X8018D01*
X8019Y2832D01*
X8039Y2818D01*
X8062Y2814D01*
X8086Y2818D01*
X8106Y2832D01*
X8107Y2834D01*
X8143D01*
X8144Y2832D01*
X8164Y2818D01*
X8188Y2814D01*
X8211Y2818D01*
X8231Y2832D01*
X8232Y2834D01*
X8268D01*
X8269Y2832D01*
X8289Y2818D01*
X8312Y2814D01*
X8336Y2818D01*
X8356Y2832D01*
X8369Y2852D01*
X8374Y2875D01*
X8369Y2898D01*
X8356Y2918D01*
X8336Y2932D01*
X8312Y2936D01*
X8289Y2932D01*
X8269Y2918D01*
X8268Y2916D01*
X8232D01*
X8231Y2918D01*
X8211Y2932D01*
X8188Y2936D01*
X8164Y2932D01*
X8144Y2918D01*
X8143Y2916D01*
X8107D01*
X8106Y2918D01*
X8086Y2932D01*
X8062Y2936D01*
X8039Y2932D01*
X8019Y2918D01*
X8018Y2916D01*
X7982D01*
X7981Y2918D01*
X7961Y2932D01*
X7938Y2936D01*
X7914Y2932D01*
X7894Y2918D01*
X7881Y2898D01*
X7876Y2875D01*
X7852Y2869D01*
X7832Y2856D01*
X7830Y2853D01*
X7766D01*
X7749Y2875D01*
X7744Y2898D01*
X7731Y2918D01*
X7711Y2932D01*
X7688Y2936D01*
X7664Y2932D01*
X7644Y2918D01*
X7643Y2916D01*
X7607D01*
X7606Y2918D01*
X7586Y2932D01*
X7562Y2936D01*
X7539Y2932D01*
X7526Y2923D01*
X7500Y2937D01*
X7499Y2938D01*
X7494Y2961D01*
X7481Y2981D01*
X7461Y2994D01*
X7438Y2999D01*
X7414Y2994D01*
X7394Y2981D01*
X7393Y2979D01*
X7357D01*
X7356Y2981D01*
X7336Y2994D01*
X7312Y2999D01*
X7289Y2994D01*
X7269Y2981D01*
X7256Y2961D01*
X7251Y2938D01*
X7256Y2914D01*
X7269Y2894D01*
X7271Y2893D01*
Y2857D01*
X7269Y2856D01*
X7265Y2850D01*
X7229Y2844D01*
X7203Y2870D01*
Y6019D01*
X7203Y6019D01*
X7200Y6035D01*
X7191Y6048D01*
X7191Y6048D01*
X6308Y6931D01*
X6293Y6957D01*
X6307Y6977D01*
X6311Y7000D01*
X6307Y7023D01*
X6293Y7043D01*
X6273Y7057D01*
X6250Y7061D01*
D02*
G37*
G36*
X312Y5874D02*
X289Y5869D01*
X269Y5856D01*
X256Y5836D01*
X251Y5812D01*
X256Y5789D01*
X269Y5769D01*
X256Y5748D01*
X251Y5725D01*
X255Y5705D01*
X245Y5692D01*
X233Y5682D01*
X212Y5686D01*
X189Y5682D01*
X169Y5668D01*
X156Y5648D01*
X151Y5625D01*
X156Y5602D01*
X159Y5597D01*
X167Y5575D01*
X159Y5553D01*
X156Y5548D01*
X151Y5525D01*
X156Y5502D01*
X159Y5497D01*
X167Y5475D01*
X159Y5453D01*
X156Y5448D01*
X151Y5425D01*
X156Y5402D01*
X169Y5382D01*
X189Y5368D01*
X212Y5364D01*
X236Y5368D01*
X256Y5382D01*
X269Y5402D01*
X274Y5425D01*
X269Y5448D01*
X266Y5453D01*
X258Y5475D01*
X266Y5497D01*
X269Y5502D01*
X274Y5525D01*
X269Y5548D01*
X266Y5553D01*
X258Y5575D01*
X266Y5597D01*
X269Y5602D01*
X274Y5625D01*
X270Y5645D01*
X280Y5658D01*
X292Y5668D01*
X312Y5664D01*
X336Y5668D01*
X356Y5682D01*
X369Y5702D01*
X374Y5725D01*
X369Y5748D01*
X356Y5769D01*
X369Y5789D01*
X374Y5812D01*
X369Y5836D01*
X356Y5856D01*
X336Y5869D01*
X312Y5874D01*
D02*
G37*
G36*
X4188Y5499D02*
X4164Y5494D01*
X4144Y5481D01*
X4135Y5466D01*
X4118Y5460D01*
X4100Y5460D01*
X4086Y5469D01*
X4062Y5474D01*
X4039Y5469D01*
X4019Y5456D01*
X4006Y5436D01*
X4001Y5412D01*
X4006Y5389D01*
X4019Y5369D01*
X4039Y5356D01*
X4062Y5351D01*
X4086Y5356D01*
X4106Y5369D01*
X4115Y5384D01*
X4132Y5390D01*
X4150Y5390D01*
X4164Y5381D01*
X4188Y5376D01*
X4211Y5381D01*
X4231Y5394D01*
X4244Y5414D01*
X4249Y5438D01*
X4244Y5461D01*
X4231Y5481D01*
X4211Y5494D01*
X4188Y5499D01*
D02*
G37*
G36*
X4550Y5474D02*
X4527Y5469D01*
X4506Y5456D01*
X4486Y5469D01*
X4462Y5474D01*
X4439Y5469D01*
X4419Y5456D01*
X4406Y5436D01*
X4401Y5412D01*
X4406Y5389D01*
X4419Y5369D01*
X4439Y5356D01*
X4462Y5351D01*
X4486Y5356D01*
X4506Y5369D01*
X4527Y5356D01*
X4550Y5351D01*
X4573Y5356D01*
X4593Y5369D01*
X4607Y5389D01*
X4611Y5412D01*
X4607Y5436D01*
X4593Y5456D01*
X4573Y5469D01*
X4550Y5474D01*
D02*
G37*
G36*
X3862D02*
X3839Y5469D01*
X3819Y5456D01*
X3809Y5441D01*
X3806Y5436D01*
X3774Y5431D01*
X3773Y5432D01*
X3750Y5436D01*
X3727Y5432D01*
X3707Y5418D01*
X3693Y5398D01*
X3689Y5375D01*
X3693Y5352D01*
X3707Y5332D01*
X3727Y5318D01*
X3750Y5314D01*
X3773Y5318D01*
X3793Y5332D01*
X3803Y5347D01*
X3807Y5352D01*
X3838Y5357D01*
X3839Y5356D01*
X3862Y5351D01*
X3886Y5356D01*
X3906Y5369D01*
X3919Y5389D01*
X3924Y5412D01*
X3919Y5436D01*
X3906Y5456D01*
X3886Y5469D01*
X3862Y5474D01*
D02*
G37*
G36*
X5012Y5461D02*
X4989Y5457D01*
X4969Y5443D01*
X4956Y5423D01*
X4951Y5400D01*
X4956Y5377D01*
X4969Y5357D01*
X4989Y5343D01*
X5012Y5339D01*
X5036Y5343D01*
X5056Y5357D01*
X5069Y5377D01*
X5074Y5400D01*
X5069Y5423D01*
X5056Y5443D01*
X5036Y5457D01*
X5012Y5461D01*
D02*
G37*
G36*
X9500Y5311D02*
X9477Y5307D01*
X9457Y5293D01*
X9443Y5273D01*
X9439Y5250D01*
X9443Y5227D01*
X9457Y5207D01*
X9477Y5193D01*
X9500Y5189D01*
X9523Y5193D01*
X9543Y5207D01*
X9557Y5227D01*
X9561Y5250D01*
X9557Y5273D01*
X9543Y5293D01*
X9523Y5307D01*
X9500Y5311D01*
D02*
G37*
G36*
X7750D02*
X7727Y5307D01*
X7707Y5293D01*
X7693Y5273D01*
X7689Y5250D01*
X7693Y5227D01*
X7707Y5207D01*
X7727Y5193D01*
X7750Y5189D01*
X7773Y5193D01*
X7793Y5207D01*
X7807Y5227D01*
X7811Y5250D01*
X7807Y5273D01*
X7793Y5293D01*
X7773Y5307D01*
X7750Y5311D01*
D02*
G37*
G36*
X4213Y5186D02*
X4189Y5182D01*
X4169Y5168D01*
X4156Y5148D01*
X4153Y5132D01*
X4122D01*
X4119Y5148D01*
X4106Y5168D01*
X4086Y5182D01*
X4062Y5186D01*
X4039Y5182D01*
X4035Y5179D01*
X4012Y5171D01*
X3990Y5179D01*
X3986Y5182D01*
X3962Y5186D01*
X3939Y5182D01*
X3919Y5168D01*
X3906Y5148D01*
X3903Y5132D01*
X3872D01*
X3869Y5148D01*
X3856Y5168D01*
X3836Y5182D01*
X3812Y5186D01*
X3789Y5182D01*
X3769Y5168D01*
X3756Y5148D01*
X3751Y5125D01*
X3756Y5102D01*
X3769Y5082D01*
X3789Y5068D01*
X3812Y5064D01*
X3836Y5068D01*
X3856Y5082D01*
X3869Y5102D01*
X3872Y5118D01*
X3903D01*
X3906Y5102D01*
X3919Y5082D01*
X3939Y5068D01*
X3962Y5064D01*
X3986Y5068D01*
X3990Y5071D01*
X4012Y5079D01*
X4035Y5071D01*
X4039Y5068D01*
X4062Y5064D01*
X4086Y5068D01*
X4106Y5082D01*
X4119Y5102D01*
X4122Y5118D01*
X4153D01*
X4156Y5102D01*
X4169Y5082D01*
X4189Y5069D01*
X4213Y5064D01*
X4236Y5069D01*
X4240Y5071D01*
X4263Y5079D01*
X4285Y5071D01*
X4289Y5068D01*
X4312Y5064D01*
X4336Y5068D01*
X4356Y5082D01*
X4369Y5102D01*
X4374Y5125D01*
X4369Y5148D01*
X4356Y5168D01*
X4336Y5182D01*
X4312Y5186D01*
X4289Y5182D01*
X4285Y5179D01*
X4262Y5171D01*
X4240Y5179D01*
X4236Y5182D01*
X4213Y5186D01*
D02*
G37*
G36*
X5750Y5249D02*
X5727Y5244D01*
X5707Y5231D01*
X5693Y5211D01*
X5689Y5188D01*
X5693Y5164D01*
X5707Y5144D01*
X5727Y5131D01*
X5750Y5126D01*
X5773Y5131D01*
X5793Y5144D01*
X5807Y5164D01*
X5811Y5188D01*
X5807Y5211D01*
X5793Y5231D01*
X5773Y5244D01*
X5750Y5249D01*
D02*
G37*
G36*
X863Y5924D02*
X839Y5919D01*
X819Y5906D01*
X806Y5886D01*
X801Y5863D01*
X806Y5839D01*
X819Y5819D01*
X806Y5798D01*
X801Y5775D01*
X806Y5752D01*
X809Y5747D01*
X817Y5725D01*
X809Y5703D01*
X806Y5698D01*
X801Y5675D01*
X806Y5652D01*
X809Y5647D01*
X817Y5625D01*
X809Y5603D01*
X806Y5598D01*
X801Y5575D01*
X806Y5552D01*
X809Y5547D01*
X817Y5525D01*
X809Y5503D01*
X806Y5498D01*
X801Y5475D01*
X806Y5452D01*
X809Y5447D01*
X817Y5425D01*
X809Y5403D01*
X806Y5398D01*
X801Y5375D01*
X806Y5352D01*
X809Y5347D01*
X817Y5325D01*
X809Y5303D01*
X806Y5298D01*
X801Y5275D01*
X806Y5252D01*
X809Y5247D01*
X817Y5225D01*
X809Y5203D01*
X806Y5198D01*
X801Y5175D01*
X806Y5152D01*
X819Y5132D01*
X839Y5118D01*
X862Y5114D01*
X886Y5118D01*
X906Y5132D01*
X919Y5152D01*
X924Y5175D01*
X919Y5198D01*
X916Y5203D01*
X908Y5225D01*
X916Y5247D01*
X919Y5252D01*
X924Y5275D01*
X919Y5298D01*
X916Y5303D01*
X908Y5325D01*
X916Y5347D01*
X919Y5352D01*
X924Y5375D01*
X919Y5398D01*
X916Y5403D01*
X908Y5425D01*
X916Y5447D01*
X919Y5452D01*
X924Y5475D01*
X919Y5498D01*
X916Y5503D01*
X908Y5525D01*
X916Y5547D01*
X919Y5552D01*
X924Y5575D01*
X919Y5598D01*
X916Y5603D01*
X908Y5625D01*
X916Y5647D01*
X919Y5652D01*
X924Y5675D01*
X919Y5698D01*
X916Y5703D01*
X908Y5725D01*
X916Y5747D01*
X919Y5752D01*
X924Y5775D01*
X919Y5798D01*
X906Y5818D01*
X919Y5839D01*
X924Y5863D01*
X919Y5886D01*
X906Y5906D01*
X886Y5919D01*
X863Y5924D01*
D02*
G37*
G36*
X5562Y5186D02*
X5539Y5182D01*
X5519Y5168D01*
X5506Y5148D01*
X5501Y5125D01*
X5506Y5102D01*
X5519Y5082D01*
X5539Y5068D01*
X5562Y5064D01*
X5586Y5068D01*
X5606Y5082D01*
X5619Y5102D01*
X5624Y5125D01*
X5619Y5148D01*
X5606Y5168D01*
X5586Y5182D01*
X5562Y5186D01*
D02*
G37*
G36*
X5062D02*
X5039Y5182D01*
X5019Y5168D01*
X5006Y5148D01*
X5001Y5125D01*
X5006Y5102D01*
X5019Y5082D01*
X5039Y5068D01*
X5062Y5064D01*
X5086Y5068D01*
X5106Y5082D01*
X5119Y5102D01*
X5124Y5125D01*
X5119Y5148D01*
X5106Y5168D01*
X5086Y5182D01*
X5062Y5186D01*
D02*
G37*
G36*
X4772D02*
X4749Y5182D01*
X4729Y5168D01*
X4716Y5148D01*
X4711Y5125D01*
X4716Y5102D01*
X4729Y5082D01*
X4749Y5068D01*
X4772Y5064D01*
X4796Y5068D01*
X4816Y5082D01*
X4829Y5102D01*
X4834Y5125D01*
X4829Y5148D01*
X4816Y5168D01*
X4796Y5182D01*
X4772Y5186D01*
D02*
G37*
G36*
X2675Y5224D02*
X2652Y5219D01*
X2632Y5206D01*
X2618Y5186D01*
X2614Y5162D01*
X2618Y5139D01*
X2621Y5135D01*
X2629Y5112D01*
X2621Y5090D01*
X2618Y5086D01*
X2614Y5062D01*
X2618Y5039D01*
X2632Y5018D01*
X2618Y4998D01*
X2614Y4975D01*
X2618Y4952D01*
X2632Y4932D01*
X2652Y4918D01*
X2675Y4914D01*
X2698Y4918D01*
X2718Y4932D01*
X2732Y4952D01*
X2736Y4975D01*
X2732Y4998D01*
X2718Y5019D01*
X2732Y5039D01*
X2736Y5062D01*
X2732Y5086D01*
X2729Y5090D01*
X2721Y5112D01*
X2729Y5135D01*
X2732Y5139D01*
X2736Y5162D01*
X2732Y5186D01*
X2718Y5206D01*
X2698Y5219D01*
X2675Y5224D01*
D02*
G37*
G36*
X2125Y5036D02*
X2102Y5032D01*
X2082Y5018D01*
X2068Y4998D01*
X2064Y4975D01*
X2068Y4952D01*
X2080Y4928D01*
X2067Y4908D01*
X2063Y4885D01*
X2067Y4862D01*
X2080Y4842D01*
X2100Y4828D01*
X2124Y4824D01*
X2147Y4828D01*
X2167Y4842D01*
X2180Y4862D01*
X2185Y4885D01*
X2180Y4908D01*
X2168Y4932D01*
X2182Y4952D01*
X2186Y4975D01*
X2182Y4998D01*
X2168Y5018D01*
X2148Y5032D01*
X2125Y5036D01*
D02*
G37*
G36*
X3375Y4874D02*
X3352Y4869D01*
X3332Y4856D01*
X3318Y4836D01*
X3314Y4812D01*
X3318Y4789D01*
X3332Y4769D01*
X3352Y4756D01*
X3375Y4751D01*
X3398Y4756D01*
X3418Y4769D01*
X3432Y4789D01*
X3436Y4812D01*
X3432Y4836D01*
X3418Y4856D01*
X3398Y4869D01*
X3375Y4874D01*
D02*
G37*
G36*
X1225Y4624D02*
X1202Y4619D01*
X1182Y4606D01*
X1168Y4586D01*
X1164Y4562D01*
X1168Y4539D01*
X1182Y4519D01*
X1202Y4506D01*
X1225Y4501D01*
X1248Y4506D01*
X1268Y4519D01*
X1282Y4539D01*
X1286Y4562D01*
X1282Y4586D01*
X1268Y4606D01*
X1248Y4619D01*
X1225Y4624D01*
D02*
G37*
G36*
X9500Y4624D02*
X9477Y4619D01*
X9457Y4606D01*
X9443Y4586D01*
X9439Y4562D01*
X9443Y4539D01*
X9457Y4519D01*
X9477Y4506D01*
X9500Y4501D01*
X9523Y4506D01*
X9543Y4519D01*
X9557Y4539D01*
X9561Y4562D01*
X9557Y4586D01*
X9543Y4606D01*
X9523Y4619D01*
X9500Y4624D01*
D02*
G37*
G36*
X7750D02*
X7727Y4619D01*
X7707Y4606D01*
X7693Y4586D01*
X7689Y4562D01*
X7693Y4539D01*
X7707Y4519D01*
X7727Y4506D01*
X7750Y4501D01*
X7773Y4506D01*
X7793Y4519D01*
X7807Y4539D01*
X7811Y4562D01*
X7807Y4586D01*
X7793Y4606D01*
X7773Y4619D01*
X7750Y4624D01*
D02*
G37*
G36*
X2125Y4749D02*
X2102Y4744D01*
X2082Y4731D01*
X2068Y4711D01*
X2064Y4688D01*
X2068Y4664D01*
X2082Y4644D01*
X2084Y4643D01*
Y4607D01*
X2082Y4606D01*
X2068Y4586D01*
X2064Y4562D01*
X2068Y4539D01*
X2082Y4519D01*
X2102Y4506D01*
X2125Y4501D01*
X2148Y4506D01*
X2168Y4519D01*
X2182Y4539D01*
X2186Y4562D01*
X2211Y4568D01*
X2231Y4582D01*
X2244Y4602D01*
X2249Y4625D01*
X2244Y4648D01*
X2231Y4668D01*
X2211Y4682D01*
X2186Y4688D01*
X2182Y4711D01*
X2168Y4731D01*
X2148Y4744D01*
X2125Y4749D01*
D02*
G37*
G36*
X312Y4986D02*
X289Y4982D01*
X269Y4968D01*
X256Y4948D01*
X251Y4925D01*
X256Y4902D01*
X259Y4897D01*
X267Y4875D01*
X259Y4853D01*
X256Y4848D01*
X251Y4825D01*
X256Y4802D01*
X259Y4797D01*
X267Y4775D01*
X259Y4753D01*
X256Y4748D01*
X251Y4725D01*
X253Y4715D01*
X251Y4698D01*
X233Y4683D01*
X227Y4682D01*
X207Y4668D01*
X193Y4648D01*
X189Y4625D01*
X164Y4619D01*
X144Y4606D01*
X131Y4586D01*
X126Y4562D01*
X102Y4557D01*
X82Y4543D01*
X68Y4523D01*
X64Y4500D01*
X68Y4477D01*
X82Y4457D01*
X102Y4443D01*
X125Y4439D01*
X148Y4443D01*
X168Y4457D01*
X182Y4477D01*
X187Y4500D01*
X211Y4506D01*
X231Y4519D01*
X244Y4539D01*
X249Y4562D01*
X273Y4568D01*
X293Y4582D01*
X307Y4602D01*
X311Y4625D01*
X309Y4635D01*
X311Y4652D01*
X330Y4667D01*
X336Y4668D01*
X356Y4682D01*
X369Y4702D01*
X374Y4725D01*
X369Y4748D01*
X366Y4753D01*
X358Y4775D01*
X366Y4797D01*
X369Y4802D01*
X374Y4825D01*
X369Y4848D01*
X366Y4853D01*
X358Y4875D01*
X366Y4897D01*
X369Y4902D01*
X374Y4925D01*
X369Y4948D01*
X356Y4968D01*
X336Y4982D01*
X312Y4986D01*
D02*
G37*
G36*
X4398Y4348D02*
X4296D01*
Y4245D01*
X4304Y4246D01*
X4336Y4259D01*
X4363Y4280D01*
X4384Y4307D01*
X4397Y4339D01*
X4398Y4348D01*
D02*
G37*
G36*
X1939Y4312D02*
X1916Y4307D01*
X1896Y4294D01*
X1882Y4274D01*
X1878Y4251D01*
X1882Y4227D01*
X1896Y4208D01*
X1916Y4194D01*
X1939Y4190D01*
X1962Y4194D01*
X1982Y4208D01*
X1995Y4227D01*
X2000Y4251D01*
X1995Y4274D01*
X1982Y4294D01*
X1962Y4307D01*
X1939Y4312D01*
D02*
G37*
G36*
X2750Y4311D02*
X2727Y4307D01*
X2707Y4293D01*
X2693Y4273D01*
X2689Y4250D01*
X2693Y4227D01*
X2707Y4207D01*
X2727Y4193D01*
X2750Y4189D01*
X2773Y4193D01*
X2793Y4207D01*
X2807Y4227D01*
X2811Y4250D01*
X2807Y4273D01*
X2793Y4293D01*
X2773Y4307D01*
X2750Y4311D01*
D02*
G37*
G36*
X2262D02*
X2239Y4307D01*
X2219Y4293D01*
X2206Y4273D01*
X2201Y4250D01*
X2206Y4227D01*
X2219Y4207D01*
X2239Y4193D01*
X2262Y4189D01*
X2286Y4193D01*
X2306Y4207D01*
X2319Y4227D01*
X2324Y4250D01*
X2319Y4273D01*
X2306Y4293D01*
X2286Y4307D01*
X2262Y4311D01*
D02*
G37*
G36*
X312Y4374D02*
X289Y4369D01*
X269Y4356D01*
X256Y4336D01*
X251Y4312D01*
X256Y4289D01*
X269Y4269D01*
X256Y4248D01*
X251Y4225D01*
X256Y4202D01*
X259Y4197D01*
X267Y4175D01*
X259Y4153D01*
X256Y4148D01*
X251Y4125D01*
X256Y4102D01*
X259Y4097D01*
X267Y4075D01*
X259Y4053D01*
X256Y4048D01*
X251Y4025D01*
X256Y4002D01*
X269Y3982D01*
X289Y3968D01*
X312Y3964D01*
X336Y3968D01*
X356Y3982D01*
X369Y4002D01*
X374Y4025D01*
X369Y4048D01*
X366Y4053D01*
X358Y4075D01*
X366Y4097D01*
X369Y4102D01*
X374Y4125D01*
X369Y4148D01*
X366Y4153D01*
X358Y4175D01*
X366Y4197D01*
X369Y4202D01*
X374Y4225D01*
X369Y4248D01*
X356Y4269D01*
X369Y4289D01*
X374Y4312D01*
X369Y4336D01*
X356Y4356D01*
X336Y4369D01*
X312Y4374D01*
D02*
G37*
G36*
X2375Y4024D02*
X2352Y4019D01*
X2332Y4006D01*
X2318Y3986D01*
X2314Y3962D01*
X2318Y3939D01*
X2332Y3919D01*
X2352Y3906D01*
X2375Y3901D01*
X2398Y3906D01*
X2418Y3919D01*
X2432Y3939D01*
X2436Y3962D01*
X2432Y3986D01*
X2418Y4006D01*
X2398Y4019D01*
X2375Y4024D01*
D02*
G37*
G36*
X9500Y3936D02*
X9477Y3932D01*
X9457Y3918D01*
X9443Y3898D01*
X9439Y3875D01*
X9443Y3852D01*
X9457Y3832D01*
X9477Y3818D01*
X9500Y3814D01*
X9523Y3818D01*
X9543Y3832D01*
X9557Y3852D01*
X9561Y3875D01*
X9557Y3898D01*
X9543Y3918D01*
X9523Y3932D01*
X9500Y3936D01*
D02*
G37*
G36*
X7875D02*
X7852Y3932D01*
X7832Y3918D01*
X7818Y3898D01*
X7814Y3875D01*
X7818Y3852D01*
X7832Y3832D01*
X7852Y3818D01*
X7875Y3814D01*
X7898Y3818D01*
X7918Y3832D01*
X7932Y3852D01*
X7936Y3875D01*
X7932Y3898D01*
X7918Y3918D01*
X7898Y3932D01*
X7875Y3936D01*
D02*
G37*
G36*
X493Y3369D02*
Y3292D01*
X570D01*
X570Y3294D01*
X559Y3319D01*
X542Y3341D01*
X520Y3358D01*
X495Y3369D01*
X493Y3369D01*
D02*
G37*
G36*
X443Y3369D02*
X440Y3369D01*
X415Y3358D01*
X393Y3341D01*
X376Y3319D01*
X365Y3294D01*
X365Y3292D01*
X443D01*
Y3369D01*
D02*
G37*
G36*
X1512Y3974D02*
X1489Y3969D01*
X1469Y3956D01*
X1456Y3936D01*
X1451Y3912D01*
X1456Y3889D01*
X1456Y3888D01*
Y3874D01*
X1456Y3873D01*
X1451Y3850D01*
X1456Y3827D01*
X1457Y3824D01*
Y3454D01*
X1457Y3453D01*
X1452Y3430D01*
X1456Y3409D01*
Y3161D01*
X602Y2307D01*
X602Y2307D01*
X582Y2293D01*
X568Y2273D01*
X565Y2258D01*
X543Y2248D01*
X543Y2248D01*
X535Y2247D01*
X515Y2262D01*
X490Y2273D01*
X462Y2276D01*
X435Y2273D01*
X410Y2262D01*
X388Y2245D01*
X371Y2223D01*
X360Y2198D01*
X357Y2170D01*
X360Y2143D01*
X371Y2118D01*
X388Y2096D01*
X410Y2079D01*
X435Y2068D01*
X462Y2065D01*
X490Y2068D01*
X515Y2079D01*
X532Y2055D01*
X494Y2017D01*
X490Y2019D01*
X462Y2022D01*
X435Y2019D01*
X410Y2008D01*
X388Y1991D01*
X371Y1969D01*
X360Y1944D01*
X357Y1917D01*
X360Y1889D01*
X371Y1864D01*
X388Y1842D01*
X410Y1825D01*
X435Y1814D01*
X462Y1811D01*
X490Y1814D01*
X515Y1825D01*
X537Y1842D01*
X554Y1864D01*
X565Y1889D01*
X568Y1917D01*
X565Y1944D01*
X563Y1948D01*
X1691Y3077D01*
X2739D01*
X2752Y3068D01*
X2775Y3064D01*
X2798Y3068D01*
X2818Y3082D01*
X2832Y3102D01*
X2836Y3125D01*
X2832Y3148D01*
X2818Y3168D01*
X2798Y3182D01*
X2775Y3186D01*
X2752Y3182D01*
X2739Y3173D01*
X2372D01*
X2363Y3203D01*
X2368Y3207D01*
X2382Y3227D01*
X2386Y3250D01*
X2382Y3273D01*
X2368Y3293D01*
X2348Y3307D01*
X2325Y3311D01*
X2302Y3307D01*
X2282Y3293D01*
X2268Y3273D01*
X2264Y3250D01*
X2268Y3227D01*
X2282Y3207D01*
X2287Y3203D01*
X2278Y3173D01*
X1724D01*
X1709Y3198D01*
X1719Y3227D01*
X1736Y3231D01*
X1756Y3244D01*
X1769Y3264D01*
X1774Y3288D01*
X1769Y3311D01*
X1756Y3331D01*
X1736Y3344D01*
X1712Y3349D01*
X1689Y3344D01*
X1669Y3331D01*
X1656Y3311D01*
X1650Y3287D01*
X1627Y3282D01*
X1607Y3268D01*
X1599Y3256D01*
X1569Y3265D01*
Y3404D01*
X1570Y3406D01*
X1575Y3430D01*
X1570Y3453D01*
X1570Y3454D01*
Y3830D01*
X1574Y3850D01*
X1579Y3856D01*
X2052D01*
X2069Y3839D01*
Y3337D01*
X2068Y3336D01*
X2064Y3312D01*
X2068Y3289D01*
X2082Y3269D01*
X2102Y3256D01*
X2125Y3251D01*
X2148Y3256D01*
X2168Y3269D01*
X2182Y3289D01*
X2186Y3312D01*
X2182Y3336D01*
X2181Y3337D01*
Y3862D01*
X2177Y3884D01*
X2165Y3902D01*
X2115Y3952D01*
X2096Y3964D01*
X2075Y3969D01*
X1537D01*
X1536Y3969D01*
X1512Y3974D01*
D02*
G37*
G36*
X4188Y3383D02*
X4125D01*
X4107Y3381D01*
X4090Y3374D01*
X4075Y3362D01*
X4064Y3348D01*
X4057Y3331D01*
X4054Y3312D01*
X4057Y3294D01*
X4064Y3277D01*
X4075Y3263D01*
X4090Y3251D01*
X4107Y3244D01*
X4125Y3242D01*
X4188D01*
X4206Y3244D01*
X4223Y3251D01*
X4237Y3263D01*
X4249Y3277D01*
X4256Y3294D01*
X4258Y3312D01*
X4256Y3331D01*
X4249Y3348D01*
X4237Y3362D01*
X4223Y3374D01*
X4206Y3381D01*
X4188Y3383D01*
D02*
G37*
G36*
X570Y3242D02*
X493D01*
Y3164D01*
X495Y3164D01*
X520Y3175D01*
X542Y3192D01*
X559Y3214D01*
X570Y3239D01*
X570Y3242D01*
D02*
G37*
G36*
X443D02*
X365D01*
X365Y3239D01*
X376Y3214D01*
X393Y3192D01*
X415Y3175D01*
X440Y3164D01*
X443Y3164D01*
Y3242D01*
D02*
G37*
G36*
X1188Y3361D02*
X1164Y3357D01*
X1144Y3343D01*
X1131Y3323D01*
X1126Y3300D01*
X1131Y3277D01*
X1142Y3260D01*
X1131Y3243D01*
X1126Y3220D01*
X1131Y3197D01*
X1144Y3177D01*
X1164Y3163D01*
X1188Y3159D01*
X1211Y3163D01*
X1231Y3177D01*
X1244Y3197D01*
X1249Y3220D01*
X1244Y3243D01*
X1233Y3260D01*
X1244Y3277D01*
X1249Y3300D01*
X1244Y3323D01*
X1231Y3343D01*
X1211Y3357D01*
X1188Y3361D01*
D02*
G37*
G36*
X9500Y3249D02*
X9477Y3244D01*
X9457Y3231D01*
X9443Y3211D01*
X9439Y3188D01*
X9443Y3164D01*
X9457Y3144D01*
X9477Y3131D01*
X9500Y3126D01*
X9523Y3131D01*
X9543Y3144D01*
X9557Y3164D01*
X9561Y3188D01*
X9557Y3211D01*
X9543Y3231D01*
X9523Y3244D01*
X9500Y3249D01*
D02*
G37*
G36*
X8000D02*
X7977Y3244D01*
X7957Y3231D01*
X7943Y3211D01*
X7939Y3188D01*
X7943Y3164D01*
X7957Y3144D01*
X7977Y3131D01*
X8000Y3126D01*
X8023Y3131D01*
X8043Y3144D01*
X8057Y3164D01*
X8061Y3188D01*
X8057Y3211D01*
X8043Y3231D01*
X8023Y3244D01*
X8000Y3249D01*
D02*
G37*
G36*
X5575Y3124D02*
X5552Y3119D01*
X5532Y3106D01*
X5511Y3119D01*
X5488Y3124D01*
X5464Y3119D01*
X5444Y3106D01*
X5443Y3104D01*
X5407D01*
X5406Y3106D01*
X5386Y3119D01*
X5362Y3124D01*
X5339Y3119D01*
X5319Y3106D01*
X5306Y3086D01*
X5301Y3062D01*
X5306Y3039D01*
X5319Y3019D01*
X5339Y3006D01*
X5362Y3001D01*
X5386Y3006D01*
X5406Y3019D01*
X5407Y3021D01*
X5443D01*
X5444Y3019D01*
X5464Y3006D01*
X5488Y3001D01*
X5511Y3006D01*
X5532Y3019D01*
X5552Y3006D01*
X5575Y3001D01*
X5598Y3006D01*
X5618Y3019D01*
X5632Y3039D01*
X5636Y3063D01*
X5632Y3086D01*
X5618Y3106D01*
X5598Y3119D01*
X5575Y3124D01*
D02*
G37*
G36*
X9625Y2936D02*
X9602Y2932D01*
X9582Y2918D01*
X9581Y2916D01*
X9544D01*
X9543Y2918D01*
X9523Y2932D01*
X9500Y2936D01*
X9477Y2932D01*
X9457Y2918D01*
X9456Y2916D01*
X9419D01*
X9418Y2918D01*
X9398Y2932D01*
X9375Y2936D01*
X9352Y2932D01*
X9332Y2918D01*
X9331Y2916D01*
X9294D01*
X9293Y2918D01*
X9273Y2932D01*
X9250Y2936D01*
X9227Y2932D01*
X9207Y2918D01*
X9193Y2898D01*
X9189Y2875D01*
X9193Y2852D01*
X9207Y2832D01*
X9227Y2818D01*
X9250Y2814D01*
X9273Y2818D01*
X9293Y2832D01*
X9294Y2834D01*
X9331D01*
X9332Y2832D01*
X9352Y2818D01*
X9375Y2814D01*
X9398Y2818D01*
X9418Y2832D01*
X9419Y2834D01*
X9456D01*
X9457Y2832D01*
X9477Y2818D01*
X9500Y2814D01*
X9523Y2818D01*
X9543Y2832D01*
X9544Y2834D01*
X9581D01*
X9582Y2832D01*
X9602Y2818D01*
X9625Y2814D01*
X9648Y2818D01*
X9668Y2832D01*
X9682Y2852D01*
X9686Y2875D01*
X9682Y2898D01*
X9668Y2918D01*
X9648Y2932D01*
X9625Y2936D01*
D02*
G37*
G36*
X8875D02*
X8852Y2932D01*
X8832Y2918D01*
X8831Y2916D01*
X8794D01*
X8793Y2918D01*
X8773Y2932D01*
X8750Y2936D01*
X8727Y2932D01*
X8707Y2918D01*
X8706Y2916D01*
X8669D01*
X8668Y2918D01*
X8648Y2932D01*
X8625Y2936D01*
X8602Y2932D01*
X8582Y2918D01*
X8568Y2898D01*
X8564Y2875D01*
X8568Y2852D01*
X8582Y2832D01*
X8602Y2818D01*
X8625Y2814D01*
X8648Y2818D01*
X8668Y2832D01*
X8669Y2834D01*
X8706D01*
X8707Y2832D01*
X8727Y2818D01*
X8750Y2814D01*
X8773Y2818D01*
X8793Y2832D01*
X8794Y2834D01*
X8831D01*
X8832Y2832D01*
X8852Y2818D01*
X8875Y2814D01*
X8898Y2818D01*
X8917Y2831D01*
X8918Y2832D01*
X8954Y2831D01*
X8955Y2830D01*
X8974Y2816D01*
X8998Y2812D01*
X9021Y2816D01*
X9041Y2830D01*
X9054Y2849D01*
X9059Y2873D01*
X9054Y2896D01*
X9041Y2916D01*
X9021Y2929D01*
X8998Y2934D01*
X8974Y2929D01*
X8955Y2917D01*
X8955Y2916D01*
X8919Y2917D01*
X8918Y2918D01*
X8898Y2932D01*
X8875Y2936D01*
D02*
G37*
G36*
X468Y3118D02*
X440Y3115D01*
X415Y3104D01*
X393Y3087D01*
X376Y3065D01*
X365Y3040D01*
X362Y3012D01*
X365Y2985D01*
X376Y2960D01*
X393Y2938D01*
X415Y2921D01*
X440Y2910D01*
X468Y2907D01*
X495Y2910D01*
X520Y2921D01*
X542Y2938D01*
X559Y2960D01*
X570Y2985D01*
X573Y3012D01*
X570Y3040D01*
X559Y3065D01*
X542Y3087D01*
X520Y3104D01*
X495Y3115D01*
X468Y3118D01*
D02*
G37*
G36*
X2388Y2999D02*
X2364Y2994D01*
X2344Y2981D01*
X2331Y2961D01*
X2326Y2938D01*
X2331Y2914D01*
X2331Y2913D01*
Y2853D01*
X2301Y2844D01*
X2293Y2856D01*
X2273Y2869D01*
X2250Y2874D01*
X2227Y2869D01*
X2207Y2856D01*
X2193Y2836D01*
X2189Y2812D01*
X2193Y2789D01*
X2201Y2778D01*
X2212Y2753D01*
Y2753D01*
X2212D01*
Y2709D01*
X2208Y2708D01*
X2202Y2707D01*
X2182Y2693D01*
X2168Y2673D01*
X2164Y2650D01*
X2168Y2627D01*
X2182Y2607D01*
X2199Y2595D01*
X2193Y2586D01*
X2189Y2562D01*
X2193Y2539D01*
X2207Y2519D01*
X2227Y2506D01*
X2250Y2501D01*
X2273Y2506D01*
X2293Y2519D01*
X2300Y2529D01*
X2322Y2527D01*
X2332Y2525D01*
X2344Y2507D01*
X2364Y2493D01*
X2388Y2489D01*
X2411Y2493D01*
X2431Y2507D01*
X2444Y2527D01*
X2449Y2550D01*
X2444Y2573D01*
X2444Y2574D01*
Y2913D01*
X2444Y2914D01*
X2449Y2938D01*
X2444Y2961D01*
X2431Y2981D01*
X2411Y2994D01*
X2388Y2999D01*
D02*
G37*
G36*
X662Y2874D02*
X639Y2869D01*
X619Y2856D01*
X606Y2836D01*
X603Y2818D01*
X572Y2821D01*
Y2864D01*
X362D01*
Y2653D01*
X572D01*
Y2804D01*
X603Y2807D01*
X606Y2789D01*
X619Y2769D01*
X639Y2756D01*
X662Y2751D01*
X686Y2756D01*
X706Y2769D01*
X719Y2789D01*
X724Y2812D01*
X719Y2836D01*
X706Y2856D01*
X686Y2869D01*
X662Y2874D01*
D02*
G37*
G36*
X1638Y2866D02*
X1614Y2862D01*
X1594Y2848D01*
X1581Y2828D01*
X1576Y2805D01*
X1581Y2782D01*
X1594Y2762D01*
X1601Y2757D01*
Y2723D01*
X1594Y2718D01*
X1581Y2698D01*
X1576Y2675D01*
X1581Y2652D01*
X1594Y2632D01*
X1614Y2618D01*
X1637Y2614D01*
X1636Y2612D01*
X1641Y2589D01*
X1654Y2569D01*
X1674Y2556D01*
X1698Y2551D01*
X1721Y2556D01*
X1741Y2569D01*
X1754Y2589D01*
X1759Y2612D01*
X1754Y2636D01*
X1741Y2656D01*
X1739Y2657D01*
Y2693D01*
X1741Y2694D01*
X1754Y2714D01*
X1759Y2738D01*
X1754Y2761D01*
X1741Y2781D01*
X1721Y2794D01*
X1699Y2805D01*
X1694Y2828D01*
X1681Y2848D01*
X1661Y2862D01*
X1638Y2866D01*
D02*
G37*
G36*
X6212Y2599D02*
X6189Y2594D01*
X6169Y2581D01*
X6156Y2561D01*
X6151Y2538D01*
X6152Y2536D01*
X6126Y2511D01*
X6125Y2511D01*
X6102Y2507D01*
X6082Y2493D01*
X6068Y2473D01*
X6064Y2450D01*
X6068Y2427D01*
X6082Y2407D01*
X6102Y2393D01*
X6125Y2389D01*
X6148Y2393D01*
X6149Y2394D01*
X6288D01*
X6289Y2393D01*
X6312Y2389D01*
X6336Y2393D01*
X6356Y2407D01*
X6369Y2427D01*
X6374Y2450D01*
X6369Y2473D01*
X6356Y2493D01*
X6336Y2507D01*
X6312Y2511D01*
X6298Y2508D01*
X6281Y2522D01*
X6273Y2536D01*
X6274Y2538D01*
X6269Y2561D01*
X6256Y2581D01*
X6236Y2594D01*
X6212Y2599D01*
D02*
G37*
G36*
X3825Y3058D02*
X3625D01*
X3607Y3056D01*
X3590Y3049D01*
X3575Y3037D01*
X3564Y3023D01*
X3557Y3006D01*
X3554Y2988D01*
X3557Y2969D01*
X3564Y2952D01*
X3575Y2938D01*
X3590Y2926D01*
X3607Y2919D01*
X3625Y2917D01*
X3796D01*
X4067Y2646D01*
Y2525D01*
X4069Y2507D01*
X4076Y2490D01*
X4088Y2475D01*
X4102Y2464D01*
X4119Y2457D01*
X4138Y2454D01*
X4156Y2457D01*
X4173Y2464D01*
X4187Y2475D01*
X4199Y2490D01*
X4206Y2507D01*
X4208Y2525D01*
Y2588D01*
Y2675D01*
X4206Y2693D01*
X4199Y2710D01*
X4187Y2725D01*
X3875Y3037D01*
X3860Y3049D01*
X3843Y3056D01*
X3825Y3058D01*
D02*
G37*
G36*
X188Y2561D02*
X164Y2557D01*
X144Y2543D01*
X131Y2523D01*
X126Y2500D01*
X131Y2477D01*
X144Y2457D01*
X164Y2443D01*
X188Y2439D01*
X211Y2443D01*
X231Y2457D01*
X244Y2477D01*
X249Y2500D01*
X244Y2523D01*
X231Y2543D01*
X211Y2557D01*
X188Y2561D01*
D02*
G37*
G36*
X2418Y2436D02*
X2394Y2432D01*
X2375Y2418D01*
X2368D01*
X2348Y2432D01*
X2325Y2436D01*
X2302Y2432D01*
X2282Y2418D01*
X2268Y2398D01*
X2264Y2375D01*
X2268Y2352D01*
X2282Y2332D01*
X2302Y2318D01*
X2325Y2314D01*
X2348Y2318D01*
X2368Y2332D01*
X2375D01*
X2394Y2318D01*
X2418Y2314D01*
X2441Y2318D01*
X2461Y2332D01*
X2474Y2352D01*
X2479Y2375D01*
X2474Y2398D01*
X2461Y2418D01*
X2441Y2432D01*
X2418Y2436D01*
D02*
G37*
G36*
X2688Y2474D02*
X2664Y2469D01*
X2644Y2456D01*
X2631Y2436D01*
X2626Y2412D01*
X2631Y2389D01*
X2644Y2369D01*
X2664Y2356D01*
X2688Y2351D01*
X2711Y2356D01*
X2731Y2369D01*
X2744Y2389D01*
X2749Y2412D01*
X2744Y2436D01*
X2731Y2456D01*
X2711Y2469D01*
X2688Y2474D01*
D02*
G37*
G36*
X1362Y2449D02*
X1339Y2444D01*
X1319Y2431D01*
X1306Y2411D01*
X1301Y2388D01*
X1306Y2364D01*
X1319Y2344D01*
X1339Y2331D01*
X1362Y2326D01*
X1386Y2331D01*
X1406Y2344D01*
X1419Y2364D01*
X1424Y2388D01*
X1419Y2411D01*
X1406Y2431D01*
X1386Y2444D01*
X1362Y2449D01*
D02*
G37*
G36*
X1150D02*
X1127Y2444D01*
X1107Y2431D01*
X1093Y2411D01*
X1089Y2388D01*
X1093Y2364D01*
X1107Y2344D01*
X1127Y2331D01*
X1150Y2326D01*
X1173Y2331D01*
X1193Y2344D01*
X1207Y2364D01*
X1211Y2388D01*
X1207Y2411D01*
X1193Y2431D01*
X1173Y2444D01*
X1150Y2449D01*
D02*
G37*
G36*
X462Y2530D02*
X435Y2527D01*
X410Y2516D01*
X388Y2499D01*
X371Y2477D01*
X360Y2452D01*
X357Y2425D01*
X360Y2397D01*
X371Y2372D01*
X388Y2350D01*
X410Y2333D01*
X435Y2322D01*
X462Y2319D01*
X490Y2322D01*
X515Y2333D01*
X537Y2350D01*
X554Y2372D01*
X565Y2397D01*
X568Y2425D01*
X565Y2452D01*
X554Y2477D01*
X537Y2499D01*
X515Y2516D01*
X490Y2527D01*
X462Y2530D01*
D02*
G37*
G36*
X9688Y2311D02*
X9664Y2307D01*
X9644Y2293D01*
X9643Y2291D01*
X9107D01*
X9106Y2293D01*
X9086Y2307D01*
X9062Y2311D01*
X9039Y2307D01*
X9019Y2293D01*
X9006Y2273D01*
X9001Y2250D01*
X9006Y2227D01*
X9019Y2207D01*
X9039Y2193D01*
X9055Y2190D01*
Y2160D01*
X9039Y2157D01*
X9019Y2143D01*
X9018Y2141D01*
X8507D01*
X8506Y2143D01*
X8486Y2157D01*
X8462Y2161D01*
X8439Y2157D01*
X8419Y2143D01*
X8406Y2123D01*
X8401Y2100D01*
X8406Y2077D01*
X8419Y2057D01*
X8439Y2043D01*
X8462Y2039D01*
X8486Y2043D01*
X8506Y2057D01*
X8507Y2059D01*
X9018D01*
X9019Y2057D01*
X9039Y2043D01*
X9062Y2039D01*
X9086Y2043D01*
X9106Y2057D01*
X9119Y2077D01*
X9124Y2100D01*
X9119Y2123D01*
X9106Y2143D01*
X9086Y2157D01*
X9070Y2160D01*
Y2190D01*
X9086Y2193D01*
X9106Y2207D01*
X9107Y2209D01*
X9643D01*
X9644Y2207D01*
X9664Y2193D01*
X9688Y2189D01*
X9711Y2193D01*
X9731Y2207D01*
X9744Y2227D01*
X9749Y2250D01*
X9744Y2273D01*
X9731Y2293D01*
X9711Y2307D01*
X9688Y2311D01*
D02*
G37*
G36*
X1958Y2609D02*
X1934Y2604D01*
X1914Y2591D01*
X1901Y2571D01*
X1896Y2548D01*
X1901Y2524D01*
X1914Y2504D01*
X1934Y2491D01*
X1941Y2490D01*
X1947Y2458D01*
X1944Y2456D01*
X1931Y2436D01*
X1926Y2412D01*
X1931Y2389D01*
X1944Y2369D01*
X1952Y2364D01*
X1957Y2332D01*
X1955Y2329D01*
X1943Y2311D01*
X1939Y2288D01*
X1943Y2264D01*
X1957Y2244D01*
X1977Y2231D01*
X2000Y2226D01*
X2023Y2231D01*
X2043Y2244D01*
X2057Y2264D01*
X2062Y2288D01*
X2086Y2293D01*
X2106Y2307D01*
X2119Y2327D01*
X2124Y2350D01*
X2119Y2373D01*
X2106Y2393D01*
X2086Y2407D01*
X2062Y2411D01*
X2044Y2433D01*
X2044Y2436D01*
X2031Y2456D01*
X2011Y2469D01*
X2004Y2470D01*
X1998Y2502D01*
X2001Y2504D01*
X2014Y2524D01*
X2019Y2548D01*
X2014Y2571D01*
X2001Y2591D01*
X1981Y2604D01*
X1958Y2609D01*
D02*
G37*
G36*
X6212Y2198D02*
Y2162D01*
X6247D01*
X6244Y2170D01*
X6234Y2184D01*
X6220Y2194D01*
X6212Y2198D01*
D02*
G37*
G36*
X6162Y2198D02*
X6155Y2194D01*
X6141Y2184D01*
X6131Y2170D01*
X6128Y2162D01*
X6162D01*
Y2198D01*
D02*
G37*
G36*
X2418Y2281D02*
X2394Y2277D01*
X2374Y2263D01*
X2361Y2243D01*
X2356Y2220D01*
X2361Y2197D01*
X2374Y2177D01*
X2394Y2163D01*
X2418Y2159D01*
X2441Y2163D01*
X2461Y2177D01*
X2474Y2197D01*
X2479Y2220D01*
X2474Y2243D01*
X2461Y2263D01*
X2441Y2277D01*
X2418Y2281D01*
D02*
G37*
G36*
X6162Y2112D02*
X6128D01*
X6131Y2105D01*
X6141Y2091D01*
X6155Y2081D01*
X6162Y2077D01*
Y2112D01*
D02*
G37*
G36*
X6247D02*
X6212D01*
Y2077D01*
X6220Y2081D01*
X6234Y2091D01*
X6244Y2105D01*
X6247Y2112D01*
D02*
G37*
G36*
X3000Y3874D02*
X2977Y3869D01*
X2957Y3856D01*
X2943Y3836D01*
X2939Y3812D01*
X2943Y3789D01*
X2944Y3788D01*
Y2112D01*
X2943Y2111D01*
X2939Y2088D01*
X2943Y2064D01*
X2957Y2044D01*
X2977Y2031D01*
X3000Y2026D01*
X3023Y2031D01*
X3043Y2044D01*
X3057Y2064D01*
X3061Y2088D01*
X3057Y2111D01*
X3056Y2112D01*
Y3788D01*
X3057Y3789D01*
X3061Y3812D01*
X3057Y3836D01*
X3043Y3856D01*
X3023Y3869D01*
X3000Y3874D01*
D02*
G37*
G36*
X2688Y2149D02*
X2664Y2144D01*
X2644Y2131D01*
X2631Y2111D01*
X2626Y2088D01*
X2631Y2064D01*
X2644Y2044D01*
X2664Y2031D01*
X2688Y2026D01*
X2711Y2031D01*
X2731Y2044D01*
X2744Y2064D01*
X2749Y2088D01*
X2744Y2111D01*
X2731Y2131D01*
X2711Y2144D01*
X2688Y2149D01*
D02*
G37*
G36*
X1750Y1836D02*
X1727Y1832D01*
X1707Y1818D01*
X1681D01*
X1661Y1832D01*
X1638Y1836D01*
X1614Y1832D01*
X1594Y1818D01*
X1581Y1798D01*
X1576Y1775D01*
X1581Y1752D01*
X1594Y1732D01*
X1614Y1718D01*
X1638Y1714D01*
X1661Y1718D01*
X1681Y1732D01*
X1707D01*
X1727Y1718D01*
X1750Y1714D01*
X1773Y1718D01*
X1793Y1732D01*
X1807Y1752D01*
X1811Y1775D01*
X1807Y1798D01*
X1793Y1818D01*
X1773Y1832D01*
X1750Y1836D01*
D02*
G37*
G36*
X2688Y1911D02*
X2664Y1907D01*
X2644Y1893D01*
X2631Y1873D01*
X2626Y1850D01*
X2631Y1827D01*
X2644Y1807D01*
X2664Y1793D01*
X2688Y1789D01*
X2711Y1793D01*
X2731Y1807D01*
X2744Y1827D01*
X2749Y1850D01*
X2744Y1873D01*
X2731Y1893D01*
X2711Y1907D01*
X2688Y1911D01*
D02*
G37*
G36*
X2525D02*
X2502Y1907D01*
X2482Y1893D01*
X2468Y1873D01*
X2464Y1850D01*
X2468Y1827D01*
X2482Y1807D01*
X2502Y1793D01*
X2525Y1789D01*
X2548Y1793D01*
X2568Y1807D01*
X2582Y1827D01*
X2586Y1850D01*
X2582Y1873D01*
X2568Y1893D01*
X2548Y1907D01*
X2525Y1911D01*
D02*
G37*
G36*
X6212Y1911D02*
X6189Y1907D01*
X6169Y1893D01*
X6156Y1873D01*
X6151Y1850D01*
X6156Y1827D01*
X6169Y1807D01*
X6189Y1793D01*
X6212Y1789D01*
X6236Y1793D01*
X6256Y1807D01*
X6269Y1827D01*
X6274Y1850D01*
X6269Y1873D01*
X6256Y1893D01*
X6236Y1907D01*
X6212Y1911D01*
D02*
G37*
G36*
X3188Y1836D02*
X3164Y1832D01*
X3144Y1818D01*
X3131Y1798D01*
X3126Y1775D01*
X3131Y1752D01*
X3144Y1732D01*
X3164Y1718D01*
X3188Y1714D01*
X3211Y1718D01*
X3231Y1732D01*
X3244Y1752D01*
X3249Y1775D01*
X3244Y1798D01*
X3231Y1818D01*
X3211Y1832D01*
X3188Y1836D01*
D02*
G37*
G36*
X488Y1765D02*
Y1688D01*
X565D01*
X565Y1690D01*
X554Y1715D01*
X537Y1737D01*
X515Y1754D01*
X490Y1765D01*
X488Y1765D01*
D02*
G37*
G36*
X438D02*
X435Y1765D01*
X410Y1754D01*
X388Y1737D01*
X371Y1715D01*
X360Y1690D01*
X360Y1688D01*
X438D01*
Y1765D01*
D02*
G37*
G36*
X565Y1638D02*
X488D01*
Y1560D01*
X490Y1560D01*
X515Y1571D01*
X537Y1588D01*
X554Y1610D01*
X565Y1635D01*
X565Y1638D01*
D02*
G37*
G36*
X438D02*
X360D01*
X360Y1635D01*
X371Y1610D01*
X388Y1588D01*
X410Y1571D01*
X435Y1560D01*
X438Y1560D01*
Y1638D01*
D02*
G37*
G36*
X462Y1514D02*
X435Y1511D01*
X410Y1500D01*
X388Y1483D01*
X371Y1461D01*
X360Y1436D01*
X357Y1409D01*
X360Y1381D01*
X371Y1356D01*
X388Y1334D01*
X410Y1317D01*
X435Y1306D01*
X462Y1303D01*
X490Y1306D01*
X515Y1317D01*
X537Y1334D01*
X554Y1356D01*
X565Y1381D01*
X568Y1409D01*
X565Y1436D01*
X554Y1461D01*
X537Y1483D01*
X515Y1500D01*
X490Y1511D01*
X462Y1514D01*
D02*
G37*
G36*
X750Y1372D02*
X727Y1368D01*
X707Y1354D01*
X694Y1334D01*
X689Y1311D01*
X694Y1288D01*
X707Y1268D01*
X727Y1254D01*
X750Y1250D01*
X774Y1254D01*
X793Y1268D01*
X807Y1288D01*
X811Y1311D01*
X807Y1334D01*
X793Y1354D01*
X774Y1368D01*
X750Y1372D01*
D02*
G37*
G36*
X5938Y2699D02*
X5914Y2694D01*
X5894Y2681D01*
X5881Y2661D01*
X5876Y2638D01*
X5881Y2614D01*
X5881Y2613D01*
Y1250D01*
X5881Y1249D01*
X5876Y1225D01*
X5881Y1202D01*
X5894Y1182D01*
X5914Y1169D01*
X5937Y1164D01*
X5961Y1169D01*
X5981Y1182D01*
X5994Y1202D01*
X5998Y1225D01*
X5994Y1249D01*
X5994Y1249D01*
Y2613D01*
X5994Y2614D01*
X5999Y2638D01*
X5994Y2661D01*
X5981Y2681D01*
X5961Y2694D01*
X5938Y2699D01*
D02*
G37*
G36*
X4500Y1274D02*
X4477Y1269D01*
X4457Y1256D01*
X4443Y1236D01*
X4439Y1212D01*
X4443Y1189D01*
X4457Y1169D01*
X4477Y1156D01*
X4500Y1151D01*
X4523Y1156D01*
X4543Y1169D01*
X4557Y1189D01*
X4561Y1212D01*
X4557Y1236D01*
X4543Y1256D01*
X4523Y1269D01*
X4500Y1274D01*
D02*
G37*
G36*
X3488Y1224D02*
X3464Y1219D01*
X3444Y1206D01*
X3431Y1186D01*
X3426Y1162D01*
X3431Y1139D01*
X3444Y1119D01*
X3464Y1106D01*
X3488Y1101D01*
X3511Y1106D01*
X3531Y1119D01*
X3544Y1139D01*
X3549Y1162D01*
X3544Y1186D01*
X3531Y1206D01*
X3511Y1219D01*
X3488Y1224D01*
D02*
G37*
G36*
X4898Y1196D02*
X4874Y1192D01*
X4854Y1178D01*
X4841Y1158D01*
X4836Y1135D01*
X4841Y1112D01*
X4854Y1092D01*
X4874Y1079D01*
X4898Y1074D01*
X4921Y1079D01*
X4941Y1092D01*
X4954Y1112D01*
X4959Y1135D01*
X4954Y1158D01*
X4941Y1178D01*
X4921Y1192D01*
X4898Y1196D01*
D02*
G37*
G36*
X8413Y1085D02*
X8405Y1082D01*
X8388Y1073D01*
X8370Y1082D01*
X8362Y1085D01*
Y1025D01*
X8338D01*
Y1000D01*
X8278D01*
X8281Y992D01*
X8291Y979D01*
Y971D01*
X8281Y958D01*
X8278Y950D01*
X8338D01*
Y925D01*
X8362D01*
Y865D01*
X8370Y868D01*
X8388Y877D01*
X8405Y868D01*
X8413Y865D01*
Y925D01*
X8438D01*
Y950D01*
X8497D01*
X8494Y958D01*
X8484Y971D01*
Y979D01*
X8494Y992D01*
X8497Y1000D01*
X8438D01*
Y1025D01*
X8413D01*
Y1085D01*
D02*
G37*
G36*
X8312Y1085D02*
X8305Y1082D01*
X8291Y1071D01*
X8281Y1058D01*
X8278Y1050D01*
X8312D01*
Y1085D01*
D02*
G37*
G36*
X8463Y1085D02*
Y1050D01*
X8497D01*
X8494Y1058D01*
X8484Y1071D01*
X8470Y1082D01*
X8463Y1085D01*
D02*
G37*
G36*
X568Y1260D02*
X358D01*
Y1049D01*
X568D01*
Y1260D01*
D02*
G37*
G36*
X8062Y1086D02*
X8039Y1082D01*
X8019Y1068D01*
X8006Y1048D01*
X8001Y1025D01*
X8006Y1002D01*
X8019Y982D01*
X8039Y968D01*
X8062Y964D01*
X8086Y968D01*
X8106Y982D01*
X8119Y1002D01*
X8124Y1025D01*
X8119Y1048D01*
X8106Y1068D01*
X8086Y1082D01*
X8062Y1086D01*
D02*
G37*
G36*
X4750Y3208D02*
X4732Y3206D01*
X4715Y3199D01*
X4700Y3187D01*
X4689Y3173D01*
X4682Y3156D01*
X4679Y3138D01*
Y3075D01*
Y1750D01*
X4682Y1732D01*
X4689Y1715D01*
X4700Y1700D01*
X6025Y375D01*
X6040Y364D01*
X6057Y357D01*
X6075Y354D01*
X8350D01*
X8368Y357D01*
X8385Y364D01*
X8400Y375D01*
X8775Y750D01*
X8786Y765D01*
X8793Y782D01*
X8796Y800D01*
Y1260D01*
X8826Y1279D01*
X8838Y1276D01*
X8861Y1281D01*
X8881Y1294D01*
X8894Y1314D01*
X8899Y1338D01*
X8894Y1361D01*
X8881Y1381D01*
X8861Y1394D01*
X8838Y1399D01*
X8826Y1396D01*
X8796Y1415D01*
Y1450D01*
X8793Y1468D01*
X8786Y1485D01*
X8775Y1500D01*
X8760Y1511D01*
X8743Y1518D01*
X8725Y1521D01*
X8707Y1518D01*
X8690Y1511D01*
X8675Y1500D01*
X8664Y1485D01*
X8657Y1468D01*
X8654Y1450D01*
Y1375D01*
Y829D01*
X8321Y496D01*
X6104D01*
X4821Y1779D01*
Y2202D01*
X4828Y2207D01*
X4851Y2215D01*
X4864Y2206D01*
X4888Y2201D01*
X4894Y2196D01*
Y1850D01*
X4898Y1829D01*
X4910Y1810D01*
X5760Y960D01*
X5779Y948D01*
X5800Y944D01*
X6263D01*
X6264Y943D01*
X6288Y939D01*
X6311Y943D01*
X6312Y944D01*
X7251D01*
X7252Y943D01*
X7275Y939D01*
X7298Y943D01*
X7318Y957D01*
X7332Y977D01*
X7332Y977D01*
X7427Y1073D01*
X7439Y1091D01*
X7444Y1112D01*
Y1638D01*
X7439Y1659D01*
X7427Y1677D01*
X7019Y2085D01*
X7019Y2086D01*
X7006Y2106D01*
X6986Y2119D01*
X6962Y2124D01*
X6939Y2119D01*
X6919Y2106D01*
X6906Y2086D01*
X6901Y2062D01*
X6906Y2039D01*
X6919Y2019D01*
X6939Y2006D01*
X6940Y2006D01*
X7331Y1614D01*
Y1136D01*
X7252Y1057D01*
X7252Y1057D01*
X7251Y1056D01*
X6312D01*
X6311Y1057D01*
X6288Y1061D01*
X6264Y1057D01*
X6263Y1056D01*
X5823D01*
X5006Y1873D01*
Y2238D01*
X5007Y2239D01*
X5011Y2262D01*
X5007Y2286D01*
X4993Y2306D01*
X4973Y2319D01*
X4950Y2324D01*
X4927Y2319D01*
X4926Y2319D01*
X4912D01*
X4911Y2319D01*
X4888Y2324D01*
X4864Y2319D01*
X4851Y2310D01*
X4828Y2318D01*
X4821Y2323D01*
Y3075D01*
Y3138D01*
X4818Y3156D01*
X4811Y3173D01*
X4800Y3187D01*
X4785Y3199D01*
X4768Y3206D01*
X4750Y3208D01*
D02*
G37*
G36*
X750Y999D02*
X727Y994D01*
X707Y981D01*
X693Y961D01*
X689Y938D01*
X693Y914D01*
X707Y894D01*
X727Y881D01*
X750Y876D01*
X773Y881D01*
X793Y894D01*
X807Y914D01*
X811Y938D01*
X807Y961D01*
X793Y981D01*
X773Y994D01*
X750Y999D01*
D02*
G37*
G36*
X8497Y900D02*
X8463D01*
Y865D01*
X8470Y868D01*
X8484Y879D01*
X8494Y892D01*
X8497Y900D01*
D02*
G37*
G36*
X8312Y900D02*
X8278D01*
X8281Y892D01*
X8291Y879D01*
X8305Y868D01*
X8312Y865D01*
Y900D01*
D02*
G37*
G36*
X4250Y749D02*
X4227Y744D01*
X4207Y731D01*
X4193Y711D01*
X4189Y688D01*
X4193Y664D01*
X4207Y644D01*
X4227Y631D01*
X4250Y626D01*
X4273Y631D01*
X4293Y644D01*
X4307Y664D01*
X4311Y688D01*
X4307Y711D01*
X4293Y731D01*
X4273Y744D01*
X4250Y749D01*
D02*
G37*
G36*
X8062Y676D02*
X8039Y672D01*
X8019Y658D01*
X8006Y638D01*
X8001Y615D01*
X8006Y592D01*
X8019Y572D01*
X8039Y558D01*
X8062Y554D01*
X8086Y558D01*
X8106Y572D01*
X8119Y592D01*
X8124Y615D01*
X8119Y638D01*
X8106Y658D01*
X8086Y672D01*
X8062Y676D01*
D02*
G37*
G36*
X2935Y558D02*
Y480D01*
X3013D01*
X3013Y482D01*
X3002Y508D01*
X2985Y530D01*
X2963Y547D01*
X2938Y557D01*
X2935Y558D01*
D02*
G37*
G36*
X2885D02*
X2883Y557D01*
X2858Y547D01*
X2836Y530D01*
X2819Y508D01*
X2808Y482D01*
X2808Y480D01*
X2885D01*
Y558D01*
D02*
G37*
G36*
X2058Y553D02*
Y475D01*
X2136D01*
X2136Y477D01*
X2125Y503D01*
X2108Y525D01*
X2086Y542D01*
X2061Y552D01*
X2058Y553D01*
D02*
G37*
G36*
X2008D02*
X2006Y552D01*
X1981Y542D01*
X1959Y525D01*
X1942Y503D01*
X1931Y477D01*
X1931Y475D01*
X2008D01*
Y553D01*
D02*
G37*
G36*
X1171D02*
Y475D01*
X1249D01*
X1248Y477D01*
X1238Y503D01*
X1221Y525D01*
X1199Y542D01*
X1173Y552D01*
X1171Y553D01*
D02*
G37*
G36*
X1121D02*
X1119Y552D01*
X1093Y542D01*
X1071Y525D01*
X1054Y503D01*
X1044Y477D01*
X1043Y475D01*
X1121D01*
Y553D01*
D02*
G37*
G36*
X3013Y430D02*
X2935D01*
Y352D01*
X2938Y353D01*
X2963Y363D01*
X2985Y380D01*
X3002Y402D01*
X3013Y428D01*
X3013Y430D01*
D02*
G37*
G36*
X2885D02*
X2808D01*
X2808Y428D01*
X2819Y402D01*
X2836Y380D01*
X2858Y363D01*
X2883Y353D01*
X2885Y352D01*
Y430D01*
D02*
G37*
G36*
X3269Y560D02*
X3059D01*
Y350D01*
X3269D01*
Y560D01*
D02*
G37*
G36*
X2136Y425D02*
X2058D01*
Y347D01*
X2061Y348D01*
X2086Y358D01*
X2108Y375D01*
X2125Y397D01*
X2136Y423D01*
X2136Y425D01*
D02*
G37*
G36*
X2008D02*
X1931D01*
X1931Y423D01*
X1942Y397D01*
X1959Y375D01*
X1981Y358D01*
X2006Y348D01*
X2008Y347D01*
Y425D01*
D02*
G37*
G36*
X1249D02*
X1171D01*
Y347D01*
X1173Y348D01*
X1199Y358D01*
X1221Y375D01*
X1238Y397D01*
X1248Y423D01*
X1249Y425D01*
D02*
G37*
G36*
X1121D02*
X1043D01*
X1044Y423D01*
X1054Y397D01*
X1071Y375D01*
X1093Y358D01*
X1119Y348D01*
X1121Y347D01*
Y425D01*
D02*
G37*
G36*
X2712Y1224D02*
X2689Y1219D01*
X2669Y1206D01*
X2656Y1186D01*
X2656Y1185D01*
X2502Y1031D01*
X2490Y1013D01*
X2485Y991D01*
Y555D01*
X2436D01*
Y345D01*
X2647D01*
Y555D01*
X2598D01*
Y968D01*
X2735Y1106D01*
X2736Y1106D01*
X2756Y1119D01*
X2769Y1139D01*
X2774Y1162D01*
X2769Y1186D01*
X2756Y1206D01*
X2736Y1219D01*
X2712Y1224D01*
D02*
G37*
G36*
X1759Y555D02*
X1549D01*
Y345D01*
X1759D01*
Y555D01*
D02*
G37*
G36*
X2250Y1224D02*
X2227Y1219D01*
X2207Y1206D01*
X2193Y1186D01*
X2189Y1162D01*
X2193Y1139D01*
X2207Y1119D01*
X2227Y1106D01*
X2227Y1106D01*
X2231Y1102D01*
Y539D01*
X2213Y525D01*
X2196Y503D01*
X2185Y477D01*
X2182Y450D01*
X2185Y423D01*
X2196Y397D01*
X2213Y375D01*
X2235Y358D01*
X2260Y348D01*
X2288Y344D01*
X2315Y348D01*
X2340Y358D01*
X2362Y375D01*
X2379Y397D01*
X2390Y423D01*
X2393Y450D01*
X2390Y477D01*
X2379Y503D01*
X2362Y525D01*
X2344Y539D01*
Y1125D01*
X2339Y1146D01*
X2327Y1165D01*
X2307Y1185D01*
X2307Y1186D01*
X2293Y1206D01*
X2273Y1219D01*
X2250Y1224D01*
D02*
G37*
G36*
X1400Y556D02*
X1373Y552D01*
X1347Y542D01*
X1325Y525D01*
X1308Y503D01*
X1298Y477D01*
X1294Y450D01*
X1298Y423D01*
X1308Y397D01*
X1325Y375D01*
X1347Y358D01*
X1373Y348D01*
X1400Y344D01*
X1427Y348D01*
X1453Y358D01*
X1475Y375D01*
X1492Y397D01*
X1502Y423D01*
X1506Y450D01*
X1502Y477D01*
X1492Y503D01*
X1475Y525D01*
X1453Y542D01*
X1427Y552D01*
X1400Y556D01*
D02*
G37*
%LPD*%
D10*
X1700Y4500D02*
Y5075D01*
X1075Y3875D02*
X1700Y4500D01*
X1625Y5150D02*
X1700Y5075D01*
X7082Y2820D02*
Y5980D01*
X6188Y6812D02*
X6250D01*
X7082Y5980D01*
X7162Y2853D02*
Y6019D01*
X6250Y6932D02*
Y7000D01*
Y6932D02*
X7162Y6019D01*
X7122Y2836D02*
Y6003D01*
X6188Y6938D02*
X7122Y6003D01*
Y2836D02*
X8250Y1709D01*
X7082Y2820D02*
X8188Y1715D01*
X7162Y2853D02*
X8438Y1578D01*
X6923Y2751D02*
Y5609D01*
X6549Y5983D02*
X6923Y5609D01*
X6062Y5983D02*
X6549D01*
X6923Y2751D02*
X7188Y2486D01*
Y2312D02*
Y2486D01*
X2625Y5338D02*
X2735Y5447D01*
X2762Y5312D02*
X2812Y5362D01*
X2438Y4562D02*
X2562Y4438D01*
X2875D01*
X6062Y5900D02*
X6575D01*
X5938Y5812D02*
X6600D01*
X6843Y5570D01*
X6575Y5900D02*
X6883Y5592D01*
X3575Y7100D02*
X4038Y7562D01*
X4188D01*
X3575Y5600D02*
Y7100D01*
X3225Y5250D02*
X3575Y5600D01*
X3125Y5250D02*
X3225D01*
X1925Y6956D02*
Y8150D01*
Y6956D02*
X2735Y6146D01*
Y5447D02*
Y6146D01*
X2812Y5362D02*
Y6125D01*
X6062Y5688D02*
X6663D01*
X6803Y5547D01*
X2000Y6938D02*
X2812Y6125D01*
X2000Y6938D02*
Y8538D01*
X1850Y8688D02*
X2000Y8538D01*
X8188Y1438D02*
Y1715D01*
X8250Y1500D02*
Y1709D01*
X8438Y1500D02*
Y1578D01*
X5938Y6188D02*
X6525D01*
X7043Y5670D01*
X1062Y4478D02*
Y5875D01*
Y4478D02*
X1228Y4312D01*
X1312D01*
X7812Y2312D02*
X8375D01*
X8438Y2250D01*
X7312Y2812D02*
X7875D01*
X9062Y2250D02*
X9688D01*
X8462Y2100D02*
X9062D01*
X812Y3875D02*
X1075D01*
X1000Y4275D02*
Y5938D01*
X7043Y2800D02*
Y5670D01*
X6525Y6125D02*
X6547Y6103D01*
X6000Y6125D02*
X6525D01*
X6548Y6103D02*
X7003Y5648D01*
Y2784D02*
Y5648D01*
X6547Y6103D02*
X6548D01*
X6062Y6062D02*
X6532D01*
X6962Y2767D02*
Y5632D01*
X6532Y6062D02*
X6962Y5632D01*
X6883Y2680D02*
Y5592D01*
X6843Y2573D02*
Y5570D01*
X6803Y2510D02*
Y5547D01*
Y2510D02*
X7188Y2125D01*
X7453Y1962D02*
X7588D01*
X6843Y2573D02*
X7453Y1962D01*
X6883Y2680D02*
X7125Y2438D01*
X8347D02*
X9603D01*
X8850Y1962D02*
X9475D01*
X8225D02*
X8850D01*
X7725Y2375D02*
X8975D01*
X8912Y2500D02*
X9538D01*
X8287D02*
X8912D01*
X7662D02*
X8287D01*
X8002Y1252D02*
Y1727D01*
X8000Y1250D02*
X8002Y1252D01*
X6962Y2767D02*
X8002Y1727D01*
X8062Y1312D02*
Y1724D01*
X7003Y2784D02*
X8062Y1724D01*
X8125Y1375D02*
Y1718D01*
X7043Y2800D02*
X8125Y1718D01*
D11*
X7119Y8350D02*
X7469Y8000D01*
X7475D01*
D13*
X4467Y6557D02*
D03*
X4578D02*
D03*
X4688D02*
D03*
X4797D02*
D03*
X4908D02*
D03*
X4467Y6447D02*
D03*
X4908D02*
D03*
X4467Y6338D02*
D03*
X4908D02*
D03*
X4467Y6228D02*
D03*
X4908D02*
D03*
X4467Y6117D02*
D03*
X4578D02*
D03*
X4688D02*
D03*
X4797D02*
D03*
X4908D02*
D03*
D69*
X1115Y9747D02*
D03*
Y8788D02*
D03*
X2675Y9747D02*
D03*
Y8788D02*
D03*
D107*
X2075Y3912D02*
X2125Y3862D01*
X1512Y3912D02*
X2075D01*
X1512Y3138D02*
Y3429D01*
X625Y2250D02*
X1512Y3138D01*
Y3429D02*
X1514Y3430D01*
Y3846D01*
X2312Y7125D02*
X2375D01*
X2125Y3312D02*
Y3862D01*
X6725Y2525D02*
Y3000D01*
X3662Y5862D02*
Y6938D01*
X3748Y5814D02*
X3750Y5812D01*
X3711Y5814D02*
X3748D01*
X3662Y5862D02*
X3711Y5814D01*
X3750Y5812D02*
X4312D01*
X2388Y2550D02*
Y2938D01*
X1512Y3850D02*
Y3912D01*
X1356Y6125D02*
X1369Y6138D01*
X4556Y7600D02*
X4912Y7244D01*
Y7062D02*
Y7244D01*
X4550Y7600D02*
X4556D01*
X4863Y7013D02*
X4912Y7062D01*
X3988Y7013D02*
X4863D01*
X4488Y7600D02*
X4550D01*
X5000Y5812D02*
X5450D01*
X4312D02*
X5000D01*
X3662Y6938D02*
X3738Y7012D01*
X5800Y1000D02*
X6288D01*
X4950Y1850D02*
Y2262D01*
Y1850D02*
X5800Y1000D01*
X4888Y2262D02*
X4950D01*
X2542Y991D02*
X2712Y1162D01*
X2542Y450D02*
Y991D01*
X2250Y1162D02*
X2288Y1125D01*
Y450D02*
Y1125D01*
X3000Y2088D02*
Y3812D01*
X6288Y1000D02*
X7275D01*
X7388Y1112D01*
Y1638D01*
X6962Y2062D02*
X7388Y1638D01*
X6125Y2450D02*
X6312D01*
X5938Y1225D02*
Y2638D01*
X5937Y1225D02*
X5938Y1225D01*
D108*
X8350Y425D02*
X8725Y800D01*
X4750Y1750D02*
X6075Y425D01*
X8350D01*
X1225Y7188D02*
Y7500D01*
X2983Y4418D02*
Y7017D01*
X2312Y7500D02*
X2500D01*
X2983Y7017D01*
X4562Y1688D02*
Y3550D01*
X4300Y3812D02*
X4562Y3550D01*
X1369Y5903D02*
X1812D01*
X1369Y5294D02*
Y5750D01*
Y5294D02*
X1512Y5150D01*
X1812Y5903D02*
X2166D01*
X1812Y5788D02*
Y5903D01*
X1369Y5750D02*
Y5903D01*
Y6138D01*
X2212Y5788D02*
Y5856D01*
X2166Y5903D02*
X2212Y5856D01*
X1188Y5750D02*
X1369D01*
Y6138D02*
Y6981D01*
X1250Y6125D02*
X1356D01*
X2983Y4418D02*
X3589Y3812D01*
X3688D01*
X3438Y5875D02*
Y5938D01*
Y6012D01*
X3212Y6238D02*
X3438Y6012D01*
X3212Y6238D02*
Y7775D01*
X3250Y7812D01*
X5638Y7338D02*
Y7400D01*
Y7612D01*
X5438Y7812D02*
X5638Y7612D01*
X3312Y7812D02*
X5438D01*
X3250D02*
X3312D01*
X7212Y8500D02*
X7325Y8612D01*
X3200Y8500D02*
X7212D01*
X7325Y8612D02*
X7325D01*
X7388D01*
X7062Y8812D02*
Y8875D01*
Y9000D01*
X6938Y9125D02*
X7062Y9000D01*
X1250Y9125D02*
X6938D01*
X4125Y3312D02*
X4188D01*
X4750Y3075D02*
Y3138D01*
X3688Y2988D02*
X3825D01*
X4138Y2588D02*
Y2675D01*
X3825Y2988D02*
X4138Y2675D01*
Y2525D02*
Y2588D01*
X4750Y1750D02*
Y3075D01*
X8725Y1375D02*
Y1450D01*
Y800D02*
Y1375D01*
X1225Y7125D02*
X1369Y6981D01*
X1225Y7125D02*
Y7188D01*
X3625Y2988D02*
X3688D01*
X3812Y3812D02*
X4300D01*
X1162Y7500D02*
X1225D01*
X2912Y8788D02*
X3200Y8500D01*
X2675Y8788D02*
X2912D01*
X1115Y8990D02*
X1250Y9125D01*
X1115Y8788D02*
Y8990D01*
X4562Y1625D02*
Y1688D01*
X2250Y7500D02*
X2312D01*
X3750Y3812D02*
X3812D01*
X3688D02*
X3750D01*
X2188Y7500D02*
X2250D01*
X1512Y4738D02*
Y5150D01*
D110*
X1671Y3125D02*
X2775D01*
X462Y1917D02*
X1671Y3125D01*
D114*
X8338Y925D02*
D03*
X8438Y1025D02*
D03*
X8338D02*
D03*
X8438Y925D02*
D03*
X6188Y2138D02*
D03*
D115*
X4688Y6338D02*
D03*
D117*
X468Y3267D02*
D03*
X6215Y9545D02*
D03*
X2910Y455D02*
D03*
X2033Y450D02*
D03*
X2288D02*
D03*
X1146D02*
D03*
X480Y8814D02*
D03*
X462Y1917D02*
D03*
Y1662D02*
D03*
X475Y8208D02*
D03*
X480Y7343D02*
D03*
D118*
X4271Y4373D02*
D03*
D119*
X6969Y9486D02*
D03*
D121*
X2542Y450D02*
D03*
D122*
X9500Y500D02*
D03*
Y9500D02*
D03*
X500D02*
D03*
Y500D02*
D03*
D123*
X9812Y8625D02*
D03*
Y8312D02*
D03*
Y8000D02*
D03*
Y7688D02*
D03*
Y7375D02*
D03*
Y7062D02*
D03*
Y6750D02*
D03*
Y6438D02*
D03*
Y6125D02*
D03*
Y5812D02*
D03*
Y5500D02*
D03*
Y5188D02*
D03*
Y4875D02*
D03*
Y4562D02*
D03*
Y4250D02*
D03*
Y3938D02*
D03*
Y3625D02*
D03*
Y3312D02*
D03*
Y3000D02*
D03*
Y2688D02*
D03*
Y2375D02*
D03*
Y2062D02*
D03*
Y1750D02*
D03*
Y1438D02*
D03*
Y1125D02*
D03*
X2562Y6875D02*
D03*
X2812Y7500D02*
D03*
X2938Y7625D02*
D03*
X3750Y8188D02*
D03*
X3250Y8250D02*
D03*
X3062Y1688D02*
D03*
Y1875D02*
D03*
X3500Y938D02*
D03*
X3000D02*
D03*
X2688D02*
D03*
X2188D02*
D03*
X1375Y812D02*
D03*
X188Y1162D02*
D03*
Y1412D02*
D03*
Y1662D02*
D03*
Y1912D02*
D03*
Y2188D02*
D03*
X438Y3438D02*
D03*
X1812Y2000D02*
D03*
X3100Y6175D02*
D03*
X400Y3938D02*
D03*
X562D02*
D03*
X4500Y688D02*
D03*
X4375D02*
D03*
X2475Y2012D02*
D03*
X2312Y2188D02*
D03*
X2000D02*
D03*
X7950Y3812D02*
D03*
X7825Y4500D02*
D03*
X7812Y5188D02*
D03*
X7238Y2988D02*
D03*
X7238Y4340D02*
D03*
X7238Y5125D02*
D03*
Y5350D02*
D03*
X7475Y6600D02*
D03*
X7625Y7300D02*
D03*
X7450Y7138D02*
D03*
X7238Y6525D02*
D03*
X2012Y4800D02*
D03*
X1775Y4738D02*
D03*
X1862Y4675D02*
D03*
X2625Y1688D02*
D03*
X1888Y3025D02*
D03*
X8225Y2238D02*
D03*
X8850Y2250D02*
D03*
X4862Y2162D02*
D03*
X2875Y6938D02*
D03*
X3712Y7388D02*
D03*
X3938Y7700D02*
D03*
X3750D02*
D03*
X3412D02*
D03*
X2612Y6162D02*
D03*
X2262Y6500D02*
D03*
X3100Y6950D02*
D03*
X3062Y7238D02*
D03*
Y7488D02*
D03*
X1838Y7312D02*
D03*
X3125Y1438D02*
D03*
X2625D02*
D03*
X2188D02*
D03*
X6850Y2312D02*
D03*
X7238Y5825D02*
D03*
Y5925D02*
D03*
X7050Y6525D02*
D03*
X6888Y5975D02*
D03*
X7000Y5825D02*
D03*
Y5925D02*
D03*
X6875Y6500D02*
D03*
X9075Y2675D02*
D03*
Y2575D02*
D03*
X3000Y3938D02*
D03*
X675Y3612D02*
D03*
X1000D02*
D03*
X1212Y812D02*
D03*
X2000D02*
D03*
X3312D02*
D03*
X2850D02*
D03*
X2388D02*
D03*
X3938Y1962D02*
D03*
X4962Y600D02*
D03*
X4712D02*
D03*
X7562Y1000D02*
D03*
X7688Y1150D02*
D03*
X7812Y988D02*
D03*
X7388Y6725D02*
D03*
X7075Y6875D02*
D03*
X6900Y7025D02*
D03*
X6700Y5250D02*
D03*
X6425Y4725D02*
D03*
X6700Y4738D02*
D03*
Y4362D02*
D03*
X6638Y3938D02*
D03*
Y3750D02*
D03*
X6388Y6500D02*
D03*
X6250Y5250D02*
D03*
X6750Y9688D02*
D03*
X8438Y9625D02*
D03*
X8312Y9750D02*
D03*
X125Y3012D02*
D03*
Y3462D02*
D03*
X5138Y7625D02*
D03*
X9150Y8500D02*
D03*
X7875Y8612D02*
D03*
X7700D02*
D03*
X6612Y7688D02*
D03*
X6075Y6312D02*
D03*
X6212Y6412D02*
D03*
X6175Y7062D02*
D03*
X6125Y7375D02*
D03*
X7450Y7650D02*
D03*
X1850Y4038D02*
D03*
X1188Y3125D02*
D03*
X1262Y2388D02*
D03*
Y1300D02*
D03*
Y1475D02*
D03*
Y1725D02*
D03*
X1962Y2000D02*
D03*
X950Y2700D02*
D03*
X1312Y3125D02*
D03*
Y3250D02*
D03*
X1688Y3000D02*
D03*
X1188Y3562D02*
D03*
X562D02*
D03*
X662Y2688D02*
D03*
X562Y2562D02*
D03*
X375D02*
D03*
X662Y2500D02*
D03*
X2375Y7125D02*
D03*
X2312D02*
D03*
X3738Y7112D02*
D03*
X2775Y3125D02*
D03*
X625Y2250D02*
D03*
X2312Y2488D02*
D03*
X6725Y2525D02*
D03*
X8962Y1475D02*
D03*
X5938Y6525D02*
D03*
X3188Y2000D02*
D03*
X3113Y3700D02*
D03*
X4188Y2188D02*
D03*
X2875Y8250D02*
D03*
Y8438D02*
D03*
Y8625D02*
D03*
X1475Y6500D02*
D03*
Y6312D02*
D03*
X3188Y5575D02*
D03*
X3100Y5725D02*
D03*
X3750Y5600D02*
D03*
X8750Y7250D02*
D03*
X7438Y7312D02*
D03*
X6500Y8625D02*
D03*
X7000Y8062D02*
D03*
X7312Y7975D02*
D03*
X1750Y8312D02*
D03*
X1812Y7812D02*
D03*
Y7688D02*
D03*
X2188Y7812D02*
D03*
Y7688D02*
D03*
X312Y8062D02*
D03*
X375Y6312D02*
D03*
X312Y6100D02*
D03*
X838Y6350D02*
D03*
X562Y6375D02*
D03*
X1125Y6938D02*
D03*
X1250Y6750D02*
D03*
X2812Y6562D02*
D03*
X125Y8375D02*
D03*
X312Y8250D02*
D03*
Y8500D02*
D03*
Y5062D02*
D03*
Y5188D02*
D03*
Y5312D02*
D03*
X5688Y250D02*
D03*
X5375Y562D02*
D03*
Y312D02*
D03*
X3625Y1475D02*
D03*
X3812Y1625D02*
D03*
Y1312D02*
D03*
X4188Y2875D02*
D03*
X3750Y5912D02*
D03*
X5775Y7375D02*
D03*
X8438Y2575D02*
D03*
Y2675D02*
D03*
X7812Y2562D02*
D03*
X9062Y2338D02*
D03*
X9612Y2325D02*
D03*
X8562Y2938D02*
D03*
Y3250D02*
D03*
X9075Y3812D02*
D03*
X8562Y3688D02*
D03*
Y3938D02*
D03*
X9075Y4500D02*
D03*
X8562Y4375D02*
D03*
Y4625D02*
D03*
X8950Y5062D02*
D03*
Y5288D02*
D03*
X8562Y5062D02*
D03*
Y5312D02*
D03*
X8550Y5750D02*
D03*
Y5938D02*
D03*
X8700D02*
D03*
X8875Y5875D02*
D03*
X9000Y6000D02*
D03*
X8562Y6500D02*
D03*
X9000Y6688D02*
D03*
X8875Y6562D02*
D03*
X8688Y6625D02*
D03*
X9375Y7312D02*
D03*
X9500Y7188D02*
D03*
X9375Y6625D02*
D03*
X9500Y6500D02*
D03*
X9375Y5938D02*
D03*
X9500Y5812D02*
D03*
X9375Y5250D02*
D03*
X9500Y5125D02*
D03*
Y4438D02*
D03*
X9375Y4562D02*
D03*
X9500Y3750D02*
D03*
X9375Y3875D02*
D03*
X9625Y3000D02*
D03*
Y3188D02*
D03*
X7750Y7188D02*
D03*
Y6500D02*
D03*
Y5812D02*
D03*
X7625Y5938D02*
D03*
X7562Y6312D02*
D03*
X7625Y6625D02*
D03*
X7438Y6438D02*
D03*
X7562Y7000D02*
D03*
X7438Y6875D02*
D03*
X8375Y3688D02*
D03*
X8125D02*
D03*
X8375Y3938D02*
D03*
X8125D02*
D03*
X8375Y4375D02*
D03*
X8125D02*
D03*
X8375Y4625D02*
D03*
X8125D02*
D03*
Y5062D02*
D03*
X8375D02*
D03*
Y5312D02*
D03*
X8125D02*
D03*
X8375Y5750D02*
D03*
X8125D02*
D03*
X8375Y6000D02*
D03*
X8125D02*
D03*
X8375Y6438D02*
D03*
X8125D02*
D03*
X8375Y6688D02*
D03*
X8125D02*
D03*
X8375Y7112D02*
D03*
X8125Y7125D02*
D03*
X8375Y7375D02*
D03*
X8125D02*
D03*
Y7812D02*
D03*
X8375D02*
D03*
X9125D02*
D03*
Y7375D02*
D03*
Y7125D02*
D03*
Y6688D02*
D03*
Y6438D02*
D03*
Y6000D02*
D03*
Y5750D02*
D03*
Y5312D02*
D03*
Y5062D02*
D03*
Y4625D02*
D03*
Y4375D02*
D03*
Y3938D02*
D03*
Y3688D02*
D03*
X7788Y2900D02*
D03*
X7812Y2688D02*
D03*
X8125Y3062D02*
D03*
Y3250D02*
D03*
X8438D02*
D03*
Y3062D02*
D03*
Y2875D02*
D03*
X9125Y3250D02*
D03*
Y3062D02*
D03*
Y2875D02*
D03*
X4938Y6912D02*
D03*
X4612D02*
D03*
X4288D02*
D03*
Y7162D02*
D03*
X5125Y8125D02*
D03*
X5375D02*
D03*
X5625D02*
D03*
X6312Y8000D02*
D03*
X6325Y7062D02*
D03*
X6438Y5250D02*
D03*
X9312Y8938D02*
D03*
Y9062D02*
D03*
X4125Y9250D02*
D03*
X4813Y8876D02*
D03*
X4750Y9250D02*
D03*
X4375Y9438D02*
D03*
Y9812D02*
D03*
X3938Y9438D02*
D03*
X3750D02*
D03*
X3938Y9688D02*
D03*
X3750D02*
D03*
X4375Y8625D02*
D03*
X4812D02*
D03*
X6062Y8400D02*
D03*
Y8625D02*
D03*
X5125Y5688D02*
D03*
Y5938D02*
D03*
X4438D02*
D03*
X4625D02*
D03*
X4812D02*
D03*
Y5688D02*
D03*
X4625D02*
D03*
X4438D02*
D03*
X3562Y2438D02*
D03*
X3750D02*
D03*
Y2188D02*
D03*
X3562D02*
D03*
Y3125D02*
D03*
X3750D02*
D03*
Y2875D02*
D03*
X3562D02*
D03*
X4125Y3125D02*
D03*
X4188Y3188D02*
D03*
X4350Y2550D02*
D03*
X4875Y2625D02*
D03*
X4438Y1812D02*
D03*
Y1625D02*
D03*
X4862Y1875D02*
D03*
X4688Y1625D02*
D03*
X4975Y1688D02*
D03*
X5125Y1538D02*
D03*
X5012Y1325D02*
D03*
X5112Y1225D02*
D03*
X5262Y1400D02*
D03*
X5400Y1262D02*
D03*
X5938Y375D02*
D03*
X5688Y1000D02*
D03*
X5500Y812D02*
D03*
X6000Y688D02*
D03*
X5812Y500D02*
D03*
X7875Y1438D02*
D03*
X7688D02*
D03*
X7375Y1938D02*
D03*
X7125Y1438D02*
D03*
X6938D02*
D03*
X7062Y1688D02*
D03*
X7188Y2000D02*
D03*
X8500Y1875D02*
D03*
X8312D02*
D03*
X8562Y1500D02*
D03*
X8438Y1688D02*
D03*
X8562D02*
D03*
X8225Y288D02*
D03*
Y562D02*
D03*
X8562Y788D02*
D03*
X8625Y550D02*
D03*
X8762Y675D02*
D03*
X8825Y938D02*
D03*
Y1188D02*
D03*
X7875Y562D02*
D03*
Y312D02*
D03*
X7688Y562D02*
D03*
Y312D02*
D03*
X6750Y562D02*
D03*
X7062D02*
D03*
X7375D02*
D03*
Y312D02*
D03*
X7062D02*
D03*
X6750D02*
D03*
X6438D02*
D03*
Y562D02*
D03*
X6125Y312D02*
D03*
Y562D02*
D03*
X4812Y1312D02*
D03*
X4625D02*
D03*
X4125Y938D02*
D03*
X4250D02*
D03*
X4375Y1312D02*
D03*
X4125D02*
D03*
X5500Y62D02*
D03*
X5188D02*
D03*
Y312D02*
D03*
X4875Y62D02*
D03*
Y312D02*
D03*
X4562Y62D02*
D03*
Y312D02*
D03*
X4250Y62D02*
D03*
Y312D02*
D03*
X3938Y62D02*
D03*
Y312D02*
D03*
X3625Y62D02*
D03*
Y312D02*
D03*
X3312Y62D02*
D03*
Y312D02*
D03*
X3125Y125D02*
D03*
X3062Y250D02*
D03*
X8812Y9438D02*
D03*
X8562D02*
D03*
X9188Y9188D02*
D03*
X9000Y9375D02*
D03*
X8875Y9188D02*
D03*
X9000Y9062D02*
D03*
X2750Y2312D02*
D03*
X2688Y2188D02*
D03*
X2250Y2938D02*
D03*
X2125Y2750D02*
D03*
X3125Y3438D02*
D03*
Y3188D02*
D03*
X2875D02*
D03*
X3125Y3000D02*
D03*
X2875D02*
D03*
Y2812D02*
D03*
X3125D02*
D03*
Y2625D02*
D03*
X2875D02*
D03*
Y2438D02*
D03*
X3125D02*
D03*
X3138Y2250D02*
D03*
X2875D02*
D03*
X4375Y3938D02*
D03*
X4188D02*
D03*
X3938D02*
D03*
X3312D02*
D03*
X3625D02*
D03*
X3438Y3812D02*
D03*
X5250Y3062D02*
D03*
X5875D02*
D03*
X6500Y2375D02*
D03*
X6062D02*
D03*
Y2562D02*
D03*
X6562Y2938D02*
D03*
X6438Y3112D02*
D03*
Y3375D02*
D03*
Y3562D02*
D03*
X6300Y3125D02*
D03*
Y3225D02*
D03*
X6125Y3250D02*
D03*
X6438Y3750D02*
D03*
X6250Y3688D02*
D03*
X6125D02*
D03*
Y4125D02*
D03*
Y3875D02*
D03*
X6250D02*
D03*
Y4125D02*
D03*
Y4312D02*
D03*
Y4500D02*
D03*
X6238Y4675D02*
D03*
X6055Y4776D02*
D03*
X6250Y4938D02*
D03*
X5988Y4925D02*
D03*
X5862Y5050D02*
D03*
X6000Y5188D02*
D03*
X5812Y5375D02*
D03*
X4312Y8375D02*
D03*
X4125D02*
D03*
X3938D02*
D03*
X3750D02*
D03*
X3938Y8688D02*
D03*
X3750D02*
D03*
X4375Y8750D02*
D03*
X4875Y9900D02*
D03*
X5062D02*
D03*
X5250D02*
D03*
Y9688D02*
D03*
X5062D02*
D03*
X4875D02*
D03*
X5750Y9812D02*
D03*
Y9625D02*
D03*
Y9438D02*
D03*
X6725D02*
D03*
X6500D02*
D03*
X7100Y9112D02*
D03*
X6725Y9225D02*
D03*
X6938D02*
D03*
X6500D02*
D03*
X5950Y9025D02*
D03*
X5912Y9225D02*
D03*
X5750D02*
D03*
X4312Y9250D02*
D03*
Y9000D02*
D03*
X3938Y9250D02*
D03*
Y9000D02*
D03*
X3750Y9250D02*
D03*
Y9000D02*
D03*
X2938Y9250D02*
D03*
X2562Y9000D02*
D03*
X2375Y9250D02*
D03*
Y9000D02*
D03*
X2125Y9250D02*
D03*
Y9000D02*
D03*
X1875Y9250D02*
D03*
Y9000D02*
D03*
X1625Y9250D02*
D03*
Y9000D02*
D03*
X2375Y6875D02*
D03*
X1812D02*
D03*
X2188Y7000D02*
D03*
Y7312D02*
D03*
X1688D02*
D03*
X1625Y7750D02*
D03*
X1375Y7625D02*
D03*
X2338Y8250D02*
D03*
X2250Y8000D02*
D03*
X2088Y8188D02*
D03*
X2150Y8250D02*
D03*
X7438Y1000D02*
D03*
X7100Y912D02*
D03*
Y1088D02*
D03*
X6938Y1188D02*
D03*
X6738D02*
D03*
X6625Y1088D02*
D03*
X6438D02*
D03*
X6625Y912D02*
D03*
X6438D02*
D03*
X6188D02*
D03*
X6000D02*
D03*
X5838D02*
D03*
Y1088D02*
D03*
X6000D02*
D03*
X6188D02*
D03*
X4875Y2375D02*
D03*
X5062Y2250D02*
D03*
Y2062D02*
D03*
Y1875D02*
D03*
X5188Y1750D02*
D03*
X5625Y1425D02*
D03*
X5500Y1500D02*
D03*
X5312Y1625D02*
D03*
X5438D02*
D03*
X5850Y1312D02*
D03*
Y1462D02*
D03*
X6025Y1862D02*
D03*
Y1988D02*
D03*
X6388Y1812D02*
D03*
Y1688D02*
D03*
Y1462D02*
D03*
Y1588D02*
D03*
X6500Y1312D02*
D03*
X6725Y1662D02*
D03*
X6812Y1562D02*
D03*
X6575Y1812D02*
D03*
Y1688D02*
D03*
X6650Y1938D02*
D03*
X6688Y2062D02*
D03*
X6475Y2025D02*
D03*
X6500Y2250D02*
D03*
Y2500D02*
D03*
X6000Y2875D02*
D03*
X6125Y3000D02*
D03*
X6300D02*
D03*
X4500Y3812D02*
D03*
X6062Y3562D02*
D03*
X5088Y3312D02*
D03*
Y3125D02*
D03*
X5125Y3562D02*
D03*
X5000Y3688D02*
D03*
X4875Y3500D02*
D03*
Y3312D02*
D03*
Y3125D02*
D03*
X5938Y3375D02*
D03*
X5750D02*
D03*
X5562D02*
D03*
X5375D02*
D03*
X5188D02*
D03*
X5938Y3750D02*
D03*
X5750D02*
D03*
X5562D02*
D03*
X5375D02*
D03*
X5188D02*
D03*
X5062Y4000D02*
D03*
X4875Y4188D02*
D03*
X4812Y4375D02*
D03*
X4800Y4575D02*
D03*
X4562D02*
D03*
X4762Y5400D02*
D03*
X4650D02*
D03*
X4875D02*
D03*
X5125D02*
D03*
X5250D02*
D03*
X5375D02*
D03*
X5638Y5275D02*
D03*
X5450Y5475D02*
D03*
X5625Y6788D02*
D03*
X5488Y6925D02*
D03*
X5238Y6875D02*
D03*
X5362Y6750D02*
D03*
X5438Y6625D02*
D03*
X5875Y8375D02*
D03*
X5800Y8125D02*
D03*
X5688Y8250D02*
D03*
X5500D02*
D03*
X5312Y8312D02*
D03*
X5125D02*
D03*
X5000Y8188D02*
D03*
X4812Y8375D02*
D03*
X4725Y8288D02*
D03*
X4875Y8062D02*
D03*
Y7912D02*
D03*
Y7688D02*
D03*
X4412D02*
D03*
X3875Y7912D02*
D03*
X3750D02*
D03*
X3938Y7562D02*
D03*
X3750D02*
D03*
X3875Y6900D02*
D03*
X3750Y6725D02*
D03*
Y6500D02*
D03*
Y6312D02*
D03*
Y6162D02*
D03*
Y5688D02*
D03*
X4088Y4875D02*
D03*
X4438Y4688D02*
D03*
X4312Y4812D02*
D03*
X3375Y4938D02*
D03*
X3738Y5200D02*
D03*
X3650Y5375D02*
D03*
Y5225D02*
D03*
X3562Y5300D02*
D03*
X938Y6762D02*
D03*
X125Y3750D02*
D03*
X250Y3625D02*
D03*
X312Y3812D02*
D03*
X250Y3938D02*
D03*
X100Y4375D02*
D03*
Y4125D02*
D03*
Y3938D02*
D03*
X1125Y9450D02*
D03*
Y9250D02*
D03*
X938Y9312D02*
D03*
X1000Y9125D02*
D03*
X750Y9112D02*
D03*
X612Y8938D02*
D03*
Y8688D02*
D03*
X812Y8938D02*
D03*
Y8688D02*
D03*
X612Y7000D02*
D03*
Y7375D02*
D03*
Y7688D02*
D03*
Y8000D02*
D03*
Y8312D02*
D03*
X812D02*
D03*
Y8000D02*
D03*
Y7688D02*
D03*
Y7375D02*
D03*
Y7125D02*
D03*
Y6875D02*
D03*
X800Y6662D02*
D03*
X1250Y6400D02*
D03*
X1188Y6500D02*
D03*
X1100Y6600D02*
D03*
X938Y6438D02*
D03*
X1038Y6312D02*
D03*
X1250D02*
D03*
X2625Y5338D02*
D03*
X2762Y5312D02*
D03*
X3175Y5175D02*
D03*
Y5025D02*
D03*
X3088Y4850D02*
D03*
Y4625D02*
D03*
Y4750D02*
D03*
X3175Y4812D02*
D03*
X3150Y4500D02*
D03*
X2812Y4312D02*
D03*
X2875Y4250D02*
D03*
X2938Y4188D02*
D03*
X3000Y4125D02*
D03*
X1938Y5788D02*
D03*
X2450Y5325D02*
D03*
X2350Y5088D02*
D03*
X2475D02*
D03*
X2438Y4688D02*
D03*
X2350Y4962D02*
D03*
X2562Y5000D02*
D03*
X2388Y2550D02*
D03*
X2788Y4500D02*
D03*
X2438Y4562D02*
D03*
X2875Y4438D02*
D03*
X1462Y5700D02*
D03*
X1650Y5788D02*
D03*
X2250Y6062D02*
D03*
X5485Y8633D02*
D03*
X5742Y8640D02*
D03*
X6350Y7200D02*
D03*
X6800Y7150D02*
D03*
X1000Y3812D02*
D03*
X4312Y5412D02*
D03*
X3962D02*
D03*
X4875Y7562D02*
D03*
X5163Y7538D02*
D03*
X5775Y7275D02*
D03*
X5926Y5904D02*
D03*
X6062Y5983D02*
D03*
Y5900D02*
D03*
X2125Y3312D02*
D03*
X1514Y3430D02*
D03*
X1512Y3850D02*
D03*
Y3912D02*
D03*
X2212Y5788D02*
D03*
X1812D02*
D03*
X1188Y5750D02*
D03*
X1250Y6125D02*
D03*
X6062Y5688D02*
D03*
X4912Y7150D02*
D03*
X3988Y7013D02*
D03*
X4488Y7600D02*
D03*
X4550D02*
D03*
X4188Y7562D02*
D03*
X3438Y5875D02*
D03*
Y5938D02*
D03*
X3125Y5250D02*
D03*
X5638Y7400D02*
D03*
X3312Y7812D02*
D03*
X3250D02*
D03*
X5638Y7338D02*
D03*
X6188Y6938D02*
D03*
X6250Y7000D02*
D03*
X6188Y6812D02*
D03*
X5450Y5812D02*
D03*
X4312D02*
D03*
X5000D02*
D03*
X3750D02*
D03*
X3738Y7012D02*
D03*
X1000Y5938D02*
D03*
X7119Y8350D02*
D03*
X7475Y8000D02*
D03*
X7038Y8625D02*
D03*
X7388Y8612D02*
D03*
X7325D02*
D03*
X6800Y8625D02*
D03*
X7062Y8875D02*
D03*
Y8812D02*
D03*
X4138Y2588D02*
D03*
Y2525D02*
D03*
X4950Y2262D02*
D03*
X4888D02*
D03*
X4750Y3138D02*
D03*
Y3075D02*
D03*
X8438Y1500D02*
D03*
X8725Y1450D02*
D03*
Y1375D02*
D03*
X8438Y2250D02*
D03*
X7812Y2312D02*
D03*
X7312Y2812D02*
D03*
X7875D02*
D03*
X9688Y2250D02*
D03*
X9062D02*
D03*
X8462Y2100D02*
D03*
X9062D02*
D03*
X1850Y8688D02*
D03*
X812Y3875D02*
D03*
X1312Y4312D02*
D03*
X1625Y5150D02*
D03*
X1062Y5875D02*
D03*
X1000Y4275D02*
D03*
X1162Y7500D02*
D03*
X1225D02*
D03*
Y7125D02*
D03*
X3688Y2988D02*
D03*
X3625D02*
D03*
X4125Y3312D02*
D03*
X4188D02*
D03*
X2712Y1162D02*
D03*
X2250D02*
D03*
X3000Y2088D02*
D03*
X2388Y2938D02*
D03*
X3000Y3812D02*
D03*
X4562Y1625D02*
D03*
Y1688D02*
D03*
X2312Y7500D02*
D03*
X3812Y3812D02*
D03*
X3750D02*
D03*
X3688D02*
D03*
X2250Y7500D02*
D03*
X2188D02*
D03*
X1925Y8150D02*
D03*
X1225Y7188D02*
D03*
X1512Y4738D02*
D03*
Y5150D02*
D03*
X6125Y2450D02*
D03*
X6312D02*
D03*
X6288Y1000D02*
D03*
X7188Y2125D02*
D03*
X7125Y2438D02*
D03*
X7188Y2312D02*
D03*
X6962Y2062D02*
D03*
X9603Y2438D02*
D03*
X8347D02*
D03*
X7588Y1962D02*
D03*
X8225D02*
D03*
X8850D02*
D03*
X9475D02*
D03*
X7725Y2375D02*
D03*
X8975D02*
D03*
X9538Y2500D02*
D03*
X8912D02*
D03*
X8287D02*
D03*
X7662D02*
D03*
X6725Y3000D02*
D03*
X5938Y5812D02*
D03*
X6062Y6062D02*
D03*
X6000Y6125D02*
D03*
X5938Y6188D02*
D03*
X8000Y1250D02*
D03*
X8250Y1500D02*
D03*
X8188Y1438D02*
D03*
X8125Y1375D02*
D03*
X8062Y1312D02*
D03*
X7275Y1000D02*
D03*
X5937Y1225D02*
D03*
X5938Y2638D02*
D03*
D124*
X4688Y6338D02*
D03*
M02*
