G04*
G04 #@! TF.GenerationSoftware,Altium Limited,Altium Designer,23.2.1 (34)*
G04*
G04 Layer_Color=65535*
%FSLAX42Y42*%
%MOMM*%
G71*
G04*
G04 #@! TF.SameCoordinates,D42B7736-0A14-4BE5-A4A9-6633498721EE*
G04*
G04*
G04 #@! TF.FilePolarity,Positive*
G04*
G01*
G75*
%ADD10C,0.20*%
%ADD11C,0.25*%
%ADD12C,0.40*%
%ADD13C,0.50*%
%ADD14C,0.35*%
%ADD15C,0.25*%
%ADD16C,0.13*%
%ADD17C,0.15*%
%ADD18C,0.15*%
%ADD19C,0.15*%
G36*
X6800Y8204D02*
X6690D01*
X6800Y8314D01*
Y8204D01*
D02*
G37*
G36*
X5028Y8070D02*
X4917D01*
Y8180D01*
X5028Y8070D01*
D02*
G37*
G36*
X3753Y7162D02*
Y7272D01*
X3863D01*
X3753Y7162D01*
D02*
G37*
G36*
X2762Y5703D02*
X2652Y5812D01*
X2762D01*
Y5703D01*
D02*
G37*
G36*
X6078Y3683D02*
X5967Y3792D01*
X6078D01*
Y3683D01*
D02*
G37*
G36*
X9621Y2430D02*
X9511Y2540D01*
X9621D01*
Y2430D01*
D02*
G37*
G36*
X8996D02*
X8886Y2540D01*
X8996D01*
Y2430D01*
D02*
G37*
G36*
X8365Y2425D02*
X8255Y2535D01*
X8365D01*
Y2425D01*
D02*
G37*
G36*
X7740D02*
X7630Y2535D01*
X7740D01*
Y2425D01*
D02*
G37*
G36*
X2430Y2023D02*
X2320D01*
X2430Y2133D01*
Y2023D01*
D02*
G37*
G36*
X4192Y653D02*
X4083D01*
Y762D01*
X4192Y653D01*
D02*
G37*
G36*
X8788Y200D02*
X8588D01*
Y600D01*
X8788D01*
Y200D01*
D02*
G37*
G36*
X8750Y9700D02*
Y9500D01*
X8250D01*
Y9700D01*
X8750D01*
D02*
G37*
G36*
X9762Y8825D02*
Y8425D01*
X9562D01*
Y8825D01*
X9762D01*
D02*
G37*
G36*
X1477Y8855D02*
X1479Y8854D01*
X1480Y8854D01*
X1480Y8853D01*
X1481Y8852D01*
X1481Y8850D01*
Y8755D01*
Y8755D01*
Y8754D01*
X1481Y8754D01*
X1480Y8753D01*
X1480Y8752D01*
X1479Y8751D01*
X1478Y8750D01*
X1476Y8750D01*
X1475D01*
X1475Y8750D01*
X1474Y8750D01*
X1472Y8751D01*
X1472Y8752D01*
X1471Y8753D01*
X1429Y8830D01*
Y8755D01*
Y8755D01*
Y8754D01*
X1428Y8754D01*
X1428Y8753D01*
X1427Y8752D01*
X1426Y8751D01*
X1425Y8750D01*
X1423Y8750D01*
X1422D01*
X1422Y8750D01*
X1421Y8751D01*
X1420Y8751D01*
X1419Y8752D01*
X1418Y8754D01*
X1418Y8755D01*
Y8850D01*
Y8850D01*
Y8851D01*
X1418Y8851D01*
X1419Y8853D01*
X1419Y8854D01*
X1420Y8854D01*
X1422Y8855D01*
X1423Y8855D01*
X1424D01*
X1424Y8855D01*
X1425Y8855D01*
X1426Y8854D01*
X1427Y8854D01*
X1427Y8853D01*
X1428Y8852D01*
X1471Y8776D01*
Y8850D01*
Y8850D01*
Y8851D01*
X1471Y8851D01*
X1471Y8853D01*
X1472Y8854D01*
X1473Y8854D01*
X1474Y8855D01*
X1476Y8855D01*
X1477D01*
X1477Y8855D01*
D02*
G37*
G36*
X1340Y8813D02*
X1342Y8812D01*
X1342Y8812D01*
X1343Y8811D01*
X1344Y8810D01*
X1344Y8808D01*
Y8792D01*
X1361D01*
X1362Y8792D01*
X1362Y8791D01*
X1363Y8791D01*
X1364Y8790D01*
X1365Y8789D01*
X1365Y8787D01*
Y8786D01*
Y8786D01*
X1365Y8785D01*
X1365Y8784D01*
X1364Y8783D01*
X1363Y8782D01*
X1362Y8782D01*
X1360Y8781D01*
X1344D01*
Y8766D01*
Y8766D01*
Y8765D01*
X1344Y8764D01*
X1343Y8763D01*
X1343Y8762D01*
X1342Y8761D01*
X1341Y8761D01*
X1339Y8761D01*
X1338D01*
X1337Y8761D01*
X1336Y8761D01*
X1335Y8762D01*
X1334Y8763D01*
X1334Y8764D01*
X1334Y8766D01*
Y8781D01*
X1317D01*
X1316Y8782D01*
X1315Y8782D01*
X1314Y8783D01*
X1313Y8784D01*
X1313Y8785D01*
X1312Y8787D01*
Y8787D01*
Y8788D01*
X1313Y8788D01*
X1313Y8789D01*
X1314Y8790D01*
X1315Y8791D01*
X1316Y8792D01*
X1318Y8792D01*
X1334D01*
Y8808D01*
Y8808D01*
Y8809D01*
X1334Y8809D01*
X1334Y8811D01*
X1335Y8811D01*
X1336Y8812D01*
X1337Y8813D01*
X1339Y8813D01*
X1340D01*
X1340Y8813D01*
D02*
G37*
G36*
X1393Y8855D02*
X1394Y8854D01*
X1395Y8854D01*
X1396Y8853D01*
X1397Y8852D01*
X1397Y8850D01*
Y8755D01*
Y8755D01*
Y8754D01*
X1397Y8754D01*
X1396Y8753D01*
X1396Y8752D01*
X1395Y8751D01*
X1393Y8750D01*
X1392Y8750D01*
X1391D01*
X1390Y8750D01*
X1389Y8751D01*
X1388Y8751D01*
X1387Y8752D01*
X1387Y8754D01*
X1386Y8755D01*
Y8850D01*
Y8850D01*
Y8851D01*
X1387Y8851D01*
X1387Y8853D01*
X1388Y8854D01*
X1389Y8854D01*
X1390Y8855D01*
X1392Y8855D01*
X1392D01*
X1393Y8855D01*
D02*
G37*
G36*
X1456Y9792D02*
X1457Y9792D01*
X1458Y9791D01*
X1459Y9790D01*
X1460Y9789D01*
X1460Y9787D01*
Y9693D01*
Y9693D01*
Y9692D01*
X1460Y9691D01*
X1459Y9690D01*
X1459Y9689D01*
X1458Y9688D01*
X1456Y9688D01*
X1455Y9688D01*
X1454D01*
X1453Y9688D01*
X1453Y9688D01*
X1451Y9689D01*
X1450Y9689D01*
X1450Y9690D01*
X1407Y9767D01*
Y9693D01*
Y9693D01*
Y9692D01*
X1407Y9691D01*
X1407Y9690D01*
X1406Y9689D01*
X1405Y9688D01*
X1404Y9688D01*
X1402Y9688D01*
X1401D01*
X1400Y9688D01*
X1399Y9688D01*
X1398Y9689D01*
X1397Y9690D01*
X1397Y9691D01*
X1397Y9693D01*
Y9787D01*
Y9787D01*
Y9788D01*
X1397Y9789D01*
X1397Y9790D01*
X1398Y9791D01*
X1399Y9792D01*
X1400Y9792D01*
X1402Y9793D01*
X1402D01*
X1403Y9792D01*
X1404Y9792D01*
X1405Y9792D01*
X1405Y9791D01*
X1406Y9791D01*
X1407Y9790D01*
X1449Y9713D01*
Y9787D01*
Y9787D01*
Y9788D01*
X1450Y9789D01*
X1450Y9790D01*
X1451Y9791D01*
X1452Y9792D01*
X1453Y9792D01*
X1455Y9793D01*
X1455D01*
X1456Y9792D01*
D02*
G37*
G36*
X1520Y9793D02*
X1522Y9792D01*
X1524Y9792D01*
X1527Y9791D01*
X1530Y9790D01*
X1533Y9788D01*
X1536Y9785D01*
X1537Y9785D01*
X1538Y9784D01*
X1539Y9782D01*
X1540Y9780D01*
X1542Y9777D01*
X1543Y9774D01*
X1544Y9770D01*
X1544Y9766D01*
Y9714D01*
Y9714D01*
Y9713D01*
Y9713D01*
X1544Y9712D01*
X1544Y9710D01*
X1543Y9707D01*
X1542Y9704D01*
X1541Y9701D01*
X1539Y9698D01*
X1536Y9695D01*
X1536Y9695D01*
X1535Y9694D01*
X1533Y9693D01*
X1531Y9691D01*
X1528Y9690D01*
X1525Y9689D01*
X1522Y9688D01*
X1518Y9688D01*
X1485D01*
X1485Y9688D01*
X1484Y9688D01*
X1483Y9689D01*
X1482Y9690D01*
X1481Y9691D01*
X1481Y9693D01*
Y9787D01*
Y9788D01*
Y9788D01*
X1481Y9789D01*
X1482Y9790D01*
X1482Y9791D01*
X1483Y9792D01*
X1485Y9793D01*
X1486Y9793D01*
X1519D01*
X1520Y9793D01*
D02*
G37*
G36*
X1372D02*
X1373Y9792D01*
X1374Y9792D01*
X1375Y9791D01*
X1375Y9789D01*
X1376Y9787D01*
Y9787D01*
Y9787D01*
X1375Y9786D01*
X1375Y9785D01*
X1374Y9784D01*
X1373Y9783D01*
X1372Y9782D01*
X1370Y9782D01*
X1338D01*
X1336Y9782D01*
X1335Y9782D01*
X1333Y9781D01*
X1331Y9780D01*
X1329Y9779D01*
X1327Y9778D01*
X1327Y9777D01*
X1327Y9777D01*
X1326Y9776D01*
X1325Y9775D01*
X1325Y9773D01*
X1324Y9771D01*
X1323Y9769D01*
X1323Y9766D01*
Y9714D01*
Y9713D01*
Y9713D01*
X1323Y9711D01*
X1324Y9710D01*
X1324Y9708D01*
X1325Y9706D01*
X1326Y9704D01*
X1327Y9702D01*
X1328Y9702D01*
X1328Y9702D01*
X1329Y9701D01*
X1331Y9700D01*
X1332Y9700D01*
X1334Y9699D01*
X1336Y9698D01*
X1339Y9698D01*
X1365D01*
Y9740D01*
X1354D01*
X1353Y9740D01*
X1352Y9741D01*
X1351Y9741D01*
X1350Y9742D01*
X1349Y9744D01*
X1349Y9745D01*
Y9745D01*
Y9746D01*
X1350Y9747D01*
X1350Y9748D01*
X1350Y9749D01*
X1351Y9750D01*
X1353Y9750D01*
X1355Y9751D01*
X1371D01*
X1372Y9750D01*
X1373Y9750D01*
X1374Y9749D01*
X1375Y9748D01*
X1375Y9747D01*
X1376Y9745D01*
Y9693D01*
Y9693D01*
Y9692D01*
X1375Y9691D01*
X1375Y9690D01*
X1374Y9689D01*
X1373Y9688D01*
X1372Y9688D01*
X1370Y9688D01*
X1338D01*
X1337Y9688D01*
X1335Y9688D01*
X1332Y9688D01*
X1329Y9689D01*
X1326Y9691D01*
X1323Y9693D01*
X1320Y9695D01*
X1320Y9695D01*
X1319Y9697D01*
X1318Y9698D01*
X1316Y9700D01*
X1315Y9703D01*
X1314Y9706D01*
X1313Y9710D01*
X1312Y9714D01*
Y9766D01*
Y9767D01*
Y9767D01*
Y9767D01*
X1313Y9768D01*
X1313Y9770D01*
X1313Y9773D01*
X1314Y9776D01*
X1316Y9779D01*
X1318Y9782D01*
X1320Y9785D01*
X1320Y9785D01*
X1322Y9786D01*
X1323Y9787D01*
X1325Y9789D01*
X1328Y9790D01*
X1331Y9792D01*
X1335Y9792D01*
X1339Y9793D01*
X1371D01*
X1372Y9793D01*
D02*
G37*
G36*
X2468Y8855D02*
X2469Y8854D01*
X2470Y8854D01*
X2471Y8853D01*
X2471Y8852D01*
X2471Y8850D01*
Y8781D01*
Y8781D01*
Y8781D01*
Y8780D01*
X2471Y8779D01*
Y8778D01*
X2471Y8777D01*
X2470Y8774D01*
X2469Y8770D01*
X2467Y8766D01*
X2466Y8765D01*
X2465Y8763D01*
X2464Y8761D01*
X2462Y8759D01*
X2462Y8759D01*
X2462Y8759D01*
X2461Y8758D01*
X2460Y8758D01*
X2459Y8757D01*
X2458Y8756D01*
X2456Y8755D01*
X2453Y8753D01*
X2449Y8751D01*
X2444Y8750D01*
X2442Y8750D01*
X2440Y8750D01*
X2438D01*
X2437Y8750D01*
X2436Y8750D01*
X2435Y8751D01*
X2432Y8751D01*
X2428Y8752D01*
X2425Y8754D01*
X2423Y8755D01*
X2421Y8756D01*
X2419Y8757D01*
X2417Y8759D01*
X2417Y8759D01*
X2417Y8759D01*
X2416Y8760D01*
X2416Y8761D01*
X2415Y8762D01*
X2414Y8763D01*
X2413Y8765D01*
X2411Y8769D01*
X2410Y8772D01*
X2409Y8777D01*
X2408Y8779D01*
X2408Y8781D01*
Y8850D01*
Y8850D01*
Y8851D01*
X2409Y8851D01*
X2409Y8853D01*
X2409Y8854D01*
X2410Y8854D01*
X2412Y8855D01*
X2413Y8855D01*
X2414D01*
X2415Y8855D01*
X2416Y8854D01*
X2417Y8854D01*
X2418Y8853D01*
X2419Y8852D01*
X2419Y8850D01*
Y8781D01*
Y8781D01*
Y8781D01*
X2419Y8780D01*
X2419Y8778D01*
X2419Y8776D01*
X2420Y8774D01*
X2421Y8771D01*
X2423Y8769D01*
X2425Y8766D01*
X2425Y8766D01*
X2426Y8766D01*
X2427Y8765D01*
X2429Y8764D01*
X2431Y8762D01*
X2433Y8761D01*
X2436Y8761D01*
X2440Y8761D01*
X2440D01*
X2441Y8761D01*
X2443Y8761D01*
X2445Y8761D01*
X2447Y8762D01*
X2450Y8763D01*
X2452Y8764D01*
X2455Y8766D01*
X2455Y8767D01*
X2456Y8768D01*
X2456Y8769D01*
X2458Y8771D01*
X2459Y8773D01*
X2460Y8775D01*
X2461Y8778D01*
X2461Y8781D01*
Y8850D01*
Y8850D01*
Y8851D01*
X2461Y8851D01*
X2461Y8853D01*
X2462Y8854D01*
X2463Y8854D01*
X2464Y8855D01*
X2466Y8855D01*
X2467D01*
X2468Y8855D01*
D02*
G37*
G36*
X2278Y8813D02*
X2279Y8812D01*
X2280Y8812D01*
X2281Y8811D01*
X2281Y8810D01*
X2282Y8808D01*
Y8792D01*
X2298D01*
X2299Y8792D01*
X2300Y8791D01*
X2301Y8791D01*
X2302Y8790D01*
X2302Y8789D01*
X2303Y8787D01*
Y8786D01*
Y8786D01*
X2302Y8785D01*
X2302Y8784D01*
X2301Y8783D01*
X2300Y8782D01*
X2299Y8782D01*
X2297Y8781D01*
X2282D01*
Y8766D01*
Y8766D01*
Y8765D01*
X2281Y8764D01*
X2281Y8763D01*
X2280Y8762D01*
X2279Y8761D01*
X2278Y8761D01*
X2276Y8761D01*
X2276D01*
X2275Y8761D01*
X2274Y8761D01*
X2273Y8762D01*
X2272Y8763D01*
X2271Y8764D01*
X2271Y8766D01*
Y8781D01*
X2254D01*
X2254Y8782D01*
X2253Y8782D01*
X2252Y8783D01*
X2251Y8784D01*
X2250Y8785D01*
X2250Y8787D01*
Y8787D01*
Y8788D01*
X2250Y8788D01*
X2251Y8789D01*
X2251Y8790D01*
X2252Y8791D01*
X2254Y8792D01*
X2255Y8792D01*
X2271D01*
Y8808D01*
Y8808D01*
Y8809D01*
X2271Y8809D01*
X2272Y8811D01*
X2272Y8811D01*
X2273Y8812D01*
X2275Y8813D01*
X2276Y8813D01*
X2277D01*
X2278Y8813D01*
D02*
G37*
G36*
X2552Y8855D02*
X2553Y8855D01*
X2554Y8854D01*
X2555Y8853D01*
X2555Y8852D01*
X2556Y8850D01*
Y8850D01*
Y8849D01*
X2555Y8848D01*
X2555Y8847D01*
X2554Y8846D01*
X2553Y8846D01*
X2552Y8845D01*
X2550Y8845D01*
X2529D01*
Y8755D01*
Y8755D01*
Y8754D01*
X2529Y8754D01*
X2528Y8753D01*
X2528Y8752D01*
X2527Y8751D01*
X2526Y8750D01*
X2524Y8750D01*
X2523D01*
X2522Y8750D01*
X2521Y8751D01*
X2520Y8751D01*
X2519Y8752D01*
X2519Y8754D01*
X2519Y8755D01*
Y8845D01*
X2497D01*
X2496Y8845D01*
X2495Y8846D01*
X2494Y8846D01*
X2493Y8847D01*
X2492Y8848D01*
X2492Y8850D01*
Y8850D01*
Y8851D01*
X2493Y8852D01*
X2493Y8853D01*
X2493Y8854D01*
X2494Y8855D01*
X2496Y8855D01*
X2498Y8855D01*
X2551D01*
X2552Y8855D01*
D02*
G37*
G36*
X2358D02*
X2359D01*
X2360Y8855D01*
X2363Y8854D01*
X2367Y8853D01*
X2370Y8851D01*
X2372Y8850D01*
X2374Y8849D01*
X2376Y8848D01*
X2378Y8846D01*
X2378Y8846D01*
X2378Y8846D01*
X2379Y8845D01*
X2379Y8844D01*
X2380Y8844D01*
X2381Y8842D01*
X2382Y8840D01*
X2384Y8837D01*
X2386Y8833D01*
X2387Y8829D01*
X2387Y8826D01*
X2387Y8824D01*
Y8781D01*
Y8781D01*
Y8781D01*
Y8780D01*
X2387Y8779D01*
Y8778D01*
X2386Y8777D01*
X2386Y8774D01*
X2385Y8770D01*
X2383Y8767D01*
X2382Y8765D01*
X2381Y8763D01*
X2379Y8761D01*
X2378Y8759D01*
X2378Y8759D01*
X2377Y8759D01*
X2377Y8758D01*
X2376Y8758D01*
X2375Y8757D01*
X2374Y8756D01*
X2371Y8755D01*
X2368Y8753D01*
X2364Y8751D01*
X2360Y8750D01*
X2358Y8750D01*
X2355Y8750D01*
X2354D01*
X2353Y8750D01*
X2352Y8750D01*
X2351Y8751D01*
X2348Y8751D01*
X2344Y8752D01*
X2340Y8754D01*
X2339Y8755D01*
X2337Y8756D01*
X2335Y8758D01*
X2333Y8759D01*
X2333Y8759D01*
X2333Y8760D01*
X2332Y8760D01*
X2331Y8761D01*
X2330Y8763D01*
X2329Y8766D01*
X2327Y8769D01*
X2325Y8773D01*
X2324Y8777D01*
X2324Y8779D01*
X2324Y8781D01*
Y8824D01*
Y8824D01*
Y8824D01*
Y8825D01*
X2324Y8826D01*
X2324Y8827D01*
X2324Y8828D01*
X2325Y8831D01*
X2326Y8835D01*
X2328Y8839D01*
X2329Y8841D01*
X2330Y8842D01*
X2331Y8844D01*
X2333Y8846D01*
X2333Y8846D01*
X2333Y8846D01*
X2334Y8847D01*
X2335Y8848D01*
X2336Y8848D01*
X2337Y8849D01*
X2339Y8851D01*
X2343Y8852D01*
X2346Y8854D01*
X2351Y8855D01*
X2353Y8855D01*
X2355Y8855D01*
X2357D01*
X2358Y8855D01*
D02*
G37*
G36*
X2406Y9792D02*
X2407Y9792D01*
X2408Y9791D01*
X2409Y9790D01*
X2410Y9789D01*
X2410Y9787D01*
Y9693D01*
Y9693D01*
Y9692D01*
X2410Y9691D01*
X2409Y9690D01*
X2409Y9689D01*
X2408Y9688D01*
X2406Y9688D01*
X2405Y9688D01*
X2404D01*
X2403Y9688D01*
X2403Y9688D01*
X2401Y9689D01*
X2400Y9689D01*
X2400Y9690D01*
X2357Y9767D01*
Y9693D01*
Y9693D01*
Y9692D01*
X2357Y9691D01*
X2357Y9690D01*
X2356Y9689D01*
X2355Y9688D01*
X2354Y9688D01*
X2352Y9688D01*
X2351D01*
X2350Y9688D01*
X2349Y9688D01*
X2348Y9689D01*
X2347Y9690D01*
X2347Y9691D01*
X2347Y9693D01*
Y9787D01*
Y9787D01*
Y9788D01*
X2347Y9789D01*
X2347Y9790D01*
X2348Y9791D01*
X2349Y9792D01*
X2350Y9792D01*
X2352Y9793D01*
X2352D01*
X2353Y9792D01*
X2354Y9792D01*
X2355Y9792D01*
X2355Y9791D01*
X2356Y9791D01*
X2357Y9790D01*
X2399Y9713D01*
Y9787D01*
Y9787D01*
Y9788D01*
X2400Y9789D01*
X2400Y9790D01*
X2401Y9791D01*
X2402Y9792D01*
X2403Y9792D01*
X2405Y9793D01*
X2405D01*
X2406Y9792D01*
D02*
G37*
G36*
X2470Y9793D02*
X2472Y9792D01*
X2474Y9792D01*
X2477Y9791D01*
X2480Y9790D01*
X2483Y9788D01*
X2486Y9785D01*
X2487Y9785D01*
X2488Y9784D01*
X2489Y9782D01*
X2490Y9780D01*
X2492Y9777D01*
X2493Y9774D01*
X2494Y9770D01*
X2494Y9766D01*
Y9714D01*
Y9714D01*
Y9713D01*
Y9713D01*
X2494Y9712D01*
X2494Y9710D01*
X2493Y9707D01*
X2492Y9704D01*
X2491Y9701D01*
X2489Y9698D01*
X2486Y9695D01*
X2486Y9695D01*
X2485Y9694D01*
X2483Y9693D01*
X2481Y9691D01*
X2478Y9690D01*
X2475Y9689D01*
X2472Y9688D01*
X2468Y9688D01*
X2435D01*
X2435Y9688D01*
X2434Y9688D01*
X2433Y9689D01*
X2432Y9690D01*
X2431Y9691D01*
X2431Y9693D01*
Y9787D01*
Y9788D01*
Y9788D01*
X2431Y9789D01*
X2432Y9790D01*
X2432Y9791D01*
X2433Y9792D01*
X2435Y9793D01*
X2436Y9793D01*
X2469D01*
X2470Y9793D01*
D02*
G37*
G36*
X2322D02*
X2323Y9792D01*
X2324Y9792D01*
X2325Y9791D01*
X2325Y9789D01*
X2326Y9787D01*
Y9787D01*
Y9787D01*
X2325Y9786D01*
X2325Y9785D01*
X2324Y9784D01*
X2323Y9783D01*
X2322Y9782D01*
X2320Y9782D01*
X2288D01*
X2286Y9782D01*
X2285Y9782D01*
X2283Y9781D01*
X2281Y9780D01*
X2279Y9779D01*
X2277Y9778D01*
X2277Y9777D01*
X2277Y9777D01*
X2276Y9776D01*
X2275Y9775D01*
X2275Y9773D01*
X2274Y9771D01*
X2273Y9769D01*
X2273Y9766D01*
Y9714D01*
Y9713D01*
Y9713D01*
X2273Y9711D01*
X2274Y9710D01*
X2274Y9708D01*
X2275Y9706D01*
X2276Y9704D01*
X2277Y9702D01*
X2278Y9702D01*
X2278Y9702D01*
X2279Y9701D01*
X2281Y9700D01*
X2282Y9700D01*
X2284Y9699D01*
X2286Y9698D01*
X2289Y9698D01*
X2315D01*
Y9740D01*
X2304D01*
X2303Y9740D01*
X2302Y9741D01*
X2301Y9741D01*
X2300Y9742D01*
X2299Y9744D01*
X2299Y9745D01*
Y9745D01*
Y9746D01*
X2300Y9747D01*
X2300Y9748D01*
X2300Y9749D01*
X2301Y9750D01*
X2303Y9750D01*
X2305Y9751D01*
X2321D01*
X2322Y9750D01*
X2323Y9750D01*
X2324Y9749D01*
X2325Y9748D01*
X2325Y9747D01*
X2326Y9745D01*
Y9693D01*
Y9693D01*
Y9692D01*
X2325Y9691D01*
X2325Y9690D01*
X2324Y9689D01*
X2323Y9688D01*
X2322Y9688D01*
X2320Y9688D01*
X2288D01*
X2287Y9688D01*
X2285Y9688D01*
X2282Y9688D01*
X2279Y9689D01*
X2276Y9691D01*
X2273Y9693D01*
X2270Y9695D01*
X2270Y9695D01*
X2269Y9697D01*
X2268Y9698D01*
X2266Y9700D01*
X2265Y9703D01*
X2264Y9706D01*
X2263Y9710D01*
X2262Y9714D01*
Y9766D01*
Y9767D01*
Y9767D01*
Y9767D01*
X2263Y9768D01*
X2263Y9770D01*
X2263Y9773D01*
X2264Y9776D01*
X2266Y9779D01*
X2267Y9782D01*
X2270Y9785D01*
X2270Y9785D01*
X2272Y9786D01*
X2273Y9787D01*
X2275Y9789D01*
X2278Y9790D01*
X2281Y9792D01*
X2285Y9792D01*
X2289Y9793D01*
X2321D01*
X2322Y9793D01*
D02*
G37*
G36*
X2044Y9292D02*
X2046Y9292D01*
X2047Y9291D01*
X2047Y9290D01*
X2048Y9289D01*
X2048Y9287D01*
Y9193D01*
Y9193D01*
Y9192D01*
X2048Y9191D01*
X2047Y9190D01*
X2047Y9189D01*
X2046Y9188D01*
X2045Y9188D01*
X2043Y9188D01*
X2042D01*
X2041Y9188D01*
X2040Y9188D01*
X2039Y9189D01*
X2038Y9190D01*
X2038Y9191D01*
X2038Y9193D01*
Y9270D01*
X2016Y9238D01*
X2016Y9238D01*
X2016Y9237D01*
X2015Y9236D01*
X2013Y9235D01*
X2012Y9235D01*
X2011Y9235D01*
X2011D01*
X2010Y9235D01*
X2010Y9235D01*
X2009Y9235D01*
X2008Y9236D01*
X2007Y9237D01*
X2006Y9238D01*
X1985Y9270D01*
Y9193D01*
Y9193D01*
Y9192D01*
X1985Y9191D01*
X1984Y9190D01*
X1984Y9189D01*
X1983Y9188D01*
X1982Y9188D01*
X1980Y9188D01*
X1979D01*
X1978Y9188D01*
X1977Y9188D01*
X1976Y9189D01*
X1975Y9190D01*
X1975Y9191D01*
X1974Y9193D01*
Y9287D01*
Y9287D01*
Y9288D01*
X1975Y9289D01*
X1975Y9290D01*
X1976Y9291D01*
X1977Y9292D01*
X1978Y9292D01*
X1980Y9293D01*
X1980D01*
X1981Y9292D01*
X1982Y9292D01*
X1983Y9292D01*
X1984Y9291D01*
X1984Y9290D01*
X2011Y9250D01*
X2038Y9290D01*
Y9290D01*
X2039Y9291D01*
X2039Y9292D01*
X2041Y9292D01*
X2042Y9292D01*
X2043Y9293D01*
X2044D01*
X2044Y9292D01*
D02*
G37*
G36*
X1507D02*
X1509Y9292D01*
X1510Y9291D01*
X1510Y9290D01*
X1511Y9289D01*
X1511Y9287D01*
Y9193D01*
Y9193D01*
Y9192D01*
X1511Y9191D01*
X1510Y9190D01*
X1510Y9189D01*
X1509Y9188D01*
X1508Y9188D01*
X1506Y9188D01*
X1505D01*
X1504Y9188D01*
X1503Y9188D01*
X1502Y9189D01*
X1501Y9190D01*
X1501Y9191D01*
X1501Y9193D01*
Y9270D01*
X1479Y9238D01*
X1479Y9238D01*
X1479Y9237D01*
X1478Y9236D01*
X1476Y9235D01*
X1475Y9235D01*
X1474Y9235D01*
X1474D01*
X1473Y9235D01*
X1473Y9235D01*
X1472Y9235D01*
X1471Y9236D01*
X1470Y9237D01*
X1469Y9238D01*
X1448Y9270D01*
Y9193D01*
Y9193D01*
Y9192D01*
X1448Y9191D01*
X1447Y9190D01*
X1447Y9189D01*
X1446Y9188D01*
X1445Y9188D01*
X1443Y9188D01*
X1442D01*
X1441Y9188D01*
X1440Y9188D01*
X1439Y9189D01*
X1438Y9190D01*
X1438Y9191D01*
X1438Y9193D01*
Y9287D01*
Y9287D01*
Y9288D01*
X1438Y9289D01*
X1438Y9290D01*
X1439Y9291D01*
X1440Y9292D01*
X1441Y9292D01*
X1443Y9293D01*
X1443D01*
X1444Y9292D01*
X1445Y9292D01*
X1446Y9292D01*
X1447Y9291D01*
X1447Y9290D01*
X1474Y9250D01*
X1501Y9290D01*
Y9290D01*
X1502Y9291D01*
X1502Y9292D01*
X1504Y9292D01*
X1505Y9292D01*
X1506Y9293D01*
X1507D01*
X1507Y9292D01*
D02*
G37*
G36*
X2160D02*
X2161Y9292D01*
X2162Y9291D01*
X2163Y9290D01*
X2164Y9289D01*
X2164Y9287D01*
Y9193D01*
Y9193D01*
Y9192D01*
X2164Y9191D01*
X2163Y9190D01*
X2163Y9189D01*
X2162Y9188D01*
X2161Y9188D01*
X2159Y9188D01*
X2158D01*
X2158Y9188D01*
X2157Y9188D01*
X2155Y9189D01*
X2155Y9189D01*
X2154Y9190D01*
X2112Y9267D01*
Y9193D01*
Y9193D01*
Y9192D01*
X2111Y9191D01*
X2111Y9190D01*
X2110Y9189D01*
X2109Y9188D01*
X2108Y9188D01*
X2106Y9188D01*
X2105D01*
X2104Y9188D01*
X2104Y9188D01*
X2103Y9189D01*
X2102Y9190D01*
X2101Y9191D01*
X2101Y9193D01*
Y9287D01*
Y9287D01*
Y9288D01*
X2101Y9289D01*
X2102Y9290D01*
X2102Y9291D01*
X2103Y9292D01*
X2104Y9292D01*
X2106Y9293D01*
X2107D01*
X2107Y9292D01*
X2108Y9292D01*
X2109Y9292D01*
X2110Y9291D01*
X2110Y9291D01*
X2111Y9290D01*
X2154Y9213D01*
Y9287D01*
Y9287D01*
Y9288D01*
X2154Y9289D01*
X2154Y9290D01*
X2155Y9291D01*
X2156Y9292D01*
X2157Y9292D01*
X2159Y9293D01*
X2160D01*
X2160Y9292D01*
D02*
G37*
G36*
X2392Y9293D02*
X2393Y9292D01*
X2394Y9292D01*
X2396Y9292D01*
X2397Y9291D01*
X2399Y9290D01*
X2401Y9289D01*
X2402Y9288D01*
X2404Y9286D01*
X2406Y9284D01*
X2408Y9282D01*
X2409Y9279D01*
X2411Y9276D01*
X2412Y9273D01*
Y9272D01*
X2412Y9272D01*
X2413Y9271D01*
X2413Y9270D01*
X2413Y9269D01*
X2414Y9267D01*
X2414Y9265D01*
X2415Y9263D01*
X2415Y9261D01*
X2415Y9259D01*
X2416Y9256D01*
X2416Y9253D01*
X2417Y9247D01*
X2417Y9240D01*
Y9240D01*
Y9239D01*
Y9238D01*
Y9237D01*
X2417Y9235D01*
Y9233D01*
X2416Y9231D01*
X2416Y9229D01*
X2416Y9224D01*
X2415Y9218D01*
X2414Y9213D01*
X2412Y9207D01*
Y9207D01*
X2412Y9207D01*
X2411Y9206D01*
X2411Y9204D01*
X2410Y9203D01*
X2409Y9201D01*
X2407Y9197D01*
X2404Y9194D01*
X2402Y9192D01*
X2400Y9191D01*
X2398Y9189D01*
X2396Y9188D01*
X2393Y9188D01*
X2391Y9188D01*
X2390D01*
X2389Y9188D01*
X2388Y9188D01*
X2387Y9188D01*
X2385Y9189D01*
X2384Y9189D01*
X2382Y9190D01*
X2380Y9191D01*
X2379Y9192D01*
X2377Y9194D01*
X2375Y9196D01*
X2373Y9198D01*
X2372Y9201D01*
X2370Y9204D01*
X2369Y9207D01*
Y9208D01*
X2369Y9208D01*
X2368Y9209D01*
X2368Y9210D01*
X2368Y9211D01*
X2367Y9213D01*
X2367Y9215D01*
X2366Y9217D01*
X2366Y9219D01*
X2366Y9222D01*
X2365Y9224D01*
X2365Y9227D01*
X2364Y9233D01*
X2364Y9240D01*
Y9240D01*
Y9241D01*
Y9242D01*
Y9243D01*
X2364Y9245D01*
Y9247D01*
X2365Y9249D01*
X2365Y9251D01*
X2365Y9256D01*
X2366Y9262D01*
X2367Y9267D01*
X2369Y9273D01*
Y9273D01*
X2369Y9274D01*
X2369Y9275D01*
X2370Y9276D01*
X2371Y9277D01*
X2372Y9279D01*
X2374Y9283D01*
X2377Y9287D01*
X2379Y9288D01*
X2381Y9290D01*
X2383Y9291D01*
X2385Y9292D01*
X2388Y9293D01*
X2391Y9293D01*
X2391D01*
X2392Y9293D01*
D02*
G37*
G36*
X2329Y9292D02*
X2330Y9292D01*
X2331Y9291D01*
X2332Y9290D01*
X2332Y9289D01*
X2333Y9287D01*
Y9287D01*
Y9287D01*
X2332Y9286D01*
X2332Y9285D01*
X2332Y9285D01*
X2331Y9284D01*
X2331Y9283D01*
X2330Y9283D01*
X2330D01*
X2329Y9283D01*
X2329Y9282D01*
X2328Y9282D01*
X2327Y9282D01*
X2326Y9281D01*
X2323Y9280D01*
X2320Y9278D01*
X2316Y9276D01*
X2313Y9273D01*
X2311Y9271D01*
X2309Y9269D01*
Y9269D01*
X2309Y9268D01*
X2308Y9267D01*
X2307Y9265D01*
X2306Y9263D01*
X2304Y9260D01*
X2303Y9257D01*
X2302Y9254D01*
X2301Y9251D01*
X2318D01*
X2319Y9250D01*
X2321Y9250D01*
X2323Y9250D01*
X2326Y9249D01*
X2329Y9247D01*
X2333Y9245D01*
X2336Y9243D01*
X2336Y9242D01*
X2337Y9242D01*
X2338Y9240D01*
X2339Y9238D01*
X2341Y9235D01*
X2342Y9232D01*
X2343Y9228D01*
X2343Y9224D01*
Y9214D01*
Y9214D01*
Y9213D01*
Y9213D01*
X2343Y9212D01*
X2343Y9210D01*
X2342Y9207D01*
X2341Y9204D01*
X2340Y9201D01*
X2338Y9198D01*
X2335Y9195D01*
X2335Y9195D01*
X2334Y9194D01*
X2332Y9193D01*
X2330Y9191D01*
X2327Y9190D01*
X2324Y9189D01*
X2321Y9188D01*
X2317Y9188D01*
X2316D01*
X2315Y9188D01*
X2313Y9188D01*
X2310Y9188D01*
X2307Y9189D01*
X2304Y9191D01*
X2301Y9193D01*
X2298Y9195D01*
X2298Y9195D01*
X2297Y9196D01*
X2296Y9198D01*
X2294Y9200D01*
X2293Y9203D01*
X2292Y9206D01*
X2291Y9210D01*
X2291Y9214D01*
Y9245D01*
Y9245D01*
Y9246D01*
Y9247D01*
X2291Y9248D01*
X2291Y9250D01*
X2291Y9252D01*
X2291Y9254D01*
X2292Y9256D01*
X2294Y9261D01*
X2294Y9263D01*
X2296Y9266D01*
X2297Y9269D01*
X2299Y9271D01*
X2300Y9274D01*
X2302Y9277D01*
X2303Y9277D01*
X2303Y9277D01*
X2303Y9277D01*
X2304Y9278D01*
X2306Y9280D01*
X2308Y9282D01*
X2311Y9285D01*
X2315Y9287D01*
X2318Y9290D01*
X2322Y9291D01*
X2323D01*
X2323Y9292D01*
X2324Y9292D01*
X2324Y9292D01*
X2326Y9292D01*
X2327Y9293D01*
X2328D01*
X2329Y9292D01*
D02*
G37*
G36*
X2245Y9293D02*
X2247Y9292D01*
X2249Y9292D01*
X2252Y9291D01*
X2256Y9290D01*
X2259Y9288D01*
X2262Y9285D01*
X2262Y9285D01*
X2263Y9284D01*
X2264Y9282D01*
X2266Y9280D01*
X2267Y9277D01*
X2268Y9274D01*
X2269Y9270D01*
X2269Y9266D01*
Y9266D01*
Y9266D01*
Y9265D01*
X2269Y9264D01*
X2269Y9263D01*
X2269Y9262D01*
X2268Y9259D01*
X2267Y9255D01*
X2266Y9254D01*
X2265Y9252D01*
X2264Y9250D01*
X2262Y9248D01*
X2261Y9247D01*
X2259Y9245D01*
X2259D01*
X2259Y9245D01*
X2260Y9245D01*
X2261Y9244D01*
X2262Y9242D01*
X2264Y9240D01*
X2266Y9237D01*
X2268Y9233D01*
X2269Y9231D01*
X2269Y9229D01*
X2269Y9227D01*
X2269Y9224D01*
Y9214D01*
Y9214D01*
Y9213D01*
Y9213D01*
X2269Y9212D01*
X2269Y9210D01*
X2269Y9207D01*
X2268Y9204D01*
X2266Y9201D01*
X2264Y9198D01*
X2262Y9195D01*
X2261Y9195D01*
X2260Y9194D01*
X2259Y9193D01*
X2256Y9191D01*
X2254Y9190D01*
X2251Y9189D01*
X2247Y9188D01*
X2243Y9188D01*
X2221D01*
X2220Y9188D01*
X2219Y9188D01*
X2218Y9189D01*
X2218Y9190D01*
X2217Y9191D01*
X2217Y9193D01*
Y9193D01*
Y9194D01*
X2217Y9194D01*
X2217Y9195D01*
X2218Y9196D01*
X2219Y9197D01*
X2220Y9198D01*
X2222Y9198D01*
X2244D01*
X2245Y9198D01*
X2247Y9199D01*
X2249Y9199D01*
X2251Y9200D01*
X2252Y9201D01*
X2254Y9202D01*
X2254Y9203D01*
X2255Y9203D01*
X2256Y9204D01*
X2257Y9206D01*
X2257Y9207D01*
X2258Y9209D01*
X2259Y9211D01*
X2259Y9214D01*
Y9224D01*
Y9225D01*
Y9225D01*
X2259Y9227D01*
X2258Y9228D01*
X2258Y9230D01*
X2257Y9232D01*
X2256Y9234D01*
X2254Y9235D01*
X2254Y9236D01*
X2254Y9236D01*
X2252Y9237D01*
X2251Y9238D01*
X2249Y9239D01*
X2248Y9239D01*
X2245Y9240D01*
X2243Y9240D01*
X2232D01*
X2231Y9240D01*
X2230Y9241D01*
X2229Y9241D01*
X2228Y9242D01*
X2227Y9244D01*
X2227Y9245D01*
Y9245D01*
Y9246D01*
X2228Y9247D01*
X2228Y9248D01*
X2229Y9249D01*
X2229Y9250D01*
X2231Y9250D01*
X2232Y9251D01*
X2244D01*
X2245Y9251D01*
X2247Y9251D01*
X2249Y9252D01*
X2251Y9252D01*
X2252Y9254D01*
X2254Y9255D01*
X2254Y9255D01*
X2255Y9256D01*
X2256Y9257D01*
X2257Y9258D01*
X2257Y9260D01*
X2258Y9262D01*
X2259Y9264D01*
X2259Y9266D01*
Y9267D01*
Y9267D01*
X2259Y9269D01*
X2258Y9270D01*
X2258Y9272D01*
X2257Y9274D01*
X2256Y9276D01*
X2254Y9277D01*
X2254Y9278D01*
X2254Y9278D01*
X2252Y9279D01*
X2251Y9280D01*
X2249Y9281D01*
X2248Y9282D01*
X2245Y9282D01*
X2243Y9282D01*
X2221D01*
X2220Y9283D01*
X2219Y9283D01*
X2218Y9284D01*
X2218Y9285D01*
X2217Y9286D01*
X2217Y9287D01*
Y9288D01*
Y9288D01*
X2217Y9289D01*
X2217Y9290D01*
X2218Y9291D01*
X2219Y9292D01*
X2220Y9293D01*
X2222Y9293D01*
X2244D01*
X2245Y9293D01*
D02*
G37*
G36*
X2192Y9292D02*
X2193Y9292D01*
X2194Y9291D01*
X2195Y9290D01*
X2196Y9289D01*
X2196Y9287D01*
Y9193D01*
Y9193D01*
Y9192D01*
X2196Y9191D01*
X2195Y9190D01*
X2194Y9189D01*
X2194Y9188D01*
X2192Y9188D01*
X2190Y9188D01*
X2190D01*
X2189Y9188D01*
X2188Y9188D01*
X2187Y9189D01*
X2186Y9190D01*
X2185Y9191D01*
X2185Y9193D01*
Y9287D01*
Y9287D01*
Y9288D01*
X2186Y9289D01*
X2186Y9290D01*
X2186Y9291D01*
X2187Y9292D01*
X2189Y9292D01*
X2190Y9293D01*
X2191D01*
X2192Y9292D01*
D02*
G37*
G36*
X2076Y9292D02*
X2077Y9292D01*
X2078Y9291D01*
X2079Y9290D01*
X2080Y9289D01*
X2080Y9287D01*
Y9193D01*
Y9193D01*
Y9192D01*
X2080Y9191D01*
X2079Y9190D01*
X2079Y9189D01*
X2078Y9188D01*
X2076Y9188D01*
X2074Y9188D01*
X2074D01*
X2073Y9188D01*
X2072Y9188D01*
X2071Y9189D01*
X2070Y9190D01*
X2069Y9191D01*
X2069Y9193D01*
Y9287D01*
Y9287D01*
Y9288D01*
X2070Y9289D01*
X2070Y9290D01*
X2071Y9291D01*
X2072Y9292D01*
X2073Y9292D01*
X2074Y9293D01*
X2075D01*
X2076Y9292D01*
D02*
G37*
G36*
X1887Y9293D02*
X1887Y9292D01*
X1888Y9292D01*
X1889Y9291D01*
X1890Y9289D01*
X1890Y9288D01*
Y9287D01*
X1890Y9286D01*
X1881Y9245D01*
X1886D01*
X1887Y9245D01*
X1888Y9245D01*
X1889Y9244D01*
X1889Y9243D01*
X1890Y9242D01*
X1890Y9240D01*
Y9240D01*
Y9239D01*
X1890Y9238D01*
X1889Y9237D01*
X1889Y9237D01*
X1888Y9236D01*
X1887Y9235D01*
X1885Y9235D01*
X1878D01*
X1869Y9192D01*
Y9191D01*
X1869Y9191D01*
X1868Y9190D01*
X1868Y9190D01*
X1867Y9189D01*
X1866Y9188D01*
X1865Y9188D01*
X1864Y9188D01*
X1863D01*
X1862Y9188D01*
X1861Y9188D01*
X1860Y9189D01*
X1859Y9190D01*
X1859Y9191D01*
X1859Y9193D01*
Y9193D01*
Y9193D01*
Y9194D01*
X1868Y9235D01*
X1863D01*
X1862Y9235D01*
X1861Y9236D01*
X1860Y9236D01*
X1859Y9237D01*
X1859Y9238D01*
X1859Y9240D01*
Y9240D01*
Y9241D01*
X1859Y9242D01*
X1859Y9243D01*
X1860Y9244D01*
X1861Y9245D01*
X1862Y9245D01*
X1864Y9245D01*
X1870D01*
X1878Y9282D01*
X1842D01*
X1841Y9283D01*
X1840Y9283D01*
X1839Y9284D01*
X1838Y9285D01*
X1838Y9286D01*
X1837Y9287D01*
Y9288D01*
Y9288D01*
X1838Y9289D01*
X1838Y9290D01*
X1839Y9291D01*
X1840Y9292D01*
X1841Y9293D01*
X1843Y9293D01*
X1886D01*
X1887Y9293D01*
D02*
G37*
G36*
X1792D02*
X1793Y9292D01*
X1794Y9292D01*
X1795Y9292D01*
X1797Y9291D01*
X1799Y9290D01*
X1800Y9289D01*
X1802Y9288D01*
X1804Y9286D01*
X1806Y9284D01*
X1807Y9282D01*
X1809Y9279D01*
X1811Y9276D01*
X1812Y9273D01*
Y9272D01*
X1812Y9272D01*
X1812Y9271D01*
X1813Y9270D01*
X1813Y9269D01*
X1813Y9267D01*
X1814Y9265D01*
X1814Y9263D01*
X1815Y9261D01*
X1815Y9259D01*
X1815Y9256D01*
X1816Y9253D01*
X1816Y9247D01*
X1817Y9240D01*
Y9240D01*
Y9239D01*
Y9238D01*
Y9237D01*
X1816Y9235D01*
Y9233D01*
X1816Y9231D01*
X1816Y9229D01*
X1815Y9224D01*
X1814Y9218D01*
X1813Y9213D01*
X1812Y9207D01*
Y9207D01*
X1812Y9207D01*
X1811Y9206D01*
X1811Y9204D01*
X1810Y9203D01*
X1809Y9201D01*
X1807Y9197D01*
X1804Y9194D01*
X1802Y9192D01*
X1800Y9191D01*
X1798Y9189D01*
X1795Y9188D01*
X1793Y9188D01*
X1790Y9188D01*
X1790D01*
X1789Y9188D01*
X1788Y9188D01*
X1787Y9188D01*
X1785Y9189D01*
X1784Y9189D01*
X1782Y9190D01*
X1780Y9191D01*
X1778Y9192D01*
X1777Y9194D01*
X1775Y9196D01*
X1773Y9198D01*
X1771Y9201D01*
X1770Y9204D01*
X1768Y9207D01*
Y9208D01*
X1768Y9208D01*
X1768Y9209D01*
X1768Y9210D01*
X1767Y9211D01*
X1767Y9213D01*
X1767Y9215D01*
X1766Y9217D01*
X1766Y9219D01*
X1765Y9222D01*
X1765Y9224D01*
X1765Y9227D01*
X1764Y9233D01*
X1764Y9240D01*
Y9240D01*
Y9241D01*
Y9242D01*
Y9243D01*
X1764Y9245D01*
Y9247D01*
X1764Y9249D01*
X1765Y9251D01*
X1765Y9256D01*
X1766Y9262D01*
X1767Y9267D01*
X1768Y9273D01*
Y9273D01*
X1769Y9274D01*
X1769Y9275D01*
X1770Y9276D01*
X1770Y9277D01*
X1771Y9279D01*
X1774Y9283D01*
X1777Y9287D01*
X1779Y9288D01*
X1780Y9290D01*
X1783Y9291D01*
X1785Y9292D01*
X1787Y9293D01*
X1790Y9293D01*
X1791D01*
X1792Y9293D01*
D02*
G37*
G36*
X1718D02*
X1720Y9292D01*
X1723Y9292D01*
X1726Y9291D01*
X1729Y9290D01*
X1732Y9288D01*
X1735Y9285D01*
X1735Y9285D01*
X1736Y9284D01*
X1737Y9282D01*
X1739Y9280D01*
X1740Y9277D01*
X1742Y9274D01*
X1742Y9270D01*
X1743Y9266D01*
Y9266D01*
Y9266D01*
Y9265D01*
X1743Y9264D01*
X1742Y9263D01*
X1742Y9262D01*
X1742Y9259D01*
X1740Y9255D01*
X1740Y9254D01*
X1738Y9252D01*
X1737Y9250D01*
X1736Y9248D01*
X1734Y9247D01*
X1732Y9245D01*
X1732D01*
X1733Y9245D01*
X1733Y9245D01*
X1734Y9244D01*
X1736Y9242D01*
X1738Y9240D01*
X1740Y9237D01*
X1741Y9233D01*
X1742Y9231D01*
X1742Y9229D01*
X1743Y9227D01*
X1743Y9224D01*
Y9214D01*
Y9214D01*
Y9213D01*
Y9213D01*
X1743Y9212D01*
X1742Y9210D01*
X1742Y9207D01*
X1741Y9204D01*
X1740Y9201D01*
X1738Y9198D01*
X1735Y9195D01*
X1735Y9195D01*
X1734Y9194D01*
X1732Y9193D01*
X1730Y9191D01*
X1727Y9190D01*
X1724Y9189D01*
X1720Y9188D01*
X1716Y9188D01*
X1695D01*
X1694Y9188D01*
X1693Y9188D01*
X1692Y9189D01*
X1691Y9190D01*
X1690Y9191D01*
X1690Y9193D01*
Y9193D01*
Y9194D01*
X1690Y9194D01*
X1691Y9195D01*
X1691Y9196D01*
X1692Y9197D01*
X1694Y9198D01*
X1695Y9198D01*
X1717D01*
X1719Y9198D01*
X1720Y9199D01*
X1722Y9199D01*
X1724Y9200D01*
X1726Y9201D01*
X1728Y9202D01*
X1728Y9203D01*
X1728Y9203D01*
X1729Y9204D01*
X1730Y9206D01*
X1731Y9207D01*
X1732Y9209D01*
X1732Y9211D01*
X1732Y9214D01*
Y9224D01*
Y9225D01*
Y9225D01*
X1732Y9227D01*
X1732Y9228D01*
X1731Y9230D01*
X1730Y9232D01*
X1729Y9234D01*
X1728Y9235D01*
X1727Y9236D01*
X1727Y9236D01*
X1726Y9237D01*
X1725Y9238D01*
X1723Y9239D01*
X1721Y9239D01*
X1719Y9240D01*
X1716Y9240D01*
X1705D01*
X1704Y9240D01*
X1703Y9241D01*
X1702Y9241D01*
X1701Y9242D01*
X1701Y9244D01*
X1701Y9245D01*
Y9245D01*
Y9246D01*
X1701Y9247D01*
X1701Y9248D01*
X1702Y9249D01*
X1703Y9250D01*
X1704Y9250D01*
X1706Y9251D01*
X1717D01*
X1719Y9251D01*
X1720Y9251D01*
X1722Y9252D01*
X1724Y9252D01*
X1726Y9254D01*
X1728Y9255D01*
X1728Y9255D01*
X1728Y9256D01*
X1729Y9257D01*
X1730Y9258D01*
X1731Y9260D01*
X1732Y9262D01*
X1732Y9264D01*
X1732Y9266D01*
Y9267D01*
Y9267D01*
X1732Y9269D01*
X1732Y9270D01*
X1731Y9272D01*
X1730Y9274D01*
X1729Y9276D01*
X1728Y9277D01*
X1727Y9278D01*
X1727Y9278D01*
X1726Y9279D01*
X1725Y9280D01*
X1723Y9281D01*
X1721Y9282D01*
X1719Y9282D01*
X1716Y9282D01*
X1695D01*
X1694Y9283D01*
X1693Y9283D01*
X1692Y9284D01*
X1691Y9285D01*
X1690Y9286D01*
X1690Y9287D01*
Y9288D01*
Y9288D01*
X1690Y9289D01*
X1691Y9290D01*
X1691Y9291D01*
X1692Y9292D01*
X1694Y9293D01*
X1695Y9293D01*
X1717D01*
X1718Y9293D01*
D02*
G37*
G36*
X1645D02*
X1647Y9292D01*
X1649Y9292D01*
X1652Y9291D01*
X1655Y9290D01*
X1658Y9288D01*
X1661Y9285D01*
X1662Y9285D01*
X1663Y9284D01*
X1664Y9282D01*
X1665Y9280D01*
X1667Y9277D01*
X1668Y9274D01*
X1669Y9270D01*
X1669Y9266D01*
Y9266D01*
Y9265D01*
X1669Y9264D01*
X1669Y9262D01*
X1668Y9259D01*
X1667Y9257D01*
X1666Y9254D01*
X1664Y9251D01*
X1631Y9198D01*
X1665D01*
X1665Y9198D01*
X1667Y9197D01*
X1667Y9197D01*
X1668Y9196D01*
X1669Y9195D01*
X1669Y9193D01*
Y9193D01*
Y9192D01*
X1669Y9191D01*
X1668Y9190D01*
X1668Y9189D01*
X1667Y9188D01*
X1666Y9188D01*
X1664Y9188D01*
X1621D01*
X1620Y9188D01*
X1619Y9188D01*
X1618Y9189D01*
X1617Y9190D01*
X1617Y9191D01*
X1616Y9193D01*
Y9193D01*
X1617Y9194D01*
X1617Y9195D01*
X1617Y9196D01*
X1656Y9258D01*
X1656Y9258D01*
X1656Y9258D01*
X1657Y9259D01*
X1657Y9260D01*
X1658Y9262D01*
X1658Y9263D01*
X1658Y9265D01*
X1659Y9266D01*
Y9267D01*
Y9267D01*
X1658Y9269D01*
X1658Y9270D01*
X1657Y9272D01*
X1657Y9274D01*
X1655Y9276D01*
X1654Y9278D01*
X1654Y9278D01*
X1653Y9278D01*
X1652Y9279D01*
X1651Y9280D01*
X1649Y9281D01*
X1647Y9282D01*
X1645Y9282D01*
X1643Y9282D01*
X1642D01*
X1641Y9282D01*
X1640Y9282D01*
X1637Y9281D01*
X1636Y9280D01*
X1635Y9279D01*
X1633Y9278D01*
X1632Y9277D01*
X1630Y9275D01*
X1629Y9273D01*
X1628Y9271D01*
X1626Y9269D01*
Y9269D01*
X1626Y9269D01*
X1625Y9268D01*
X1624Y9267D01*
X1623Y9267D01*
X1622Y9266D01*
X1621D01*
X1620Y9267D01*
X1619Y9267D01*
X1618Y9268D01*
X1617Y9269D01*
X1617Y9270D01*
X1616Y9272D01*
Y9272D01*
Y9272D01*
X1617Y9273D01*
X1617Y9274D01*
X1617Y9274D01*
X1617Y9275D01*
X1618Y9276D01*
X1619Y9277D01*
X1620Y9278D01*
X1621Y9280D01*
X1622Y9282D01*
X1624Y9283D01*
X1626Y9285D01*
X1627Y9287D01*
X1630Y9288D01*
X1632Y9290D01*
X1634Y9291D01*
X1637Y9292D01*
X1640Y9293D01*
X1643Y9293D01*
X1644D01*
X1645Y9293D01*
D02*
G37*
G36*
X1566D02*
X1567D01*
X1568Y9292D01*
X1572Y9292D01*
X1575Y9291D01*
X1579Y9289D01*
X1581Y9288D01*
X1582Y9287D01*
X1584Y9285D01*
X1586Y9284D01*
X1586Y9283D01*
X1587Y9283D01*
X1587Y9283D01*
X1588Y9282D01*
X1588Y9281D01*
X1589Y9280D01*
X1591Y9277D01*
X1592Y9274D01*
X1594Y9270D01*
X1595Y9266D01*
X1595Y9264D01*
X1595Y9261D01*
Y9261D01*
Y9261D01*
Y9260D01*
X1595Y9259D01*
Y9258D01*
X1595Y9256D01*
X1594Y9253D01*
X1593Y9249D01*
X1592Y9246D01*
X1590Y9242D01*
X1588Y9240D01*
X1587Y9238D01*
X1586D01*
X1586Y9238D01*
X1586Y9237D01*
X1585Y9237D01*
X1583Y9235D01*
X1580Y9234D01*
X1577Y9232D01*
X1573Y9231D01*
X1569Y9230D01*
X1566Y9230D01*
X1564Y9230D01*
X1543D01*
Y9193D01*
Y9193D01*
Y9192D01*
X1543Y9191D01*
X1542Y9190D01*
X1542Y9189D01*
X1541Y9188D01*
X1539Y9188D01*
X1537Y9188D01*
X1537D01*
X1536Y9188D01*
X1535Y9188D01*
X1534Y9189D01*
X1533Y9190D01*
X1532Y9191D01*
X1532Y9193D01*
Y9287D01*
Y9288D01*
Y9288D01*
X1533Y9289D01*
X1533Y9290D01*
X1534Y9291D01*
X1535Y9292D01*
X1536Y9293D01*
X1537Y9293D01*
X1565D01*
X1566Y9293D01*
D02*
G37*
G36*
X860Y5210D02*
X861Y5210D01*
X861Y5209D01*
X862Y5209D01*
X862Y5208D01*
X862Y5207D01*
Y5206D01*
X862Y5206D01*
X862Y5205D01*
X862Y5205D01*
X837Y5164D01*
X837Y5164D01*
X837Y5164D01*
X836Y5163D01*
X836Y5163D01*
X836Y5162D01*
X835Y5161D01*
X835Y5160D01*
X835Y5159D01*
Y5159D01*
Y5158D01*
X835Y5157D01*
X835Y5156D01*
X836Y5155D01*
X836Y5154D01*
X837Y5153D01*
X838Y5151D01*
X838Y5151D01*
X839Y5151D01*
X839Y5151D01*
X840Y5150D01*
X841Y5149D01*
X842Y5149D01*
X844Y5149D01*
X845Y5148D01*
X846D01*
X846Y5149D01*
X847Y5149D01*
X849Y5150D01*
X850Y5150D01*
X851Y5151D01*
X851Y5151D01*
X852Y5152D01*
X853Y5153D01*
X854Y5154D01*
X855Y5156D01*
X856Y5157D01*
Y5157D01*
X856Y5157D01*
X857Y5158D01*
X858Y5159D01*
X858Y5159D01*
X859Y5159D01*
X859D01*
X860Y5159D01*
X861Y5158D01*
X861Y5158D01*
X862Y5157D01*
X862Y5157D01*
X862Y5155D01*
Y5155D01*
Y5155D01*
X862Y5154D01*
X862Y5154D01*
X862Y5154D01*
X862Y5154D01*
X862Y5153D01*
X861Y5152D01*
X860Y5151D01*
X860Y5150D01*
X859Y5149D01*
X858Y5148D01*
X856Y5147D01*
X855Y5146D01*
X854Y5145D01*
X852Y5144D01*
X851Y5143D01*
X849Y5142D01*
X847Y5142D01*
X845Y5142D01*
X845D01*
X844Y5142D01*
X843Y5142D01*
X841Y5142D01*
X839Y5143D01*
X837Y5144D01*
X835Y5145D01*
X833Y5147D01*
X833Y5147D01*
X832Y5148D01*
X832Y5149D01*
X831Y5150D01*
X830Y5152D01*
X829Y5154D01*
X828Y5156D01*
X828Y5159D01*
Y5159D01*
Y5160D01*
X828Y5161D01*
X829Y5162D01*
X829Y5163D01*
X830Y5165D01*
X830Y5167D01*
X831Y5169D01*
X853Y5203D01*
X831D01*
X831Y5203D01*
X830Y5204D01*
X829Y5204D01*
X829Y5205D01*
X828Y5205D01*
X828Y5207D01*
Y5207D01*
Y5207D01*
X828Y5208D01*
X829Y5208D01*
X829Y5209D01*
X830Y5210D01*
X831Y5210D01*
X832Y5210D01*
X859D01*
X860Y5210D01*
D02*
G37*
G36*
X812D02*
X813Y5210D01*
X813Y5209D01*
X814Y5209D01*
X814Y5208D01*
X815Y5207D01*
Y5207D01*
Y5206D01*
X814Y5206D01*
X814Y5205D01*
X814Y5204D01*
X813Y5204D01*
X812Y5203D01*
X811Y5203D01*
X797D01*
X796Y5203D01*
X795Y5203D01*
X794Y5202D01*
X793Y5202D01*
X791Y5201D01*
X790Y5200D01*
X790Y5200D01*
X790Y5200D01*
X789Y5199D01*
X789Y5198D01*
X788Y5197D01*
X788Y5196D01*
X787Y5195D01*
X787Y5193D01*
Y5186D01*
Y5186D01*
Y5185D01*
X787Y5185D01*
X788Y5184D01*
X788Y5182D01*
X789Y5181D01*
X789Y5180D01*
X790Y5179D01*
X790Y5179D01*
X791Y5178D01*
X791Y5178D01*
X792Y5177D01*
X793Y5177D01*
X795Y5176D01*
X796Y5176D01*
X798Y5176D01*
X812D01*
X812Y5176D01*
X813Y5175D01*
X813Y5175D01*
X814Y5174D01*
X814Y5174D01*
X815Y5173D01*
Y5145D01*
Y5145D01*
Y5145D01*
X814Y5144D01*
X814Y5143D01*
X814Y5143D01*
X813Y5142D01*
X812Y5142D01*
X811Y5142D01*
X787D01*
X786Y5142D01*
X786Y5142D01*
X785Y5142D01*
X784Y5143D01*
X784Y5144D01*
X784Y5145D01*
Y5145D01*
Y5146D01*
X784Y5146D01*
X784Y5147D01*
X785Y5147D01*
X785Y5148D01*
X786Y5148D01*
X787Y5148D01*
X808D01*
Y5169D01*
X797D01*
X796Y5169D01*
X795Y5169D01*
X793Y5170D01*
X791Y5170D01*
X789Y5171D01*
X787Y5172D01*
X785Y5174D01*
X785Y5174D01*
X785Y5175D01*
X784Y5176D01*
X783Y5177D01*
X782Y5179D01*
X781Y5181D01*
X781Y5184D01*
X780Y5186D01*
Y5193D01*
Y5193D01*
Y5193D01*
Y5194D01*
X781Y5194D01*
X781Y5195D01*
X781Y5197D01*
X782Y5199D01*
X783Y5201D01*
X784Y5203D01*
X785Y5205D01*
X786Y5205D01*
X786Y5206D01*
X787Y5207D01*
X789Y5207D01*
X791Y5208D01*
X793Y5209D01*
X795Y5210D01*
X797Y5210D01*
X812D01*
X812Y5210D01*
D02*
G37*
G36*
X837Y4710D02*
X837Y4710D01*
X838Y4709D01*
X838Y4709D01*
X839Y4708D01*
X839Y4707D01*
Y4653D01*
X847Y4661D01*
X847Y4661D01*
X847Y4662D01*
X848Y4662D01*
X849Y4662D01*
X850D01*
X850Y4662D01*
X851Y4662D01*
X851Y4661D01*
X852Y4661D01*
X852Y4660D01*
X852Y4659D01*
Y4659D01*
Y4659D01*
X852Y4658D01*
X852Y4657D01*
X852Y4657D01*
X838Y4643D01*
X838Y4643D01*
X838Y4643D01*
X837Y4642D01*
X837Y4642D01*
X836Y4642D01*
X835D01*
X834Y4642D01*
X834Y4642D01*
X833Y4643D01*
X832Y4643D01*
X832Y4644D01*
X832Y4645D01*
Y4707D01*
Y4707D01*
Y4707D01*
X832Y4708D01*
X832Y4708D01*
X833Y4709D01*
X833Y4710D01*
X834Y4710D01*
X835Y4710D01*
X836D01*
X837Y4710D01*
D02*
G37*
G36*
X816D02*
X817Y4710D01*
X817Y4709D01*
X818Y4709D01*
X818Y4708D01*
X818Y4707D01*
Y4707D01*
Y4706D01*
X818Y4706D01*
X818Y4705D01*
X817Y4704D01*
X817Y4704D01*
X816Y4703D01*
X815Y4703D01*
X801D01*
X800Y4703D01*
X799Y4703D01*
X798Y4702D01*
X796Y4702D01*
X795Y4701D01*
X794Y4700D01*
X794Y4700D01*
X794Y4700D01*
X793Y4699D01*
X792Y4698D01*
X792Y4697D01*
X791Y4696D01*
X791Y4695D01*
X791Y4693D01*
Y4686D01*
Y4686D01*
Y4685D01*
X791Y4685D01*
X791Y4684D01*
X792Y4682D01*
X792Y4681D01*
X793Y4680D01*
X794Y4679D01*
X794Y4679D01*
X794Y4678D01*
X795Y4678D01*
X796Y4677D01*
X797Y4677D01*
X798Y4676D01*
X800Y4676D01*
X801Y4676D01*
X815D01*
X816Y4676D01*
X817Y4675D01*
X817Y4675D01*
X818Y4674D01*
X818Y4674D01*
X818Y4673D01*
Y4645D01*
Y4645D01*
Y4645D01*
X818Y4644D01*
X818Y4643D01*
X817Y4643D01*
X817Y4642D01*
X816Y4642D01*
X815Y4642D01*
X791D01*
X790Y4642D01*
X789Y4642D01*
X789Y4642D01*
X788Y4643D01*
X788Y4644D01*
X788Y4645D01*
Y4645D01*
Y4646D01*
X788Y4646D01*
X788Y4647D01*
X788Y4647D01*
X789Y4648D01*
X790Y4648D01*
X791Y4648D01*
X811D01*
Y4669D01*
X800D01*
X800Y4669D01*
X799Y4669D01*
X797Y4670D01*
X795Y4670D01*
X793Y4671D01*
X791Y4672D01*
X789Y4674D01*
X789Y4674D01*
X788Y4675D01*
X788Y4676D01*
X787Y4677D01*
X786Y4679D01*
X785Y4681D01*
X784Y4684D01*
X784Y4686D01*
Y4693D01*
Y4693D01*
Y4693D01*
Y4694D01*
X784Y4694D01*
X784Y4695D01*
X785Y4697D01*
X785Y4699D01*
X786Y4701D01*
X788Y4703D01*
X789Y4705D01*
X789Y4705D01*
X790Y4706D01*
X791Y4707D01*
X793Y4707D01*
X794Y4708D01*
X796Y4709D01*
X799Y4710D01*
X801Y4710D01*
X815D01*
X816Y4710D01*
D02*
G37*
G36*
X340Y5460D02*
X341Y5460D01*
X341Y5459D01*
X342Y5459D01*
X342Y5458D01*
X343Y5457D01*
Y5457D01*
Y5456D01*
X342Y5456D01*
X342Y5455D01*
X342Y5454D01*
X341Y5454D01*
X340Y5453D01*
X339Y5453D01*
X325D01*
X324Y5453D01*
X323Y5453D01*
X322Y5452D01*
X321Y5452D01*
X319Y5451D01*
X318Y5450D01*
X318Y5450D01*
X318Y5450D01*
X317Y5449D01*
X317Y5448D01*
X316Y5447D01*
X316Y5446D01*
X315Y5444D01*
X315Y5443D01*
Y5436D01*
Y5436D01*
Y5435D01*
X315Y5435D01*
X315Y5434D01*
X316Y5432D01*
X316Y5431D01*
X317Y5430D01*
X318Y5429D01*
X318Y5429D01*
X319Y5428D01*
X319Y5428D01*
X320Y5427D01*
X321Y5427D01*
X322Y5426D01*
X324Y5426D01*
X325Y5426D01*
X333D01*
X333Y5426D01*
X334Y5425D01*
X335Y5425D01*
X335Y5424D01*
X336Y5424D01*
X336Y5423D01*
Y5422D01*
Y5422D01*
X335Y5421D01*
X335Y5421D01*
X335Y5420D01*
X334Y5420D01*
X333Y5419D01*
X332Y5419D01*
X325D01*
X324Y5419D01*
X323Y5419D01*
X322Y5418D01*
X321Y5418D01*
X319Y5417D01*
X318Y5416D01*
X318Y5416D01*
X318Y5416D01*
X317Y5415D01*
X317Y5414D01*
X316Y5413D01*
X316Y5412D01*
X315Y5410D01*
X315Y5409D01*
Y5409D01*
Y5408D01*
X315Y5407D01*
X315Y5406D01*
X316Y5405D01*
X316Y5404D01*
X317Y5403D01*
X318Y5402D01*
X318Y5401D01*
X319Y5401D01*
X319Y5401D01*
X320Y5400D01*
X321Y5399D01*
X322Y5399D01*
X324Y5399D01*
X325Y5398D01*
X339D01*
X340Y5398D01*
X341Y5398D01*
X341Y5398D01*
X342Y5397D01*
X342Y5396D01*
X343Y5395D01*
Y5395D01*
Y5395D01*
X342Y5394D01*
X342Y5393D01*
X342Y5393D01*
X341Y5392D01*
X340Y5392D01*
X339Y5392D01*
X325D01*
X324Y5392D01*
X323Y5392D01*
X321Y5392D01*
X319Y5393D01*
X317Y5394D01*
X315Y5395D01*
X313Y5397D01*
X313Y5397D01*
X312Y5398D01*
X312Y5399D01*
X311Y5400D01*
X310Y5402D01*
X309Y5404D01*
X309Y5406D01*
X308Y5409D01*
Y5409D01*
Y5409D01*
Y5410D01*
X308Y5410D01*
X309Y5411D01*
X309Y5412D01*
X309Y5414D01*
X310Y5416D01*
X310Y5417D01*
X311Y5418D01*
X312Y5419D01*
X313Y5420D01*
X314Y5422D01*
X315Y5423D01*
X315D01*
X315Y5423D01*
X315Y5423D01*
X314Y5423D01*
X313Y5425D01*
X312Y5426D01*
X310Y5428D01*
X309Y5430D01*
X309Y5432D01*
X309Y5433D01*
X308Y5435D01*
X308Y5436D01*
Y5443D01*
Y5443D01*
Y5443D01*
Y5444D01*
X308Y5444D01*
X309Y5445D01*
X309Y5447D01*
X309Y5449D01*
X310Y5451D01*
X312Y5453D01*
X313Y5455D01*
X314Y5455D01*
X314Y5456D01*
X315Y5457D01*
X317Y5457D01*
X318Y5458D01*
X321Y5459D01*
X323Y5460D01*
X325Y5460D01*
X339D01*
X340Y5460D01*
D02*
G37*
G36*
X278Y5460D02*
X279Y5460D01*
X280Y5460D01*
X281Y5459D01*
X282Y5459D01*
X283Y5458D01*
X284Y5458D01*
X285Y5457D01*
X286Y5456D01*
X288Y5454D01*
X289Y5453D01*
X290Y5451D01*
X291Y5449D01*
X292Y5447D01*
Y5447D01*
X292Y5447D01*
X292Y5446D01*
X292Y5445D01*
X292Y5445D01*
X293Y5444D01*
X293Y5442D01*
X293Y5441D01*
X293Y5440D01*
X294Y5438D01*
X294Y5436D01*
X294Y5434D01*
X294Y5430D01*
X295Y5426D01*
Y5426D01*
Y5425D01*
Y5425D01*
Y5424D01*
X294Y5423D01*
Y5422D01*
X294Y5420D01*
X294Y5419D01*
X294Y5415D01*
X293Y5412D01*
X293Y5408D01*
X292Y5405D01*
Y5405D01*
X291Y5404D01*
X291Y5404D01*
X291Y5403D01*
X290Y5402D01*
X290Y5401D01*
X288Y5398D01*
X286Y5396D01*
X285Y5395D01*
X284Y5394D01*
X282Y5393D01*
X281Y5392D01*
X279Y5392D01*
X278Y5392D01*
X277D01*
X277Y5392D01*
X276Y5392D01*
X275Y5392D01*
X274Y5392D01*
X273Y5393D01*
X272Y5393D01*
X271Y5394D01*
X270Y5395D01*
X269Y5396D01*
X268Y5397D01*
X266Y5399D01*
X265Y5400D01*
X264Y5402D01*
X263Y5405D01*
Y5405D01*
X263Y5405D01*
X263Y5406D01*
X263Y5406D01*
X263Y5407D01*
X262Y5408D01*
X262Y5409D01*
X262Y5411D01*
X262Y5412D01*
X261Y5414D01*
X261Y5416D01*
X261Y5417D01*
X261Y5421D01*
X260Y5426D01*
Y5426D01*
Y5426D01*
Y5427D01*
Y5428D01*
X261Y5429D01*
Y5430D01*
X261Y5432D01*
X261Y5433D01*
X261Y5436D01*
X262Y5440D01*
X262Y5444D01*
X263Y5447D01*
Y5447D01*
X264Y5448D01*
X264Y5448D01*
X264Y5449D01*
X265Y5450D01*
X265Y5451D01*
X267Y5454D01*
X269Y5456D01*
X270Y5457D01*
X271Y5458D01*
X273Y5459D01*
X274Y5459D01*
X276Y5460D01*
X278Y5460D01*
X278D01*
X278Y5460D01*
D02*
G37*
G36*
X340Y4960D02*
X341Y4960D01*
X341Y4959D01*
X342Y4959D01*
X342Y4958D01*
X343Y4957D01*
Y4956D01*
X342Y4956D01*
X342Y4955D01*
X342Y4955D01*
X317Y4914D01*
X317Y4914D01*
X317Y4914D01*
X316Y4913D01*
X316Y4913D01*
X316Y4912D01*
X315Y4911D01*
X315Y4910D01*
X315Y4909D01*
Y4909D01*
Y4908D01*
X315Y4907D01*
X315Y4906D01*
X316Y4905D01*
X316Y4904D01*
X317Y4903D01*
X318Y4901D01*
X318Y4901D01*
X319Y4901D01*
X319Y4901D01*
X320Y4900D01*
X321Y4899D01*
X322Y4899D01*
X324Y4899D01*
X325Y4898D01*
X326D01*
X326Y4899D01*
X327Y4899D01*
X329Y4900D01*
X330Y4900D01*
X331Y4901D01*
X331Y4901D01*
X332Y4902D01*
X333Y4903D01*
X334Y4904D01*
X335Y4906D01*
X336Y4907D01*
Y4907D01*
X336Y4907D01*
X337Y4908D01*
X338Y4909D01*
X338Y4909D01*
X339Y4909D01*
X339D01*
X340Y4909D01*
X341Y4908D01*
X341Y4908D01*
X342Y4907D01*
X342Y4907D01*
X343Y4905D01*
Y4905D01*
Y4905D01*
X342Y4904D01*
X342Y4904D01*
X342Y4904D01*
X342Y4904D01*
X342Y4903D01*
X341Y4902D01*
X340Y4901D01*
X340Y4900D01*
X339Y4899D01*
X338Y4898D01*
X336Y4897D01*
X335Y4896D01*
X334Y4895D01*
X332Y4894D01*
X331Y4893D01*
X329Y4892D01*
X327Y4892D01*
X325Y4892D01*
X325D01*
X324Y4892D01*
X323Y4892D01*
X321Y4892D01*
X319Y4893D01*
X317Y4894D01*
X315Y4895D01*
X313Y4897D01*
X313Y4897D01*
X312Y4898D01*
X312Y4899D01*
X311Y4900D01*
X310Y4902D01*
X309Y4904D01*
X309Y4906D01*
X308Y4909D01*
Y4909D01*
Y4910D01*
X308Y4911D01*
X309Y4912D01*
X309Y4913D01*
X310Y4915D01*
X310Y4917D01*
X311Y4919D01*
X333Y4953D01*
X311D01*
X311Y4953D01*
X310Y4954D01*
X309Y4954D01*
X309Y4955D01*
X308Y4955D01*
X308Y4957D01*
Y4957D01*
Y4957D01*
X308Y4958D01*
X309Y4958D01*
X309Y4959D01*
X310Y4960D01*
X311Y4960D01*
X312Y4960D01*
X339D01*
X340Y4960D01*
D02*
G37*
G36*
X278Y4960D02*
X279Y4960D01*
X280Y4960D01*
X281Y4959D01*
X282Y4959D01*
X283Y4958D01*
X284Y4958D01*
X285Y4957D01*
X286Y4956D01*
X288Y4954D01*
X289Y4953D01*
X290Y4951D01*
X291Y4949D01*
X292Y4947D01*
Y4947D01*
X292Y4947D01*
X292Y4946D01*
X292Y4945D01*
X292Y4945D01*
X293Y4944D01*
X293Y4942D01*
X293Y4941D01*
X293Y4940D01*
X294Y4938D01*
X294Y4936D01*
X294Y4934D01*
X294Y4930D01*
X295Y4926D01*
Y4926D01*
Y4925D01*
Y4925D01*
Y4924D01*
X294Y4923D01*
Y4922D01*
X294Y4920D01*
X294Y4919D01*
X294Y4915D01*
X293Y4912D01*
X293Y4908D01*
X292Y4905D01*
Y4905D01*
X291Y4904D01*
X291Y4904D01*
X291Y4903D01*
X290Y4902D01*
X290Y4901D01*
X288Y4898D01*
X286Y4896D01*
X285Y4895D01*
X284Y4894D01*
X282Y4893D01*
X281Y4892D01*
X279Y4892D01*
X278Y4892D01*
X277D01*
X277Y4892D01*
X276Y4892D01*
X275Y4892D01*
X274Y4892D01*
X273Y4893D01*
X272Y4893D01*
X271Y4894D01*
X270Y4895D01*
X269Y4896D01*
X268Y4897D01*
X266Y4899D01*
X265Y4900D01*
X264Y4902D01*
X263Y4905D01*
Y4905D01*
X263Y4905D01*
X263Y4906D01*
X263Y4906D01*
X263Y4907D01*
X262Y4908D01*
X262Y4909D01*
X262Y4911D01*
X262Y4912D01*
X261Y4914D01*
X261Y4916D01*
X261Y4917D01*
X261Y4921D01*
X260Y4926D01*
Y4926D01*
Y4926D01*
Y4927D01*
Y4928D01*
X261Y4929D01*
Y4930D01*
X261Y4932D01*
X261Y4933D01*
X261Y4936D01*
X262Y4940D01*
X262Y4944D01*
X263Y4947D01*
Y4947D01*
X264Y4948D01*
X264Y4948D01*
X264Y4949D01*
X265Y4950D01*
X265Y4951D01*
X267Y4954D01*
X269Y4956D01*
X270Y4957D01*
X271Y4958D01*
X273Y4959D01*
X274Y4959D01*
X276Y4960D01*
X278Y4960D01*
X278D01*
X278Y4960D01*
D02*
G37*
G36*
X327Y4460D02*
X327Y4460D01*
X328Y4459D01*
X328Y4459D01*
X329Y4458D01*
X329Y4457D01*
Y4403D01*
X337Y4411D01*
X337Y4411D01*
X337Y4412D01*
X338Y4412D01*
X339Y4412D01*
X340D01*
X340Y4412D01*
X341Y4412D01*
X341Y4411D01*
X342Y4411D01*
X342Y4410D01*
X343Y4409D01*
Y4409D01*
Y4409D01*
X342Y4408D01*
X342Y4407D01*
X342Y4407D01*
X328Y4393D01*
X328Y4393D01*
X328Y4393D01*
X327Y4392D01*
X327Y4392D01*
X326Y4392D01*
X325D01*
X324Y4392D01*
X324Y4392D01*
X323Y4393D01*
X322Y4393D01*
X322Y4394D01*
X322Y4395D01*
Y4457D01*
Y4457D01*
Y4457D01*
X322Y4458D01*
X322Y4458D01*
X323Y4459D01*
X323Y4460D01*
X324Y4460D01*
X325Y4460D01*
X326D01*
X327Y4460D01*
D02*
G37*
G36*
X292Y4460D02*
X293Y4460D01*
X294Y4460D01*
X295Y4459D01*
X296Y4459D01*
X297Y4458D01*
X298Y4458D01*
X299Y4457D01*
X300Y4456D01*
X301Y4454D01*
X302Y4453D01*
X303Y4451D01*
X305Y4449D01*
X305Y4447D01*
Y4447D01*
X306Y4447D01*
X306Y4446D01*
X306Y4445D01*
X306Y4445D01*
X306Y4444D01*
X307Y4442D01*
X307Y4441D01*
X307Y4440D01*
X307Y4438D01*
X308Y4436D01*
X308Y4434D01*
X308Y4430D01*
X308Y4426D01*
Y4426D01*
Y4425D01*
Y4425D01*
Y4424D01*
X308Y4423D01*
Y4422D01*
X308Y4420D01*
X308Y4419D01*
X308Y4415D01*
X307Y4412D01*
X306Y4408D01*
X305Y4405D01*
Y4405D01*
X305Y4404D01*
X305Y4404D01*
X305Y4403D01*
X304Y4402D01*
X303Y4401D01*
X302Y4398D01*
X300Y4396D01*
X299Y4395D01*
X298Y4394D01*
X296Y4393D01*
X295Y4392D01*
X293Y4392D01*
X291Y4392D01*
X291D01*
X290Y4392D01*
X290Y4392D01*
X289Y4392D01*
X288Y4392D01*
X287Y4393D01*
X286Y4393D01*
X285Y4394D01*
X284Y4395D01*
X282Y4396D01*
X281Y4397D01*
X280Y4399D01*
X279Y4400D01*
X278Y4402D01*
X277Y4405D01*
Y4405D01*
X277Y4405D01*
X277Y4406D01*
X277Y4406D01*
X276Y4407D01*
X276Y4408D01*
X276Y4409D01*
X276Y4411D01*
X275Y4412D01*
X275Y4414D01*
X275Y4416D01*
X275Y4417D01*
X274Y4421D01*
X274Y4426D01*
Y4426D01*
Y4426D01*
Y4427D01*
Y4428D01*
X274Y4429D01*
Y4430D01*
X274Y4432D01*
X275Y4433D01*
X275Y4436D01*
X275Y4440D01*
X276Y4444D01*
X277Y4447D01*
Y4447D01*
X277Y4448D01*
X278Y4448D01*
X278Y4449D01*
X278Y4450D01*
X279Y4451D01*
X281Y4454D01*
X283Y4456D01*
X284Y4457D01*
X285Y4458D01*
X286Y4459D01*
X288Y4459D01*
X289Y4460D01*
X291Y4460D01*
X292D01*
X292Y4460D01*
D02*
G37*
G36*
X316Y5960D02*
X317Y5960D01*
X318Y5959D01*
X318Y5959D01*
X318Y5958D01*
X319Y5957D01*
Y5946D01*
X340D01*
X340Y5946D01*
X341Y5946D01*
X341Y5945D01*
X342Y5945D01*
X342Y5944D01*
X343Y5943D01*
Y5943D01*
Y5943D01*
Y5942D01*
X329Y5894D01*
Y5894D01*
X329Y5894D01*
X328Y5893D01*
X328Y5893D01*
X328Y5893D01*
X327Y5892D01*
X326Y5892D01*
X325Y5892D01*
X325D01*
X324Y5892D01*
X324Y5892D01*
X323Y5893D01*
X323Y5893D01*
X322Y5894D01*
X322Y5895D01*
Y5895D01*
Y5895D01*
X322Y5896D01*
X335Y5939D01*
X319D01*
Y5929D01*
Y5929D01*
Y5929D01*
X318Y5928D01*
X318Y5928D01*
X318Y5927D01*
X317Y5926D01*
X316Y5926D01*
X315Y5926D01*
X315D01*
X314Y5926D01*
X313Y5926D01*
X313Y5927D01*
X312Y5927D01*
X312Y5928D01*
X312Y5929D01*
Y5939D01*
X304D01*
X304Y5940D01*
X303Y5940D01*
X303Y5940D01*
X302Y5941D01*
X302Y5942D01*
X302Y5943D01*
Y5943D01*
Y5943D01*
X302Y5944D01*
X302Y5945D01*
X302Y5945D01*
X303Y5946D01*
X304Y5946D01*
X305Y5946D01*
X312D01*
Y5957D01*
Y5957D01*
Y5957D01*
X312Y5958D01*
X312Y5958D01*
X313Y5959D01*
X313Y5960D01*
X314Y5960D01*
X315Y5960D01*
X316D01*
X316Y5960D01*
D02*
G37*
G36*
X272Y5960D02*
X272Y5960D01*
X273Y5960D01*
X274Y5959D01*
X275Y5959D01*
X276Y5958D01*
X277Y5958D01*
X278Y5957D01*
X280Y5956D01*
X281Y5954D01*
X282Y5953D01*
X283Y5951D01*
X284Y5949D01*
X285Y5947D01*
Y5947D01*
X285Y5947D01*
X285Y5946D01*
X285Y5945D01*
X286Y5945D01*
X286Y5944D01*
X286Y5942D01*
X286Y5941D01*
X287Y5940D01*
X287Y5938D01*
X287Y5936D01*
X287Y5934D01*
X288Y5930D01*
X288Y5926D01*
Y5926D01*
Y5925D01*
Y5925D01*
Y5924D01*
X288Y5923D01*
Y5922D01*
X288Y5920D01*
X287Y5919D01*
X287Y5915D01*
X287Y5912D01*
X286Y5908D01*
X285Y5905D01*
Y5905D01*
X285Y5904D01*
X284Y5904D01*
X284Y5903D01*
X284Y5902D01*
X283Y5901D01*
X281Y5898D01*
X280Y5896D01*
X278Y5895D01*
X277Y5894D01*
X276Y5893D01*
X274Y5892D01*
X273Y5892D01*
X271Y5892D01*
X270D01*
X270Y5892D01*
X269Y5892D01*
X268Y5892D01*
X268Y5892D01*
X266Y5893D01*
X265Y5893D01*
X264Y5894D01*
X263Y5895D01*
X262Y5896D01*
X261Y5897D01*
X260Y5899D01*
X259Y5900D01*
X258Y5902D01*
X257Y5905D01*
Y5905D01*
X257Y5905D01*
X256Y5906D01*
X256Y5906D01*
X256Y5907D01*
X256Y5908D01*
X256Y5909D01*
X255Y5911D01*
X255Y5912D01*
X255Y5914D01*
X254Y5916D01*
X254Y5917D01*
X254Y5921D01*
X254Y5926D01*
Y5926D01*
Y5926D01*
Y5927D01*
Y5928D01*
X254Y5929D01*
Y5930D01*
X254Y5932D01*
X254Y5933D01*
X254Y5936D01*
X255Y5940D01*
X256Y5944D01*
X257Y5947D01*
Y5947D01*
X257Y5948D01*
X257Y5948D01*
X258Y5949D01*
X258Y5950D01*
X259Y5951D01*
X260Y5954D01*
X262Y5956D01*
X263Y5957D01*
X265Y5958D01*
X266Y5959D01*
X267Y5959D01*
X269Y5960D01*
X271Y5960D01*
X271D01*
X272Y5960D01*
D02*
G37*
G36*
X787Y4010D02*
X787Y4010D01*
X788Y4009D01*
X788Y4009D01*
X789Y4008D01*
X789Y4007D01*
Y3953D01*
X797Y3961D01*
X797Y3961D01*
X797Y3962D01*
X798Y3962D01*
X799Y3962D01*
X800D01*
X800Y3962D01*
X801Y3962D01*
X801Y3961D01*
X802Y3961D01*
X802Y3960D01*
X802Y3959D01*
Y3959D01*
Y3959D01*
X802Y3958D01*
X802Y3957D01*
X802Y3957D01*
X788Y3943D01*
X788Y3943D01*
X788Y3943D01*
X787Y3942D01*
X787Y3942D01*
X786Y3942D01*
X785D01*
X784Y3942D01*
X784Y3942D01*
X783Y3943D01*
X782Y3943D01*
X782Y3944D01*
X782Y3945D01*
Y4007D01*
Y4007D01*
Y4007D01*
X782Y4008D01*
X782Y4008D01*
X783Y4009D01*
X783Y4010D01*
X784Y4010D01*
X785Y4010D01*
X786D01*
X787Y4010D01*
D02*
G37*
G36*
X860Y5710D02*
X861Y5710D01*
X861Y5709D01*
X862Y5709D01*
X862Y5708D01*
X862Y5707D01*
Y5707D01*
Y5706D01*
X862Y5706D01*
X862Y5705D01*
X862Y5704D01*
X861Y5704D01*
X860Y5703D01*
X859Y5703D01*
X845D01*
X844Y5703D01*
X843Y5703D01*
X842Y5702D01*
X841Y5702D01*
X839Y5701D01*
X838Y5700D01*
X838Y5700D01*
X838Y5700D01*
X837Y5699D01*
X837Y5698D01*
X836Y5697D01*
X836Y5696D01*
X835Y5695D01*
X835Y5693D01*
Y5686D01*
Y5686D01*
Y5685D01*
X835Y5685D01*
X835Y5684D01*
X836Y5682D01*
X836Y5681D01*
X837Y5680D01*
X838Y5679D01*
X838Y5679D01*
X839Y5678D01*
X839Y5678D01*
X840Y5677D01*
X841Y5677D01*
X842Y5676D01*
X844Y5676D01*
X845Y5676D01*
X853D01*
X853Y5676D01*
X854Y5675D01*
X855Y5675D01*
X855Y5674D01*
X856Y5674D01*
X856Y5673D01*
Y5672D01*
Y5672D01*
X855Y5671D01*
X855Y5671D01*
X855Y5670D01*
X854Y5670D01*
X853Y5669D01*
X852Y5669D01*
X845D01*
X844Y5669D01*
X843Y5669D01*
X842Y5668D01*
X841Y5668D01*
X839Y5667D01*
X838Y5666D01*
X838Y5666D01*
X838Y5666D01*
X837Y5665D01*
X837Y5664D01*
X836Y5663D01*
X836Y5662D01*
X835Y5660D01*
X835Y5659D01*
Y5659D01*
Y5658D01*
X835Y5657D01*
X835Y5656D01*
X836Y5655D01*
X836Y5654D01*
X837Y5653D01*
X838Y5652D01*
X838Y5651D01*
X839Y5651D01*
X839Y5651D01*
X840Y5650D01*
X841Y5649D01*
X842Y5649D01*
X844Y5649D01*
X845Y5648D01*
X859D01*
X860Y5648D01*
X861Y5648D01*
X861Y5648D01*
X862Y5647D01*
X862Y5646D01*
X862Y5645D01*
Y5645D01*
Y5645D01*
X862Y5644D01*
X862Y5643D01*
X862Y5643D01*
X861Y5642D01*
X860Y5642D01*
X859Y5642D01*
X845D01*
X844Y5642D01*
X843Y5642D01*
X841Y5642D01*
X839Y5643D01*
X837Y5644D01*
X835Y5645D01*
X833Y5647D01*
X833Y5647D01*
X832Y5648D01*
X832Y5649D01*
X831Y5650D01*
X830Y5652D01*
X829Y5654D01*
X828Y5656D01*
X828Y5659D01*
Y5659D01*
Y5659D01*
Y5660D01*
X828Y5660D01*
X828Y5661D01*
X829Y5662D01*
X829Y5664D01*
X830Y5666D01*
X830Y5667D01*
X831Y5668D01*
X832Y5669D01*
X833Y5670D01*
X834Y5672D01*
X835Y5673D01*
X835D01*
X835Y5673D01*
X835Y5673D01*
X834Y5673D01*
X833Y5675D01*
X832Y5676D01*
X830Y5678D01*
X829Y5680D01*
X829Y5682D01*
X828Y5683D01*
X828Y5685D01*
X828Y5686D01*
Y5693D01*
Y5693D01*
Y5693D01*
Y5694D01*
X828Y5694D01*
X828Y5695D01*
X829Y5697D01*
X829Y5699D01*
X830Y5701D01*
X832Y5703D01*
X833Y5705D01*
X834Y5705D01*
X834Y5706D01*
X835Y5707D01*
X837Y5707D01*
X838Y5708D01*
X841Y5709D01*
X843Y5710D01*
X845Y5710D01*
X859D01*
X860Y5710D01*
D02*
G37*
G36*
X812D02*
X813Y5710D01*
X813Y5709D01*
X814Y5709D01*
X814Y5708D01*
X815Y5707D01*
Y5707D01*
Y5706D01*
X814Y5706D01*
X814Y5705D01*
X814Y5704D01*
X813Y5704D01*
X812Y5703D01*
X811Y5703D01*
X797D01*
X796Y5703D01*
X795Y5703D01*
X794Y5702D01*
X793Y5702D01*
X791Y5701D01*
X790Y5700D01*
X790Y5700D01*
X790Y5700D01*
X789Y5699D01*
X789Y5698D01*
X788Y5697D01*
X788Y5696D01*
X787Y5695D01*
X787Y5693D01*
Y5686D01*
Y5686D01*
Y5685D01*
X787Y5685D01*
X788Y5684D01*
X788Y5682D01*
X789Y5681D01*
X789Y5680D01*
X790Y5679D01*
X790Y5679D01*
X791Y5678D01*
X791Y5678D01*
X792Y5677D01*
X793Y5677D01*
X795Y5676D01*
X796Y5676D01*
X798Y5676D01*
X812D01*
X812Y5676D01*
X813Y5675D01*
X813Y5675D01*
X814Y5674D01*
X814Y5674D01*
X815Y5673D01*
Y5645D01*
Y5645D01*
Y5645D01*
X814Y5644D01*
X814Y5643D01*
X814Y5643D01*
X813Y5642D01*
X812Y5642D01*
X811Y5642D01*
X787D01*
X786Y5642D01*
X786Y5642D01*
X785Y5642D01*
X784Y5643D01*
X784Y5644D01*
X784Y5645D01*
Y5645D01*
Y5646D01*
X784Y5646D01*
X784Y5647D01*
X785Y5647D01*
X785Y5648D01*
X786Y5648D01*
X787Y5648D01*
X808D01*
Y5669D01*
X797D01*
X796Y5669D01*
X795Y5669D01*
X793Y5670D01*
X791Y5670D01*
X789Y5671D01*
X787Y5672D01*
X785Y5674D01*
X785Y5674D01*
X785Y5675D01*
X784Y5676D01*
X783Y5677D01*
X782Y5679D01*
X781Y5681D01*
X781Y5684D01*
X780Y5686D01*
Y5693D01*
Y5693D01*
Y5693D01*
Y5694D01*
X781Y5694D01*
X781Y5695D01*
X781Y5697D01*
X782Y5699D01*
X783Y5701D01*
X784Y5703D01*
X785Y5705D01*
X786Y5705D01*
X786Y5706D01*
X787Y5707D01*
X789Y5707D01*
X791Y5708D01*
X793Y5709D01*
X795Y5710D01*
X797Y5710D01*
X812D01*
X812Y5710D01*
D02*
G37*
%LPC*%
G36*
X8752Y517D02*
D01*
X8684Y469D01*
X8623Y513D01*
Y517D01*
Y495D01*
X8658Y469D01*
X8660Y467D01*
X8663Y465D01*
X8665Y463D01*
X8668Y462D01*
X8669Y460D01*
X8671Y459D01*
X8672Y459D01*
X8672Y459D01*
X8670Y457D01*
X8667Y456D01*
X8665Y454D01*
X8662Y453D01*
X8660Y451D01*
X8658Y450D01*
X8657Y449D01*
X8657Y449D01*
X8657Y449D01*
X8656D01*
X8623Y425D01*
Y405D01*
X8685Y449D01*
X8752Y399D01*
X8623D01*
X8752D01*
Y517D01*
D02*
G37*
G36*
Y396D02*
D01*
X8717Y374D01*
X8713Y371D01*
X8710Y369D01*
X8707Y366D01*
X8704Y364D01*
X8702Y363D01*
X8701Y361D01*
X8700Y360D01*
X8700Y360D01*
X8699Y358D01*
X8697Y357D01*
X8695Y353D01*
X8695Y352D01*
X8694Y351D01*
X8693Y350D01*
X8693Y350D01*
X8693Y353D01*
X8692Y356D01*
X8691Y359D01*
X8690Y362D01*
X8690Y364D01*
X8688Y366D01*
X8688Y368D01*
X8687Y370D01*
X8685Y372D01*
X8685Y373D01*
X8684Y374D01*
X8683Y375D01*
X8683Y376D01*
X8682Y376D01*
X8682Y377D01*
X8682Y377D01*
X8680Y378D01*
X8678Y380D01*
X8674Y382D01*
X8670Y384D01*
X8666Y385D01*
X8663Y385D01*
X8662Y386D01*
X8661D01*
X8660Y386D01*
X8659D01*
X8659D01*
X8658D01*
X8655Y386D01*
X8651Y385D01*
X8648Y384D01*
X8645Y383D01*
X8643Y382D01*
X8641Y381D01*
X8640Y381D01*
X8639Y380D01*
X8639D01*
X8636Y378D01*
X8634Y376D01*
X8631Y374D01*
X8630Y371D01*
X8628Y369D01*
X8628Y368D01*
X8627Y366D01*
X8627Y366D01*
Y366D01*
X8626Y364D01*
X8626Y362D01*
X8625Y358D01*
X8624Y354D01*
X8624Y350D01*
X8624Y346D01*
Y344D01*
X8623Y343D01*
Y283D01*
X8752D01*
Y396D01*
D02*
G37*
%LPD*%
G36*
Y420D02*
X8707Y452D01*
X8706Y453D01*
X8705Y454D01*
X8702Y456D01*
X8700Y457D01*
X8699Y457D01*
X8698Y458D01*
X8698Y458D01*
X8701Y460D01*
X8704Y462D01*
X8705Y462D01*
X8705Y463D01*
X8706Y463D01*
X8706Y463D01*
X8752Y496D01*
Y420D01*
D02*
G37*
G36*
Y300D02*
X8695D01*
Y322D01*
X8695Y324D01*
Y326D01*
X8695Y327D01*
X8695Y328D01*
Y329D01*
X8695Y329D01*
Y329D01*
X8696Y332D01*
X8697Y334D01*
X8697Y335D01*
X8698Y336D01*
X8698Y336D01*
X8699Y337D01*
X8699Y337D01*
X8700Y339D01*
X8701Y340D01*
X8704Y343D01*
X8705Y344D01*
X8706Y345D01*
X8707Y346D01*
X8707Y346D01*
X8710Y348D01*
X8713Y350D01*
X8716Y352D01*
X8718Y354D01*
X8721Y355D01*
X8723Y357D01*
X8724Y357D01*
X8724Y358D01*
X8725Y358D01*
X8725D01*
X8752Y375D01*
Y300D01*
D02*
G37*
G36*
X8661Y368D02*
X8663Y368D01*
X8665Y367D01*
X8667Y367D01*
X8668Y366D01*
X8669Y365D01*
X8670Y365D01*
X8670Y365D01*
X8672Y364D01*
X8674Y362D01*
X8675Y360D01*
X8676Y359D01*
X8677Y357D01*
X8677Y356D01*
X8678Y355D01*
X8678Y355D01*
X8679Y352D01*
X8679Y349D01*
X8680Y346D01*
X8680Y343D01*
X8680Y341D01*
X8680Y339D01*
Y300D01*
X8638D01*
Y341D01*
X8638Y346D01*
X8639Y350D01*
X8640Y354D01*
X8641Y356D01*
X8642Y359D01*
X8643Y360D01*
X8643Y361D01*
X8644Y362D01*
X8646Y364D01*
X8648Y366D01*
X8651Y367D01*
X8653Y368D01*
X8655Y368D01*
X8657Y368D01*
X8658Y368D01*
X8658D01*
X8659D01*
X8661Y368D01*
D02*
G37*
%LPC*%
G36*
X8501Y9652D02*
X8500D01*
D01*
X8473D01*
X8500D01*
X8499Y9652D01*
X8497Y9652D01*
X8497Y9651D01*
X8496Y9651D01*
X8495Y9649D01*
X8495Y9649D01*
Y9649D01*
X8468Y9569D01*
X8442Y9649D01*
X8441Y9650D01*
X8440Y9651D01*
X8440Y9652D01*
X8439Y9652D01*
X8438Y9652D01*
X8437Y9652D01*
X8473D01*
X8437D01*
X8435Y9652D01*
X8434Y9652D01*
X8433Y9651D01*
X8432Y9650D01*
X8432Y9649D01*
X8431Y9648D01*
Y9652D01*
D01*
Y9547D01*
D01*
Y9647D01*
X8432Y9646D01*
X8432Y9646D01*
Y9645D01*
X8463Y9551D01*
X8464Y9550D01*
X8465Y9549D01*
X8465Y9548D01*
X8466Y9548D01*
X8467Y9548D01*
X8468Y9547D01*
X8431D01*
X8505D01*
X8468D01*
X8470Y9548D01*
X8471Y9548D01*
X8472Y9549D01*
X8472Y9549D01*
X8473Y9551D01*
X8473Y9551D01*
Y9551D01*
X8505Y9645D01*
X8505Y9647D01*
Y9647D01*
X8505Y9649D01*
X8504Y9650D01*
X8503Y9651D01*
X8503Y9652D01*
X8502Y9652D01*
X8501Y9652D01*
D02*
G37*
G36*
X8406Y9653D02*
X8363D01*
X8361Y9652D01*
X8360Y9652D01*
X8359Y9651D01*
X8359Y9650D01*
X8358Y9649D01*
X8358Y9648D01*
Y9547D01*
D01*
Y9553D01*
X8358Y9551D01*
X8359Y9550D01*
X8360Y9549D01*
X8360Y9548D01*
X8361Y9548D01*
X8362Y9547D01*
X8410D01*
X8405D01*
X8407Y9548D01*
X8408Y9548D01*
X8409Y9549D01*
X8410Y9550D01*
X8410Y9551D01*
X8410Y9552D01*
Y9553D01*
X8410Y9554D01*
X8410Y9556D01*
X8409Y9557D01*
X8408Y9557D01*
X8407Y9558D01*
X8406Y9558D01*
X8368D01*
Y9600D01*
X8395D01*
X8396Y9600D01*
X8398Y9601D01*
X8399Y9602D01*
X8399Y9603D01*
X8400Y9603D01*
X8400Y9604D01*
Y9605D01*
Y9605D01*
X8400Y9607D01*
X8399Y9608D01*
X8398Y9609D01*
X8397Y9610D01*
X8396Y9610D01*
X8395Y9610D01*
X8368D01*
Y9642D01*
X8405D01*
X8407Y9642D01*
X8408Y9643D01*
X8409Y9644D01*
X8410Y9645D01*
X8410Y9646D01*
X8410Y9647D01*
Y9634D01*
Y9647D01*
X8410Y9649D01*
X8410Y9650D01*
X8409Y9651D01*
X8408Y9652D01*
X8407Y9652D01*
X8406Y9653D01*
D02*
G37*
G36*
X8617Y9652D02*
X8615D01*
X8614Y9652D01*
X8613Y9651D01*
X8612Y9651D01*
X8612Y9650D01*
X8611Y9650D01*
X8591Y9630D01*
X8590Y9629D01*
X8590Y9627D01*
X8589Y9626D01*
Y9652D01*
D01*
Y9547D01*
X8621D01*
D01*
X8616D01*
X8617Y9548D01*
X8619Y9548D01*
X8620Y9549D01*
X8620Y9550D01*
X8621Y9551D01*
X8621Y9552D01*
Y9647D01*
X8621Y9649D01*
X8620Y9650D01*
X8619Y9651D01*
X8618Y9652D01*
X8617Y9652D01*
X8617Y9652D01*
D02*
G37*
G36*
X8701Y9653D02*
X8700D01*
X8697Y9652D01*
X8695Y9652D01*
X8692Y9651D01*
X8690Y9650D01*
X8688Y9648D01*
X8687Y9646D01*
X8684Y9643D01*
X8681Y9639D01*
X8680Y9637D01*
X8680Y9636D01*
X8679Y9634D01*
X8679Y9633D01*
X8678Y9633D01*
Y9632D01*
X8677Y9627D01*
X8676Y9622D01*
X8675Y9616D01*
X8674Y9611D01*
X8674Y9609D01*
X8674Y9607D01*
Y9605D01*
X8674Y9603D01*
Y9653D01*
Y9547D01*
X8726D01*
X8700D01*
X8703Y9548D01*
X8705Y9548D01*
X8708Y9549D01*
X8710Y9550D01*
X8712Y9552D01*
X8713Y9554D01*
X8717Y9557D01*
X8719Y9561D01*
X8720Y9563D01*
X8720Y9564D01*
X8721Y9565D01*
X8721Y9566D01*
X8722Y9567D01*
Y9567D01*
X8723Y9573D01*
X8724Y9578D01*
X8725Y9584D01*
X8726Y9589D01*
X8726Y9591D01*
X8726Y9593D01*
Y9595D01*
X8726Y9597D01*
Y9600D01*
Y9600D01*
X8726Y9607D01*
X8726Y9613D01*
X8725Y9616D01*
X8725Y9619D01*
X8725Y9621D01*
X8724Y9623D01*
X8724Y9625D01*
X8723Y9627D01*
X8723Y9629D01*
X8722Y9630D01*
X8722Y9631D01*
X8722Y9632D01*
X8722Y9632D01*
Y9632D01*
X8720Y9636D01*
X8719Y9639D01*
X8717Y9642D01*
X8715Y9644D01*
X8714Y9646D01*
X8712Y9648D01*
X8710Y9649D01*
X8708Y9650D01*
X8707Y9651D01*
X8705Y9652D01*
X8704Y9652D01*
X8702Y9652D01*
X8702Y9652D01*
X8701Y9653D01*
D02*
G37*
G36*
X8653Y9563D02*
X8642D01*
Y9547D01*
D01*
Y9553D01*
X8642Y9551D01*
X8643Y9550D01*
X8644Y9549D01*
X8645Y9548D01*
X8646Y9548D01*
X8647Y9547D01*
X8647D01*
X8649Y9548D01*
X8650Y9548D01*
X8651Y9549D01*
X8652Y9550D01*
X8652Y9551D01*
X8653Y9552D01*
Y9558D01*
X8652Y9560D01*
X8652Y9561D01*
X8651Y9562D01*
X8650Y9562D01*
X8649Y9563D01*
X8648Y9563D01*
X8653D01*
D02*
G37*
G36*
X8306Y9653D02*
X8279D01*
X8277Y9652D01*
X8276Y9652D01*
X8275Y9651D01*
X8274Y9650D01*
X8274Y9649D01*
X8274Y9648D01*
Y9547D01*
D01*
Y9553D01*
X8274Y9551D01*
X8274Y9550D01*
X8275Y9549D01*
X8276Y9548D01*
X8277Y9548D01*
X8278Y9547D01*
X8279D01*
D01*
X8301D01*
X8279D01*
X8281Y9548D01*
X8282Y9548D01*
X8283Y9549D01*
X8283Y9550D01*
X8284Y9551D01*
X8284Y9552D01*
Y9552D01*
Y9553D01*
Y9589D01*
X8307D01*
X8327Y9550D01*
X8327Y9549D01*
X8328Y9548D01*
X8329Y9548D01*
X8330Y9548D01*
X8330Y9548D01*
X8331Y9547D01*
X8301D01*
X8331D01*
X8333Y9548D01*
X8334Y9548D01*
X8335Y9549D01*
X8335Y9549D01*
X8336Y9550D01*
X8337Y9551D01*
X8337Y9552D01*
Y9553D01*
X8337Y9554D01*
X8336Y9555D01*
X8336Y9555D01*
X8318Y9592D01*
X8321Y9593D01*
X8324Y9595D01*
X8327Y9597D01*
X8329Y9599D01*
X8331Y9602D01*
X8332Y9604D01*
X8333Y9607D01*
X8334Y9609D01*
X8335Y9612D01*
X8336Y9614D01*
X8336Y9616D01*
X8336Y9617D01*
X8337Y9619D01*
X8337Y9620D01*
Y9621D01*
X8337Y9623D01*
X8336Y9626D01*
X8335Y9630D01*
X8334Y9634D01*
X8332Y9637D01*
X8330Y9640D01*
X8330Y9641D01*
X8329Y9642D01*
X8328Y9642D01*
X8328Y9643D01*
X8328Y9643D01*
X8328Y9643D01*
X8326Y9645D01*
X8324Y9647D01*
X8322Y9648D01*
X8320Y9649D01*
X8316Y9650D01*
X8313Y9652D01*
X8310Y9652D01*
X8308Y9652D01*
X8307D01*
X8306Y9653D01*
D02*
G37*
%LPD*%
G36*
X8610Y9553D02*
X8611Y9551D01*
X8611Y9550D01*
X8612Y9549D01*
X8613Y9548D01*
X8614Y9548D01*
X8615Y9547D01*
X8589D01*
Y9626D01*
X8590Y9624D01*
X8590Y9623D01*
X8591Y9622D01*
X8592Y9622D01*
X8593Y9621D01*
X8594Y9621D01*
X8595D01*
X8596Y9621D01*
X8597Y9622D01*
X8598Y9622D01*
X8598Y9622D01*
X8610Y9635D01*
Y9553D01*
D02*
G37*
G36*
X8702Y9642D02*
X8703Y9641D01*
X8705Y9640D01*
X8706Y9639D01*
X8707Y9638D01*
X8708Y9637D01*
X8710Y9633D01*
X8711Y9630D01*
X8712Y9629D01*
X8712Y9627D01*
X8712Y9626D01*
X8713Y9625D01*
X8713Y9625D01*
Y9625D01*
X8714Y9620D01*
X8715Y9616D01*
X8715Y9612D01*
X8715Y9608D01*
X8716Y9605D01*
X8716Y9603D01*
Y9602D01*
Y9601D01*
Y9600D01*
Y9600D01*
Y9600D01*
X8716Y9595D01*
X8715Y9591D01*
X8715Y9586D01*
X8714Y9583D01*
X8714Y9580D01*
X8714Y9578D01*
X8713Y9577D01*
X8713Y9576D01*
X8713Y9576D01*
X8713Y9575D01*
Y9575D01*
X8712Y9572D01*
X8711Y9570D01*
X8710Y9567D01*
X8709Y9565D01*
X8708Y9564D01*
X8707Y9562D01*
X8706Y9561D01*
X8705Y9560D01*
X8704Y9559D01*
X8703Y9559D01*
X8702Y9558D01*
X8700Y9558D01*
X8700D01*
X8698Y9558D01*
X8697Y9559D01*
X8696Y9560D01*
X8694Y9561D01*
X8693Y9562D01*
X8692Y9563D01*
X8690Y9567D01*
X8689Y9570D01*
X8688Y9571D01*
X8688Y9573D01*
X8687Y9574D01*
X8687Y9575D01*
X8687Y9575D01*
Y9575D01*
X8686Y9580D01*
X8685Y9584D01*
X8685Y9588D01*
X8685Y9592D01*
X8685Y9595D01*
X8684Y9597D01*
Y9598D01*
Y9599D01*
Y9599D01*
Y9600D01*
Y9600D01*
X8685Y9605D01*
X8685Y9609D01*
X8685Y9613D01*
X8686Y9617D01*
X8686Y9620D01*
X8687Y9621D01*
X8687Y9622D01*
X8687Y9623D01*
Y9624D01*
X8687Y9624D01*
Y9625D01*
X8688Y9628D01*
X8689Y9630D01*
X8690Y9633D01*
X8691Y9635D01*
X8692Y9636D01*
X8693Y9638D01*
X8694Y9639D01*
X8695Y9640D01*
X8696Y9641D01*
X8697Y9641D01*
X8699Y9642D01*
X8700Y9642D01*
X8700D01*
X8702Y9642D01*
D02*
G37*
G36*
X8674Y9593D02*
X8675Y9587D01*
X8675Y9584D01*
X8675Y9581D01*
X8676Y9579D01*
X8676Y9577D01*
X8676Y9575D01*
X8677Y9573D01*
X8677Y9571D01*
X8677Y9570D01*
X8678Y9569D01*
X8678Y9568D01*
X8678Y9568D01*
Y9567D01*
X8680Y9564D01*
X8681Y9561D01*
X8683Y9558D01*
X8685Y9556D01*
X8686Y9554D01*
X8688Y9552D01*
X8690Y9551D01*
X8692Y9550D01*
X8693Y9549D01*
X8695Y9548D01*
X8696Y9548D01*
X8698Y9548D01*
X8699Y9548D01*
X8699Y9547D01*
X8674D01*
Y9600D01*
X8674Y9593D01*
D02*
G37*
G36*
X8646Y9563D02*
X8644Y9562D01*
X8643Y9561D01*
X8643Y9560D01*
X8642Y9559D01*
X8642Y9559D01*
Y9563D01*
X8647D01*
X8646Y9563D01*
D02*
G37*
G36*
X8308Y9642D02*
X8311Y9641D01*
X8314Y9640D01*
X8316Y9639D01*
X8318Y9638D01*
X8319Y9637D01*
X8320Y9636D01*
X8320Y9636D01*
X8322Y9633D01*
X8324Y9631D01*
X8325Y9628D01*
X8325Y9626D01*
X8326Y9624D01*
X8326Y9622D01*
Y9621D01*
Y9621D01*
Y9621D01*
X8326Y9618D01*
X8325Y9615D01*
X8324Y9612D01*
X8323Y9610D01*
X8322Y9608D01*
X8321Y9607D01*
X8320Y9606D01*
X8320Y9606D01*
X8318Y9604D01*
X8315Y9603D01*
X8313Y9601D01*
X8310Y9601D01*
X8308Y9600D01*
X8307Y9600D01*
X8305Y9600D01*
X8284D01*
Y9642D01*
X8305D01*
X8308Y9642D01*
D02*
G37*
%LPC*%
G36*
X9727Y8737D02*
X9659Y8689D01*
X9598Y8733D01*
Y8737D01*
D01*
Y8619D01*
X9727D01*
X9598D01*
Y8625D01*
X9660Y8669D01*
X9727Y8619D01*
Y8640D01*
X9682Y8672D01*
X9681Y8673D01*
X9680Y8674D01*
X9677Y8676D01*
X9675Y8677D01*
X9674Y8677D01*
X9673Y8678D01*
X9673Y8678D01*
X9676Y8680D01*
X9679Y8682D01*
X9680Y8682D01*
X9680Y8683D01*
X9681Y8683D01*
X9681Y8683D01*
X9727Y8716D01*
Y8737D01*
D02*
G37*
G36*
X9614Y8615D02*
X9598D01*
Y8513D01*
X9727D01*
Y8573D01*
X9614D01*
Y8615D01*
D02*
G37*
%LPD*%
G36*
X9633Y8689D02*
X9635Y8687D01*
X9638Y8685D01*
X9640Y8683D01*
X9643Y8682D01*
X9644Y8680D01*
X9646Y8679D01*
X9647Y8679D01*
X9647Y8679D01*
X9645Y8677D01*
X9642Y8676D01*
X9640Y8674D01*
X9637Y8673D01*
X9635Y8671D01*
X9633Y8670D01*
X9632Y8669D01*
X9632Y8669D01*
X9632Y8669D01*
X9631D01*
X9598Y8645D01*
Y8715D01*
X9633Y8689D01*
D02*
G37*
G36*
X9727Y8513D02*
X9614D01*
Y8556D01*
X9727D01*
Y8513D01*
D02*
G37*
%LPC*%
G36*
X1518Y9782D02*
X1492D01*
Y9698D01*
X1519D01*
X1520Y9698D01*
X1522Y9699D01*
X1523Y9699D01*
X1525Y9700D01*
X1527Y9701D01*
X1529Y9702D01*
X1529Y9703D01*
X1530Y9703D01*
X1530Y9704D01*
X1531Y9706D01*
X1532Y9707D01*
X1533Y9709D01*
X1533Y9711D01*
X1534Y9714D01*
Y9766D01*
Y9767D01*
Y9767D01*
X1533Y9769D01*
X1533Y9770D01*
X1532Y9772D01*
X1532Y9774D01*
X1530Y9776D01*
X1529Y9778D01*
X1529Y9778D01*
X1528Y9778D01*
X1527Y9779D01*
X1526Y9780D01*
X1524Y9781D01*
X1522Y9782D01*
X1520Y9782D01*
X1518Y9782D01*
D02*
G37*
G36*
X2355Y8845D02*
X2354D01*
X2352Y8844D01*
X2350Y8844D01*
X2348Y8843D01*
X2345Y8842D01*
X2343Y8841D01*
X2340Y8839D01*
X2340Y8839D01*
X2339Y8838D01*
X2339Y8836D01*
X2337Y8835D01*
X2336Y8832D01*
X2335Y8830D01*
X2335Y8827D01*
X2334Y8824D01*
Y8781D01*
Y8781D01*
Y8781D01*
X2335Y8780D01*
X2335Y8778D01*
X2335Y8776D01*
X2336Y8774D01*
X2337Y8771D01*
X2338Y8769D01*
X2340Y8766D01*
X2341Y8766D01*
X2341Y8766D01*
X2343Y8765D01*
X2345Y8764D01*
X2347Y8762D01*
X2349Y8761D01*
X2352Y8761D01*
X2355Y8761D01*
X2356D01*
X2357Y8761D01*
X2359Y8761D01*
X2361Y8761D01*
X2363Y8762D01*
X2365Y8763D01*
X2368Y8764D01*
X2370Y8766D01*
X2371Y8767D01*
X2371Y8768D01*
X2372Y8769D01*
X2374Y8771D01*
X2375Y8773D01*
X2376Y8775D01*
X2376Y8778D01*
X2376Y8781D01*
Y8824D01*
Y8824D01*
Y8824D01*
Y8825D01*
X2376Y8827D01*
X2376Y8829D01*
X2375Y8831D01*
X2374Y8834D01*
X2372Y8836D01*
X2370Y8839D01*
X2370Y8839D01*
X2369Y8840D01*
X2368Y8841D01*
X2366Y8842D01*
X2364Y8843D01*
X2361Y8844D01*
X2359Y8845D01*
X2355Y8845D01*
D02*
G37*
G36*
X2468Y9782D02*
X2442D01*
Y9698D01*
X2469D01*
X2470Y9698D01*
X2472Y9699D01*
X2473Y9699D01*
X2475Y9700D01*
X2477Y9701D01*
X2479Y9702D01*
X2479Y9703D01*
X2480Y9703D01*
X2480Y9704D01*
X2481Y9706D01*
X2482Y9707D01*
X2483Y9709D01*
X2483Y9711D01*
X2484Y9714D01*
Y9766D01*
Y9767D01*
Y9767D01*
X2483Y9769D01*
X2483Y9770D01*
X2482Y9772D01*
X2482Y9774D01*
X2480Y9776D01*
X2479Y9778D01*
X2479Y9778D01*
X2478Y9778D01*
X2477Y9779D01*
X2476Y9780D01*
X2474Y9781D01*
X2472Y9782D01*
X2470Y9782D01*
X2468Y9782D01*
D02*
G37*
G36*
X2391Y9282D02*
X2390D01*
X2389Y9282D01*
X2388Y9281D01*
X2387Y9281D01*
X2386Y9280D01*
X2385Y9279D01*
X2384Y9278D01*
X2382Y9277D01*
X2381Y9275D01*
X2380Y9273D01*
X2379Y9270D01*
X2379Y9268D01*
X2378Y9265D01*
Y9265D01*
X2377Y9264D01*
Y9264D01*
X2377Y9263D01*
X2377Y9262D01*
X2377Y9260D01*
X2376Y9257D01*
X2376Y9253D01*
X2375Y9249D01*
X2375Y9245D01*
X2375Y9240D01*
Y9240D01*
Y9240D01*
Y9239D01*
Y9238D01*
Y9237D01*
X2375Y9235D01*
X2375Y9232D01*
X2376Y9228D01*
X2376Y9224D01*
X2377Y9220D01*
X2378Y9215D01*
Y9215D01*
X2378Y9215D01*
X2378Y9214D01*
X2378Y9213D01*
X2379Y9211D01*
X2379Y9210D01*
X2381Y9207D01*
X2383Y9204D01*
X2384Y9202D01*
X2385Y9201D01*
X2386Y9200D01*
X2387Y9199D01*
X2389Y9198D01*
X2391Y9198D01*
X2391D01*
X2392Y9198D01*
X2394Y9199D01*
X2394Y9200D01*
X2395Y9200D01*
X2396Y9201D01*
X2398Y9202D01*
X2399Y9204D01*
X2400Y9205D01*
X2401Y9207D01*
X2402Y9210D01*
X2403Y9212D01*
X2403Y9215D01*
Y9216D01*
X2404Y9216D01*
X2404Y9217D01*
X2404Y9217D01*
X2404Y9219D01*
X2404Y9220D01*
X2405Y9223D01*
X2405Y9227D01*
X2406Y9231D01*
X2406Y9235D01*
X2406Y9240D01*
Y9240D01*
Y9241D01*
Y9241D01*
Y9242D01*
Y9243D01*
X2406Y9245D01*
X2406Y9248D01*
X2406Y9252D01*
X2405Y9256D01*
X2404Y9260D01*
X2403Y9265D01*
Y9265D01*
X2403Y9265D01*
X2403Y9266D01*
X2403Y9267D01*
X2402Y9269D01*
X2402Y9270D01*
X2400Y9274D01*
X2399Y9277D01*
X2397Y9278D01*
X2396Y9280D01*
X2395Y9281D01*
X2394Y9282D01*
X2392Y9282D01*
X2391Y9282D01*
D02*
G37*
G36*
X2317Y9240D02*
X2301D01*
Y9214D01*
Y9213D01*
Y9213D01*
X2301Y9211D01*
X2302Y9210D01*
X2302Y9208D01*
X2303Y9206D01*
X2304Y9204D01*
X2306Y9202D01*
X2306Y9202D01*
X2306Y9202D01*
X2307Y9201D01*
X2309Y9200D01*
X2310Y9200D01*
X2312Y9199D01*
X2314Y9198D01*
X2317Y9198D01*
X2318D01*
X2319Y9198D01*
X2321Y9199D01*
X2322Y9199D01*
X2324Y9200D01*
X2326Y9201D01*
X2328Y9202D01*
X2328Y9203D01*
X2329Y9203D01*
X2329Y9204D01*
X2330Y9206D01*
X2331Y9207D01*
X2332Y9209D01*
X2332Y9211D01*
X2333Y9214D01*
Y9224D01*
Y9225D01*
Y9225D01*
X2332Y9227D01*
X2332Y9228D01*
X2331Y9230D01*
X2331Y9232D01*
X2329Y9234D01*
X2328Y9235D01*
X2328Y9236D01*
X2327Y9236D01*
X2326Y9237D01*
X2325Y9238D01*
X2323Y9239D01*
X2321Y9239D01*
X2319Y9240D01*
X2317Y9240D01*
D02*
G37*
G36*
X1790Y9282D02*
X1790D01*
X1789Y9282D01*
X1787Y9281D01*
X1786Y9281D01*
X1785Y9280D01*
X1784Y9279D01*
X1783Y9278D01*
X1782Y9277D01*
X1781Y9275D01*
X1780Y9273D01*
X1779Y9270D01*
X1778Y9268D01*
X1777Y9265D01*
Y9265D01*
X1777Y9264D01*
Y9264D01*
X1777Y9263D01*
X1777Y9262D01*
X1776Y9260D01*
X1776Y9257D01*
X1775Y9253D01*
X1775Y9249D01*
X1775Y9245D01*
X1775Y9240D01*
Y9240D01*
Y9240D01*
Y9239D01*
Y9238D01*
Y9237D01*
X1775Y9235D01*
X1775Y9232D01*
X1775Y9228D01*
X1776Y9224D01*
X1776Y9220D01*
X1777Y9215D01*
Y9215D01*
X1777Y9215D01*
X1778Y9214D01*
X1778Y9213D01*
X1779Y9211D01*
X1779Y9210D01*
X1780Y9207D01*
X1782Y9204D01*
X1783Y9202D01*
X1785Y9201D01*
X1786Y9200D01*
X1787Y9199D01*
X1789Y9198D01*
X1790Y9198D01*
X1791D01*
X1792Y9198D01*
X1793Y9199D01*
X1794Y9200D01*
X1795Y9200D01*
X1796Y9201D01*
X1797Y9202D01*
X1798Y9204D01*
X1799Y9205D01*
X1800Y9207D01*
X1801Y9210D01*
X1802Y9212D01*
X1803Y9215D01*
Y9216D01*
X1803Y9216D01*
X1803Y9217D01*
X1804Y9217D01*
X1804Y9219D01*
X1804Y9220D01*
X1804Y9223D01*
X1805Y9227D01*
X1806Y9231D01*
X1806Y9235D01*
X1806Y9240D01*
Y9240D01*
Y9241D01*
Y9241D01*
Y9242D01*
Y9243D01*
X1806Y9245D01*
X1806Y9248D01*
X1805Y9252D01*
X1805Y9256D01*
X1804Y9260D01*
X1803Y9265D01*
Y9265D01*
X1803Y9265D01*
X1803Y9266D01*
X1802Y9267D01*
X1802Y9269D01*
X1801Y9270D01*
X1800Y9274D01*
X1798Y9277D01*
X1797Y9278D01*
X1796Y9280D01*
X1795Y9281D01*
X1793Y9282D01*
X1792Y9282D01*
X1790Y9282D01*
D02*
G37*
G36*
X1564D02*
X1543D01*
Y9240D01*
X1564D01*
X1565Y9240D01*
X1567Y9240D01*
X1569Y9241D01*
X1571Y9242D01*
X1574Y9243D01*
X1576Y9244D01*
X1579Y9246D01*
X1579Y9247D01*
X1580Y9247D01*
X1581Y9249D01*
X1582Y9250D01*
X1583Y9252D01*
X1584Y9255D01*
X1585Y9258D01*
X1585Y9261D01*
Y9261D01*
Y9262D01*
Y9263D01*
X1585Y9264D01*
X1584Y9266D01*
X1583Y9269D01*
X1582Y9271D01*
X1581Y9274D01*
X1579Y9276D01*
X1579Y9276D01*
X1578Y9277D01*
X1576Y9278D01*
X1575Y9279D01*
X1572Y9280D01*
X1570Y9281D01*
X1567Y9282D01*
X1564Y9282D01*
D02*
G37*
G36*
X278Y5453D02*
X277D01*
X277Y5453D01*
X276Y5453D01*
X275Y5452D01*
X274Y5452D01*
X274Y5451D01*
X273Y5450D01*
X272Y5449D01*
X272Y5448D01*
X271Y5447D01*
X270Y5446D01*
X270Y5444D01*
X269Y5442D01*
Y5442D01*
X269Y5441D01*
X269Y5441D01*
X269Y5441D01*
X269Y5440D01*
X269Y5439D01*
X268Y5437D01*
X268Y5435D01*
X268Y5432D01*
X267Y5429D01*
X267Y5426D01*
Y5426D01*
Y5426D01*
Y5425D01*
Y5424D01*
Y5424D01*
X267Y5423D01*
X268Y5421D01*
X268Y5418D01*
X268Y5416D01*
X269Y5413D01*
X269Y5410D01*
Y5410D01*
X269Y5409D01*
X269Y5409D01*
X270Y5408D01*
X270Y5407D01*
X270Y5406D01*
X271Y5404D01*
X272Y5402D01*
X273Y5401D01*
X274Y5400D01*
X275Y5400D01*
X276Y5399D01*
X276Y5399D01*
X278Y5398D01*
X278D01*
X278Y5399D01*
X279Y5399D01*
X280Y5399D01*
X281Y5400D01*
X281Y5401D01*
X282Y5401D01*
X283Y5402D01*
X283Y5403D01*
X284Y5405D01*
X285Y5406D01*
X285Y5408D01*
X286Y5410D01*
Y5410D01*
X286Y5410D01*
Y5411D01*
X286Y5411D01*
X286Y5412D01*
X287Y5413D01*
X287Y5415D01*
X287Y5417D01*
X287Y5420D01*
X288Y5423D01*
X288Y5426D01*
Y5426D01*
Y5426D01*
Y5427D01*
Y5427D01*
Y5428D01*
X288Y5429D01*
X287Y5431D01*
X287Y5433D01*
X287Y5436D01*
X287Y5439D01*
X286Y5442D01*
Y5442D01*
X286Y5442D01*
X286Y5443D01*
X285Y5444D01*
X285Y5444D01*
X285Y5445D01*
X284Y5448D01*
X283Y5450D01*
X282Y5451D01*
X281Y5451D01*
X280Y5452D01*
X280Y5453D01*
X279Y5453D01*
X278Y5453D01*
D02*
G37*
G36*
X278Y4953D02*
X277D01*
X277Y4953D01*
X276Y4953D01*
X275Y4952D01*
X274Y4952D01*
X274Y4951D01*
X273Y4950D01*
X272Y4949D01*
X272Y4948D01*
X271Y4947D01*
X270Y4946D01*
X270Y4944D01*
X269Y4942D01*
Y4942D01*
X269Y4941D01*
X269Y4941D01*
X269Y4941D01*
X269Y4940D01*
X269Y4939D01*
X268Y4937D01*
X268Y4935D01*
X268Y4932D01*
X267Y4929D01*
X267Y4926D01*
Y4926D01*
Y4926D01*
Y4925D01*
Y4924D01*
Y4924D01*
X267Y4923D01*
X268Y4921D01*
X268Y4918D01*
X268Y4916D01*
X269Y4913D01*
X269Y4910D01*
Y4910D01*
X269Y4909D01*
X269Y4909D01*
X270Y4908D01*
X270Y4907D01*
X270Y4906D01*
X271Y4904D01*
X272Y4902D01*
X273Y4901D01*
X274Y4900D01*
X275Y4900D01*
X276Y4899D01*
X276Y4899D01*
X278Y4898D01*
X278D01*
X278Y4899D01*
X279Y4899D01*
X280Y4899D01*
X281Y4900D01*
X281Y4901D01*
X282Y4901D01*
X283Y4902D01*
X283Y4903D01*
X284Y4905D01*
X285Y4906D01*
X285Y4908D01*
X286Y4910D01*
Y4910D01*
X286Y4910D01*
Y4911D01*
X286Y4911D01*
X286Y4912D01*
X287Y4913D01*
X287Y4915D01*
X287Y4917D01*
X287Y4920D01*
X288Y4923D01*
X288Y4926D01*
Y4926D01*
Y4926D01*
Y4927D01*
Y4927D01*
Y4928D01*
X288Y4929D01*
X287Y4931D01*
X287Y4933D01*
X287Y4936D01*
X287Y4939D01*
X286Y4942D01*
Y4942D01*
X286Y4942D01*
X286Y4943D01*
X285Y4944D01*
X285Y4945D01*
X285Y4945D01*
X284Y4948D01*
X283Y4950D01*
X282Y4951D01*
X281Y4951D01*
X280Y4952D01*
X280Y4953D01*
X279Y4953D01*
X278Y4953D01*
D02*
G37*
G36*
X291Y4453D02*
X291D01*
X290Y4453D01*
X289Y4453D01*
X289Y4452D01*
X288Y4452D01*
X287Y4451D01*
X287Y4450D01*
X286Y4449D01*
X285Y4448D01*
X285Y4447D01*
X284Y4446D01*
X283Y4444D01*
X283Y4442D01*
Y4442D01*
X283Y4442D01*
X283Y4441D01*
X283Y4441D01*
X282Y4440D01*
X282Y4439D01*
X282Y4437D01*
X282Y4435D01*
X281Y4432D01*
X281Y4429D01*
X281Y4426D01*
Y4426D01*
Y4426D01*
Y4425D01*
Y4424D01*
Y4424D01*
X281Y4423D01*
X281Y4421D01*
X281Y4418D01*
X282Y4416D01*
X282Y4413D01*
X283Y4410D01*
Y4410D01*
X283Y4409D01*
X283Y4409D01*
X283Y4408D01*
X284Y4407D01*
X284Y4406D01*
X285Y4404D01*
X286Y4402D01*
X287Y4401D01*
X287Y4400D01*
X288Y4400D01*
X289Y4399D01*
X290Y4399D01*
X291Y4398D01*
X291D01*
X292Y4399D01*
X293Y4399D01*
X294Y4399D01*
X294Y4400D01*
X295Y4401D01*
X296Y4401D01*
X296Y4402D01*
X297Y4403D01*
X298Y4405D01*
X298Y4406D01*
X299Y4408D01*
X300Y4410D01*
Y4410D01*
X300Y4410D01*
Y4411D01*
X300Y4411D01*
X300Y4412D01*
X300Y4413D01*
X300Y4415D01*
X301Y4417D01*
X301Y4420D01*
X301Y4423D01*
X301Y4426D01*
Y4426D01*
Y4426D01*
Y4427D01*
Y4427D01*
Y4428D01*
X301Y4429D01*
X301Y4431D01*
X301Y4433D01*
X301Y4436D01*
X300Y4439D01*
X300Y4442D01*
Y4442D01*
X299Y4442D01*
X299Y4443D01*
X299Y4444D01*
X299Y4445D01*
X298Y4445D01*
X298Y4448D01*
X296Y4450D01*
X296Y4451D01*
X295Y4451D01*
X294Y4452D01*
X293Y4453D01*
X292Y4453D01*
X291Y4453D01*
D02*
G37*
G36*
X271Y5953D02*
X271D01*
X270Y5953D01*
X269Y5953D01*
X268Y5952D01*
X268Y5952D01*
X267Y5951D01*
X266Y5950D01*
X266Y5949D01*
X265Y5948D01*
X264Y5947D01*
X264Y5946D01*
X263Y5944D01*
X262Y5942D01*
Y5942D01*
X262Y5941D01*
X262Y5941D01*
X262Y5941D01*
X262Y5940D01*
X262Y5939D01*
X262Y5937D01*
X261Y5935D01*
X261Y5932D01*
X261Y5929D01*
X261Y5926D01*
Y5926D01*
Y5926D01*
Y5925D01*
Y5924D01*
Y5924D01*
X261Y5923D01*
X261Y5921D01*
X261Y5918D01*
X261Y5916D01*
X262Y5913D01*
X262Y5910D01*
Y5910D01*
X263Y5909D01*
X263Y5909D01*
X263Y5908D01*
X263Y5907D01*
X264Y5906D01*
X265Y5904D01*
X266Y5902D01*
X266Y5901D01*
X267Y5900D01*
X268Y5900D01*
X269Y5899D01*
X270Y5899D01*
X271Y5898D01*
X271D01*
X272Y5899D01*
X273Y5899D01*
X273Y5899D01*
X274Y5900D01*
X275Y5901D01*
X275Y5901D01*
X276Y5902D01*
X277Y5903D01*
X277Y5905D01*
X278Y5906D01*
X279Y5908D01*
X279Y5910D01*
Y5910D01*
X279Y5910D01*
Y5911D01*
X279Y5911D01*
X280Y5912D01*
X280Y5913D01*
X280Y5915D01*
X280Y5917D01*
X281Y5920D01*
X281Y5923D01*
X281Y5926D01*
Y5926D01*
Y5926D01*
Y5927D01*
Y5927D01*
Y5928D01*
X281Y5929D01*
X281Y5931D01*
X281Y5933D01*
X280Y5936D01*
X280Y5939D01*
X279Y5942D01*
Y5942D01*
X279Y5942D01*
X279Y5943D01*
X279Y5944D01*
X278Y5944D01*
X278Y5945D01*
X277Y5948D01*
X276Y5950D01*
X275Y5951D01*
X275Y5951D01*
X274Y5952D01*
X273Y5953D01*
X272Y5953D01*
X271Y5953D01*
D02*
G37*
%LPD*%
D10*
X8734Y8835D02*
G03*
X8814Y8835I40J0D01*
G01*
X6103Y7321D02*
G03*
X6103Y7401I0J40D01*
G01*
X6940Y7146D02*
G03*
X6940Y7226I0J40D01*
G01*
X6866Y1215D02*
G03*
X6786Y1215I-40J0D01*
G01*
X7978Y8602D02*
G03*
X7978Y8382I110J-110D01*
G01*
X8297D02*
G03*
X8297Y8602I-110J110D01*
G01*
X6997Y590D02*
G03*
X6997Y810I-110J110D01*
G01*
X6678D02*
G03*
X6678Y590I110J-110D01*
G01*
X5328Y8935D02*
G03*
X5328Y8715I110J-110D01*
G01*
X5647D02*
G03*
X5647Y8935I-110J110D01*
G01*
X8297Y8636D02*
G03*
X8297Y8856I-110J110D01*
G01*
X7978D02*
G03*
X7978Y8636I110J-110D01*
G01*
X6278Y2615D02*
G03*
X6497Y2615I110J110D01*
G01*
Y2935D02*
G03*
X6278Y2935I-110J-110D01*
G01*
X6028Y1823D02*
G03*
X6028Y1602I110J-110D01*
G01*
X6347D02*
G03*
X6347Y1823I-110J110D01*
G01*
X4447Y3697D02*
G03*
X4228Y3697I-110J-110D01*
G01*
Y3378D02*
G03*
X4447Y3378I110J110D01*
G01*
X6978Y3385D02*
G03*
X6978Y3165I110J-110D01*
G01*
X7297D02*
G03*
X7297Y3385I-110J110D01*
G01*
X5097Y3048D02*
G03*
X4878Y3048I-110J-110D01*
G01*
Y2727D02*
G03*
X5097Y2727I110J110D01*
G01*
X6603Y4815D02*
G03*
X6822Y4815I110J110D01*
G01*
Y5135D02*
G03*
X6603Y5135I-110J-110D01*
G01*
X6165Y3290D02*
G03*
X6385Y3290I110J110D01*
G01*
Y3610D02*
G03*
X6165Y3610I-110J-110D01*
G01*
X6578Y7203D02*
G03*
X6797Y7203I110J110D01*
G01*
Y7522D02*
G03*
X6578Y7522I-110J-110D01*
G01*
X4890Y8935D02*
G03*
X4890Y8715I110J-110D01*
G01*
X5210D02*
G03*
X5210Y8935I-110J110D01*
G01*
X5647Y8990D02*
G03*
X5647Y9210I-110J110D01*
G01*
X5328D02*
G03*
X5328Y8990I110J-110D01*
G01*
X7335Y9060D02*
G03*
X7115Y9060I-110J-110D01*
G01*
Y8740D02*
G03*
X7335Y8740I110J110D01*
G01*
X1240Y2673D02*
G03*
X1240Y2452I110J-110D01*
G01*
X1560D02*
G03*
X1560Y2673I-110J110D01*
G01*
X8172Y572D02*
G03*
X7953Y572I-110J-110D01*
G01*
Y253D02*
G03*
X8172Y253I110J110D01*
G01*
X7703Y615D02*
G03*
X7922Y615I110J110D01*
G01*
Y935D02*
G03*
X7703Y935I-110J-110D01*
G01*
X7010Y1702D02*
G03*
X7010Y1923I-110J110D01*
G01*
X6690D02*
G03*
X6690Y1702I110J-110D01*
G01*
X7660Y1410D02*
G03*
X7440Y1410I-110J-110D01*
G01*
Y1090D02*
G03*
X7660Y1090I110J110D01*
G01*
X7703Y1540D02*
G03*
X7922Y1540I110J110D01*
G01*
Y1860D02*
G03*
X7703Y1860I-110J-110D01*
G01*
X8853Y1540D02*
G03*
X9072Y1540I110J110D01*
G01*
Y1860D02*
G03*
X8853Y1860I-110J-110D01*
G01*
X9335Y1398D02*
G03*
X9115Y1398I-110J-110D01*
G01*
Y1077D02*
G03*
X9335Y1077I110J110D01*
G01*
X9085Y1398D02*
G03*
X8865Y1398I-110J-110D01*
G01*
Y1077D02*
G03*
X9085Y1077I110J110D01*
G01*
X4847Y3048D02*
G03*
X4628Y3048I-110J-110D01*
G01*
Y2727D02*
G03*
X4847Y2727I110J110D01*
G01*
Y2323D02*
G03*
X4628Y2323I-110J-110D01*
G01*
Y2002D02*
G03*
X4847Y2002I110J110D01*
G01*
X5647Y9490D02*
G03*
X5647Y9710I-110J110D01*
G01*
X5328D02*
G03*
X5328Y9490I110J-110D01*
G01*
X4890Y9460D02*
G03*
X4890Y9240I110J-110D01*
G01*
X5210D02*
G03*
X5210Y9460I-110J110D01*
G01*
X5072Y973D02*
G03*
X4853Y973I-110J-110D01*
G01*
Y653D02*
G03*
X5072Y653I110J110D01*
G01*
X4603D02*
G03*
X4822Y653I110J110D01*
G01*
Y973D02*
G03*
X4603Y973I-110J-110D01*
G01*
X2365Y6810D02*
G03*
X2365Y6590I110J-110D01*
G01*
X2685D02*
G03*
X2685Y6810I-110J110D01*
G01*
X2365Y6535D02*
G03*
X2365Y6315I110J-110D01*
G01*
X2685D02*
G03*
X2685Y6535I-110J110D01*
G01*
X6028Y2615D02*
G03*
X6247Y2615I110J110D01*
G01*
Y2935D02*
G03*
X6028Y2935I-110J-110D01*
G01*
X6678Y1060D02*
G03*
X6678Y840I110J-110D01*
G01*
X6997D02*
G03*
X6997Y1060I-110J110D01*
G01*
X6028Y1573D02*
G03*
X6028Y1352I110J-110D01*
G01*
X6347D02*
G03*
X6347Y1573I-110J110D01*
G01*
X5378Y2848D02*
G03*
X5378Y2627I110J-110D01*
G01*
X5697D02*
G03*
X5697Y2848I-110J110D01*
G01*
X6978Y3647D02*
G03*
X6978Y3428I110J-110D01*
G01*
X7297D02*
G03*
X7297Y3647I-110J110D01*
G01*
X6315Y3865D02*
G03*
X6535Y3865I110J110D01*
G01*
Y4185D02*
G03*
X6315Y4185I-110J-110D01*
G01*
X6990Y6835D02*
G03*
X6990Y6615I110J-110D01*
G01*
X7310D02*
G03*
X7310Y6835I-110J110D01*
G01*
X6278Y6603D02*
G03*
X6497Y6603I110J110D01*
G01*
Y6922D02*
G03*
X6278Y6922I-110J-110D01*
G01*
X6990Y6447D02*
G03*
X6990Y6228I110J-110D01*
G01*
X7310D02*
G03*
X7310Y6447I-110J110D01*
G01*
X6278Y6053D02*
G03*
X6497Y6053I110J110D01*
G01*
Y6372D02*
G03*
X6278Y6372I-110J-110D01*
G01*
X6990Y6197D02*
G03*
X6990Y5978I110J-110D01*
G01*
X7310D02*
G03*
X7310Y6197I-110J110D01*
G01*
X6278Y5490D02*
G03*
X6497Y5490I110J110D01*
G01*
Y5810D02*
G03*
X6278Y5810I-110J-110D01*
G01*
X6990Y5635D02*
G03*
X6990Y5415I110J-110D01*
G01*
X7310D02*
G03*
X7310Y5635I-110J110D01*
G01*
X8297Y8128D02*
G03*
X8297Y8347I-110J110D01*
G01*
X7978D02*
G03*
X7978Y8128I110J-110D01*
G01*
X8297Y8890D02*
G03*
X8297Y9110I-110J110D01*
G01*
X7978D02*
G03*
X7978Y8890I110J-110D01*
G01*
X1123Y2452D02*
G03*
X1123Y2673I-110J110D01*
G01*
X802D02*
G03*
X802Y2452I110J-110D01*
G01*
X7453Y615D02*
G03*
X7672Y615I110J110D01*
G01*
Y935D02*
G03*
X7453Y935I-110J-110D01*
G01*
X8110Y7065D02*
G03*
X7890Y7065I-110J-110D01*
G01*
Y6745D02*
G03*
X8110Y6745I110J110D01*
G01*
Y5690D02*
G03*
X7890Y5690I-110J-110D01*
G01*
Y5370D02*
G03*
X8110Y5370I110J110D01*
G01*
Y7753D02*
G03*
X7890Y7753I-110J-110D01*
G01*
Y7433D02*
G03*
X8110Y7433I110J110D01*
G01*
Y6378D02*
G03*
X7890Y6378I-110J-110D01*
G01*
Y6058D02*
G03*
X8110Y6058I110J110D01*
G01*
X8140Y7433D02*
G03*
X8360Y7433I110J110D01*
G01*
Y7753D02*
G03*
X8140Y7753I-110J-110D01*
G01*
Y6745D02*
G03*
X8360Y6745I110J110D01*
G01*
Y7065D02*
G03*
X8140Y7065I-110J-110D01*
G01*
Y6058D02*
G03*
X8360Y6058I110J110D01*
G01*
Y6378D02*
G03*
X8140Y6378I-110J-110D01*
G01*
X8360Y5690D02*
G03*
X8140Y5690I-110J-110D01*
G01*
Y5370D02*
G03*
X8360Y5370I110J110D01*
G01*
X8390Y7433D02*
G03*
X8610Y7433I110J110D01*
G01*
Y7753D02*
G03*
X8390Y7753I-110J-110D01*
G01*
X8390Y6745D02*
G03*
X8610Y6745I110J110D01*
G01*
Y7065D02*
G03*
X8390Y7065I-110J-110D01*
G01*
X8390Y6058D02*
G03*
X8610Y6058I110J110D01*
G01*
Y6378D02*
G03*
X8390Y6378I-110J-110D01*
G01*
Y5370D02*
G03*
X8610Y5370I110J110D01*
G01*
Y5690D02*
G03*
X8390Y5690I-110J-110D01*
G01*
X9110Y7753D02*
G03*
X8890Y7753I-110J-110D01*
G01*
Y7433D02*
G03*
X9110Y7433I110J110D01*
G01*
Y7065D02*
G03*
X8890Y7065I-110J-110D01*
G01*
Y6745D02*
G03*
X9110Y6745I110J110D01*
G01*
Y6378D02*
G03*
X8890Y6378I-110J-110D01*
G01*
Y6058D02*
G03*
X9110Y6058I110J110D01*
G01*
X8890Y5370D02*
G03*
X9110Y5370I110J110D01*
G01*
Y5690D02*
G03*
X8890Y5690I-110J-110D01*
G01*
X9360Y7065D02*
G03*
X9140Y7065I-110J-110D01*
G01*
Y6745D02*
G03*
X9360Y6745I110J110D01*
G01*
Y5690D02*
G03*
X9140Y5690I-110J-110D01*
G01*
Y5370D02*
G03*
X9360Y5370I110J110D01*
G01*
Y7753D02*
G03*
X9140Y7753I-110J-110D01*
G01*
Y7433D02*
G03*
X9360Y7433I110J110D01*
G01*
Y6378D02*
G03*
X9140Y6378I-110J-110D01*
G01*
Y6058D02*
G03*
X9360Y6058I110J110D01*
G01*
X8110Y5003D02*
G03*
X7890Y5003I-110J-110D01*
G01*
Y4683D02*
G03*
X8110Y4683I110J110D01*
G01*
Y4315D02*
G03*
X7890Y4315I-110J-110D01*
G01*
Y3995D02*
G03*
X8110Y3995I110J110D01*
G01*
X8110Y3628D02*
G03*
X7890Y3628I-110J-110D01*
G01*
Y3308D02*
G03*
X8110Y3308I110J110D01*
G01*
X8140Y3995D02*
G03*
X8360Y3995I110J110D01*
G01*
Y4315D02*
G03*
X8140Y4315I-110J-110D01*
G01*
X8140Y3308D02*
G03*
X8360Y3308I110J110D01*
G01*
Y3628D02*
G03*
X8140Y3628I-110J-110D01*
G01*
X8140Y4683D02*
G03*
X8360Y4683I110J110D01*
G01*
Y5003D02*
G03*
X8140Y5003I-110J-110D01*
G01*
X8390Y4683D02*
G03*
X8610Y4683I110J110D01*
G01*
Y5003D02*
G03*
X8390Y5003I-110J-110D01*
G01*
Y3995D02*
G03*
X8610Y3995I110J110D01*
G01*
Y4315D02*
G03*
X8390Y4315I-110J-110D01*
G01*
X8390Y3308D02*
G03*
X8610Y3308I110J110D01*
G01*
Y3628D02*
G03*
X8390Y3628I-110J-110D01*
G01*
X9110Y5003D02*
G03*
X8890Y5003I-110J-110D01*
G01*
Y4683D02*
G03*
X9110Y4683I110J110D01*
G01*
Y4315D02*
G03*
X8890Y4315I-110J-110D01*
G01*
Y3995D02*
G03*
X9110Y3995I110J110D01*
G01*
X9110Y3628D02*
G03*
X8890Y3628I-110J-110D01*
G01*
Y3308D02*
G03*
X9110Y3308I110J110D01*
G01*
X9360Y5003D02*
G03*
X9140Y5003I-110J-110D01*
G01*
Y4683D02*
G03*
X9360Y4683I110J110D01*
G01*
Y4315D02*
G03*
X9140Y4315I-110J-110D01*
G01*
Y3995D02*
G03*
X9360Y3995I110J110D01*
G01*
X9360Y3628D02*
G03*
X9140Y3628I-110J-110D01*
G01*
Y3308D02*
G03*
X9360Y3308I110J110D01*
G01*
X2215Y6805D02*
G03*
X2215Y6805I-10J0D01*
G01*
X8188Y775D02*
Y825D01*
Y775D02*
X8238D01*
X8538D02*
X8588D01*
Y825D01*
X8538Y1175D02*
X8588D01*
Y1125D02*
Y1175D01*
X8188Y1125D02*
Y1175D01*
X8238D01*
X3375Y312D02*
X3588Y100D01*
X5812D01*
X8814Y8835D02*
X9015D01*
X8535D02*
X8734D01*
X8535Y8415D02*
X9015D01*
X6522Y7122D02*
Y7603D01*
X6103Y7122D02*
Y7321D01*
Y7401D02*
Y7603D01*
X6940Y7226D02*
Y7428D01*
Y6947D02*
Y7146D01*
X7360Y6947D02*
Y7428D01*
X6585Y1635D02*
X7065D01*
X6866Y1215D02*
X7065D01*
X6585D02*
X6786D01*
X7978Y8382D02*
X8297D01*
X7978Y8602D02*
X8297D01*
X6367Y1135D02*
Y1315D01*
X6008Y1135D02*
Y1315D01*
Y1135D02*
X6367D01*
X6008Y1315D02*
X6367D01*
X4022Y3358D02*
X4203D01*
X4022Y3717D02*
X4203D01*
X4022Y3358D02*
Y3717D01*
X4203Y3358D02*
Y3717D01*
X6872Y2492D02*
X7053D01*
X6872Y2133D02*
X7053D01*
Y2492D01*
X6872Y2133D02*
Y2492D01*
X6635Y2133D02*
X6815D01*
X6635Y2492D02*
X6815D01*
X6635Y2133D02*
Y2492D01*
X6815Y2133D02*
Y2492D01*
X5230Y9010D02*
Y9190D01*
X4870Y9010D02*
Y9190D01*
Y9010D02*
X5230D01*
X4870Y9190D02*
X5230D01*
X5308Y9260D02*
Y9440D01*
X5667Y9260D02*
Y9440D01*
X5308D02*
X5667D01*
X5308Y9260D02*
X5667D01*
X7185Y595D02*
X7365D01*
X7185Y955D02*
X7365D01*
X7185Y595D02*
Y955D01*
X7365Y595D02*
Y955D01*
X7960Y1880D02*
X8140D01*
X7960Y1520D02*
X8140D01*
Y1880D01*
X7960Y1520D02*
Y1880D01*
X8635D02*
X8815D01*
X8635Y1520D02*
X8815D01*
Y1880D01*
X8635Y1520D02*
Y1880D01*
X1462Y5812D02*
X2762D01*
X1462Y4512D02*
X2762D01*
Y5812D01*
X1462Y4512D02*
Y5812D01*
X3753Y5403D02*
X5622D01*
X3753Y7272D02*
X5622D01*
Y5403D02*
Y7272D01*
X3753Y5403D02*
Y7272D01*
X6028Y2298D02*
X6067D01*
X6028Y2258D02*
Y2298D01*
Y1977D02*
X6067D01*
X6028D02*
Y2017D01*
X6347Y1977D02*
Y2017D01*
X6308Y1977D02*
X6347D01*
X6308Y2298D02*
X6347D01*
Y2258D02*
Y2298D01*
X6800Y8199D02*
Y9049D01*
X6450D02*
X6800D01*
X6450Y8199D02*
Y9049D01*
Y8199D02*
X6800D01*
X1968Y2023D02*
X2432D01*
X1968D02*
Y3002D01*
X2432D01*
Y2023D02*
Y3002D01*
X6582Y4681D02*
X7322D01*
Y4001D02*
Y4681D01*
X6582Y4001D02*
X7322D01*
X6582D02*
Y4681D01*
X5858Y8070D02*
Y8430D01*
X4917Y8070D02*
Y8430D01*
X5858D01*
X4917Y8070D02*
X5858D01*
X6538Y7650D02*
X6600Y7588D01*
X6100Y7650D02*
X6538D01*
X140Y3410D02*
X735D01*
Y2615D02*
Y3410D01*
X140Y2615D02*
X735D01*
X140D02*
Y3410D01*
X3408Y3367D02*
Y3478D01*
Y3367D02*
X3778D01*
X3853Y3442D01*
Y3478D01*
X3409Y3699D02*
Y3809D01*
X3779D01*
X3854Y3734D01*
Y3699D02*
Y3734D01*
X1448Y3395D02*
X1557D01*
Y3765D01*
X1482Y3840D02*
X1557Y3765D01*
X1448Y3840D02*
X1482D01*
X1116Y3397D02*
X1226D01*
X1116D02*
Y3767D01*
X1191Y3842D01*
X1226D01*
X6678Y810D02*
X6997D01*
X6678Y590D02*
X6997D01*
X5328Y8715D02*
X5648D01*
X5328Y8935D02*
X5648D01*
X7978Y8856D02*
X8297D01*
X7978Y8636D02*
X8297D01*
X6497Y2615D02*
Y2935D01*
X6278Y2615D02*
Y2935D01*
X6028Y1602D02*
X6347D01*
X6028Y1823D02*
X6347D01*
X4228Y3378D02*
Y3697D01*
X4447Y3378D02*
Y3697D01*
X6978Y3165D02*
X7297D01*
X6978Y3385D02*
X7297D01*
X4878Y2727D02*
Y3048D01*
X5097Y2727D02*
Y3048D01*
X6822Y4815D02*
Y5135D01*
X6603Y4815D02*
Y5135D01*
X6385Y3290D02*
Y3610D01*
X6165Y3290D02*
Y3610D01*
X6797Y7203D02*
Y7522D01*
X6578Y7203D02*
Y7522D01*
X4890Y8715D02*
X5210D01*
X4890Y8935D02*
X5210D01*
X5328Y9210D02*
X5647D01*
X5328Y8990D02*
X5647D01*
X7115Y8740D02*
Y9060D01*
X7335Y8740D02*
Y9060D01*
X1240Y2452D02*
X1560D01*
X1240Y2673D02*
X1560D01*
X7953Y253D02*
Y572D01*
X8172Y253D02*
Y572D01*
X7922Y615D02*
Y935D01*
X7703Y615D02*
Y935D01*
X6690Y1923D02*
X7010D01*
X6690Y1702D02*
X7010D01*
X7440Y1090D02*
Y1410D01*
X7660Y1090D02*
Y1410D01*
X7922Y1540D02*
Y1860D01*
X7703Y1540D02*
Y1860D01*
X9072Y1540D02*
Y1860D01*
X8853Y1540D02*
Y1860D01*
X9115Y1077D02*
Y1398D01*
X9335Y1077D02*
Y1398D01*
X8865Y1077D02*
Y1398D01*
X9085Y1077D02*
Y1398D01*
X4628Y2727D02*
Y3048D01*
X4847Y2727D02*
Y3048D01*
X4628Y2002D02*
Y2323D01*
X4847Y2002D02*
Y2323D01*
X5328Y9710D02*
X5647D01*
X5328Y9490D02*
X5647D01*
X4890Y9240D02*
X5210D01*
X4890Y9460D02*
X5210D01*
X4853Y653D02*
Y973D01*
X5072Y653D02*
Y973D01*
X4822Y653D02*
Y973D01*
X4603Y653D02*
Y973D01*
X5660Y1250D02*
X5803D01*
X5975Y1077D01*
X5125D02*
X5297Y1250D01*
X5440D01*
X5975Y400D02*
Y1077D01*
X5660Y400D02*
X5975D01*
X5125D02*
X5440D01*
X5125D02*
Y1077D01*
X1691Y3842D02*
X1726D01*
X1616Y3767D02*
X1691Y3842D01*
X1616Y3397D02*
Y3767D01*
Y3397D02*
X1726D01*
X1948Y3840D02*
X1983D01*
X2058Y3765D01*
Y3395D02*
Y3765D01*
X1948Y3395D02*
X2058D01*
X7079Y2861D02*
Y2896D01*
X7004Y2971D02*
X7079Y2896D01*
X6634Y2971D02*
X7004D01*
X6634Y2861D02*
Y2971D01*
X7078Y2605D02*
Y2640D01*
X7003Y2530D02*
X7078Y2605D01*
X6632Y2530D02*
X7003D01*
X6632D02*
Y2640D01*
X4554Y3779D02*
X4589D01*
X4479Y3704D02*
X4554Y3779D01*
X4479Y3334D02*
Y3704D01*
Y3334D02*
X4589D01*
X4810Y3778D02*
X4845D01*
X4920Y3703D01*
Y3333D02*
Y3703D01*
X4810Y3333D02*
X4920D01*
X6749Y3158D02*
X6784D01*
X6859Y3233D01*
Y3603D01*
X6749D02*
X6859D01*
X6493Y3160D02*
X6528D01*
X6418Y3235D02*
X6493Y3160D01*
X6418Y3235D02*
Y3605D01*
X6528D01*
X2691Y3842D02*
X2726D01*
X2616Y3767D02*
X2691Y3842D01*
X2616Y3397D02*
Y3767D01*
Y3397D02*
X2726D01*
X2948Y3840D02*
X2983D01*
X3058Y3765D01*
Y3395D02*
Y3765D01*
X2948Y3395D02*
X3058D01*
X2191Y3842D02*
X2226D01*
X2116Y3767D02*
X2191Y3842D01*
X2116Y3397D02*
Y3767D01*
Y3397D02*
X2226D01*
X2448Y3840D02*
X2483D01*
X2558Y3765D01*
Y3395D02*
Y3765D01*
X2448Y3395D02*
X2558D01*
X1479Y3036D02*
Y3071D01*
X1404Y3146D02*
X1479Y3071D01*
X1034Y3146D02*
X1404D01*
X1034Y3036D02*
Y3146D01*
X1477Y2780D02*
Y2815D01*
X1402Y2705D02*
X1477Y2780D01*
X1032Y2705D02*
X1402D01*
X1032D02*
Y2815D01*
X1779Y1817D02*
X1814D01*
X1704Y1742D02*
X1779Y1817D01*
X1704Y1372D02*
Y1742D01*
Y1372D02*
X1814D01*
X2035Y1815D02*
X2070D01*
X2145Y1740D01*
Y1370D02*
Y1740D01*
X2035Y1370D02*
X2145D01*
X1316Y1817D02*
X1351D01*
X1241Y1742D02*
X1316Y1817D01*
X1241Y1372D02*
Y1742D01*
Y1372D02*
X1351D01*
X1573Y1815D02*
X1608D01*
X1683Y1740D01*
Y1370D02*
Y1740D01*
X1573Y1370D02*
X1683D01*
X854Y1817D02*
X889D01*
X779Y1742D02*
X854Y1817D01*
X779Y1372D02*
Y1742D01*
Y1372D02*
X889D01*
X1110Y1815D02*
X1145D01*
X1220Y1740D01*
Y1370D02*
Y1740D01*
X1110Y1370D02*
X1220D01*
X3166Y1817D02*
X3201D01*
X3091Y1742D02*
X3166Y1817D01*
X3091Y1372D02*
Y1742D01*
Y1372D02*
X3201D01*
X3422Y1815D02*
X3458D01*
X3533Y1740D01*
Y1370D02*
Y1740D01*
X3422Y1370D02*
X3533D01*
X2704Y1817D02*
X2739D01*
X2629Y1742D02*
X2704Y1817D01*
X2629Y1372D02*
Y1742D01*
Y1372D02*
X2739D01*
X2960Y1815D02*
X2995D01*
X3070Y1740D01*
Y1370D02*
Y1740D01*
X2960Y1370D02*
X3070D01*
X2241Y1817D02*
X2276D01*
X2166Y1742D02*
X2241Y1817D01*
X2166Y1372D02*
Y1742D01*
Y1372D02*
X2276D01*
X2498Y1815D02*
X2533D01*
X2608Y1740D01*
Y1370D02*
Y1740D01*
X2498Y1370D02*
X2608D01*
X1891Y7542D02*
X1926D01*
X1816Y7467D02*
X1891Y7542D01*
X1816Y7097D02*
Y7467D01*
Y7097D02*
X1926D01*
X2148Y7540D02*
X2183D01*
X2258Y7465D01*
Y7095D02*
Y7465D01*
X2148Y7095D02*
X2258D01*
X1391Y7542D02*
X1426D01*
X1316Y7467D02*
X1391Y7542D01*
X1316Y7097D02*
Y7467D01*
Y7097D02*
X1426D01*
X1648Y7540D02*
X1683D01*
X1758Y7465D01*
Y7095D02*
Y7465D01*
X1648Y7095D02*
X1758D01*
X4204Y3129D02*
X4239D01*
X4129Y3054D02*
X4204Y3129D01*
X4129Y2684D02*
Y3054D01*
Y2684D02*
X4239D01*
X4460Y3127D02*
X4495D01*
X4570Y3052D01*
Y2683D02*
Y3052D01*
X4460Y2683D02*
X4570D01*
X4429Y9779D02*
X4464D01*
X4354Y9704D02*
X4429Y9779D01*
X4354Y9334D02*
Y9704D01*
Y9334D02*
X4464D01*
X4685Y9778D02*
X4720D01*
X4795Y9703D01*
Y9332D02*
Y9703D01*
X4685Y9332D02*
X4795D01*
X3211Y7846D02*
X3246D01*
X3321Y7921D01*
Y8291D01*
X3211D02*
X3321D01*
X2955Y7847D02*
X2990D01*
X2880Y7922D02*
X2955Y7847D01*
X2880Y7922D02*
Y8293D01*
X2990D01*
X4204Y2404D02*
X4239D01*
X4129Y2329D02*
X4204Y2404D01*
X4129Y1959D02*
Y2329D01*
Y1959D02*
X4239D01*
X4460Y2402D02*
X4495D01*
X4570Y2327D01*
Y1958D02*
Y2327D01*
X4460Y1958D02*
X4570D01*
X4429Y9029D02*
X4464D01*
X4354Y8954D02*
X4429Y9029D01*
X4354Y8584D02*
Y8954D01*
Y8584D02*
X4464D01*
X4685Y9028D02*
X4720D01*
X4795Y8953D01*
Y8582D02*
Y8953D01*
X4685Y8582D02*
X4795D01*
X3211Y9346D02*
X3246D01*
X3321Y9421D01*
Y9791D01*
X3211D02*
X3321D01*
X2955Y9347D02*
X2990D01*
X2880Y9422D02*
X2955Y9347D01*
X2880Y9422D02*
Y9793D01*
X2990D01*
X2954Y9029D02*
X2989D01*
X2879Y8954D02*
X2954Y9029D01*
X2879Y8584D02*
Y8954D01*
Y8584D02*
X2989D01*
X3210Y9028D02*
X3245D01*
X3320Y8953D01*
Y8582D02*
Y8953D01*
X3210Y8582D02*
X3320D01*
X891Y7542D02*
X926D01*
X816Y7467D02*
X891Y7542D01*
X816Y7097D02*
Y7467D01*
Y7097D02*
X926D01*
X1148Y7540D02*
X1182D01*
X1257Y7465D01*
Y7095D02*
Y7465D01*
X1148Y7095D02*
X1257D01*
X2661Y7108D02*
X2696D01*
X2771Y7183D01*
Y7553D01*
X2661D02*
X2771D01*
X2405Y7110D02*
X2440D01*
X2330Y7185D02*
X2405Y7110D01*
X2330Y7185D02*
Y7555D01*
X2440D01*
X4686Y7846D02*
X4721D01*
X4796Y7921D01*
Y8291D01*
X4686D02*
X4796D01*
X4430Y7847D02*
X4465D01*
X4355Y7922D02*
X4430Y7847D01*
X4355Y7922D02*
Y8293D01*
X4465D01*
X4204Y1586D02*
Y1621D01*
X4129Y1696D02*
X4204Y1621D01*
X3759Y1696D02*
X4129D01*
X3759Y1586D02*
Y1696D01*
X4203Y1330D02*
Y1365D01*
X4128Y1255D02*
X4203Y1330D01*
X3758Y1255D02*
X4128D01*
X3758D02*
Y1365D01*
X3886Y596D02*
X3921D01*
X3996Y671D01*
Y1041D01*
X3886D02*
X3996D01*
X3630Y597D02*
X3665D01*
X3555Y672D02*
X3630Y597D01*
X3555Y672D02*
Y1043D01*
X3665D01*
X4533Y1329D02*
Y1364D01*
Y1329D02*
X4608Y1254D01*
X4978D01*
Y1364D01*
X4535Y1585D02*
Y1620D01*
X4610Y1695D01*
X4980D01*
Y1585D02*
Y1695D01*
X2365Y6590D02*
X2685D01*
X2365Y6810D02*
X2685D01*
X2365Y6315D02*
X2685D01*
X2365Y6535D02*
X2685D01*
X6247Y2615D02*
Y2935D01*
X6028Y2615D02*
Y2935D01*
X6678Y840D02*
X6997D01*
X6678Y1060D02*
X6997D01*
X6028Y1352D02*
X6347D01*
X6028Y1573D02*
X6347D01*
X5378Y2627D02*
X5697D01*
X5378Y2848D02*
X5697D01*
X6978Y3428D02*
X7297D01*
X6978Y3647D02*
X7297D01*
X6535Y3865D02*
Y4185D01*
X6315Y3865D02*
Y4185D01*
X6990Y6615D02*
X7310D01*
X6990Y6835D02*
X7310D01*
X6497Y6603D02*
Y6922D01*
X6278Y6603D02*
Y6922D01*
X6990Y6228D02*
X7310D01*
X6990Y6447D02*
X7310D01*
X6497Y6053D02*
Y6372D01*
X6278Y6053D02*
Y6372D01*
X6990Y5978D02*
X7310D01*
X6990Y6197D02*
X7310D01*
X6497Y5490D02*
Y5810D01*
X6278Y5490D02*
Y5810D01*
X6990Y5415D02*
X7310D01*
X6990Y5635D02*
X7310D01*
X7978Y8347D02*
X8297D01*
X7978Y8128D02*
X8297D01*
X7978Y9110D02*
X8297D01*
X7978Y8890D02*
X8297D01*
X802Y2673D02*
X1123D01*
X802Y2452D02*
X1123D01*
X7672Y615D02*
Y935D01*
X7453Y615D02*
Y935D01*
X7890Y6745D02*
Y7065D01*
X8110Y6745D02*
Y7065D01*
X7890Y5370D02*
Y5690D01*
X8110Y5370D02*
Y5690D01*
X7890Y7433D02*
Y7753D01*
X8110Y7433D02*
Y7753D01*
X7890Y6058D02*
Y6378D01*
X8110Y6058D02*
Y6378D01*
X8360Y7433D02*
Y7753D01*
X8140Y7433D02*
Y7753D01*
X8360Y6745D02*
Y7065D01*
X8140Y6745D02*
Y7065D01*
X8360Y6058D02*
Y6378D01*
X8140Y6058D02*
Y6378D01*
Y5370D02*
Y5690D01*
X8360Y5370D02*
Y5690D01*
X8610Y7433D02*
Y7753D01*
X8390Y7433D02*
Y7753D01*
X8610Y6745D02*
Y7065D01*
X8390Y6745D02*
Y7065D01*
X8610Y6058D02*
Y6378D01*
X8390Y6058D02*
Y6378D01*
X8610Y5370D02*
Y5690D01*
X8390Y5370D02*
Y5690D01*
X8890Y7433D02*
Y7753D01*
X9110Y7433D02*
Y7753D01*
X8890Y6745D02*
Y7065D01*
X9110Y6745D02*
Y7065D01*
X8890Y6058D02*
Y6378D01*
X9110Y6058D02*
Y6378D01*
Y5370D02*
Y5690D01*
X8890Y5370D02*
Y5690D01*
X9140Y6745D02*
Y7065D01*
X9360Y6745D02*
Y7065D01*
X9140Y5370D02*
Y5690D01*
X9360Y5370D02*
Y5690D01*
X9140Y7433D02*
Y7753D01*
X9360Y7433D02*
Y7753D01*
X9140Y6058D02*
Y6378D01*
X9360Y6058D02*
Y6378D01*
X7890Y4683D02*
Y5003D01*
X8110Y4683D02*
Y5003D01*
X7890Y3995D02*
Y4315D01*
X8110Y3995D02*
Y4315D01*
X7890Y3308D02*
Y3628D01*
X8110Y3308D02*
Y3628D01*
X8360Y3995D02*
Y4315D01*
X8140Y3995D02*
Y4315D01*
X8360Y3308D02*
Y3628D01*
X8140Y3308D02*
Y3628D01*
X8360Y4683D02*
Y5003D01*
X8140Y4683D02*
Y5003D01*
X8610Y4683D02*
Y5003D01*
X8390Y4683D02*
Y5003D01*
X8610Y3995D02*
Y4315D01*
X8390Y3995D02*
Y4315D01*
X8610Y3308D02*
Y3628D01*
X8390Y3308D02*
Y3628D01*
X8890Y4683D02*
Y5003D01*
X9110Y4683D02*
Y5003D01*
X8890Y3995D02*
Y4315D01*
X9110Y3995D02*
Y4315D01*
X8890Y3308D02*
Y3628D01*
X9110Y3308D02*
Y3628D01*
X9140Y4683D02*
Y5003D01*
X9360Y4683D02*
Y5003D01*
X9140Y3995D02*
Y4315D01*
X9360Y3995D02*
Y4315D01*
X9140Y3308D02*
Y3628D01*
X9360Y3308D02*
Y3628D01*
X6827Y9351D02*
Y9874D01*
Y9351D02*
X7873D01*
X6827Y9874D02*
X7873D01*
Y9351D02*
Y9874D01*
X5097Y3794D02*
X6078D01*
X5097Y3331D02*
Y3794D01*
Y3331D02*
X6078D01*
Y3794D01*
X7260Y2535D02*
X7740D01*
X7260Y2215D02*
X7740D01*
Y2535D01*
X7260Y2215D02*
Y2535D01*
X7885D02*
X8365D01*
X7885Y2215D02*
X8365D01*
Y2535D01*
X7885Y2215D02*
Y2535D01*
X8516Y2540D02*
X8996D01*
X8516Y2220D02*
X8996D01*
Y2540D01*
X8516Y2220D02*
Y2540D01*
X9141D02*
X9621D01*
X9141Y2220D02*
X9621D01*
Y2540D01*
X9141Y2220D02*
Y2540D01*
X3520Y3308D02*
X3780D01*
X3520Y2667D02*
X3780D01*
X3520D02*
Y3308D01*
X3780Y2667D02*
Y3308D01*
X3695Y9218D02*
X3955D01*
X3695Y9857D02*
X3955D01*
Y9218D02*
Y9857D01*
X3695Y9218D02*
Y9857D01*
X2155Y8032D02*
Y8293D01*
X2795Y8032D02*
Y8293D01*
X2155Y8032D02*
X2795D01*
X2155Y8293D02*
X2795D01*
X3520Y2620D02*
X3780D01*
X3520Y1980D02*
X3780D01*
X3520D02*
Y2620D01*
X3780Y1980D02*
Y2620D01*
X3695Y8480D02*
X3955D01*
X3695Y9120D02*
X3955D01*
Y8480D02*
Y9120D01*
X3695Y8480D02*
Y9120D01*
Y7730D02*
X3955D01*
X3695Y8370D02*
X3955D01*
Y7730D02*
Y8370D01*
X3695Y7730D02*
Y8370D01*
X1030Y8032D02*
Y8293D01*
X1670Y8032D02*
Y8293D01*
X1030Y8032D02*
X1670D01*
X1030Y8293D02*
X1670D01*
X4953Y4635D02*
X5297D01*
Y4315D02*
Y4635D01*
X4953Y4315D02*
X5297D01*
X4953D02*
Y4635D01*
X5328D02*
X5672D01*
Y4315D02*
Y4635D01*
X5328Y4315D02*
X5672D01*
X5328D02*
Y4635D01*
X5703D02*
X6047D01*
Y4315D02*
Y4635D01*
X5703Y4315D02*
X6047D01*
X5703D02*
Y4635D01*
X4083Y653D02*
X4542D01*
X4083D02*
Y973D01*
X4542D01*
Y653D02*
Y973D01*
X2890Y6557D02*
X3310D01*
Y6317D02*
Y6557D01*
X2890Y6317D02*
X3310D01*
X2890D02*
Y6557D01*
X2890Y6820D02*
X3310D01*
Y6580D02*
Y6820D01*
X2890Y6580D02*
X3310D01*
X2890D02*
Y6820D01*
X5267Y2152D02*
Y2573D01*
X5508D01*
Y2152D02*
Y2573D01*
X5267Y2152D02*
X5508D01*
X5567D02*
Y2573D01*
X5808D01*
Y2152D02*
Y2573D01*
X5567Y2152D02*
X5808D01*
X6880Y4753D02*
Y5172D01*
X7120D01*
Y4753D02*
Y5172D01*
X6880Y4753D02*
X7120D01*
X6545D02*
Y5172D01*
X6305Y4753D02*
X6545D01*
X6305D02*
Y5172D01*
X6545D01*
Y4262D02*
Y4683D01*
X6305Y4262D02*
X6545D01*
X6305D02*
Y4683D01*
X6545D01*
X5955Y7690D02*
Y8110D01*
X6195D01*
Y7690D02*
Y8110D01*
X5955Y7690D02*
X6195D01*
X6940Y7505D02*
X7360D01*
X6940D02*
Y7745D01*
X7360D01*
Y7505D02*
Y7745D01*
X6630Y7690D02*
Y8110D01*
X6870D01*
Y7690D02*
Y8110D01*
X6630Y7690D02*
X6870D01*
X6355D02*
Y8110D01*
X6595D01*
Y7690D02*
Y8110D01*
X6355Y7690D02*
X6595D01*
X7345Y8140D02*
Y8560D01*
X7105Y8140D02*
X7345D01*
X7105D02*
Y8560D01*
X7345D01*
X7380Y8140D02*
Y8560D01*
X7620D01*
Y8140D02*
Y8560D01*
X7380Y8140D02*
X7620D01*
Y8678D02*
Y9097D01*
X7380Y8678D02*
X7620D01*
X7380D02*
Y9097D01*
X7620D01*
X7895Y8143D02*
Y8562D01*
X7655Y8143D02*
X7895D01*
X7655D02*
Y8562D01*
X7895D01*
X7655Y8678D02*
Y9097D01*
X7895D01*
Y8678D02*
Y9097D01*
X7655Y8678D02*
X7895D01*
X1532Y1952D02*
Y2373D01*
X1293Y1952D02*
X1532D01*
X1293D02*
Y2373D01*
X1532D01*
X1270Y1952D02*
Y2373D01*
X1030Y1952D02*
X1270D01*
X1030D02*
Y2373D01*
X1270D01*
X1007Y1952D02*
Y2373D01*
X768Y1952D02*
X1007D01*
X768D02*
Y2373D01*
X1007D01*
X1093Y840D02*
Y1260D01*
X1332D01*
Y840D02*
Y1260D01*
X1093Y840D02*
X1332D01*
X1595D02*
Y1260D01*
X1355Y840D02*
X1595D01*
X1355D02*
Y1260D01*
X1595D01*
X1880Y840D02*
Y1260D01*
X2120D01*
Y840D02*
Y1260D01*
X1880Y840D02*
X2120D01*
X2730D02*
Y1260D01*
X2970D01*
Y840D02*
Y1260D01*
X2730Y840D02*
X2970D01*
X1858Y838D02*
Y1257D01*
X1617Y838D02*
X1858D01*
X1617D02*
Y1257D01*
X1858D01*
X2267Y840D02*
Y1260D01*
X2508D01*
Y840D02*
Y1260D01*
X2267Y840D02*
X2508D01*
X1070D02*
Y1260D01*
X830Y840D02*
X1070D01*
X830D02*
Y1260D01*
X1070D01*
X7155Y1040D02*
Y1460D01*
X7395D01*
Y1040D02*
Y1460D01*
X7155Y1040D02*
X7395D01*
Y1490D02*
Y1910D01*
X7155Y1490D02*
X7395D01*
X7155D02*
Y1910D01*
X7395D01*
X7670Y1490D02*
Y1910D01*
X7430Y1490D02*
X7670D01*
X7430D02*
Y1910D01*
X7670D01*
X9345Y1490D02*
Y1910D01*
X9105Y1490D02*
X9345D01*
X9105D02*
Y1910D01*
X9345D01*
X9380Y1027D02*
Y1448D01*
X9620D01*
Y1027D02*
Y1448D01*
X9380Y1027D02*
X9620D01*
Y1490D02*
Y1910D01*
X9380Y1490D02*
X9620D01*
X9380D02*
Y1910D01*
X9620D01*
X3192Y840D02*
Y1260D01*
X3433D01*
Y840D02*
Y1260D01*
X3192Y840D02*
X3433D01*
X5285Y1902D02*
Y1922D01*
X5490Y1902D02*
Y1922D01*
X5585Y1902D02*
Y1922D01*
X5790Y1902D02*
Y1922D01*
X6789Y6765D02*
Y6785D01*
X6586Y6765D02*
Y6785D01*
X6789Y6203D02*
Y6222D01*
X6586Y6203D02*
Y6222D01*
X6789Y5640D02*
Y5660D01*
X6586Y5640D02*
Y5660D01*
X7648Y7590D02*
Y7610D01*
X7852Y7590D02*
Y7610D01*
X7648Y6902D02*
Y6922D01*
X7852Y6902D02*
Y6922D01*
X7648Y6215D02*
Y6235D01*
X7852Y6215D02*
Y6235D01*
X7648Y5527D02*
Y5547D01*
X7852Y5527D02*
Y5547D01*
X8648Y7590D02*
Y7610D01*
X8852Y7590D02*
Y7610D01*
X8648Y6902D02*
Y6922D01*
X8852Y6902D02*
Y6922D01*
X8648Y6215D02*
Y6235D01*
X8852Y6215D02*
Y6235D01*
X8648Y5527D02*
Y5547D01*
X8852Y5527D02*
Y5547D01*
X9602Y6902D02*
Y6922D01*
X9398Y6902D02*
Y6922D01*
X9602Y5527D02*
Y5547D01*
X9398Y5527D02*
Y5547D01*
X9602Y7590D02*
Y7610D01*
X9398Y7590D02*
Y7610D01*
X9602Y6215D02*
Y6235D01*
X9398Y6215D02*
Y6235D01*
X7648Y4840D02*
Y4860D01*
X7852Y4840D02*
Y4860D01*
X7648Y4153D02*
Y4172D01*
X7852Y4153D02*
Y4172D01*
X7648Y3465D02*
Y3485D01*
X7852Y3465D02*
Y3485D01*
X8648Y4840D02*
Y4860D01*
X8852Y4840D02*
Y4860D01*
X8648Y4153D02*
Y4172D01*
X8852Y4153D02*
Y4172D01*
X8648Y3465D02*
Y3485D01*
X8852Y3465D02*
Y3485D01*
X9602Y4840D02*
Y4860D01*
X9398Y4840D02*
Y4860D01*
X9602Y4153D02*
Y4172D01*
X9398Y4153D02*
Y4172D01*
X9602Y3465D02*
Y3485D01*
X9398Y3465D02*
Y3485D01*
X1450Y6735D02*
X1500D01*
X1450Y6415D02*
Y6735D01*
Y6415D02*
X1500D01*
X2200Y6735D02*
X2250D01*
Y6415D02*
Y6735D01*
X2200Y6415D02*
X2250D01*
X3738Y388D02*
X4688D01*
X3388Y738D02*
X3738Y388D01*
X3325Y800D02*
X3388Y738D01*
X838Y800D02*
X3325Y800D01*
X3688Y1738D02*
X5175D01*
X3569Y1619D02*
X3688Y1738D01*
X3000Y1962D02*
X3062D01*
X1562D02*
X2638D01*
X3000D01*
X5817Y9872D02*
X6358D01*
X5817Y9278D02*
Y9872D01*
Y9278D02*
X6358D01*
Y9872D01*
X2767Y127D02*
Y722D01*
X3308D01*
Y127D02*
Y722D01*
X2767Y127D02*
X3308D01*
X1890Y123D02*
X2685D01*
Y718D01*
X1890D02*
X2685D01*
X1890Y123D02*
Y718D01*
X1002Y123D02*
X1798D01*
Y718D01*
X1002D02*
X1798D01*
X1002Y123D02*
Y718D01*
X152Y8958D02*
X747D01*
Y8417D02*
Y8958D01*
X152Y8417D02*
X747D01*
X152D02*
Y8958D01*
X135Y1010D02*
Y2568D01*
Y1010D02*
X730D01*
Y2568D01*
X135D02*
X730D01*
X148Y7556D02*
Y8352D01*
Y7556D02*
X743D01*
Y8352D01*
X148D02*
X743D01*
X152Y7488D02*
X747D01*
Y6438D02*
Y7488D01*
X152Y6438D02*
X747D01*
X152D02*
Y7488D01*
D11*
X3620Y7278D02*
G03*
X3620Y7278I-12J0D01*
G01*
X6922Y8161D02*
G03*
X6922Y8161I-12J0D01*
G01*
X110Y2758D02*
G03*
X110Y2758I-12J0D01*
G01*
X7803Y2655D02*
G03*
X7803Y2655I-12J0D01*
G01*
X8428D02*
G03*
X8428Y2655I-12J0D01*
G01*
X9058Y2660D02*
G03*
X9058Y2660I-12J0D01*
G01*
X9683D02*
G03*
X9683Y2660I-12J0D01*
G01*
X4058Y543D02*
G03*
X4058Y543I-12J0D01*
G01*
X5973Y9915D02*
G03*
X5973Y9915I-12J0D01*
G01*
X3177Y85D02*
G03*
X3177Y85I-12J0D01*
G01*
X2554Y80D02*
G03*
X2554Y80I-12J0D01*
G01*
X1667D02*
G03*
X1667Y80I-12J0D01*
G01*
X123Y8561D02*
G03*
X123Y8561I-12J0D01*
G01*
X105Y1155D02*
G03*
X105Y1155I-12J0D01*
G01*
X117Y7700D02*
G03*
X117Y7700I-12J0D01*
G01*
X123Y6582D02*
G03*
X123Y6582I-12J0D01*
G01*
X938Y2700D02*
Y3125D01*
X1000Y3188D01*
X1500D01*
X9575Y1950D02*
X9625D01*
X7150D02*
X9575D01*
X7112Y1912D02*
X7150Y1950D01*
X7112Y575D02*
Y1912D01*
X7038Y500D02*
X7112Y575D01*
X6062Y500D02*
X7038D01*
D12*
X8138Y1155D02*
D03*
D13*
X2783Y5933D02*
D03*
X2558Y2022D02*
D03*
X7322Y4731D02*
D03*
X4897Y7960D02*
D03*
X6078Y3920D02*
D03*
D14*
X6328Y2338D02*
D03*
D15*
X3381Y4563D02*
Y4690D01*
X3318Y4500D02*
X3381Y4563D01*
X3127D02*
X3191Y4500D01*
X3127Y4563D02*
Y4690D01*
X3191Y4754D01*
Y4246D02*
X3318D01*
Y4754D02*
X3381Y4690D01*
X3572Y4754D02*
X3635Y4690D01*
X3445Y4246D02*
X3572D01*
X3381Y4690D02*
X3445Y4754D01*
X3381Y4563D02*
X3445Y4500D01*
X3572D02*
X3635Y4563D01*
X3826Y4500D02*
X3890Y4563D01*
X3635D02*
X3699Y4500D01*
X3635Y4563D02*
Y4690D01*
X3699Y4754D01*
Y4246D02*
X3826D01*
Y4754D02*
X3890Y4690D01*
X3953Y4246D02*
X4080D01*
X3890Y4690D02*
X3953Y4754D01*
X3890Y4563D02*
Y4690D01*
Y4563D02*
X3953Y4500D01*
X4207Y4246D02*
X4334D01*
X4207D02*
X4334D01*
X4144Y4310D02*
X4207Y4246D01*
X4144Y4310D02*
Y4437D01*
X4397Y4310D02*
Y4437D01*
X4334Y4246D02*
X4397Y4310D01*
X4080Y4246D02*
X4144Y4310D01*
X3953Y4246D02*
X4080D01*
X3890Y4310D02*
X3953Y4246D01*
X3890Y4310D02*
Y4437D01*
X3953Y4500D01*
X4080D01*
X3826D02*
X3890Y4437D01*
X3699Y4500D02*
X3826D01*
X3635Y4437D02*
X3699Y4500D01*
X3635Y4310D02*
Y4437D01*
Y4310D02*
X3699Y4246D01*
X3826D01*
X3890Y4310D01*
X3572Y4246D02*
X3635Y4310D01*
X3445Y4246D02*
X3572D01*
X3381Y4310D02*
X3445Y4246D01*
X3381Y4437D02*
X3445Y4500D01*
X3572D01*
X3635Y4437D01*
X3318Y4500D02*
X3381Y4437D01*
X3191Y4500D02*
X3318D01*
X3127Y4437D02*
X3191Y4500D01*
X3127Y4310D02*
Y4437D01*
Y4310D02*
X3191Y4246D01*
X3318D01*
X3381Y4310D01*
Y4437D01*
X3953Y4754D02*
X4080D01*
X3699D02*
X3826D01*
X3445D02*
X3572D01*
X3191D02*
X3318D01*
X4080D02*
X4144Y4690D01*
X4080Y4500D02*
X4144Y4563D01*
X4397Y4500D02*
Y4754D01*
X4144Y4563D02*
Y4754D01*
X4207Y4500D02*
X4397D01*
X4144Y4437D02*
X4207Y4500D01*
X4334D02*
X4397Y4437D01*
X4080Y4500D02*
X4144Y4437D01*
Y4754D02*
X4397D01*
X2193Y6613D02*
X2244D01*
X2193Y6537D02*
Y6613D01*
Y6537D02*
X2244D01*
D16*
X995Y8667D02*
X2795D01*
X995Y9868D02*
X2795D01*
Y8667D02*
Y9868D01*
X995Y8667D02*
Y9868D01*
D17*
X383Y6280D02*
X703D01*
X383Y6000D02*
Y6280D01*
X743Y6000D02*
Y6280D01*
X703D02*
X743D01*
Y3620D02*
Y3900D01*
X383Y3620D02*
X743D01*
X383D02*
Y3900D01*
D18*
X4297Y5075D02*
Y5022D01*
Y5048D01*
X4217D01*
X4284Y4942D02*
X4297Y4955D01*
Y4982D01*
X4284Y4995D01*
X4231D01*
X4217Y4982D01*
Y4955D01*
X4231Y4942D01*
X4297Y4915D02*
X4217D01*
X4244D01*
X4297Y4862D01*
X4257Y4902D01*
X4217Y4862D01*
X4274Y4142D02*
X4287Y4155D01*
Y4182D01*
X4274Y4195D01*
X4221D01*
X4207Y4182D01*
Y4155D01*
X4221Y4142D01*
X4247D01*
Y4168D01*
X4207Y4115D02*
X4287D01*
X4207Y4062D01*
X4287D01*
Y4035D02*
X4207D01*
Y3995D01*
X4221Y3982D01*
X4274D01*
X4287Y3995D01*
Y4035D01*
X4047Y5075D02*
Y5022D01*
Y5048D01*
X3967D01*
X4047Y4995D02*
X3967D01*
Y4955D01*
X3981Y4942D01*
X4034D01*
X4047Y4955D01*
Y4995D01*
Y4875D02*
Y4902D01*
X4034Y4915D01*
X3981D01*
X3967Y4902D01*
Y4875D01*
X3981Y4862D01*
X4034D01*
X4047Y4875D01*
X3797Y5075D02*
Y5022D01*
Y5048D01*
X3717D01*
Y4995D02*
X3797D01*
X3771Y4968D01*
X3797Y4942D01*
X3717D01*
X3784Y4862D02*
X3797Y4875D01*
Y4902D01*
X3784Y4915D01*
X3771D01*
X3757Y4902D01*
Y4875D01*
X3744Y4862D01*
X3731D01*
X3717Y4875D01*
Y4902D01*
X3731Y4915D01*
X3287Y5075D02*
Y5022D01*
Y5048D01*
X3207D01*
X3287Y4995D02*
X3207D01*
Y4955D01*
X3221Y4942D01*
X3274D01*
X3287Y4955D01*
Y4995D01*
Y4915D02*
Y4888D01*
Y4902D01*
X3207D01*
Y4915D01*
Y4888D01*
X4037Y4195D02*
X3984D01*
X3957Y4168D01*
X3984Y4142D01*
X4037D01*
X4024Y4062D02*
X4037Y4075D01*
Y4102D01*
X4024Y4115D01*
X3971D01*
X3957Y4102D01*
Y4075D01*
X3971Y4062D01*
X4024Y3982D02*
X4037Y3995D01*
Y4022D01*
X4024Y4035D01*
X3971D01*
X3957Y4022D01*
Y3995D01*
X3971Y3982D01*
X3254Y4142D02*
X3267Y4155D01*
Y4182D01*
X3254Y4195D01*
X3201D01*
X3187Y4182D01*
Y4155D01*
X3201Y4142D01*
X3227D01*
Y4168D01*
X3187Y4115D02*
X3267D01*
X3187Y4062D01*
X3267D01*
Y4035D02*
X3187D01*
Y3995D01*
X3201Y3982D01*
X3254D01*
X3267Y3995D01*
Y4035D01*
X3797Y4195D02*
X3717D01*
Y4155D01*
X3731Y4142D01*
X3784D01*
X3797Y4155D01*
Y4195D01*
Y4115D02*
Y4088D01*
Y4102D01*
X3717D01*
Y4115D01*
Y4088D01*
X3797Y4008D02*
Y4035D01*
X3784Y4048D01*
X3731D01*
X3717Y4035D01*
Y4008D01*
X3731Y3995D01*
X3784D01*
X3797Y4008D01*
X3524Y4142D02*
X3537Y4155D01*
Y4182D01*
X3524Y4195D01*
X3471D01*
X3457Y4182D01*
Y4155D01*
X3471Y4142D01*
X3537Y4115D02*
X3457D01*
Y4062D01*
X3537Y4035D02*
X3457D01*
X3484D01*
X3537Y3982D01*
X3497Y4022D01*
X3457Y3982D01*
X6435Y1147D02*
Y1093D01*
X6475D01*
Y1120D01*
Y1093D01*
X6515D01*
X6435Y1173D02*
X6515D01*
Y1213D01*
X6502Y1227D01*
X6488D01*
X6475Y1213D01*
Y1173D01*
Y1213D01*
X6462Y1227D01*
X6448D01*
X6435Y1213D01*
Y1173D01*
X6515Y1307D02*
Y1253D01*
X6462Y1307D01*
X6448D01*
X6435Y1293D01*
Y1267D01*
X6448Y1253D01*
X3984Y3865D02*
X3931D01*
Y3825D01*
X3958D01*
X3931D01*
Y3785D01*
X4011Y3865D02*
Y3785D01*
X4051D01*
X4064Y3798D01*
Y3812D01*
X4051Y3825D01*
X4011D01*
X4051D01*
X4064Y3838D01*
Y3852D01*
X4051Y3865D01*
X4011D01*
X4091Y3852D02*
X4104Y3865D01*
X4131D01*
X4144Y3852D01*
Y3838D01*
X4131Y3825D01*
X4117D01*
X4131D01*
X4144Y3812D01*
Y3798D01*
X4131Y3785D01*
X4104D01*
X4091Y3798D01*
X7085Y2259D02*
Y2206D01*
X7125D01*
Y2233D01*
Y2206D01*
X7165D01*
X7085Y2286D02*
X7165D01*
Y2326D01*
X7152Y2339D01*
X7138D01*
X7125Y2326D01*
Y2286D01*
Y2326D01*
X7112Y2339D01*
X7098D01*
X7085Y2326D01*
Y2286D01*
X7165Y2406D02*
X7085D01*
X7125Y2366D01*
Y2419D01*
X6523Y2259D02*
Y2206D01*
X6562D01*
Y2233D01*
Y2206D01*
X6602D01*
X6523Y2286D02*
X6602D01*
Y2326D01*
X6589Y2339D01*
X6576D01*
X6562Y2326D01*
Y2286D01*
Y2326D01*
X6549Y2339D01*
X6536D01*
X6523Y2326D01*
Y2286D01*
Y2419D02*
Y2366D01*
X6562D01*
X6549Y2392D01*
Y2406D01*
X6562Y2419D01*
X6589D01*
X6602Y2406D01*
Y2379D01*
X6589Y2366D01*
X5009Y9740D02*
X4956D01*
Y9700D01*
X4983D01*
X4956D01*
Y9660D01*
X5036Y9740D02*
Y9660D01*
X5076D01*
X5089Y9673D01*
Y9687D01*
X5076Y9700D01*
X5036D01*
X5076D01*
X5089Y9713D01*
Y9727D01*
X5076Y9740D01*
X5036D01*
X5169D02*
X5142Y9727D01*
X5116Y9700D01*
Y9673D01*
X5129Y9660D01*
X5156D01*
X5169Y9673D01*
Y9687D01*
X5156Y9700D01*
X5116D01*
X5797Y9177D02*
X5743D01*
Y9138D01*
X5770D01*
X5743D01*
Y9098D01*
X5823Y9177D02*
Y9098D01*
X5863D01*
X5877Y9111D01*
Y9124D01*
X5863Y9138D01*
X5823D01*
X5863D01*
X5877Y9151D01*
Y9164D01*
X5863Y9177D01*
X5823D01*
X5903D02*
X5957D01*
Y9164D01*
X5903Y9111D01*
Y9098D01*
X7235Y313D02*
Y260D01*
X7275D01*
Y287D01*
Y260D01*
X7315D01*
X7235Y340D02*
X7315D01*
Y380D01*
X7302Y393D01*
X7288D01*
X7275Y380D01*
Y340D01*
Y380D01*
X7262Y393D01*
X7248D01*
X7235Y380D01*
Y340D01*
X7315Y420D02*
Y447D01*
Y433D01*
X7235D01*
X7248Y420D01*
X7315Y540D02*
Y487D01*
X7262Y540D01*
X7248D01*
X7235Y527D01*
Y500D01*
X7248Y487D01*
X6398Y184D02*
Y131D01*
X6438D01*
Y158D01*
Y131D01*
X6477D01*
X6398Y211D02*
X6477D01*
Y251D01*
X6464Y264D01*
X6451D01*
X6438Y251D01*
Y211D01*
Y251D01*
X6424Y264D01*
X6411D01*
X6398Y251D01*
Y211D01*
X6477Y291D02*
Y317D01*
Y304D01*
X6398D01*
X6411Y291D01*
Y357D02*
X6398Y371D01*
Y397D01*
X6411Y411D01*
X6424D01*
X6438Y397D01*
Y384D01*
Y397D01*
X6451Y411D01*
X6464D01*
X6477Y397D01*
Y371D01*
X6464Y357D01*
X6523Y184D02*
Y131D01*
X6562D01*
Y158D01*
Y131D01*
X6602D01*
X6523Y211D02*
X6602D01*
Y251D01*
X6589Y264D01*
X6576D01*
X6562Y251D01*
Y211D01*
Y251D01*
X6549Y264D01*
X6536D01*
X6523Y251D01*
Y211D01*
X6602Y291D02*
Y317D01*
Y304D01*
X6523D01*
X6536Y291D01*
X6602Y397D02*
X6523D01*
X6562Y357D01*
Y411D01*
X6784Y1177D02*
X6838D01*
X6811D01*
Y1098D01*
X6864D02*
X6891D01*
X6877D01*
Y1177D01*
X6864Y1164D01*
X6758Y7090D02*
X6812D01*
X6785D01*
Y7010D01*
X6892D02*
X6838D01*
X6892Y7063D01*
Y7077D01*
X6878Y7090D01*
X6852D01*
X6838Y7077D01*
X5883Y7402D02*
X5937D01*
X5910D01*
Y7323D01*
X5963Y7389D02*
X5977Y7402D01*
X6003D01*
X6017Y7389D01*
Y7376D01*
X6003Y7362D01*
X5990D01*
X6003D01*
X6017Y7349D01*
Y7336D01*
X6003Y7323D01*
X5977D01*
X5963Y7336D01*
X8708Y8365D02*
X8762D01*
X8735D01*
Y8285D01*
X8828D02*
Y8365D01*
X8788Y8325D01*
X8842D01*
X2884Y5977D02*
Y5911D01*
X2898Y5898D01*
X2924D01*
X2938Y5911D01*
Y5977D01*
X2964Y5898D02*
X2991D01*
X2977D01*
Y5977D01*
X2964Y5964D01*
X5683Y7402D02*
Y7336D01*
X5697Y7323D01*
X5723D01*
X5737Y7336D01*
Y7402D01*
X5803Y7323D02*
Y7402D01*
X5763Y7362D01*
X5817D01*
X6146Y2477D02*
Y2411D01*
X6159Y2398D01*
X6186D01*
X6199Y2411D01*
Y2477D01*
X6279D02*
X6226D01*
Y2438D01*
X6252Y2451D01*
X6266D01*
X6279Y2438D01*
Y2411D01*
X6266Y2398D01*
X6239D01*
X6226Y2411D01*
X6558Y9227D02*
Y9161D01*
X6572Y9148D01*
X6598D01*
X6612Y9161D01*
Y9227D01*
X6638Y9214D02*
X6652Y9227D01*
X6678D01*
X6692Y9214D01*
Y9201D01*
X6678Y9188D01*
X6692Y9174D01*
Y9161D01*
X6678Y9148D01*
X6652D01*
X6638Y9161D01*
Y9174D01*
X6652Y9188D01*
X6638Y9201D01*
Y9214D01*
X6652Y9188D02*
X6678D01*
X2108Y3165D02*
Y3098D01*
X2122Y3085D01*
X2148D01*
X2162Y3098D01*
Y3165D01*
X2188Y3098D02*
X2202Y3085D01*
X2228D01*
X2242Y3098D01*
Y3152D01*
X2228Y3165D01*
X2202D01*
X2188Y3152D01*
Y3138D01*
X2202Y3125D01*
X2242D01*
X8268Y1352D02*
Y1286D01*
X8282Y1273D01*
X8308D01*
X8322Y1286D01*
Y1352D01*
X8402Y1273D02*
X8348D01*
X8402Y1326D01*
Y1339D01*
X8388Y1352D01*
X8362D01*
X8348Y1339D01*
X8428D02*
X8442Y1352D01*
X8468D01*
X8482Y1339D01*
Y1326D01*
X8468Y1312D01*
X8455D01*
X8468D01*
X8482Y1299D01*
Y1286D01*
X8468Y1273D01*
X8442D01*
X8428Y1286D01*
X6869Y3927D02*
X6923Y3848D01*
Y3927D02*
X6869Y3848D01*
X7002Y3914D02*
X6989Y3927D01*
X6962D01*
X6949Y3914D01*
Y3861D01*
X6962Y3848D01*
X6989D01*
X7002Y3861D01*
Y3888D01*
X6976D01*
X7029Y3848D02*
X7056D01*
X7042D01*
Y3927D01*
X7029Y3914D01*
X4647Y1177D02*
X4633Y1190D01*
X4607D01*
X4593Y1177D01*
Y1123D01*
X4607Y1110D01*
X4633D01*
X4647Y1123D01*
X4673Y1190D02*
X4727D01*
Y1177D01*
X4673Y1123D01*
Y1110D01*
X4753Y1177D02*
X4767Y1190D01*
X4793D01*
X4807Y1177D01*
Y1163D01*
X4793Y1150D01*
X4780D01*
X4793D01*
X4807Y1137D01*
Y1123D01*
X4793Y1110D01*
X4767D01*
X4753Y1123D01*
X5072Y1677D02*
X5058Y1690D01*
X5032D01*
X5018Y1677D01*
Y1623D01*
X5032Y1610D01*
X5058D01*
X5072Y1623D01*
X5098Y1690D02*
X5152D01*
Y1677D01*
X5098Y1623D01*
Y1610D01*
X5218D02*
Y1690D01*
X5178Y1650D01*
X5232D01*
X6098Y697D02*
X6085Y683D01*
Y657D01*
X6098Y643D01*
X6152D01*
X6165Y657D01*
Y683D01*
X6152Y697D01*
X6085Y723D02*
Y777D01*
X6098D01*
X6152Y723D01*
X6165D01*
X6085Y857D02*
X6098Y830D01*
X6125Y803D01*
X6152D01*
X6165Y817D01*
Y843D01*
X6152Y857D01*
X6138D01*
X6125Y843D01*
Y803D01*
X4275Y1290D02*
Y1223D01*
X4288Y1210D01*
X4315D01*
X4328Y1223D01*
Y1290D01*
X4355Y1210D02*
X4382D01*
X4368D01*
Y1290D01*
X4355Y1277D01*
X4422D02*
X4435Y1290D01*
X4462D01*
X4475Y1277D01*
Y1223D01*
X4462Y1210D01*
X4435D01*
X4422Y1223D01*
Y1277D01*
X4934Y1177D02*
X4921Y1190D01*
X4894D01*
X4881Y1177D01*
Y1123D01*
X4894Y1110D01*
X4921D01*
X4934Y1123D01*
X4961Y1190D02*
X5014D01*
Y1177D01*
X4961Y1123D01*
Y1110D01*
X5094Y1190D02*
X5041D01*
Y1150D01*
X5067Y1163D01*
X5081D01*
X5094Y1150D01*
Y1123D01*
X5081Y1110D01*
X5054D01*
X5041Y1123D01*
X3722Y1214D02*
X3708Y1227D01*
X3682D01*
X3668Y1214D01*
Y1161D01*
X3682Y1148D01*
X3708D01*
X3722Y1161D01*
X3748Y1227D02*
X3802D01*
Y1214D01*
X3748Y1161D01*
Y1148D01*
X3882D02*
X3828D01*
X3882Y1201D01*
Y1214D01*
X3868Y1227D01*
X3842D01*
X3828Y1214D01*
X4322Y1677D02*
X4308Y1690D01*
X4282D01*
X4268Y1677D01*
Y1623D01*
X4282Y1610D01*
X4308D01*
X4322Y1623D01*
X4402Y1690D02*
X4375Y1677D01*
X4348Y1650D01*
Y1623D01*
X4362Y1610D01*
X4388D01*
X4402Y1623D01*
Y1637D01*
X4388Y1650D01*
X4348D01*
X4428Y1623D02*
X4442Y1610D01*
X4468D01*
X4482Y1623D01*
Y1677D01*
X4468Y1690D01*
X4442D01*
X4428Y1677D01*
Y1663D01*
X4442Y1650D01*
X4482D01*
X4677Y143D02*
X4598D01*
Y183D01*
X4611Y197D01*
X4638D01*
X4651Y183D01*
Y143D01*
Y170D02*
X4677Y197D01*
X4611Y223D02*
X4598Y237D01*
Y263D01*
X4611Y277D01*
X4624D01*
X4638Y263D01*
Y250D01*
Y263D01*
X4651Y277D01*
X4664D01*
X4677Y263D01*
Y237D01*
X4664Y223D01*
X4677Y343D02*
X4598D01*
X4638Y303D01*
Y357D01*
X6598Y9643D02*
X6677Y9697D01*
X6598D02*
X6677Y9643D01*
Y9723D02*
X6598D01*
Y9763D01*
X6611Y9777D01*
X6638D01*
X6651Y9763D01*
Y9723D01*
X6598Y9803D02*
Y9857D01*
X6611D01*
X6664Y9803D01*
X6677D01*
X4527Y4619D02*
X4448Y4566D01*
X4527D02*
X4448Y4619D01*
Y4539D02*
X4527D01*
Y4499D01*
X4514Y4486D01*
X4488D01*
X4474Y4499D01*
Y4539D01*
X4448Y4406D02*
Y4459D01*
X4501Y4406D01*
X4514D01*
X4527Y4419D01*
Y4446D01*
X4514Y4459D01*
X693Y9842D02*
Y9776D01*
X707Y9763D01*
X733D01*
X747Y9776D01*
Y9842D01*
X827Y9763D02*
X773D01*
X827Y9816D01*
Y9829D01*
X813Y9842D01*
X787D01*
X773Y9829D01*
X853D02*
X867Y9842D01*
X893D01*
X907Y9829D01*
Y9776D01*
X893Y9763D01*
X867D01*
X853Y9776D01*
Y9829D01*
X5707Y4711D02*
Y4791D01*
X5747D01*
X5760Y4778D01*
Y4751D01*
X5747Y4738D01*
X5707D01*
X5733D02*
X5760Y4711D01*
X5787D02*
Y4791D01*
X5840Y4711D01*
Y4791D01*
X5867Y4778D02*
X5880Y4791D01*
X5907D01*
X5920Y4778D01*
Y4764D01*
X5907Y4751D01*
X5893D01*
X5907D01*
X5920Y4738D01*
Y4724D01*
X5907Y4711D01*
X5880D01*
X5867Y4724D01*
X5333Y4711D02*
Y4791D01*
X5373D01*
X5387Y4778D01*
Y4751D01*
X5373Y4738D01*
X5333D01*
X5360D02*
X5387Y4711D01*
X5413D02*
Y4791D01*
X5467Y4711D01*
Y4791D01*
X5547Y4711D02*
X5493D01*
X5547Y4764D01*
Y4778D01*
X5533Y4791D01*
X5507D01*
X5493Y4778D01*
X4957Y4711D02*
Y4791D01*
X4997D01*
X5011Y4778D01*
Y4751D01*
X4997Y4738D01*
X4957D01*
X4984D02*
X5011Y4711D01*
X5037D02*
Y4791D01*
X5091Y4711D01*
Y4791D01*
X5117Y4711D02*
X5144D01*
X5131D01*
Y4791D01*
X5117Y4778D01*
X4976Y9902D02*
X4963Y9915D01*
X4936D01*
X4923Y9902D01*
Y9848D01*
X4936Y9835D01*
X4963D01*
X4976Y9848D01*
X5003Y9835D02*
X5029D01*
X5016D01*
Y9915D01*
X5003Y9902D01*
X5069D02*
X5082Y9915D01*
X5109D01*
X5122Y9902D01*
Y9848D01*
X5109Y9835D01*
X5082D01*
X5069Y9848D01*
Y9902D01*
X5149D02*
X5162Y9915D01*
X5189D01*
X5202Y9902D01*
Y9888D01*
X5189Y9875D01*
X5176D01*
X5189D01*
X5202Y9862D01*
Y9848D01*
X5189Y9835D01*
X5162D01*
X5149Y9848D01*
X5460Y9902D02*
X5447Y9915D01*
X5420D01*
X5407Y9902D01*
Y9848D01*
X5420Y9835D01*
X5447D01*
X5460Y9848D01*
X5487D02*
X5500Y9835D01*
X5527D01*
X5540Y9848D01*
Y9902D01*
X5527Y9915D01*
X5500D01*
X5487Y9902D01*
Y9888D01*
X5500Y9875D01*
X5540D01*
X5567Y9835D02*
X5593D01*
X5580D01*
Y9915D01*
X5567Y9902D01*
X4911Y2063D02*
X4898Y2050D01*
Y2023D01*
X4911Y2010D01*
X4964D01*
X4977Y2023D01*
Y2050D01*
X4964Y2063D01*
X4977Y2090D02*
Y2117D01*
Y2103D01*
X4898D01*
X4911Y2090D01*
Y2157D02*
X4898Y2170D01*
Y2197D01*
X4911Y2210D01*
X4964D01*
X4977Y2197D01*
Y2170D01*
X4964Y2157D01*
X4911D01*
X4977Y2290D02*
Y2237D01*
X4924Y2290D01*
X4911D01*
X4898Y2277D01*
Y2250D01*
X4911Y2237D01*
X4848Y2472D02*
X4835Y2458D01*
Y2432D01*
X4848Y2418D01*
X4902D01*
X4915Y2432D01*
Y2458D01*
X4902Y2472D01*
Y2498D02*
X4915Y2512D01*
Y2538D01*
X4902Y2552D01*
X4848D01*
X4835Y2538D01*
Y2512D01*
X4848Y2498D01*
X4862D01*
X4875Y2512D01*
Y2552D01*
X4848Y2578D02*
X4835Y2592D01*
Y2618D01*
X4848Y2632D01*
X4902D01*
X4915Y2618D01*
Y2592D01*
X4902Y2578D01*
X4848D01*
X8581Y727D02*
X8634Y648D01*
Y727D02*
X8581Y648D01*
X8661Y727D02*
Y648D01*
X8688Y674D01*
X8714Y648D01*
Y727D01*
X8794Y648D02*
X8741D01*
X8794Y701D01*
Y714D01*
X8781Y727D01*
X8754D01*
X8741Y714D01*
X9294Y8290D02*
X9348Y8210D01*
Y8290D02*
X9294Y8210D01*
X9374Y8290D02*
Y8210D01*
X9401Y8237D01*
X9427Y8210D01*
Y8290D01*
X9454Y8210D02*
X9481D01*
X9467D01*
Y8290D01*
X9454Y8277D01*
X877Y6740D02*
X798Y6687D01*
X877D02*
X798Y6740D01*
Y6660D02*
X877D01*
Y6620D01*
X864Y6607D01*
X838D01*
X824Y6620D01*
Y6660D01*
X798Y6580D02*
Y6553D01*
Y6567D01*
X877D01*
X864Y6580D01*
X798Y6460D02*
Y6513D01*
X851Y6460D01*
X864D01*
X877Y6473D01*
Y6500D01*
X864Y6513D01*
X877Y8077D02*
X798Y8023D01*
X877D02*
X798Y8077D01*
Y7997D02*
X877D01*
Y7957D01*
X864Y7943D01*
X838D01*
X824Y7957D01*
Y7997D01*
X798Y7917D02*
Y7890D01*
Y7903D01*
X877D01*
X864Y7917D01*
X798Y7850D02*
Y7823D01*
Y7837D01*
X877D01*
X864Y7850D01*
X865Y3402D02*
X785Y3349D01*
X865D02*
X785Y3402D01*
Y3322D02*
X865D01*
Y3282D01*
X852Y3269D01*
X825D01*
X812Y3282D01*
Y3322D01*
X785Y3243D02*
Y3216D01*
Y3229D01*
X865D01*
X852Y3243D01*
Y3176D02*
X865Y3163D01*
Y3136D01*
X852Y3123D01*
X798D01*
X785Y3136D01*
Y3163D01*
X798Y3176D01*
X852D01*
X331Y952D02*
X384Y873D01*
Y952D02*
X331Y873D01*
X411D02*
Y952D01*
X451D01*
X464Y939D01*
Y912D01*
X451Y899D01*
X411D01*
X491Y886D02*
X504Y873D01*
X531D01*
X544Y886D01*
Y939D01*
X531Y952D01*
X504D01*
X491Y939D01*
Y926D01*
X504Y912D01*
X544D01*
X877Y8807D02*
X798Y8753D01*
X877D02*
X798Y8807D01*
Y8727D02*
X877D01*
Y8687D01*
X864Y8673D01*
X838D01*
X824Y8687D01*
Y8727D01*
X864Y8647D02*
X877Y8633D01*
Y8607D01*
X864Y8593D01*
X851D01*
X838Y8607D01*
X824Y8593D01*
X811D01*
X798Y8607D01*
Y8633D01*
X811Y8647D01*
X824D01*
X838Y8633D01*
X851Y8647D01*
X864D01*
X838Y8633D02*
Y8607D01*
X6398Y9643D02*
X6477Y9697D01*
X6398D02*
X6477Y9643D01*
Y9723D02*
X6398D01*
Y9763D01*
X6411Y9777D01*
X6438D01*
X6451Y9763D01*
Y9723D01*
X6398Y9857D02*
X6411Y9830D01*
X6438Y9803D01*
X6464D01*
X6477Y9817D01*
Y9843D01*
X6464Y9857D01*
X6451D01*
X6438Y9843D01*
Y9803D01*
X5568Y215D02*
X5622Y135D01*
Y215D02*
X5568Y135D01*
X5648D02*
Y215D01*
X5688D01*
X5702Y202D01*
Y175D01*
X5688Y162D01*
X5648D01*
X5782Y215D02*
X5728D01*
Y175D01*
X5755Y188D01*
X5768D01*
X5782Y175D01*
Y148D01*
X5768Y135D01*
X5742D01*
X5728Y148D01*
X5256Y215D02*
X5309Y135D01*
Y215D02*
X5256Y135D01*
X5336D02*
Y215D01*
X5376D01*
X5389Y202D01*
Y175D01*
X5376Y162D01*
X5336D01*
X5456Y135D02*
Y215D01*
X5416Y175D01*
X5469D01*
X4943Y215D02*
X4997Y135D01*
Y215D02*
X4943Y135D01*
X5023D02*
Y215D01*
X5063D01*
X5077Y202D01*
Y175D01*
X5063Y162D01*
X5023D01*
X5103Y202D02*
X5117Y215D01*
X5143D01*
X5157Y202D01*
Y188D01*
X5143Y175D01*
X5130D01*
X5143D01*
X5157Y162D01*
Y148D01*
X5143Y135D01*
X5117D01*
X5103Y148D01*
X865Y3843D02*
X785Y3790D01*
X865D02*
X785Y3843D01*
Y3763D02*
X865D01*
Y3723D01*
X852Y3710D01*
X825D01*
X812Y3723D01*
Y3763D01*
X785Y3683D02*
Y3657D01*
Y3670D01*
X865D01*
X852Y3683D01*
X9268Y2852D02*
Y2786D01*
X9282Y2773D01*
X9308D01*
X9322Y2786D01*
Y2852D01*
X9402Y2773D02*
X9348D01*
X9402Y2826D01*
Y2839D01*
X9388Y2852D01*
X9362D01*
X9348Y2839D01*
X9428Y2852D02*
X9482D01*
Y2839D01*
X9428Y2786D01*
Y2773D01*
X8643Y2852D02*
Y2786D01*
X8657Y2773D01*
X8683D01*
X8697Y2786D01*
Y2852D01*
X8777Y2773D02*
X8723D01*
X8777Y2826D01*
Y2839D01*
X8763Y2852D01*
X8737D01*
X8723Y2839D01*
X8857Y2852D02*
X8830Y2839D01*
X8803Y2812D01*
Y2786D01*
X8817Y2773D01*
X8843D01*
X8857Y2786D01*
Y2799D01*
X8843Y2812D01*
X8803D01*
X8018Y2852D02*
Y2786D01*
X8032Y2773D01*
X8058D01*
X8072Y2786D01*
Y2852D01*
X8152Y2773D02*
X8098D01*
X8152Y2826D01*
Y2839D01*
X8138Y2852D01*
X8112D01*
X8098Y2839D01*
X8232Y2852D02*
X8178D01*
Y2812D01*
X8205Y2826D01*
X8218D01*
X8232Y2812D01*
Y2786D01*
X8218Y2773D01*
X8192D01*
X8178Y2786D01*
X7393Y2852D02*
Y2786D01*
X7407Y2773D01*
X7433D01*
X7447Y2786D01*
Y2852D01*
X7527Y2773D02*
X7473D01*
X7527Y2826D01*
Y2839D01*
X7513Y2852D01*
X7487D01*
X7473Y2839D01*
X7593Y2773D02*
Y2852D01*
X7553Y2812D01*
X7607D01*
X5371Y7827D02*
Y7761D01*
X5384Y7748D01*
X5411D01*
X5424Y7761D01*
Y7827D01*
X5451D02*
X5504D01*
Y7814D01*
X5451Y7761D01*
Y7748D01*
X5571Y4152D02*
Y4086D01*
X5584Y4073D01*
X5611D01*
X5624Y4086D01*
Y4152D01*
X5704D02*
X5677Y4139D01*
X5651Y4113D01*
Y4086D01*
X5664Y4073D01*
X5691D01*
X5704Y4086D01*
Y4099D01*
X5691Y4113D01*
X5651D01*
X6977Y131D02*
X6898D01*
Y171D01*
X6911Y184D01*
X6937D01*
X6951Y171D01*
Y131D01*
Y158D02*
X6977Y184D01*
X6898Y264D02*
Y211D01*
X6937D01*
X6924Y238D01*
Y251D01*
X6937Y264D01*
X6964D01*
X6977Y251D01*
Y224D01*
X6964Y211D01*
X6911Y291D02*
X6898Y304D01*
Y331D01*
X6911Y344D01*
X6924D01*
X6937Y331D01*
X6951Y344D01*
X6964D01*
X6977Y331D01*
Y304D01*
X6964Y291D01*
X6951D01*
X6937Y304D01*
X6924Y291D01*
X6911D01*
X6937Y304D02*
Y331D01*
X9227Y706D02*
X9148D01*
Y746D01*
X9161Y759D01*
X9188D01*
X9201Y746D01*
Y706D01*
Y733D02*
X9227Y759D01*
X9148Y839D02*
Y786D01*
X9188D01*
X9174Y812D01*
Y826D01*
X9188Y839D01*
X9214D01*
X9227Y826D01*
Y799D01*
X9214Y786D01*
X9148Y866D02*
Y919D01*
X9161D01*
X9214Y866D01*
X9227D01*
X6852Y131D02*
X6773D01*
Y171D01*
X6786Y184D01*
X6812D01*
X6826Y171D01*
Y131D01*
Y158D02*
X6852Y184D01*
X6773Y264D02*
Y211D01*
X6812D01*
X6799Y238D01*
Y251D01*
X6812Y264D01*
X6839D01*
X6852Y251D01*
Y224D01*
X6839Y211D01*
X6773Y344D02*
X6786Y317D01*
X6812Y291D01*
X6839D01*
X6852Y304D01*
Y331D01*
X6839Y344D01*
X6826D01*
X6812Y331D01*
Y291D01*
X6227Y131D02*
X6148D01*
Y171D01*
X6161Y184D01*
X6187D01*
X6201Y171D01*
Y131D01*
Y158D02*
X6227Y184D01*
X6148Y264D02*
Y211D01*
X6187D01*
X6174Y238D01*
Y251D01*
X6187Y264D01*
X6214D01*
X6227Y251D01*
Y224D01*
X6214Y211D01*
X6148Y344D02*
Y291D01*
X6187D01*
X6174Y317D01*
Y331D01*
X6187Y344D01*
X6214D01*
X6227Y331D01*
Y304D01*
X6214Y291D01*
X6102Y131D02*
X6023D01*
Y171D01*
X6036Y184D01*
X6062D01*
X6076Y171D01*
Y131D01*
Y158D02*
X6102Y184D01*
X6023Y264D02*
Y211D01*
X6062D01*
X6049Y238D01*
Y251D01*
X6062Y264D01*
X6089D01*
X6102Y251D01*
Y224D01*
X6089Y211D01*
X6102Y331D02*
X6023D01*
X6062Y291D01*
Y344D01*
X7790Y1143D02*
X7710D01*
Y1183D01*
X7723Y1197D01*
X7750D01*
X7763Y1183D01*
Y1143D01*
Y1170D02*
X7790Y1197D01*
X7710Y1277D02*
Y1223D01*
X7750D01*
X7737Y1250D01*
Y1263D01*
X7750Y1277D01*
X7777D01*
X7790Y1263D01*
Y1237D01*
X7777Y1223D01*
X7723Y1303D02*
X7710Y1317D01*
Y1343D01*
X7723Y1357D01*
X7737D01*
X7750Y1343D01*
Y1330D01*
Y1343D01*
X7763Y1357D01*
X7777D01*
X7790Y1343D01*
Y1317D01*
X7777Y1303D01*
X3802Y143D02*
X3723D01*
Y183D01*
X3736Y197D01*
X3762D01*
X3776Y183D01*
Y143D01*
Y170D02*
X3802Y197D01*
X3723Y277D02*
Y223D01*
X3762D01*
X3749Y250D01*
Y263D01*
X3762Y277D01*
X3789D01*
X3802Y263D01*
Y237D01*
X3789Y223D01*
X3736Y303D02*
X3723Y317D01*
Y343D01*
X3736Y357D01*
X3789D01*
X3802Y343D01*
Y317D01*
X3789Y303D01*
X3736D01*
X4427Y143D02*
X4348D01*
Y183D01*
X4361Y197D01*
X4388D01*
X4401Y183D01*
Y143D01*
Y170D02*
X4427Y197D01*
Y263D02*
X4348D01*
X4388Y223D01*
Y277D01*
X4427Y357D02*
Y303D01*
X4374Y357D01*
X4361D01*
X4348Y343D01*
Y317D01*
X4361Y303D01*
X4177Y157D02*
X4098D01*
Y197D01*
X4111Y210D01*
X4138D01*
X4151Y197D01*
Y157D01*
Y183D02*
X4177Y210D01*
Y277D02*
X4098D01*
X4138Y237D01*
Y290D01*
X4177Y317D02*
Y343D01*
Y330D01*
X4098D01*
X4111Y317D01*
X4552Y143D02*
X4473D01*
Y183D01*
X4486Y197D01*
X4512D01*
X4526Y183D01*
Y143D01*
Y170D02*
X4552Y197D01*
Y263D02*
X4473D01*
X4512Y223D01*
Y277D01*
X4486Y303D02*
X4473Y317D01*
Y343D01*
X4486Y357D01*
X4539D01*
X4552Y343D01*
Y317D01*
X4539Y303D01*
X4486D01*
X4302Y143D02*
X4223D01*
Y183D01*
X4236Y197D01*
X4262D01*
X4276Y183D01*
Y143D01*
Y170D02*
X4302Y197D01*
X4236Y223D02*
X4223Y237D01*
Y263D01*
X4236Y277D01*
X4249D01*
X4262Y263D01*
Y250D01*
Y263D01*
X4276Y277D01*
X4289D01*
X4302Y263D01*
Y237D01*
X4289Y223D01*
Y303D02*
X4302Y317D01*
Y343D01*
X4289Y357D01*
X4236D01*
X4223Y343D01*
Y317D01*
X4236Y303D01*
X4249D01*
X4262Y317D01*
Y357D01*
X4052Y143D02*
X3973D01*
Y183D01*
X3986Y197D01*
X4012D01*
X4026Y183D01*
Y143D01*
Y170D02*
X4052Y197D01*
X3986Y223D02*
X3973Y237D01*
Y263D01*
X3986Y277D01*
X3999D01*
X4012Y263D01*
Y250D01*
Y263D01*
X4026Y277D01*
X4039D01*
X4052Y263D01*
Y237D01*
X4039Y223D01*
X3986Y303D02*
X3973Y317D01*
Y343D01*
X3986Y357D01*
X3999D01*
X4012Y343D01*
X4026Y357D01*
X4039D01*
X4052Y343D01*
Y317D01*
X4039Y303D01*
X4026D01*
X4012Y317D01*
X3999Y303D01*
X3986D01*
X4012Y317D02*
Y343D01*
X3927Y143D02*
X3848D01*
Y183D01*
X3861Y197D01*
X3888D01*
X3901Y183D01*
Y143D01*
Y170D02*
X3927Y197D01*
X3861Y223D02*
X3848Y237D01*
Y263D01*
X3861Y277D01*
X3874D01*
X3888Y263D01*
Y250D01*
Y263D01*
X3901Y277D01*
X3914D01*
X3927Y263D01*
Y237D01*
X3914Y223D01*
X3848Y303D02*
Y357D01*
X3861D01*
X3914Y303D01*
X3927D01*
X2765Y2006D02*
X2685D01*
Y2046D01*
X2698Y2059D01*
X2725D01*
X2738Y2046D01*
Y2006D01*
Y2033D02*
X2765Y2059D01*
X2698Y2086D02*
X2685Y2099D01*
Y2126D01*
X2698Y2139D01*
X2712D01*
X2725Y2126D01*
Y2112D01*
Y2126D01*
X2738Y2139D01*
X2752D01*
X2765Y2126D01*
Y2099D01*
X2752Y2086D01*
X2685Y2219D02*
X2698Y2192D01*
X2725Y2166D01*
X2752D01*
X2765Y2179D01*
Y2206D01*
X2752Y2219D01*
X2738D01*
X2725Y2206D01*
Y2166D01*
X2890Y2006D02*
X2810D01*
Y2046D01*
X2823Y2059D01*
X2850D01*
X2863Y2046D01*
Y2006D01*
Y2033D02*
X2890Y2059D01*
X2823Y2086D02*
X2810Y2099D01*
Y2126D01*
X2823Y2139D01*
X2837D01*
X2850Y2126D01*
Y2112D01*
Y2126D01*
X2863Y2139D01*
X2877D01*
X2890Y2126D01*
Y2099D01*
X2877Y2086D01*
X2823Y2166D02*
X2810Y2179D01*
Y2206D01*
X2823Y2219D01*
X2837D01*
X2850Y2206D01*
Y2192D01*
Y2206D01*
X2863Y2219D01*
X2877D01*
X2890Y2206D01*
Y2179D01*
X2877Y2166D01*
X3015Y2006D02*
X2935D01*
Y2046D01*
X2948Y2059D01*
X2975D01*
X2988Y2046D01*
Y2006D01*
Y2033D02*
X3015Y2059D01*
X2948Y2086D02*
X2935Y2099D01*
Y2126D01*
X2948Y2139D01*
X2962D01*
X2975Y2126D01*
Y2112D01*
Y2126D01*
X2988Y2139D01*
X3002D01*
X3015Y2126D01*
Y2099D01*
X3002Y2086D01*
X3015Y2219D02*
Y2166D01*
X2962Y2219D01*
X2948D01*
X2935Y2206D01*
Y2179D01*
X2948Y2166D01*
X7693Y9160D02*
Y9240D01*
X7733D01*
X7747Y9227D01*
Y9200D01*
X7733Y9187D01*
X7693D01*
X7720D02*
X7747Y9160D01*
X7827D02*
X7773D01*
X7827Y9213D01*
Y9227D01*
X7813Y9240D01*
X7787D01*
X7773Y9227D01*
X7853D02*
X7867Y9240D01*
X7893D01*
X7907Y9227D01*
Y9213D01*
X7893Y9200D01*
X7907Y9187D01*
Y9173D01*
X7893Y9160D01*
X7867D01*
X7853Y9173D01*
Y9187D01*
X7867Y9200D01*
X7853Y9213D01*
Y9227D01*
X7867Y9200D02*
X7893D01*
X7693Y7998D02*
Y8077D01*
X7733D01*
X7747Y8064D01*
Y8038D01*
X7733Y8024D01*
X7693D01*
X7720D02*
X7747Y7998D01*
X7827D02*
X7773D01*
X7827Y8051D01*
Y8064D01*
X7813Y8077D01*
X7787D01*
X7773Y8064D01*
X7853Y8077D02*
X7907D01*
Y8064D01*
X7853Y8011D01*
Y7998D01*
X7406Y9160D02*
Y9240D01*
X7446D01*
X7459Y9227D01*
Y9200D01*
X7446Y9187D01*
X7406D01*
X7433D02*
X7459Y9160D01*
X7539D02*
X7486D01*
X7539Y9213D01*
Y9227D01*
X7526Y9240D01*
X7499D01*
X7486Y9227D01*
X7619Y9240D02*
X7566D01*
Y9200D01*
X7592Y9213D01*
X7606D01*
X7619Y9200D01*
Y9173D01*
X7606Y9160D01*
X7579D01*
X7566Y9173D01*
X7393Y7998D02*
Y8077D01*
X7433D01*
X7447Y8064D01*
Y8038D01*
X7433Y8024D01*
X7393D01*
X7420D02*
X7447Y7998D01*
X7527D02*
X7473D01*
X7527Y8051D01*
Y8064D01*
X7513Y8077D01*
X7487D01*
X7473Y8064D01*
X7593Y7998D02*
Y8077D01*
X7553Y8038D01*
X7607D01*
X7118Y7998D02*
Y8077D01*
X7158D01*
X7172Y8064D01*
Y8038D01*
X7158Y8024D01*
X7118D01*
X7145D02*
X7172Y7998D01*
X7252D02*
X7198D01*
X7252Y8051D01*
Y8064D01*
X7238Y8077D01*
X7212D01*
X7198Y8064D01*
X7278D02*
X7292Y8077D01*
X7318D01*
X7332Y8064D01*
Y8051D01*
X7318Y8038D01*
X7305D01*
X7318D01*
X7332Y8024D01*
Y8011D01*
X7318Y7998D01*
X7292D01*
X7278Y8011D01*
X6302Y7830D02*
X6223D01*
Y7870D01*
X6236Y7883D01*
X6262D01*
X6276Y7870D01*
Y7830D01*
Y7857D02*
X6302Y7883D01*
Y7963D02*
Y7910D01*
X6249Y7963D01*
X6236D01*
X6223Y7950D01*
Y7923D01*
X6236Y7910D01*
Y7990D02*
X6223Y8003D01*
Y8030D01*
X6236Y8043D01*
X6289D01*
X6302Y8030D01*
Y8003D01*
X6289Y7990D01*
X6236D01*
X7002Y7850D02*
X6923D01*
Y7890D01*
X6936Y7903D01*
X6962D01*
X6976Y7890D01*
Y7850D01*
Y7877D02*
X7002Y7903D01*
Y7930D02*
Y7957D01*
Y7943D01*
X6923D01*
X6936Y7930D01*
X6989Y7997D02*
X7002Y8010D01*
Y8037D01*
X6989Y8050D01*
X6936D01*
X6923Y8037D01*
Y8010D01*
X6936Y7997D01*
X6949D01*
X6962Y8010D01*
Y8050D01*
X7125Y7798D02*
Y7877D01*
X7165D01*
X7178Y7864D01*
Y7838D01*
X7165Y7824D01*
X7125D01*
X7152D02*
X7178Y7798D01*
X7205D02*
X7232D01*
X7218D01*
Y7877D01*
X7205Y7864D01*
X7272D02*
X7285Y7877D01*
X7312D01*
X7325Y7864D01*
Y7851D01*
X7312Y7838D01*
X7325Y7824D01*
Y7811D01*
X7312Y7798D01*
X7285D01*
X7272Y7811D01*
Y7824D01*
X7285Y7838D01*
X7272Y7851D01*
Y7864D01*
X7285Y7838D02*
X7312D01*
X5975Y8198D02*
Y8277D01*
X6015D01*
X6028Y8264D01*
Y8238D01*
X6015Y8224D01*
X5975D01*
X6002D02*
X6028Y8198D01*
X6055D02*
X6082D01*
X6068D01*
Y8277D01*
X6055Y8264D01*
X6122Y8277D02*
X6175D01*
Y8264D01*
X6122Y8211D01*
Y8198D01*
X6265Y4375D02*
X6185D01*
Y4415D01*
X6198Y4428D01*
X6225D01*
X6238Y4415D01*
Y4375D01*
Y4402D02*
X6265Y4428D01*
Y4455D02*
Y4482D01*
Y4468D01*
X6185D01*
X6198Y4455D01*
X6265Y4562D02*
X6185D01*
X6225Y4522D01*
Y4575D01*
X6338Y5248D02*
Y5327D01*
X6378D01*
X6391Y5314D01*
Y5288D01*
X6378Y5274D01*
X6338D01*
X6364D02*
X6391Y5248D01*
X6418D02*
X6444D01*
X6431D01*
Y5327D01*
X6418Y5314D01*
X6484D02*
X6497Y5327D01*
X6524D01*
X6537Y5314D01*
Y5301D01*
X6524Y5288D01*
X6511D01*
X6524D01*
X6537Y5274D01*
Y5261D01*
X6524Y5248D01*
X6497D01*
X6484Y5261D01*
X6900Y5248D02*
Y5327D01*
X6940D01*
X6953Y5314D01*
Y5288D01*
X6940Y5274D01*
X6900D01*
X6927D02*
X6953Y5248D01*
X6980D02*
X7007D01*
X6993D01*
Y5327D01*
X6980Y5314D01*
X7100Y5248D02*
X7047D01*
X7100Y5301D01*
Y5314D01*
X7087Y5327D01*
X7060D01*
X7047Y5314D01*
X5927Y2288D02*
X5848D01*
Y2328D01*
X5861Y2342D01*
X5888D01*
X5901Y2328D01*
Y2288D01*
Y2315D02*
X5927Y2342D01*
Y2368D02*
Y2395D01*
Y2382D01*
X5848D01*
X5861Y2368D01*
X5927Y2435D02*
Y2462D01*
Y2448D01*
X5848D01*
X5861Y2435D01*
X5215Y2275D02*
X5135D01*
Y2315D01*
X5148Y2328D01*
X5175D01*
X5188Y2315D01*
Y2275D01*
Y2302D02*
X5215Y2328D01*
Y2355D02*
Y2382D01*
Y2368D01*
X5135D01*
X5148Y2355D01*
Y2422D02*
X5135Y2435D01*
Y2462D01*
X5148Y2475D01*
X5202D01*
X5215Y2462D01*
Y2435D01*
X5202Y2422D01*
X5148D01*
X3058Y6860D02*
Y6940D01*
X3098D01*
X3112Y6927D01*
Y6900D01*
X3098Y6887D01*
X3058D01*
X3085D02*
X3112Y6860D01*
X3138Y6873D02*
X3152Y6860D01*
X3178D01*
X3192Y6873D01*
Y6927D01*
X3178Y6940D01*
X3152D01*
X3138Y6927D01*
Y6913D01*
X3152Y6900D01*
X3192D01*
X3058Y6198D02*
Y6277D01*
X3098D01*
X3112Y6264D01*
Y6238D01*
X3098Y6224D01*
X3058D01*
X3085D02*
X3112Y6198D01*
X3138Y6264D02*
X3152Y6277D01*
X3178D01*
X3192Y6264D01*
Y6251D01*
X3178Y6238D01*
X3192Y6224D01*
Y6211D01*
X3178Y6198D01*
X3152D01*
X3138Y6211D01*
Y6224D01*
X3152Y6238D01*
X3138Y6251D01*
Y6264D01*
X3152Y6238D02*
X3178D01*
X6621Y5977D02*
Y5898D01*
X6674D01*
X6754Y5977D02*
X6701D01*
Y5938D01*
X6727Y5951D01*
X6741D01*
X6754Y5938D01*
Y5911D01*
X6741Y5898D01*
X6714D01*
X6701Y5911D01*
X6621Y6540D02*
Y6460D01*
X6674D01*
X6741D02*
Y6540D01*
X6701Y6500D01*
X6754D01*
X6571Y7090D02*
Y7010D01*
X6624D01*
X6651Y7077D02*
X6664Y7090D01*
X6691D01*
X6704Y7077D01*
Y7063D01*
X6691Y7050D01*
X6677D01*
X6691D01*
X6704Y7037D01*
Y7023D01*
X6691Y7010D01*
X6664D01*
X6651Y7023D01*
X5621Y1640D02*
Y1560D01*
X5674D01*
X5754D02*
X5701D01*
X5754Y1613D01*
Y1627D01*
X5741Y1640D01*
X5714D01*
X5701Y1627D01*
X5347Y1640D02*
Y1560D01*
X5400D01*
X5427D02*
X5453D01*
X5440D01*
Y1640D01*
X5427Y1627D01*
X1750Y8302D02*
Y8236D01*
X1763Y8223D01*
X1790D01*
X1803Y8236D01*
Y8302D01*
X1830Y8223D02*
X1857D01*
X1843D01*
Y8302D01*
X1830Y8289D01*
X1897D02*
X1910Y8302D01*
X1937D01*
X1950Y8289D01*
Y8276D01*
X1937Y8262D01*
X1950Y8249D01*
Y8236D01*
X1937Y8223D01*
X1910D01*
X1897Y8236D01*
Y8249D01*
X1910Y8262D01*
X1897Y8276D01*
Y8289D01*
X1910Y8262D02*
X1937D01*
X4088Y8352D02*
Y8286D01*
X4101Y8273D01*
X4128D01*
X4141Y8286D01*
Y8352D01*
X4168Y8273D02*
X4194D01*
X4181D01*
Y8352D01*
X4168Y8339D01*
X4287Y8352D02*
X4234D01*
Y8312D01*
X4261Y8326D01*
X4274D01*
X4287Y8312D01*
Y8286D01*
X4274Y8273D01*
X4247D01*
X4234Y8286D01*
X4088Y9102D02*
Y9036D01*
X4101Y9023D01*
X4128D01*
X4141Y9036D01*
Y9102D01*
X4168Y9023D02*
X4194D01*
X4181D01*
Y9102D01*
X4168Y9089D01*
X4234Y9102D02*
X4287D01*
Y9089D01*
X4234Y9036D01*
Y9023D01*
X3085Y2213D02*
X3152D01*
X3165Y2226D01*
Y2253D01*
X3152Y2266D01*
X3085D01*
X3165Y2293D02*
Y2319D01*
Y2306D01*
X3085D01*
X3098Y2293D01*
X3085Y2412D02*
X3098Y2386D01*
X3125Y2359D01*
X3152D01*
X3165Y2372D01*
Y2399D01*
X3152Y2412D01*
X3138D01*
X3125Y2399D01*
Y2359D01*
X1875Y8115D02*
Y8048D01*
X1888Y8035D01*
X1915D01*
X1928Y8048D01*
Y8115D01*
X1955Y8035D02*
X1982D01*
X1968D01*
Y8115D01*
X1955Y8102D01*
X2062Y8035D02*
Y8115D01*
X2022Y8075D01*
X2075D01*
X4088Y9852D02*
Y9786D01*
X4101Y9773D01*
X4128D01*
X4141Y9786D01*
Y9852D01*
X4168Y9773D02*
X4194D01*
X4181D01*
Y9852D01*
X4168Y9839D01*
X4234D02*
X4247Y9852D01*
X4274D01*
X4287Y9839D01*
Y9826D01*
X4274Y9812D01*
X4261D01*
X4274D01*
X4287Y9799D01*
Y9786D01*
X4274Y9773D01*
X4247D01*
X4234Y9786D01*
X3085Y2888D02*
X3152D01*
X3165Y2901D01*
Y2928D01*
X3152Y2941D01*
X3085D01*
X3165Y2968D02*
Y2994D01*
Y2981D01*
X3085D01*
X3098Y2968D01*
X3165Y3087D02*
Y3034D01*
X3112Y3087D01*
X3098D01*
X3085Y3074D01*
Y3047D01*
X3098Y3034D01*
X8911Y726D02*
X8898Y713D01*
Y686D01*
X8911Y673D01*
X8964D01*
X8977Y686D01*
Y713D01*
X8964Y726D01*
X8977Y753D02*
Y779D01*
Y766D01*
X8898D01*
X8911Y753D01*
Y819D02*
X8898Y832D01*
Y859D01*
X8911Y872D01*
X8924D01*
X8938Y859D01*
Y846D01*
Y859D01*
X8951Y872D01*
X8964D01*
X8977Y859D01*
Y832D01*
X8964Y819D01*
Y899D02*
X8977Y912D01*
Y939D01*
X8964Y952D01*
X8911D01*
X8898Y939D01*
Y912D01*
X8911Y899D01*
X8924D01*
X8938Y912D01*
Y952D01*
X9036Y726D02*
X9023Y713D01*
Y686D01*
X9036Y673D01*
X9089D01*
X9102Y686D01*
Y713D01*
X9089Y726D01*
X9102Y753D02*
Y779D01*
Y766D01*
X9023D01*
X9036Y753D01*
Y819D02*
X9023Y832D01*
Y859D01*
X9036Y872D01*
X9049D01*
X9062Y859D01*
Y846D01*
Y859D01*
X9076Y872D01*
X9089D01*
X9102Y859D01*
Y832D01*
X9089Y819D01*
X9036Y899D02*
X9023Y912D01*
Y939D01*
X9036Y952D01*
X9049D01*
X9062Y939D01*
X9076Y952D01*
X9089D01*
X9102Y939D01*
Y912D01*
X9089Y899D01*
X9076D01*
X9062Y912D01*
X9049Y899D01*
X9036D01*
X9062Y912D02*
Y939D01*
X6661Y184D02*
X6648Y171D01*
Y144D01*
X6661Y131D01*
X6714D01*
X6727Y144D01*
Y171D01*
X6714Y184D01*
X6727Y211D02*
Y238D01*
Y224D01*
X6648D01*
X6661Y211D01*
Y277D02*
X6648Y291D01*
Y317D01*
X6661Y331D01*
X6674D01*
X6688Y317D01*
Y304D01*
Y317D01*
X6701Y331D01*
X6714D01*
X6727Y317D01*
Y291D01*
X6714Y277D01*
X6648Y357D02*
Y411D01*
X6661D01*
X6714Y357D01*
X6727D01*
X6286Y184D02*
X6273Y171D01*
Y144D01*
X6286Y131D01*
X6339D01*
X6352Y144D01*
Y171D01*
X6339Y184D01*
X6352Y211D02*
Y238D01*
Y224D01*
X6273D01*
X6286Y211D01*
Y277D02*
X6273Y291D01*
Y317D01*
X6286Y331D01*
X6299D01*
X6312Y317D01*
Y304D01*
Y317D01*
X6326Y331D01*
X6339D01*
X6352Y317D01*
Y291D01*
X6339Y277D01*
X6273Y411D02*
X6286Y384D01*
X6312Y357D01*
X6339D01*
X6352Y371D01*
Y397D01*
X6339Y411D01*
X6326D01*
X6312Y397D01*
Y357D01*
X7848Y1163D02*
X7835Y1150D01*
Y1123D01*
X7848Y1110D01*
X7902D01*
X7915Y1123D01*
Y1150D01*
X7902Y1163D01*
X7915Y1190D02*
Y1217D01*
Y1203D01*
X7835D01*
X7848Y1190D01*
Y1257D02*
X7835Y1270D01*
Y1297D01*
X7848Y1310D01*
X7862D01*
X7875Y1297D01*
Y1283D01*
Y1297D01*
X7888Y1310D01*
X7902D01*
X7915Y1297D01*
Y1270D01*
X7902Y1257D01*
X7835Y1390D02*
Y1337D01*
X7875D01*
X7862Y1363D01*
Y1377D01*
X7875Y1390D01*
X7902D01*
X7915Y1377D01*
Y1350D01*
X7902Y1337D01*
X6776Y2027D02*
X6763Y2040D01*
X6736D01*
X6723Y2027D01*
Y1973D01*
X6736Y1960D01*
X6763D01*
X6776Y1973D01*
X6803Y1960D02*
X6829D01*
X6816D01*
Y2040D01*
X6803Y2027D01*
X6869D02*
X6882Y2040D01*
X6909D01*
X6922Y2027D01*
Y2013D01*
X6909Y2000D01*
X6896D01*
X6909D01*
X6922Y1987D01*
Y1973D01*
X6909Y1960D01*
X6882D01*
X6869Y1973D01*
X6989Y1960D02*
Y2040D01*
X6949Y2000D01*
X7002D01*
X7536Y300D02*
X7523Y287D01*
Y260D01*
X7536Y247D01*
X7589D01*
X7602Y260D01*
Y287D01*
X7589Y300D01*
X7602Y327D02*
Y353D01*
Y340D01*
X7523D01*
X7536Y327D01*
Y393D02*
X7523Y407D01*
Y433D01*
X7536Y447D01*
X7549D01*
X7562Y433D01*
Y420D01*
Y433D01*
X7576Y447D01*
X7589D01*
X7602Y433D01*
Y407D01*
X7589Y393D01*
X7536Y473D02*
X7523Y487D01*
Y513D01*
X7536Y527D01*
X7549D01*
X7562Y513D01*
Y500D01*
Y513D01*
X7576Y527D01*
X7589D01*
X7602Y513D01*
Y487D01*
X7589Y473D01*
X7786Y313D02*
X7773Y300D01*
Y273D01*
X7786Y260D01*
X7839D01*
X7852Y273D01*
Y300D01*
X7839Y313D01*
X7852Y340D02*
Y367D01*
Y353D01*
X7773D01*
X7786Y340D01*
Y407D02*
X7773Y420D01*
Y447D01*
X7786Y460D01*
X7799D01*
X7812Y447D01*
Y433D01*
Y447D01*
X7826Y460D01*
X7839D01*
X7852Y447D01*
Y420D01*
X7839Y407D01*
X7852Y540D02*
Y487D01*
X7799Y540D01*
X7786D01*
X7773Y527D01*
Y500D01*
X7786Y487D01*
X8036Y739D02*
X8023Y726D01*
Y699D01*
X8036Y686D01*
X8089D01*
X8102Y699D01*
Y726D01*
X8089Y739D01*
X8102Y766D02*
Y793D01*
Y779D01*
X8023D01*
X8036Y766D01*
Y832D02*
X8023Y846D01*
Y872D01*
X8036Y886D01*
X8049D01*
X8062Y872D01*
Y859D01*
Y872D01*
X8076Y886D01*
X8089D01*
X8102Y872D01*
Y846D01*
X8089Y832D01*
X8102Y912D02*
Y939D01*
Y926D01*
X8023D01*
X8036Y912D01*
X4509Y7714D02*
X4496Y7727D01*
X4469D01*
X4456Y7714D01*
Y7661D01*
X4469Y7648D01*
X4496D01*
X4509Y7661D01*
X4536D02*
X4549Y7648D01*
X4576D01*
X4589Y7661D01*
Y7714D01*
X4576Y7727D01*
X4549D01*
X4536Y7714D01*
Y7701D01*
X4549Y7688D01*
X4589D01*
X4616Y7727D02*
X4669D01*
Y7714D01*
X4616Y7661D01*
Y7648D01*
X2463Y6964D02*
X2450Y6977D01*
X2423D01*
X2410Y6964D01*
Y6911D01*
X2423Y6898D01*
X2450D01*
X2463Y6911D01*
X2490Y6898D02*
X2517D01*
X2503D01*
Y6977D01*
X2490Y6964D01*
X2610Y6898D02*
X2557D01*
X2610Y6951D01*
Y6964D01*
X2597Y6977D01*
X2570D01*
X2557Y6964D01*
X2637Y6911D02*
X2650Y6898D01*
X2677D01*
X2690Y6911D01*
Y6964D01*
X2677Y6977D01*
X2650D01*
X2637Y6964D01*
Y6951D01*
X2650Y6938D01*
X2690D01*
X938Y6964D02*
X925Y6977D01*
X898D01*
X885Y6964D01*
Y6911D01*
X898Y6898D01*
X925D01*
X938Y6911D01*
X965Y6898D02*
X992D01*
X978D01*
Y6977D01*
X965Y6964D01*
X1085Y6898D02*
X1032D01*
X1085Y6951D01*
Y6964D01*
X1072Y6977D01*
X1045D01*
X1032Y6964D01*
X1112D02*
X1125Y6977D01*
X1152D01*
X1165Y6964D01*
Y6951D01*
X1152Y6938D01*
X1165Y6924D01*
Y6911D01*
X1152Y6898D01*
X1125D01*
X1112Y6911D01*
Y6924D01*
X1125Y6938D01*
X1112Y6951D01*
Y6964D01*
X1125Y6938D02*
X1152D01*
X3026Y9214D02*
X3013Y9227D01*
X2986D01*
X2973Y9214D01*
Y9161D01*
X2986Y9148D01*
X3013D01*
X3026Y9161D01*
X3053Y9148D02*
X3079D01*
X3066D01*
Y9227D01*
X3053Y9214D01*
X3119D02*
X3132Y9227D01*
X3159D01*
X3172Y9214D01*
Y9161D01*
X3159Y9148D01*
X3132D01*
X3119Y9161D01*
Y9214D01*
X3199Y9161D02*
X3212Y9148D01*
X3239D01*
X3252Y9161D01*
Y9214D01*
X3239Y9227D01*
X3212D01*
X3199Y9214D01*
Y9201D01*
X3212Y9188D01*
X3252D01*
X3013Y9952D02*
X3000Y9965D01*
X2973D01*
X2960Y9952D01*
Y9898D01*
X2973Y9885D01*
X3000D01*
X3013Y9898D01*
X3040Y9885D02*
X3067D01*
X3053D01*
Y9965D01*
X3040Y9952D01*
X3107D02*
X3120Y9965D01*
X3147D01*
X3160Y9952D01*
Y9898D01*
X3147Y9885D01*
X3120D01*
X3107Y9898D01*
Y9952D01*
X3187D02*
X3200Y9965D01*
X3227D01*
X3240Y9952D01*
Y9938D01*
X3227Y9925D01*
X3240Y9912D01*
Y9898D01*
X3227Y9885D01*
X3200D01*
X3187Y9898D01*
Y9912D01*
X3200Y9925D01*
X3187Y9938D01*
Y9952D01*
X3200Y9925D02*
X3227D01*
X4476Y8464D02*
X4463Y8477D01*
X4436D01*
X4423Y8464D01*
Y8411D01*
X4436Y8398D01*
X4463D01*
X4476Y8411D01*
X4503Y8398D02*
X4529D01*
X4516D01*
Y8477D01*
X4503Y8464D01*
X4569D02*
X4582Y8477D01*
X4609D01*
X4622Y8464D01*
Y8411D01*
X4609Y8398D01*
X4582D01*
X4569Y8411D01*
Y8464D01*
X4649D02*
X4662Y8477D01*
X4689D01*
X4702Y8464D01*
Y8411D01*
X4689Y8398D01*
X4662D01*
X4649Y8411D01*
Y8464D01*
X4609Y2564D02*
X4596Y2577D01*
X4569D01*
X4556Y2564D01*
Y2511D01*
X4569Y2498D01*
X4596D01*
X4609Y2511D01*
X4636D02*
X4649Y2498D01*
X4676D01*
X4689Y2511D01*
Y2564D01*
X4676Y2577D01*
X4649D01*
X4636Y2564D01*
Y2551D01*
X4649Y2538D01*
X4689D01*
X4716Y2511D02*
X4729Y2498D01*
X4756D01*
X4769Y2511D01*
Y2564D01*
X4756Y2577D01*
X4729D01*
X4716Y2564D01*
Y2551D01*
X4729Y2538D01*
X4769D01*
X3059Y8464D02*
X3046Y8477D01*
X3019D01*
X3006Y8464D01*
Y8411D01*
X3019Y8398D01*
X3046D01*
X3059Y8411D01*
X3086Y8464D02*
X3099Y8477D01*
X3126D01*
X3139Y8464D01*
Y8451D01*
X3126Y8438D01*
X3139Y8424D01*
Y8411D01*
X3126Y8398D01*
X3099D01*
X3086Y8411D01*
Y8424D01*
X3099Y8438D01*
X3086Y8451D01*
Y8464D01*
X3099Y8438D02*
X3126D01*
X3166Y8477D02*
X3219D01*
Y8464D01*
X3166Y8411D01*
Y8398D01*
X4509Y9214D02*
X4496Y9227D01*
X4469D01*
X4456Y9214D01*
Y9161D01*
X4469Y9148D01*
X4496D01*
X4509Y9161D01*
X4536Y9214D02*
X4549Y9227D01*
X4576D01*
X4589Y9214D01*
Y9201D01*
X4576Y9188D01*
X4589Y9174D01*
Y9161D01*
X4576Y9148D01*
X4549D01*
X4536Y9161D01*
Y9174D01*
X4549Y9188D01*
X4536Y9201D01*
Y9214D01*
X4549Y9188D02*
X4576D01*
X4669Y9227D02*
X4642Y9214D01*
X4616Y9188D01*
Y9161D01*
X4629Y9148D01*
X4656D01*
X4669Y9161D01*
Y9174D01*
X4656Y9188D01*
X4616D01*
X4597Y3214D02*
X4583Y3227D01*
X4557D01*
X4543Y3214D01*
Y3161D01*
X4557Y3148D01*
X4583D01*
X4597Y3161D01*
X4623Y3214D02*
X4637Y3227D01*
X4663D01*
X4677Y3214D01*
Y3201D01*
X4663Y3188D01*
X4677Y3174D01*
Y3161D01*
X4663Y3148D01*
X4637D01*
X4623Y3161D01*
Y3174D01*
X4637Y3188D01*
X4623Y3201D01*
Y3214D01*
X4637Y3188D02*
X4663D01*
X4757Y3227D02*
X4703D01*
Y3188D01*
X4730Y3201D01*
X4743D01*
X4757Y3188D01*
Y3161D01*
X4743Y3148D01*
X4717D01*
X4703Y3161D01*
X1484Y6952D02*
X1471Y6965D01*
X1444D01*
X1431Y6952D01*
Y6898D01*
X1444Y6885D01*
X1471D01*
X1484Y6898D01*
X1511Y6952D02*
X1524Y6965D01*
X1551D01*
X1564Y6952D01*
Y6938D01*
X1551Y6925D01*
X1564Y6912D01*
Y6898D01*
X1551Y6885D01*
X1524D01*
X1511Y6898D01*
Y6912D01*
X1524Y6925D01*
X1511Y6938D01*
Y6952D01*
X1524Y6925D02*
X1551D01*
X1591Y6952D02*
X1604Y6965D01*
X1631D01*
X1644Y6952D01*
Y6898D01*
X1631Y6885D01*
X1604D01*
X1591Y6898D01*
Y6952D01*
X1984Y6964D02*
X1971Y6977D01*
X1944D01*
X1931Y6964D01*
Y6911D01*
X1944Y6898D01*
X1971D01*
X1984Y6911D01*
X2011Y6977D02*
X2064D01*
Y6964D01*
X2011Y6911D01*
Y6898D01*
X2091Y6911D02*
X2104Y6898D01*
X2131D01*
X2144Y6911D01*
Y6964D01*
X2131Y6977D01*
X2104D01*
X2091Y6964D01*
Y6951D01*
X2104Y6938D01*
X2144D01*
X3197Y3777D02*
X3183Y3790D01*
X3157D01*
X3143Y3777D01*
Y3723D01*
X3157Y3710D01*
X3183D01*
X3197Y3723D01*
X3223Y3790D02*
X3277D01*
Y3777D01*
X3223Y3723D01*
Y3710D01*
X3303Y3777D02*
X3317Y3790D01*
X3343D01*
X3357Y3777D01*
Y3763D01*
X3343Y3750D01*
X3357Y3737D01*
Y3723D01*
X3343Y3710D01*
X3317D01*
X3303Y3723D01*
Y3737D01*
X3317Y3750D01*
X3303Y3763D01*
Y3777D01*
X3317Y3750D02*
X3343D01*
X4448Y1839D02*
X4434Y1852D01*
X4408D01*
X4394Y1839D01*
Y1786D01*
X4408Y1773D01*
X4434D01*
X4448Y1786D01*
X4474Y1852D02*
X4527D01*
Y1839D01*
X4474Y1786D01*
Y1773D01*
X4554D02*
X4581D01*
X4567D01*
Y1852D01*
X4554Y1839D01*
X4722D02*
X4708Y1852D01*
X4682D01*
X4668Y1839D01*
Y1786D01*
X4682Y1773D01*
X4708D01*
X4722Y1786D01*
X4748Y1852D02*
X4802D01*
Y1839D01*
X4748Y1786D01*
Y1773D01*
X4828Y1839D02*
X4842Y1852D01*
X4868D01*
X4882Y1839D01*
Y1786D01*
X4868Y1773D01*
X4842D01*
X4828Y1786D01*
Y1839D01*
X1059Y3289D02*
X1046Y3302D01*
X1019D01*
X1006Y3289D01*
Y3236D01*
X1019Y3223D01*
X1046D01*
X1059Y3236D01*
X1139Y3302D02*
X1112Y3289D01*
X1086Y3262D01*
Y3236D01*
X1099Y3223D01*
X1126D01*
X1139Y3236D01*
Y3249D01*
X1126Y3262D01*
X1086D01*
X1166Y3302D02*
X1219D01*
Y3289D01*
X1166Y3236D01*
Y3223D01*
X4997Y1839D02*
X4983Y1852D01*
X4957D01*
X4943Y1839D01*
Y1786D01*
X4957Y1773D01*
X4983D01*
X4997Y1786D01*
X5077Y1852D02*
X5050Y1839D01*
X5023Y1812D01*
Y1786D01*
X5037Y1773D01*
X5063D01*
X5077Y1786D01*
Y1799D01*
X5063Y1812D01*
X5023D01*
X5157Y1852D02*
X5103D01*
Y1812D01*
X5130Y1826D01*
X5143D01*
X5157Y1812D01*
Y1786D01*
X5143Y1773D01*
X5117D01*
X5103Y1786D01*
X3609Y1839D02*
X3596Y1852D01*
X3569D01*
X3556Y1839D01*
Y1786D01*
X3569Y1773D01*
X3596D01*
X3609Y1786D01*
X3689Y1852D02*
X3662Y1839D01*
X3636Y1812D01*
Y1786D01*
X3649Y1773D01*
X3676D01*
X3689Y1786D01*
Y1799D01*
X3676Y1812D01*
X3636D01*
X3769Y1852D02*
X3742Y1839D01*
X3716Y1812D01*
Y1786D01*
X3729Y1773D01*
X3756D01*
X3769Y1786D01*
Y1799D01*
X3756Y1812D01*
X3716D01*
X1322Y3289D02*
X1308Y3302D01*
X1282D01*
X1268Y3289D01*
Y3236D01*
X1282Y3223D01*
X1308D01*
X1322Y3236D01*
X1402Y3302D02*
X1375Y3289D01*
X1348Y3262D01*
Y3236D01*
X1362Y3223D01*
X1388D01*
X1402Y3236D01*
Y3249D01*
X1388Y3262D01*
X1348D01*
X1468Y3223D02*
Y3302D01*
X1428Y3262D01*
X1482D01*
X3884Y1839D02*
X3871Y1852D01*
X3844D01*
X3831Y1839D01*
Y1786D01*
X3844Y1773D01*
X3871D01*
X3884Y1786D01*
X3964Y1852D02*
X3938Y1839D01*
X3911Y1812D01*
Y1786D01*
X3924Y1773D01*
X3951D01*
X3964Y1786D01*
Y1799D01*
X3951Y1812D01*
X3911D01*
X3991Y1839D02*
X4004Y1852D01*
X4031D01*
X4044Y1839D01*
Y1826D01*
X4031Y1812D01*
X4017D01*
X4031D01*
X4044Y1799D01*
Y1786D01*
X4031Y1773D01*
X4004D01*
X3991Y1786D01*
X4159Y1839D02*
X4146Y1852D01*
X4119D01*
X4106Y1839D01*
Y1786D01*
X4119Y1773D01*
X4146D01*
X4159Y1786D01*
X4239Y1852D02*
X4212Y1839D01*
X4186Y1812D01*
Y1786D01*
X4199Y1773D01*
X4226D01*
X4239Y1786D01*
Y1799D01*
X4226Y1812D01*
X4186D01*
X4319Y1773D02*
X4266D01*
X4319Y1826D01*
Y1839D01*
X4306Y1852D01*
X4279D01*
X4266Y1839D01*
X1585Y3152D02*
X1572Y3165D01*
X1545D01*
X1532Y3152D01*
Y3098D01*
X1545Y3085D01*
X1572D01*
X1585Y3098D01*
X1665Y3165D02*
X1638Y3152D01*
X1612Y3125D01*
Y3098D01*
X1625Y3085D01*
X1652D01*
X1665Y3098D01*
Y3112D01*
X1652Y3125D01*
X1612D01*
X1692Y3085D02*
X1718D01*
X1705D01*
Y3165D01*
X1692Y3152D01*
X2284Y4027D02*
X2271Y4040D01*
X2244D01*
X2231Y4027D01*
Y3973D01*
X2244Y3960D01*
X2271D01*
X2284Y3973D01*
X2364Y4040D02*
X2311D01*
Y4000D01*
X2338Y4013D01*
X2351D01*
X2364Y4000D01*
Y3973D01*
X2351Y3960D01*
X2324D01*
X2311Y3973D01*
X2391D02*
X2404Y3960D01*
X2431D01*
X2444Y3973D01*
Y4027D01*
X2431Y4040D01*
X2404D01*
X2391Y4027D01*
Y4013D01*
X2404Y4000D01*
X2444D01*
X2797Y4027D02*
X2783Y4040D01*
X2757D01*
X2743Y4027D01*
Y3973D01*
X2757Y3960D01*
X2783D01*
X2797Y3973D01*
X2877Y4040D02*
X2823D01*
Y4000D01*
X2850Y4013D01*
X2863D01*
X2877Y4000D01*
Y3973D01*
X2863Y3960D01*
X2837D01*
X2823Y3973D01*
X2903Y4040D02*
X2957D01*
Y4027D01*
X2903Y3973D01*
Y3960D01*
X8411Y8709D02*
X8398Y8696D01*
Y8669D01*
X8411Y8656D01*
X8464D01*
X8477Y8669D01*
Y8696D01*
X8464Y8709D01*
X8398Y8789D02*
Y8736D01*
X8438D01*
X8424Y8762D01*
Y8776D01*
X8438Y8789D01*
X8464D01*
X8477Y8776D01*
Y8749D01*
X8464Y8736D01*
X8398Y8869D02*
X8411Y8842D01*
X8438Y8816D01*
X8464D01*
X8477Y8829D01*
Y8856D01*
X8464Y8869D01*
X8451D01*
X8438Y8856D01*
Y8816D01*
X8411Y8984D02*
X8398Y8971D01*
Y8944D01*
X8411Y8931D01*
X8464D01*
X8477Y8944D01*
Y8971D01*
X8464Y8984D01*
X8398Y9064D02*
Y9011D01*
X8438D01*
X8424Y9038D01*
Y9051D01*
X8438Y9064D01*
X8464D01*
X8477Y9051D01*
Y9024D01*
X8464Y9011D01*
X8398Y9144D02*
Y9091D01*
X8438D01*
X8424Y9117D01*
Y9131D01*
X8438Y9144D01*
X8464D01*
X8477Y9131D01*
Y9104D01*
X8464Y9091D01*
X8411Y8159D02*
X8398Y8146D01*
Y8119D01*
X8411Y8106D01*
X8464D01*
X8477Y8119D01*
Y8146D01*
X8464Y8159D01*
X8398Y8239D02*
Y8186D01*
X8438D01*
X8424Y8212D01*
Y8226D01*
X8438Y8239D01*
X8464D01*
X8477Y8226D01*
Y8199D01*
X8464Y8186D01*
X8477Y8306D02*
X8398D01*
X8438Y8266D01*
Y8319D01*
X8411Y8434D02*
X8398Y8421D01*
Y8394D01*
X8411Y8381D01*
X8464D01*
X8477Y8394D01*
Y8421D01*
X8464Y8434D01*
X8398Y8514D02*
Y8461D01*
X8438D01*
X8424Y8488D01*
Y8501D01*
X8438Y8514D01*
X8464D01*
X8477Y8501D01*
Y8474D01*
X8464Y8461D01*
X8411Y8541D02*
X8398Y8554D01*
Y8581D01*
X8411Y8594D01*
X8424D01*
X8438Y8581D01*
Y8567D01*
Y8581D01*
X8451Y8594D01*
X8464D01*
X8477Y8581D01*
Y8554D01*
X8464Y8541D01*
X7172Y9227D02*
X7158Y9240D01*
X7132D01*
X7118Y9227D01*
Y9173D01*
X7132Y9160D01*
X7158D01*
X7172Y9173D01*
X7252Y9240D02*
X7198D01*
Y9200D01*
X7225Y9213D01*
X7238D01*
X7252Y9200D01*
Y9173D01*
X7238Y9160D01*
X7212D01*
X7198Y9173D01*
X7332Y9160D02*
X7278D01*
X7332Y9213D01*
Y9227D01*
X7318Y9240D01*
X7292D01*
X7278Y9227D01*
X5797Y9014D02*
X5783Y9027D01*
X5757D01*
X5743Y9014D01*
Y8961D01*
X5757Y8948D01*
X5783D01*
X5797Y8961D01*
X5863Y8948D02*
Y9027D01*
X5823Y8988D01*
X5877D01*
X5957Y9027D02*
X5930Y9014D01*
X5903Y8988D01*
Y8961D01*
X5917Y8948D01*
X5943D01*
X5957Y8961D01*
Y8974D01*
X5943Y8988D01*
X5903D01*
X7097Y5739D02*
X7083Y5752D01*
X7057D01*
X7043Y5739D01*
Y5686D01*
X7057Y5673D01*
X7083D01*
X7097Y5686D01*
X7163Y5673D02*
Y5752D01*
X7123Y5712D01*
X7177D01*
X7257Y5752D02*
X7203D01*
Y5712D01*
X7230Y5726D01*
X7243D01*
X7257Y5712D01*
Y5686D01*
X7243Y5673D01*
X7217D01*
X7203Y5686D01*
X5009Y9577D02*
X4996Y9590D01*
X4969D01*
X4956Y9577D01*
Y9523D01*
X4969Y9510D01*
X4996D01*
X5009Y9523D01*
X5076Y9510D02*
Y9590D01*
X5036Y9550D01*
X5089D01*
X5116Y9577D02*
X5129Y9590D01*
X5156D01*
X5169Y9577D01*
Y9563D01*
X5156Y9550D01*
X5142D01*
X5156D01*
X5169Y9537D01*
Y9523D01*
X5156Y9510D01*
X5129D01*
X5116Y9523D01*
X5797Y8864D02*
X5783Y8877D01*
X5757D01*
X5743Y8864D01*
Y8811D01*
X5757Y8798D01*
X5783D01*
X5797Y8811D01*
X5863Y8798D02*
Y8877D01*
X5823Y8838D01*
X5877D01*
X5903Y8798D02*
X5930D01*
X5917D01*
Y8877D01*
X5903Y8864D01*
X6334Y5952D02*
X6321Y5965D01*
X6294D01*
X6281Y5952D01*
Y5898D01*
X6294Y5885D01*
X6321D01*
X6334Y5898D01*
X6401Y5885D02*
Y5965D01*
X6361Y5925D01*
X6414D01*
X6441Y5952D02*
X6454Y5965D01*
X6481D01*
X6494Y5952D01*
Y5898D01*
X6481Y5885D01*
X6454D01*
X6441Y5898D01*
Y5952D01*
X7097Y5914D02*
X7083Y5927D01*
X7057D01*
X7043Y5914D01*
Y5861D01*
X7057Y5848D01*
X7083D01*
X7097Y5861D01*
X7123Y5914D02*
X7137Y5927D01*
X7163D01*
X7177Y5914D01*
Y5901D01*
X7163Y5888D01*
X7150D01*
X7163D01*
X7177Y5874D01*
Y5861D01*
X7163Y5848D01*
X7137D01*
X7123Y5861D01*
X7203D02*
X7217Y5848D01*
X7243D01*
X7257Y5861D01*
Y5914D01*
X7243Y5927D01*
X7217D01*
X7203Y5914D01*
Y5901D01*
X7217Y5888D01*
X7257D01*
X6334Y6514D02*
X6321Y6527D01*
X6294D01*
X6281Y6514D01*
Y6461D01*
X6294Y6448D01*
X6321D01*
X6334Y6461D01*
X6361Y6514D02*
X6374Y6527D01*
X6401D01*
X6414Y6514D01*
Y6501D01*
X6401Y6488D01*
X6388D01*
X6401D01*
X6414Y6474D01*
Y6461D01*
X6401Y6448D01*
X6374D01*
X6361Y6461D01*
X6441Y6514D02*
X6454Y6527D01*
X6481D01*
X6494Y6514D01*
Y6501D01*
X6481Y6488D01*
X6494Y6474D01*
Y6461D01*
X6481Y6448D01*
X6454D01*
X6441Y6461D01*
Y6474D01*
X6454Y6488D01*
X6441Y6501D01*
Y6514D01*
X6454Y6488D02*
X6481D01*
X7097Y6564D02*
X7083Y6577D01*
X7057D01*
X7043Y6564D01*
Y6511D01*
X7057Y6498D01*
X7083D01*
X7097Y6511D01*
X7123Y6564D02*
X7137Y6577D01*
X7163D01*
X7177Y6564D01*
Y6551D01*
X7163Y6538D01*
X7150D01*
X7163D01*
X7177Y6524D01*
Y6511D01*
X7163Y6498D01*
X7137D01*
X7123Y6511D01*
X7203Y6577D02*
X7257D01*
Y6564D01*
X7203Y6511D01*
Y6498D01*
X6334Y7077D02*
X6321Y7090D01*
X6294D01*
X6281Y7077D01*
Y7023D01*
X6294Y7010D01*
X6321D01*
X6334Y7023D01*
X6361Y7077D02*
X6374Y7090D01*
X6401D01*
X6414Y7077D01*
Y7063D01*
X6401Y7050D01*
X6388D01*
X6401D01*
X6414Y7037D01*
Y7023D01*
X6401Y7010D01*
X6374D01*
X6361Y7023D01*
X6494Y7090D02*
X6467Y7077D01*
X6441Y7050D01*
Y7023D01*
X6454Y7010D01*
X6481D01*
X6494Y7023D01*
Y7037D01*
X6481Y7050D01*
X6441D01*
X6848Y6672D02*
X6835Y6658D01*
Y6632D01*
X6848Y6618D01*
X6902D01*
X6915Y6632D01*
Y6658D01*
X6902Y6672D01*
X6848Y6698D02*
X6835Y6712D01*
Y6738D01*
X6848Y6752D01*
X6862D01*
X6875Y6738D01*
Y6725D01*
Y6738D01*
X6888Y6752D01*
X6902D01*
X6915Y6738D01*
Y6712D01*
X6902Y6698D01*
X6835Y6832D02*
Y6778D01*
X6875D01*
X6862Y6805D01*
Y6818D01*
X6875Y6832D01*
X6902D01*
X6915Y6818D01*
Y6792D01*
X6902Y6778D01*
X5909Y7627D02*
X5896Y7640D01*
X5869D01*
X5856Y7627D01*
Y7573D01*
X5869Y7560D01*
X5896D01*
X5909Y7573D01*
X5936Y7627D02*
X5949Y7640D01*
X5976D01*
X5989Y7627D01*
Y7613D01*
X5976Y7600D01*
X5962D01*
X5976D01*
X5989Y7587D01*
Y7573D01*
X5976Y7560D01*
X5949D01*
X5936Y7573D01*
X6056Y7560D02*
Y7640D01*
X6016Y7600D01*
X6069D01*
X6198Y3972D02*
X6185Y3958D01*
Y3932D01*
X6198Y3918D01*
X6252D01*
X6265Y3932D01*
Y3958D01*
X6252Y3972D01*
X6198Y3998D02*
X6185Y4012D01*
Y4038D01*
X6198Y4052D01*
X6212D01*
X6225Y4038D01*
Y4025D01*
Y4038D01*
X6238Y4052D01*
X6252D01*
X6265Y4038D01*
Y4012D01*
X6252Y3998D01*
X6198Y4078D02*
X6185Y4092D01*
Y4118D01*
X6198Y4132D01*
X6212D01*
X6225Y4118D01*
Y4105D01*
Y4118D01*
X6238Y4132D01*
X6252D01*
X6265Y4118D01*
Y4092D01*
X6252Y4078D01*
X6209Y3789D02*
X6196Y3802D01*
X6169D01*
X6156Y3789D01*
Y3736D01*
X6169Y3723D01*
X6196D01*
X6209Y3736D01*
X6236Y3789D02*
X6249Y3802D01*
X6276D01*
X6289Y3789D01*
Y3776D01*
X6276Y3762D01*
X6262D01*
X6276D01*
X6289Y3749D01*
Y3736D01*
X6276Y3723D01*
X6249D01*
X6236Y3736D01*
X6369Y3723D02*
X6316D01*
X6369Y3776D01*
Y3789D01*
X6356Y3802D01*
X6329D01*
X6316Y3789D01*
X6598D02*
X6584Y3802D01*
X6558D01*
X6544Y3789D01*
Y3736D01*
X6558Y3723D01*
X6584D01*
X6598Y3736D01*
X6624Y3789D02*
X6638Y3802D01*
X6664D01*
X6677Y3789D01*
Y3776D01*
X6664Y3762D01*
X6651D01*
X6664D01*
X6677Y3749D01*
Y3736D01*
X6664Y3723D01*
X6638D01*
X6624Y3736D01*
X6704Y3723D02*
X6731D01*
X6717D01*
Y3802D01*
X6704Y3789D01*
X6659Y5314D02*
X6646Y5327D01*
X6619D01*
X6606Y5314D01*
Y5261D01*
X6619Y5248D01*
X6646D01*
X6659Y5261D01*
X6686Y5314D02*
X6699Y5327D01*
X6726D01*
X6739Y5314D01*
Y5301D01*
X6726Y5288D01*
X6712D01*
X6726D01*
X6739Y5274D01*
Y5261D01*
X6726Y5248D01*
X6699D01*
X6686Y5261D01*
X6766Y5314D02*
X6779Y5327D01*
X6806D01*
X6819Y5314D01*
Y5261D01*
X6806Y5248D01*
X6779D01*
X6766Y5261D01*
Y5314D01*
X4884Y3902D02*
X4871Y3915D01*
X4844D01*
X4831Y3902D01*
Y3848D01*
X4844Y3835D01*
X4871D01*
X4884Y3848D01*
X4964Y3835D02*
X4911D01*
X4964Y3888D01*
Y3902D01*
X4951Y3915D01*
X4924D01*
X4911Y3902D01*
X4991Y3848D02*
X5004Y3835D01*
X5031D01*
X5044Y3848D01*
Y3902D01*
X5031Y3915D01*
X5004D01*
X4991Y3902D01*
Y3888D01*
X5004Y3875D01*
X5044D01*
X7097Y3752D02*
X7083Y3765D01*
X7057D01*
X7043Y3752D01*
Y3698D01*
X7057Y3685D01*
X7083D01*
X7097Y3698D01*
X7177Y3685D02*
X7123D01*
X7177Y3738D01*
Y3752D01*
X7163Y3765D01*
X7137D01*
X7123Y3752D01*
X7257Y3765D02*
X7230Y3752D01*
X7203Y3725D01*
Y3698D01*
X7217Y3685D01*
X7243D01*
X7257Y3698D01*
Y3712D01*
X7243Y3725D01*
X7203D01*
X4973Y2472D02*
X4960Y2458D01*
Y2432D01*
X4973Y2418D01*
X5027D01*
X5040Y2432D01*
Y2458D01*
X5027Y2472D01*
X5040Y2552D02*
Y2498D01*
X4987Y2552D01*
X4973D01*
X4960Y2538D01*
Y2512D01*
X4973Y2498D01*
X4960Y2632D02*
Y2578D01*
X5000D01*
X4987Y2605D01*
Y2618D01*
X5000Y2632D01*
X5027D01*
X5040Y2618D01*
Y2592D01*
X5027Y2578D01*
X5834Y2764D02*
X5821Y2777D01*
X5794D01*
X5781Y2764D01*
Y2711D01*
X5794Y2698D01*
X5821D01*
X5834Y2711D01*
X5914Y2698D02*
X5861D01*
X5914Y2751D01*
Y2764D01*
X5901Y2777D01*
X5874D01*
X5861Y2764D01*
X5941D02*
X5954Y2777D01*
X5981D01*
X5994Y2764D01*
Y2751D01*
X5981Y2738D01*
X5994Y2724D01*
Y2711D01*
X5981Y2698D01*
X5954D01*
X5941Y2711D01*
Y2724D01*
X5954Y2738D01*
X5941Y2751D01*
Y2764D01*
X5954Y2738D02*
X5981D01*
X7097Y3102D02*
X7083Y3115D01*
X7057D01*
X7043Y3102D01*
Y3048D01*
X7057Y3035D01*
X7083D01*
X7097Y3048D01*
X7177Y3035D02*
X7123D01*
X7177Y3088D01*
Y3102D01*
X7163Y3115D01*
X7137D01*
X7123Y3102D01*
X7257Y3035D02*
X7203D01*
X7257Y3088D01*
Y3102D01*
X7243Y3115D01*
X7217D01*
X7203Y3102D01*
X4273Y3852D02*
X4259Y3865D01*
X4233D01*
X4219Y3852D01*
Y3798D01*
X4233Y3785D01*
X4259D01*
X4273Y3798D01*
X4352Y3785D02*
X4299D01*
X4352Y3838D01*
Y3852D01*
X4339Y3865D01*
X4312D01*
X4299Y3852D01*
X4379Y3785D02*
X4406D01*
X4392D01*
Y3865D01*
X4379Y3852D01*
X6841Y3102D02*
X6828Y3115D01*
X6801D01*
X6788Y3102D01*
Y3048D01*
X6801Y3035D01*
X6828D01*
X6841Y3048D01*
X6868Y3035D02*
X6894D01*
X6881D01*
Y3115D01*
X6868Y3102D01*
X6934Y3048D02*
X6947Y3035D01*
X6974D01*
X6987Y3048D01*
Y3102D01*
X6974Y3115D01*
X6947D01*
X6934Y3102D01*
Y3088D01*
X6947Y3075D01*
X6987D01*
X6448Y1666D02*
X6435Y1653D01*
Y1626D01*
X6448Y1613D01*
X6502D01*
X6515Y1626D01*
Y1653D01*
X6502Y1666D01*
X6515Y1693D02*
Y1719D01*
Y1706D01*
X6435D01*
X6448Y1693D01*
X6435Y1812D02*
X6448Y1786D01*
X6475Y1759D01*
X6502D01*
X6515Y1772D01*
Y1799D01*
X6502Y1812D01*
X6488D01*
X6475Y1799D01*
Y1759D01*
X6363Y727D02*
X6350Y740D01*
X6323D01*
X6310Y727D01*
Y673D01*
X6323Y660D01*
X6350D01*
X6363Y673D01*
X6390Y660D02*
X6417D01*
X6403D01*
Y740D01*
X6390Y727D01*
X6510Y740D02*
X6457D01*
Y700D01*
X6483Y713D01*
X6497D01*
X6510Y700D01*
Y673D01*
X6497Y660D01*
X6470D01*
X6457Y673D01*
X6448Y1403D02*
X6435Y1390D01*
Y1363D01*
X6448Y1350D01*
X6502D01*
X6515Y1363D01*
Y1390D01*
X6502Y1403D01*
X6515Y1430D02*
Y1457D01*
Y1443D01*
X6435D01*
X6448Y1430D01*
X6515Y1537D02*
X6435D01*
X6475Y1497D01*
Y1550D01*
X6341Y3089D02*
X6328Y3102D01*
X6301D01*
X6288Y3089D01*
Y3036D01*
X6301Y3023D01*
X6328D01*
X6341Y3036D01*
X6368Y3023D02*
X6394D01*
X6381D01*
Y3102D01*
X6368Y3089D01*
X6487Y3023D02*
X6434D01*
X6487Y3076D01*
Y3089D01*
X6474Y3102D01*
X6447D01*
X6434Y3089D01*
X6363Y977D02*
X6350Y990D01*
X6323D01*
X6310Y977D01*
Y923D01*
X6323Y910D01*
X6350D01*
X6363Y923D01*
X6390Y910D02*
X6417D01*
X6403D01*
Y990D01*
X6390Y977D01*
X6457D02*
X6470Y990D01*
X6497D01*
X6510Y977D01*
Y963D01*
X6497Y950D01*
X6483D01*
X6497D01*
X6510Y937D01*
Y923D01*
X6497Y910D01*
X6470D01*
X6457Y923D01*
X6104Y3089D02*
X6091Y3102D01*
X6064D01*
X6051Y3089D01*
Y3036D01*
X6064Y3023D01*
X6091D01*
X6104Y3036D01*
X6131Y3023D02*
X6157D01*
X6144D01*
Y3102D01*
X6131Y3089D01*
X6197Y3023D02*
X6224D01*
X6211D01*
Y3102D01*
X6197Y3089D01*
X2786Y6424D02*
X2773Y6411D01*
Y6384D01*
X2786Y6371D01*
X2839D01*
X2852Y6384D01*
Y6411D01*
X2839Y6424D01*
X2786Y6451D02*
X2773Y6464D01*
Y6491D01*
X2786Y6504D01*
X2799D01*
X2812Y6491D01*
X2826Y6504D01*
X2839D01*
X2852Y6491D01*
Y6464D01*
X2839Y6451D01*
X2826D01*
X2812Y6464D01*
X2799Y6451D01*
X2786D01*
X2812Y6464D02*
Y6491D01*
X2786Y6687D02*
X2773Y6673D01*
Y6647D01*
X2786Y6633D01*
X2839D01*
X2852Y6647D01*
Y6673D01*
X2839Y6687D01*
X2773Y6713D02*
Y6767D01*
X2786D01*
X2839Y6713D01*
X2852D01*
X1824Y4027D02*
X1811Y4040D01*
X1784D01*
X1771Y4027D01*
Y3973D01*
X1784Y3960D01*
X1811D01*
X1824Y3973D01*
X1891Y3960D02*
Y4040D01*
X1851Y4000D01*
X1904D01*
X1324Y4027D02*
X1311Y4040D01*
X1284D01*
X1271Y4027D01*
Y3973D01*
X1284Y3960D01*
X1311D01*
X1324Y3973D01*
X1351Y4027D02*
X1364Y4040D01*
X1391D01*
X1404Y4027D01*
Y4013D01*
X1391Y4000D01*
X1377D01*
X1391D01*
X1404Y3987D01*
Y3973D01*
X1391Y3960D01*
X1364D01*
X1351Y3973D01*
X1768Y6340D02*
Y6260D01*
X1808D01*
X1822Y6273D01*
Y6287D01*
X1808Y6300D01*
X1768D01*
X1808D01*
X1822Y6313D01*
Y6327D01*
X1808Y6340D01*
X1768D01*
X1902Y6273D02*
Y6327D01*
X1888Y6340D01*
X1862D01*
X1848Y6327D01*
Y6273D01*
X1862Y6260D01*
X1888D01*
X1875Y6287D02*
X1902Y6260D01*
X1888D02*
X1902Y6273D01*
X1982Y6260D02*
X1928D01*
X1982Y6313D01*
Y6327D01*
X1968Y6340D01*
X1942D01*
X1928Y6327D01*
D19*
X6796Y9438D02*
X6779Y9421D01*
X6745D01*
X6728Y9438D01*
Y9455D01*
X6745Y9472D01*
X6728Y9489D01*
Y9506D01*
X6745Y9522D01*
X6779D01*
X6796Y9506D01*
Y9489D01*
X6779Y9472D01*
X6796Y9455D01*
Y9438D01*
X6779Y9472D02*
X6745D01*
X6796Y9691D02*
X6728D01*
Y9708D01*
X6796Y9776D01*
Y9793D01*
X7906Y9522D02*
X7974D01*
X7906Y9455D01*
Y9438D01*
X7923Y9421D01*
X7957D01*
X7974Y9438D01*
X7944Y9793D02*
X7910D01*
X7927D01*
Y9691D01*
X7944Y9708D01*
M02*
