G04*
G04 #@! TF.GenerationSoftware,Altium Limited,Altium Designer,23.2.1 (34)*
G04*
G04 Layer_Physical_Order=4*
G04 Layer_Color=16711680*
%FSLAX42Y42*%
%MOMM*%
G71*
G04*
G04 #@! TF.SameCoordinates,D42B7736-0A14-4BE5-A4A9-6633498721EE*
G04*
G04*
G04 #@! TF.FilePolarity,Positive*
G04*
G01*
G75*
%ADD10C,0.20*%
%ADD11C,0.25*%
%ADD13C,0.50*%
%ADD69R,2.00X2.00*%
%ADD74R,1.00X1.60*%
%ADD75R,1.00X1.30*%
%ADD76R,1.30X1.00*%
%ADD90R,1.60X1.00*%
%ADD100R,1.30X1.60*%
%ADD101R,1.60X1.30*%
%ADD107C,0.50*%
%ADD108C,0.80*%
%ADD110C,0.35*%
%ADD111C,0.25*%
%ADD112C,0.40*%
%ADD114C,0.70*%
%ADD115R,5.50X5.50*%
%ADD116R,1.50X1.50*%
%ADD117C,1.50*%
%ADD118C,2.00*%
%ADD119C,1.65*%
%ADD120R,1.65X1.65*%
%ADD121R,1.50X1.50*%
%ADD122C,5.50*%
%ADD123C,0.60*%
%ADD124C,4.50*%
G04:AMPARAMS|DCode=125|XSize=0.6mm|YSize=1.7mm|CornerRadius=0.15mm|HoleSize=0mm|Usage=FLASHONLY|Rotation=90.000|XOffset=0mm|YOffset=0mm|HoleType=Round|Shape=RoundedRectangle|*
%AMROUNDEDRECTD125*
21,1,0.60,1.40,0,0,90.0*
21,1,0.30,1.70,0,0,90.0*
1,1,0.30,0.70,0.15*
1,1,0.30,0.70,-0.15*
1,1,0.30,-0.70,-0.15*
1,1,0.30,-0.70,0.15*
%
%ADD125ROUNDEDRECTD125*%
G04:AMPARAMS|DCode=126|XSize=0.6mm|YSize=1.1mm|CornerRadius=0.15mm|HoleSize=0mm|Usage=FLASHONLY|Rotation=90.000|XOffset=0mm|YOffset=0mm|HoleType=Round|Shape=RoundedRectangle|*
%AMROUNDEDRECTD126*
21,1,0.60,0.80,0,0,90.0*
21,1,0.30,1.10,0,0,90.0*
1,1,0.30,0.40,0.15*
1,1,0.30,0.40,-0.15*
1,1,0.30,-0.40,-0.15*
1,1,0.30,-0.40,0.15*
%
%ADD126ROUNDEDRECTD126*%
G04:AMPARAMS|DCode=127|XSize=0.6mm|YSize=1.85mm|CornerRadius=0.15mm|HoleSize=0mm|Usage=FLASHONLY|Rotation=0.000|XOffset=0mm|YOffset=0mm|HoleType=Round|Shape=RoundedRectangle|*
%AMROUNDEDRECTD127*
21,1,0.60,1.55,0,0,0.0*
21,1,0.30,1.85,0,0,0.0*
1,1,0.30,0.15,-0.78*
1,1,0.30,-0.15,-0.78*
1,1,0.30,-0.15,0.78*
1,1,0.30,0.15,0.78*
%
%ADD127ROUNDEDRECTD127*%
%ADD128R,1.20X1.80*%
G04:AMPARAMS|DCode=129|XSize=0.6mm|YSize=1.1mm|CornerRadius=0.15mm|HoleSize=0mm|Usage=FLASHONLY|Rotation=0.000|XOffset=0mm|YOffset=0mm|HoleType=Round|Shape=RoundedRectangle|*
%AMROUNDEDRECTD129*
21,1,0.60,0.80,0,0,0.0*
21,1,0.30,1.10,0,0,0.0*
1,1,0.30,0.15,-0.40*
1,1,0.30,-0.15,-0.40*
1,1,0.30,-0.15,0.40*
1,1,0.30,0.15,0.40*
%
%ADD129ROUNDEDRECTD129*%
%ADD130R,1.00X1.40*%
%ADD131R,1.40X1.00*%
%ADD132C,0.30*%
%ADD133C,0.70*%
G36*
X10000Y0D02*
X0D01*
Y10000D01*
X10000D01*
Y0D01*
D02*
G37*
%LPC*%
G36*
X2805Y9878D02*
X2700D01*
Y9773D01*
X2805D01*
Y9878D01*
D02*
G37*
G36*
X1245D02*
X1140D01*
Y9773D01*
X1245D01*
Y9878D01*
D02*
G37*
G36*
X1090D02*
X985D01*
Y9773D01*
X1090D01*
Y9878D01*
D02*
G37*
G36*
X2650D02*
X2545D01*
Y9773D01*
X2650D01*
Y9878D01*
D02*
G37*
G36*
X7477Y9853D02*
X7448Y9849D01*
X7420Y9838D01*
X7397Y9820D01*
X7379Y9796D01*
X7367Y9769D01*
X7366Y9757D01*
X7365Y9752D01*
X7335D01*
X7334Y9757D01*
X7333Y9769D01*
X7321Y9796D01*
X7303Y9820D01*
X7280Y9838D01*
X7252Y9849D01*
X7223Y9853D01*
X7194Y9849D01*
X7166Y9838D01*
X7143Y9820D01*
X7125Y9796D01*
X7113Y9769D01*
X7112Y9757D01*
X7111Y9752D01*
X7081D01*
X7080Y9757D01*
X7079Y9769D01*
X7067Y9796D01*
X7049Y9820D01*
X7026Y9838D01*
X6998Y9849D01*
X6969Y9853D01*
X6940Y9849D01*
X6912Y9838D01*
X6889Y9820D01*
X6871Y9796D01*
X6859Y9769D01*
X6856Y9739D01*
X6859Y9710D01*
X6871Y9683D01*
X6889Y9659D01*
X6912Y9641D01*
X6940Y9630D01*
X6951Y9628D01*
X6957Y9628D01*
Y9597D01*
X6951Y9597D01*
X6940Y9595D01*
X6912Y9584D01*
X6889Y9566D01*
X6871Y9542D01*
X6859Y9515D01*
X6859Y9511D01*
X6969D01*
Y9486D01*
X6994D01*
Y9375D01*
X6998Y9376D01*
X7026Y9387D01*
X7054Y9371D01*
Y9338D01*
X7058Y9320D01*
X7068Y9305D01*
X7225Y9147D01*
X7213Y9118D01*
X7140D01*
Y9069D01*
X6838D01*
Y9082D01*
X6638D01*
Y8925D01*
Y8893D01*
Y8732D01*
X6838D01*
Y8737D01*
X7139D01*
X7140Y8707D01*
X7140Y8707D01*
Y8665D01*
X7140Y8665D01*
X7140Y8665D01*
Y8543D01*
X7140Y8543D01*
X6860D01*
X6838Y8520D01*
X6638D01*
Y8360D01*
Y8330D01*
Y8170D01*
X6838D01*
Y8183D01*
X6890D01*
Y8132D01*
X7110D01*
Y8183D01*
X7143D01*
Y8147D01*
X7332D01*
Y8307D01*
Y8385D01*
X7352Y8397D01*
X7381Y8398D01*
X7400Y8376D01*
X7400Y8360D01*
X7400D01*
X7400Y8358D01*
Y8307D01*
X7455D01*
Y8382D01*
X7455D01*
X7440Y8412D01*
X7495D01*
X7495Y8412D01*
X7655D01*
Y8612D01*
X7616D01*
Y8707D01*
X7685D01*
Y8897D01*
Y8928D01*
Y9104D01*
X7956D01*
X7994Y9066D01*
X8007Y9040D01*
X7997Y9025D01*
X7994Y9007D01*
Y8853D01*
X7997Y8835D01*
X8007Y8820D01*
X8022Y8810D01*
X8039Y8807D01*
X8069D01*
X8087Y8810D01*
X8102Y8820D01*
X8134D01*
X8149Y8810D01*
X8167Y8807D01*
X8196D01*
X8214Y8810D01*
X8229Y8820D01*
X8261D01*
X8276Y8810D01*
X8293Y8807D01*
X8324D01*
X8341Y8810D01*
X8356Y8820D01*
X8388D01*
X8403Y8810D01*
X8421Y8807D01*
X8450D01*
X8468Y8810D01*
X8483Y8820D01*
X8515D01*
X8530Y8810D01*
X8547Y8807D01*
X8578D01*
X8595Y8810D01*
X8610Y8820D01*
X8642D01*
X8657Y8810D01*
X8675Y8807D01*
X8704D01*
X8722Y8810D01*
X8737Y8820D01*
X8769D01*
X8784Y8810D01*
X8801Y8807D01*
X8832D01*
X8849Y8810D01*
X8861Y8818D01*
X8867Y8820D01*
X8868Y8820D01*
X8895Y8806D01*
Y8776D01*
X8805Y8686D01*
X8412D01*
X8394Y8682D01*
X8378Y8672D01*
X8274Y8568D01*
X8264Y8552D01*
X8260Y8533D01*
Y8474D01*
X8233Y8460D01*
X8232Y8460D01*
X8226Y8462D01*
X8214Y8470D01*
X8196Y8473D01*
X8167D01*
X8149Y8470D01*
X8137Y8462D01*
X8134Y8460D01*
X8102Y8460D01*
X8099Y8462D01*
X8087Y8470D01*
X8079Y8471D01*
Y8350D01*
Y8229D01*
X8087Y8230D01*
X8099Y8238D01*
X8102Y8240D01*
X8134Y8240D01*
X8137Y8238D01*
X8149Y8230D01*
X8167Y8227D01*
X8196D01*
X8214Y8230D01*
X8226Y8238D01*
X8229Y8240D01*
X8261Y8240D01*
X8264Y8238D01*
X8276Y8230D01*
X8293Y8227D01*
X8324D01*
X8341Y8230D01*
X8353Y8238D01*
X8356Y8240D01*
X8388Y8240D01*
X8391Y8238D01*
X8403Y8230D01*
X8411Y8229D01*
Y8350D01*
Y8471D01*
X8403Y8470D01*
X8391Y8462D01*
X8385Y8460D01*
X8384Y8460D01*
X8357Y8474D01*
Y8513D01*
X8433Y8589D01*
X8825D01*
X8844Y8593D01*
X8859Y8603D01*
X8978Y8722D01*
X8978Y8722D01*
X8988Y8737D01*
X8992Y8756D01*
X8992Y8756D01*
Y8822D01*
X9001Y8835D01*
X9004Y8853D01*
Y8882D01*
X9040D01*
Y8857D01*
X9260D01*
Y9018D01*
X9198D01*
Y9052D01*
X9207Y9064D01*
X9211Y9088D01*
X9207Y9111D01*
X9193Y9131D01*
X9173Y9144D01*
X9150Y9149D01*
X9127Y9144D01*
X9107Y9131D01*
X9093Y9111D01*
X9089Y9088D01*
X9093Y9064D01*
X9102Y9052D01*
Y9018D01*
X9040D01*
Y8978D01*
X9004D01*
Y9007D01*
X9001Y9025D01*
X8991Y9040D01*
X8976Y9050D01*
X8958Y9053D01*
X8929D01*
X8911Y9050D01*
X8899Y9042D01*
X8896Y9040D01*
X8892D01*
X8862Y9058D01*
X8859Y9076D01*
X8849Y9091D01*
X8168Y9772D01*
X8153Y9782D01*
X8136Y9785D01*
X7843D01*
Y9852D01*
X7618D01*
Y9756D01*
X7589Y9754D01*
X7587Y9769D01*
X7575Y9796D01*
X7557Y9820D01*
X7534Y9838D01*
X7506Y9849D01*
X7477Y9853D01*
D02*
G37*
G36*
X1548Y9705D02*
X1462D01*
Y9635D01*
X1548D01*
Y9705D01*
D02*
G37*
G36*
X1412D02*
X1327D01*
Y9635D01*
X1412D01*
Y9705D01*
D02*
G37*
G36*
X2805Y9723D02*
X2700D01*
Y9618D01*
X2805D01*
Y9723D01*
D02*
G37*
G36*
X2650D02*
X2545D01*
Y9618D01*
X2650D01*
Y9723D01*
D02*
G37*
G36*
X1245D02*
X1140D01*
Y9618D01*
X1245D01*
Y9723D01*
D02*
G37*
G36*
X1090D02*
X985D01*
Y9618D01*
X1090D01*
Y9723D01*
D02*
G37*
G36*
X6240Y9648D02*
Y9570D01*
X6317D01*
X6317Y9572D01*
X6306Y9598D01*
X6289Y9620D01*
X6267Y9637D01*
X6242Y9647D01*
X6240Y9648D01*
D02*
G37*
G36*
X6190Y9648D02*
X6187Y9647D01*
X6162Y9637D01*
X6140Y9620D01*
X6123Y9598D01*
X6112Y9572D01*
X6112Y9570D01*
X6190D01*
Y9648D01*
D02*
G37*
G36*
X1548Y9585D02*
X1462D01*
Y9515D01*
X1548D01*
Y9585D01*
D02*
G37*
G36*
X1412D02*
X1327D01*
Y9515D01*
X1412D01*
Y9585D01*
D02*
G37*
G36*
X6317Y9520D02*
X6240D01*
Y9442D01*
X6242Y9443D01*
X6267Y9453D01*
X6289Y9470D01*
X6306Y9492D01*
X6317Y9518D01*
X6317Y9520D01*
D02*
G37*
G36*
X6190D02*
X6112D01*
X6112Y9518D01*
X6123Y9492D01*
X6140Y9470D01*
X6162Y9453D01*
X6187Y9443D01*
X6190Y9442D01*
Y9520D01*
D02*
G37*
G36*
X1548Y9485D02*
X1327D01*
Y9433D01*
X1266D01*
X1250Y9436D01*
X1227Y9432D01*
X1207Y9418D01*
X1193Y9398D01*
X1189Y9375D01*
X1193Y9352D01*
X1207Y9332D01*
X1227Y9318D01*
X1250Y9314D01*
X1273Y9318D01*
X1277Y9321D01*
X1327D01*
Y9295D01*
X1367D01*
Y9255D01*
X1327D01*
Y9065D01*
X1548D01*
Y9255D01*
X1508D01*
Y9295D01*
X1548D01*
Y9485D01*
D02*
G37*
G36*
X6944Y9461D02*
X6859D01*
X6859Y9456D01*
X6871Y9429D01*
X6889Y9405D01*
X6912Y9387D01*
X6940Y9376D01*
X6944Y9375D01*
Y9461D01*
D02*
G37*
G36*
X2785Y9430D02*
X2700D01*
Y9375D01*
X2785D01*
Y9430D01*
D02*
G37*
G36*
X2650D02*
X2565D01*
Y9375D01*
X2650D01*
Y9430D01*
D02*
G37*
G36*
X2785Y9325D02*
X2700D01*
Y9270D01*
X2785D01*
Y9325D01*
D02*
G37*
G36*
X2650D02*
X2565D01*
Y9270D01*
X2650D01*
Y9325D01*
D02*
G37*
G36*
X5397Y9118D02*
X5312D01*
Y9062D01*
X5397D01*
Y9118D01*
D02*
G37*
G36*
X5262D02*
X5178D01*
Y9062D01*
X5262D01*
Y9118D01*
D02*
G37*
G36*
X5660Y9130D02*
X5575D01*
Y9060D01*
X5660D01*
Y9130D01*
D02*
G37*
G36*
X5525D02*
X5440D01*
Y9060D01*
X5525D01*
Y9130D01*
D02*
G37*
G36*
X5922Y9105D02*
X5838D01*
Y9050D01*
X5922D01*
Y9105D01*
D02*
G37*
G36*
X5788D02*
X5703D01*
Y9050D01*
X5788D01*
Y9105D01*
D02*
G37*
G36*
X6197Y9118D02*
X6112D01*
Y9048D01*
X6197D01*
Y9118D01*
D02*
G37*
G36*
X6062D02*
X5978D01*
Y9048D01*
X6062D01*
Y9118D01*
D02*
G37*
G36*
X5397Y9012D02*
X5312D01*
Y8957D01*
X5397D01*
Y9012D01*
D02*
G37*
G36*
X5262D02*
X5178D01*
Y8957D01*
X5262D01*
Y9012D01*
D02*
G37*
G36*
X5922Y9000D02*
X5838D01*
Y8945D01*
X5922D01*
Y9000D01*
D02*
G37*
G36*
X5788D02*
X5703D01*
Y8945D01*
X5788D01*
Y9000D01*
D02*
G37*
G36*
X5660Y9010D02*
X5575D01*
Y8940D01*
X5660D01*
Y9010D01*
D02*
G37*
G36*
X5525D02*
X5440D01*
Y8940D01*
X5525D01*
Y9010D01*
D02*
G37*
G36*
X6197Y8998D02*
X6112D01*
Y8928D01*
X6197D01*
Y8998D01*
D02*
G37*
G36*
X6062D02*
X5978D01*
Y8928D01*
X6062D01*
Y8998D01*
D02*
G37*
G36*
X1548Y9035D02*
X1327D01*
Y9011D01*
X1159D01*
X1141Y9008D01*
X1124Y9001D01*
X1109Y8990D01*
X1063Y8943D01*
X1051Y8928D01*
X1047Y8918D01*
X985D01*
Y8657D01*
X844D01*
X815Y8629D01*
X797Y8631D01*
X585D01*
Y8665D01*
X375D01*
Y8456D01*
X585D01*
Y8490D01*
X768D01*
X932Y8325D01*
Y8225D01*
X942D01*
Y8097D01*
X918D01*
Y7878D01*
X1845D01*
X1845Y7878D01*
X2005D01*
Y8097D01*
X1988D01*
X1982Y8127D01*
X1986Y8150D01*
X1986Y8153D01*
X2009Y8182D01*
X2025D01*
Y8382D01*
X1865D01*
Y8294D01*
X1800D01*
X1779Y8289D01*
X1760Y8277D01*
X1712Y8229D01*
X1683Y8242D01*
Y8425D01*
X1188D01*
Y8455D01*
X1188Y8455D01*
Y8655D01*
X1216Y8657D01*
X1245D01*
Y8869D01*
X1327D01*
Y8845D01*
X1548D01*
Y9035D01*
D02*
G37*
G36*
X505Y8917D02*
Y8839D01*
X583D01*
X582Y8842D01*
X572Y8867D01*
X555Y8889D01*
X533Y8906D01*
X507Y8917D01*
X505Y8917D01*
D02*
G37*
G36*
X455Y8917D02*
X453Y8917D01*
X427Y8906D01*
X405Y8889D01*
X388Y8867D01*
X378Y8842D01*
X377Y8839D01*
X455D01*
Y8917D01*
D02*
G37*
G36*
X9260Y8818D02*
X9175D01*
Y8763D01*
X9260D01*
Y8818D01*
D02*
G37*
G36*
X9125D02*
X9040D01*
Y8763D01*
X9125D01*
Y8818D01*
D02*
G37*
G36*
X6065Y9650D02*
X5856D01*
Y9440D01*
X5904D01*
Y9302D01*
X5909Y9281D01*
X5921Y9262D01*
X5960Y9223D01*
X5979Y9211D01*
X6000Y9206D01*
X6314D01*
X6451Y9069D01*
Y8988D01*
X6407D01*
Y8828D01*
X6427D01*
X6443Y8798D01*
X6443Y8797D01*
X6439Y8775D01*
X6443Y8752D01*
X6457Y8732D01*
X6477Y8718D01*
X6500Y8714D01*
X6523Y8718D01*
X6543Y8732D01*
X6557Y8752D01*
X6561Y8775D01*
X6557Y8797D01*
X6557Y8798D01*
X6573Y8828D01*
X6607D01*
Y8988D01*
X6564D01*
Y9093D01*
X6559Y9114D01*
X6547Y9132D01*
X6377Y9302D01*
X6359Y9314D01*
X6338Y9319D01*
X6023D01*
X6017Y9325D01*
Y9440D01*
X6065D01*
Y9650D01*
D02*
G37*
G36*
X583Y8789D02*
X505D01*
Y8712D01*
X507Y8712D01*
X533Y8723D01*
X555Y8740D01*
X572Y8762D01*
X582Y8787D01*
X583Y8789D01*
D02*
G37*
G36*
X455D02*
X377D01*
X378Y8787D01*
X388Y8762D01*
X405Y8740D01*
X427Y8723D01*
X453Y8712D01*
X455Y8712D01*
Y8789D01*
D02*
G37*
G36*
X9260Y8713D02*
X9175D01*
Y8657D01*
X9260D01*
Y8713D01*
D02*
G37*
G36*
X9125D02*
X9040D01*
Y8657D01*
X9125D01*
Y8713D01*
D02*
G37*
G36*
X2785Y9230D02*
X2565D01*
Y9070D01*
X2619D01*
Y8918D01*
X2545D01*
Y8657D01*
X2805D01*
Y8918D01*
X2731D01*
Y9070D01*
X2785D01*
Y9230D01*
D02*
G37*
G36*
X3312Y9571D02*
X3294Y9568D01*
X3277Y9561D01*
X3263Y9550D01*
X3251Y9535D01*
X3244Y9518D01*
X3242Y9500D01*
Y9438D01*
Y8688D01*
Y8625D01*
X3244Y8607D01*
X3251Y8590D01*
X3263Y8575D01*
X3277Y8564D01*
X3294Y8557D01*
X3312Y8554D01*
X3331Y8557D01*
X3348Y8564D01*
X3362Y8575D01*
X3374Y8590D01*
X3381Y8607D01*
X3383Y8625D01*
Y8688D01*
Y9438D01*
Y9500D01*
X3381Y9518D01*
X3374Y9535D01*
X3362Y9550D01*
X3348Y9561D01*
X3331Y9568D01*
X3312Y9571D01*
D02*
G37*
G36*
X2120Y8612D02*
X2065D01*
Y8538D01*
X2120D01*
Y8612D01*
D02*
G37*
G36*
X2015D02*
X1960D01*
Y8538D01*
X2015D01*
Y8612D01*
D02*
G37*
G36*
X8958Y8473D02*
X8929D01*
X8911Y8470D01*
X8899Y8462D01*
X8896Y8460D01*
X8864Y8460D01*
X8861Y8462D01*
X8849Y8470D01*
X8832Y8473D01*
X8801D01*
X8784Y8470D01*
X8772Y8462D01*
X8769Y8460D01*
X8737Y8460D01*
X8734Y8462D01*
X8722Y8470D01*
X8704Y8473D01*
X8675D01*
X8657Y8470D01*
X8645Y8462D01*
X8642Y8460D01*
X8610Y8460D01*
X8607Y8462D01*
X8595Y8470D01*
X8588Y8471D01*
Y8350D01*
Y8229D01*
X8595Y8230D01*
X8607Y8238D01*
X8610Y8240D01*
X8619D01*
X8648Y8212D01*
Y8108D01*
X8644Y8106D01*
X8631Y8086D01*
X8626Y8062D01*
X8631Y8039D01*
X8644Y8019D01*
X8664Y8006D01*
X8688Y8001D01*
X8711Y8006D01*
X8731Y8019D01*
X8744Y8039D01*
X8749Y8062D01*
X8750Y8063D01*
X8776Y8077D01*
X8789Y8068D01*
X8812Y8064D01*
X8836Y8068D01*
X8856Y8082D01*
X8869Y8102D01*
X8874Y8125D01*
X8875Y8126D01*
X8901Y8139D01*
X8914Y8131D01*
X8938Y8126D01*
X8961Y8131D01*
X8981Y8144D01*
X8994Y8164D01*
X8999Y8188D01*
X8994Y8211D01*
X8991Y8240D01*
X9001Y8255D01*
X9004Y8272D01*
Y8428D01*
X9001Y8445D01*
X8991Y8460D01*
X8976Y8470D01*
X8958Y8473D01*
D02*
G37*
G36*
X8538Y8471D02*
X8530Y8470D01*
X8518Y8462D01*
X8515Y8460D01*
X8483Y8460D01*
X8480Y8462D01*
X8468Y8470D01*
X8461Y8471D01*
Y8350D01*
Y8229D01*
X8468Y8230D01*
X8480Y8238D01*
X8483Y8240D01*
X8515Y8240D01*
X8518Y8238D01*
X8530Y8230D01*
X8538Y8229D01*
Y8350D01*
Y8471D01*
D02*
G37*
G36*
X1500Y8749D02*
X1477Y8744D01*
X1457Y8731D01*
X1443Y8711D01*
X1439Y8688D01*
X1439Y8685D01*
X1427Y8655D01*
X1427D01*
Y8455D01*
X1588D01*
Y8655D01*
X1584D01*
X1561Y8685D01*
X1561Y8688D01*
X1557Y8711D01*
X1543Y8731D01*
X1523Y8744D01*
X1500Y8749D01*
D02*
G37*
G36*
X2120Y8488D02*
X2065D01*
Y8412D01*
X2120D01*
Y8488D01*
D02*
G37*
G36*
X2015D02*
X1960D01*
Y8412D01*
X2015D01*
Y8488D01*
D02*
G37*
G36*
X1850Y8749D02*
X1827Y8744D01*
X1807Y8731D01*
X1793Y8711D01*
X1789Y8688D01*
X1793Y8664D01*
X1807Y8644D01*
X1809Y8643D01*
Y8612D01*
X1770D01*
Y8412D01*
X1930D01*
Y8612D01*
X1891D01*
Y8643D01*
X1893Y8644D01*
X1907Y8664D01*
X1911Y8688D01*
X1907Y8711D01*
X1893Y8731D01*
X1873Y8744D01*
X1850Y8749D01*
D02*
G37*
G36*
X8029Y8471D02*
X8022Y8470D01*
X8007Y8460D01*
X7997Y8445D01*
X7994Y8428D01*
Y8375D01*
X8029D01*
Y8471D01*
D02*
G37*
G36*
X5397Y8918D02*
X5178D01*
Y8757D01*
X5242D01*
Y8449D01*
X5231Y8433D01*
X5226Y8410D01*
X5231Y8387D01*
X5244Y8367D01*
X5264Y8353D01*
X5288Y8349D01*
X5311Y8353D01*
X5331Y8367D01*
X5344Y8387D01*
X5349Y8410D01*
X5344Y8433D01*
X5333Y8449D01*
Y8757D01*
X5397D01*
Y8918D01*
D02*
G37*
G36*
X4962Y8461D02*
X4939Y8457D01*
X4919Y8443D01*
X4906Y8423D01*
X4901Y8400D01*
X4906Y8377D01*
X4919Y8357D01*
X4939Y8343D01*
X4962Y8339D01*
X4986Y8343D01*
X5006Y8357D01*
X5019Y8377D01*
X5024Y8400D01*
X5019Y8423D01*
X5006Y8443D01*
X4986Y8457D01*
X4962Y8461D01*
D02*
G37*
G36*
X7505Y8382D02*
Y8307D01*
X7560D01*
Y8382D01*
X7505D01*
D02*
G37*
G36*
X6055Y8360D02*
X6000D01*
Y8275D01*
X6055D01*
Y8360D01*
D02*
G37*
G36*
X5950D02*
X5895D01*
Y8275D01*
X5950D01*
Y8360D01*
D02*
G37*
G36*
X500Y8311D02*
Y8233D01*
X578D01*
X577Y8235D01*
X567Y8261D01*
X550Y8283D01*
X528Y8300D01*
X502Y8310D01*
X500Y8311D01*
D02*
G37*
G36*
X450Y8311D02*
X448Y8310D01*
X422Y8300D01*
X400Y8283D01*
X383Y8261D01*
X373Y8235D01*
X372Y8233D01*
X450D01*
Y8311D01*
D02*
G37*
G36*
X8029Y8325D02*
X7994D01*
Y8272D01*
X7997Y8255D01*
X8007Y8240D01*
X8022Y8230D01*
X8029Y8229D01*
Y8325D01*
D02*
G37*
G36*
X7560Y8257D02*
X7505D01*
Y8182D01*
X7560D01*
Y8257D01*
D02*
G37*
G36*
X7455D02*
X7400D01*
Y8182D01*
X7455D01*
Y8257D01*
D02*
G37*
G36*
X6055Y8225D02*
X6000D01*
Y8140D01*
X6055D01*
Y8225D01*
D02*
G37*
G36*
X5950D02*
X5895D01*
Y8140D01*
X5950D01*
Y8225D01*
D02*
G37*
G36*
X450Y8183D02*
X372D01*
X373Y8181D01*
X383Y8155D01*
X400Y8133D01*
X422Y8116D01*
X448Y8106D01*
X450Y8105D01*
Y8183D01*
D02*
G37*
G36*
X578D02*
X500D01*
Y8105D01*
X502Y8106D01*
X528Y8116D01*
X550Y8133D01*
X567Y8155D01*
X577Y8181D01*
X578Y8183D01*
D02*
G37*
G36*
X2885Y8155D02*
X2800D01*
Y8100D01*
X2885D01*
Y8155D01*
D02*
G37*
G36*
X2750D02*
X2665D01*
Y8100D01*
X2750D01*
Y8155D01*
D02*
G37*
G36*
X3597Y8093D02*
X3512D01*
Y8038D01*
X3597D01*
Y8093D01*
D02*
G37*
G36*
X3462D02*
X3378D01*
Y8038D01*
X3462D01*
Y8093D01*
D02*
G37*
G36*
X6055Y8110D02*
X6000D01*
Y8025D01*
X6055D01*
Y8110D01*
D02*
G37*
G36*
X5950D02*
X5895D01*
Y8025D01*
X5950D01*
Y8110D01*
D02*
G37*
G36*
X2205Y8097D02*
X2150D01*
Y8012D01*
X2205D01*
Y8097D01*
D02*
G37*
G36*
X2100D02*
X2045D01*
Y8012D01*
X2100D01*
Y8097D01*
D02*
G37*
G36*
X2885Y8050D02*
X2800D01*
Y7995D01*
X2885D01*
Y8050D01*
D02*
G37*
G36*
X2750D02*
X2665D01*
Y7995D01*
X2750D01*
Y8050D01*
D02*
G37*
G36*
X3597Y7988D02*
X3512D01*
Y7932D01*
X3597D01*
Y7988D01*
D02*
G37*
G36*
X3462D02*
X3378D01*
Y7932D01*
X3462D01*
Y7988D01*
D02*
G37*
G36*
X7085Y7972D02*
X6895D01*
Y7919D01*
X6818D01*
Y7972D01*
X6628D01*
Y7753D01*
X6818D01*
Y7806D01*
X6895D01*
Y7753D01*
X6944D01*
Y7635D01*
X6920D01*
Y7415D01*
X6950D01*
Y7385D01*
X6920D01*
Y7165D01*
X7020D01*
X7025Y7164D01*
X7036D01*
X7041Y7161D01*
X7062Y7156D01*
X7126D01*
X7127Y7156D01*
X7150Y7151D01*
X7173Y7156D01*
X7193Y7169D01*
X7207Y7189D01*
X7211Y7212D01*
X7207Y7236D01*
X7193Y7256D01*
X7173Y7269D01*
X7150Y7274D01*
X7127Y7269D01*
X7126Y7269D01*
X7081D01*
X7080Y7269D01*
Y7385D01*
X7062D01*
Y7415D01*
X7080D01*
Y7635D01*
X7056D01*
Y7753D01*
X7085D01*
Y7972D01*
D02*
G37*
G36*
X6055Y7975D02*
X6000D01*
Y7890D01*
X6055D01*
Y7975D01*
D02*
G37*
G36*
X5950D02*
X5895D01*
Y7890D01*
X5950D01*
Y7975D01*
D02*
G37*
G36*
X7305Y7972D02*
X7235D01*
Y7888D01*
X7305D01*
Y7972D01*
D02*
G37*
G36*
X7185D02*
X7115D01*
Y7888D01*
X7185D01*
Y7972D01*
D02*
G37*
G36*
X2205Y7962D02*
X2150D01*
Y7878D01*
X2205D01*
Y7962D01*
D02*
G37*
G36*
X2100D02*
X2045D01*
Y7878D01*
X2100D01*
Y7962D01*
D02*
G37*
G36*
X475Y8060D02*
X448Y8056D01*
X422Y8046D01*
X400Y8029D01*
X383Y8007D01*
X373Y7981D01*
X369Y7954D01*
X373Y7927D01*
X383Y7901D01*
X400Y7879D01*
X422Y7862D01*
X448Y7852D01*
X475Y7848D01*
X502Y7852D01*
X528Y7862D01*
X550Y7879D01*
X567Y7901D01*
X577Y7927D01*
X581Y7954D01*
X577Y7981D01*
X567Y8007D01*
X550Y8029D01*
X528Y8046D01*
X502Y8056D01*
X475Y8060D01*
D02*
G37*
G36*
X7560Y7907D02*
X7505D01*
Y7832D01*
X7560D01*
Y7907D01*
D02*
G37*
G36*
X7455D02*
X7400D01*
Y7832D01*
X7455D01*
Y7907D01*
D02*
G37*
G36*
X2475Y8258D02*
X2457Y8256D01*
X2440Y8249D01*
X2425Y8237D01*
X2414Y8223D01*
X2407Y8206D01*
X2404Y8188D01*
Y8125D01*
Y7962D01*
X2407Y7944D01*
X2414Y7927D01*
X2425Y7913D01*
X2513Y7825D01*
X2527Y7814D01*
X2544Y7807D01*
X2562Y7804D01*
X2665D01*
Y7795D01*
X2885D01*
Y7804D01*
X2975D01*
X2993Y7807D01*
X3010Y7814D01*
X3025Y7825D01*
X3036Y7840D01*
X3043Y7857D01*
X3046Y7875D01*
X3043Y7893D01*
X3036Y7910D01*
X3025Y7925D01*
X3010Y7936D01*
X2993Y7943D01*
X2975Y7946D01*
X2885D01*
Y7955D01*
X2665D01*
Y7946D01*
X2592D01*
X2546Y7992D01*
Y8125D01*
Y8188D01*
X2543Y8206D01*
X2536Y8223D01*
X2525Y8237D01*
X2510Y8249D01*
X2493Y8256D01*
X2475Y8258D01*
D02*
G37*
G36*
X6055Y7860D02*
X6000D01*
Y7775D01*
X6055D01*
Y7860D01*
D02*
G37*
G36*
X5950D02*
X5895D01*
Y7775D01*
X5950D01*
Y7860D01*
D02*
G37*
G36*
X7305Y7838D02*
X7235D01*
Y7753D01*
X7305D01*
Y7838D01*
D02*
G37*
G36*
X7185D02*
X7115D01*
Y7753D01*
X7185D01*
Y7838D01*
D02*
G37*
G36*
X3597Y7893D02*
X3378D01*
Y7883D01*
X3250D01*
X3232Y7881D01*
X3215Y7874D01*
X3200Y7862D01*
X3189Y7848D01*
X3182Y7831D01*
X3179Y7812D01*
X3182Y7794D01*
X3189Y7777D01*
X3200Y7763D01*
X3215Y7751D01*
X3232Y7744D01*
X3250Y7742D01*
X3378D01*
Y7732D01*
X3597D01*
Y7893D01*
D02*
G37*
G36*
X5747Y7768D02*
X5662D01*
Y7712D01*
X5747D01*
Y7768D01*
D02*
G37*
G36*
X5612D02*
X5528D01*
Y7712D01*
X5612D01*
Y7768D01*
D02*
G37*
G36*
X7560Y7782D02*
X7505D01*
Y7707D01*
X7560D01*
Y7782D01*
D02*
G37*
G36*
X7455D02*
X7400D01*
Y7707D01*
X7455D01*
Y7782D01*
D02*
G37*
G36*
X4762Y7661D02*
X4739Y7657D01*
X4735Y7654D01*
X4712Y7646D01*
X4690Y7654D01*
X4686Y7657D01*
X4662Y7661D01*
X4639Y7657D01*
X4626Y7648D01*
X4606Y7645D01*
X4586Y7648D01*
X4573Y7657D01*
X4550Y7661D01*
X4527Y7657D01*
X4526Y7656D01*
X4512D01*
X4511Y7657D01*
X4488Y7661D01*
X4464Y7657D01*
X4444Y7643D01*
X4431Y7623D01*
X4426Y7600D01*
X4428Y7590D01*
X4424Y7583D01*
X4408Y7560D01*
X4407Y7560D01*
X4408Y7560D01*
Y7340D01*
X4486D01*
X4501Y7310D01*
X4494Y7293D01*
X4492Y7275D01*
Y7243D01*
X4447D01*
X4443Y7243D01*
X4328D01*
Y7082D01*
X4547D01*
Y7103D01*
X4558Y7104D01*
X4575Y7111D01*
X4589Y7123D01*
X4612Y7146D01*
X4622Y7159D01*
X4626Y7159D01*
X4653Y7147D01*
Y7082D01*
X4872D01*
Y7082D01*
X4903Y7091D01*
X4911Y7089D01*
X4912Y7089D01*
X4940Y7064D01*
Y7038D01*
X5050D01*
X5160D01*
Y7062D01*
X5228D01*
Y7038D01*
X5337D01*
X5447D01*
Y7041D01*
X5475Y7053D01*
X5515Y7013D01*
Y6932D01*
X5547D01*
X5564Y6912D01*
X5568Y6889D01*
X5582Y6869D01*
X5602Y6856D01*
X5625Y6851D01*
X5648Y6856D01*
X5668Y6869D01*
X5682Y6889D01*
X5686Y6912D01*
X5703Y6932D01*
X5735D01*
Y7093D01*
Y7132D01*
Y7188D01*
X5625D01*
Y7238D01*
X5735D01*
Y7293D01*
X5727D01*
X5707Y7317D01*
X5706Y7322D01*
X5708Y7338D01*
Y7407D01*
X5747D01*
Y7431D01*
X5852D01*
X6019Y7264D01*
Y6693D01*
X5965D01*
Y6693D01*
X5938Y6674D01*
X5914Y6669D01*
X5894Y6656D01*
X5881Y6636D01*
X5876Y6612D01*
X5881Y6589D01*
X5894Y6569D01*
X5914Y6556D01*
X5938Y6551D01*
X5965Y6532D01*
Y6532D01*
X6185D01*
Y6693D01*
X6131D01*
Y6742D01*
X6161Y6758D01*
X6164Y6756D01*
X6188Y6751D01*
X6211Y6756D01*
X6231Y6769D01*
X6244Y6789D01*
X6249Y6812D01*
X6244Y6836D01*
X6231Y6856D01*
X6229Y6857D01*
Y6893D01*
X6231Y6894D01*
X6244Y6914D01*
X6250Y6938D01*
X6273Y6943D01*
X6293Y6957D01*
X6307Y6977D01*
X6311Y7000D01*
X6307Y7023D01*
X6293Y7043D01*
X6273Y7057D01*
X6250Y7061D01*
X6227Y7057D01*
X6207Y7043D01*
X6193Y7023D01*
X6188Y7002D01*
X6170Y6995D01*
X6164Y6994D01*
X6162Y6992D01*
X6161Y6992D01*
X6131Y7008D01*
Y7280D01*
X6131Y7284D01*
X6131Y7286D01*
X6133Y7289D01*
X6168Y7296D01*
X6169Y7294D01*
X6171Y7293D01*
X6189Y7281D01*
X6212Y7276D01*
X6236Y7281D01*
X6256Y7294D01*
X6257Y7297D01*
X6391D01*
X6391Y7297D01*
X6406Y7300D01*
X6412Y7303D01*
X6422Y7301D01*
X6446Y7306D01*
X6466Y7319D01*
X6479Y7339D01*
X6484Y7362D01*
X6479Y7386D01*
X6466Y7406D01*
X6446Y7419D01*
X6422Y7424D01*
X6399Y7419D01*
X6379Y7406D01*
X6366Y7386D01*
X6364Y7378D01*
X6257D01*
X6256Y7381D01*
X6236Y7394D01*
X6212Y7399D01*
X6189Y7394D01*
X6169Y7381D01*
X6156Y7361D01*
X6152Y7343D01*
X6151Y7338D01*
X6151Y7337D01*
X6115Y7327D01*
X6115Y7327D01*
X6112Y7330D01*
X5915Y7527D01*
X5896Y7539D01*
X5875Y7544D01*
X5747D01*
Y7568D01*
X5528D01*
Y7407D01*
X5525Y7350D01*
X5502Y7334D01*
X5495Y7332D01*
X5475Y7336D01*
X5452Y7332D01*
X5432Y7318D01*
X5418Y7298D01*
X5417Y7293D01*
X5270D01*
X5269Y7298D01*
X5256Y7318D01*
X5236Y7332D01*
X5212Y7336D01*
X5189Y7332D01*
X5169Y7318D01*
X5156Y7298D01*
X5155Y7293D01*
X4832D01*
X4824Y7310D01*
X4818Y7317D01*
X4812Y7325D01*
X4798Y7336D01*
X4781Y7343D01*
X4767Y7345D01*
Y7425D01*
X4688D01*
Y7475D01*
X4767D01*
Y7540D01*
X4786Y7543D01*
X4806Y7557D01*
X4819Y7577D01*
X4824Y7600D01*
X4819Y7623D01*
X4806Y7643D01*
X4786Y7657D01*
X4762Y7661D01*
D02*
G37*
G36*
X5660Y8910D02*
X5440D01*
Y8720D01*
X5564D01*
Y8686D01*
X5556Y8673D01*
X5551Y8650D01*
X5556Y8627D01*
X5569Y8607D01*
X5589Y8593D01*
X5612Y8589D01*
X5636Y8593D01*
X5656Y8607D01*
X5669Y8627D01*
X5670Y8632D01*
X5681Y8630D01*
X5705Y8635D01*
X5724Y8648D01*
X5729Y8655D01*
X5731Y8655D01*
X5763Y8654D01*
X5769Y8644D01*
X5789Y8631D01*
X5812Y8626D01*
X5836Y8631D01*
X5856Y8644D01*
X5857Y8647D01*
X5957D01*
X5958Y8647D01*
X5973Y8650D01*
X5986Y8659D01*
X6035Y8707D01*
X6140D01*
X6146Y8678D01*
X6132Y8668D01*
X6118Y8648D01*
X6114Y8625D01*
X6118Y8602D01*
X6119Y8601D01*
Y8360D01*
X6095D01*
Y8140D01*
X6119D01*
Y8110D01*
X6095D01*
Y7890D01*
X6119D01*
Y7860D01*
X6095D01*
Y7640D01*
X6255D01*
Y7694D01*
X6390D01*
X6411Y7698D01*
X6430Y7710D01*
X6472Y7753D01*
X6597D01*
Y7972D01*
X6561D01*
Y8265D01*
X6607D01*
Y8425D01*
X6407D01*
Y8265D01*
X6449D01*
Y7972D01*
X6407D01*
Y7847D01*
X6367Y7806D01*
X6255D01*
Y7860D01*
X6231D01*
Y7890D01*
X6255D01*
Y8110D01*
X6255D01*
X6255Y8111D01*
X6280Y8133D01*
X6285Y8133D01*
X6294Y8119D01*
X6314Y8106D01*
X6338Y8101D01*
X6361Y8106D01*
X6381Y8119D01*
X6394Y8139D01*
X6399Y8162D01*
X6394Y8186D01*
X6381Y8206D01*
X6361Y8219D01*
X6338Y8224D01*
X6314Y8219D01*
X6294Y8206D01*
X6285Y8192D01*
X6255Y8197D01*
Y8360D01*
X6231D01*
Y8601D01*
X6232Y8602D01*
X6236Y8625D01*
X6232Y8648D01*
X6218Y8668D01*
X6202Y8679D01*
X6198Y8707D01*
X6197Y8710D01*
X6197Y8712D01*
Y8897D01*
X5930D01*
X5922Y8905D01*
X5665D01*
X5660Y8910D01*
D02*
G37*
G36*
X6055Y7725D02*
X6000D01*
Y7640D01*
X6055D01*
Y7725D01*
D02*
G37*
G36*
X5950D02*
X5895D01*
Y7640D01*
X5950D01*
Y7725D01*
D02*
G37*
G36*
X4312Y7686D02*
X4289Y7682D01*
X4269Y7668D01*
X4256Y7648D01*
X4251Y7625D01*
X4250Y7624D01*
X4224Y7611D01*
X4211Y7619D01*
X4188Y7624D01*
X4164Y7619D01*
X4144Y7606D01*
X4131Y7586D01*
X4126Y7562D01*
X4131Y7539D01*
X4144Y7519D01*
X4164Y7506D01*
X4188Y7501D01*
X4211Y7506D01*
X4231Y7519D01*
X4244Y7539D01*
X4249Y7562D01*
X4250Y7563D01*
X4276Y7577D01*
X4289Y7568D01*
X4312Y7564D01*
X4336Y7568D01*
X4356Y7582D01*
X4369Y7602D01*
X4374Y7625D01*
X4369Y7648D01*
X4356Y7668D01*
X4336Y7682D01*
X4312Y7686D01*
D02*
G37*
G36*
X5747Y7662D02*
X5662D01*
Y7607D01*
X5747D01*
Y7662D01*
D02*
G37*
G36*
X5612D02*
X5528D01*
Y7607D01*
X5612D01*
Y7662D01*
D02*
G37*
G36*
X580Y7805D02*
X370D01*
Y7595D01*
X580D01*
Y7805D01*
D02*
G37*
G36*
X7750Y8382D02*
X7590D01*
Y8182D01*
X7629D01*
Y8138D01*
X7495D01*
Y8078D01*
X7475Y8061D01*
X7452Y8057D01*
X7432Y8043D01*
X7418Y8023D01*
X7414Y8000D01*
X7418Y7977D01*
X7432Y7957D01*
X7452Y7943D01*
X7465Y7941D01*
X7466Y7941D01*
X7466Y7941D01*
X7475Y7939D01*
X7495Y7937D01*
X7495Y7938D01*
X7629D01*
Y7907D01*
X7590D01*
Y7707D01*
X7607D01*
X7620Y7678D01*
X7604Y7661D01*
X7604Y7661D01*
X7523Y7580D01*
X7493Y7581D01*
X7473Y7594D01*
X7450Y7599D01*
X7427Y7594D01*
X7407Y7581D01*
X7393Y7561D01*
X7389Y7538D01*
X7393Y7514D01*
X7407Y7494D01*
X7427Y7481D01*
X7450Y7476D01*
X7473Y7481D01*
X7493Y7494D01*
X7495Y7497D01*
X7537D01*
X7538Y7497D01*
X7553Y7500D01*
X7566Y7509D01*
X7661Y7604D01*
X7661Y7604D01*
X7699Y7641D01*
X7699Y7641D01*
X7708Y7654D01*
X7711Y7670D01*
Y7707D01*
X7750D01*
Y7907D01*
X7711D01*
Y8182D01*
X7750D01*
Y8382D01*
D02*
G37*
G36*
X6880Y7635D02*
X6825D01*
Y7550D01*
X6880D01*
Y7635D01*
D02*
G37*
G36*
X6775D02*
X6720D01*
Y7550D01*
X6775D01*
Y7635D01*
D02*
G37*
G36*
X6880Y7500D02*
X6825D01*
Y7415D01*
X6880D01*
Y7500D01*
D02*
G37*
G36*
X6775D02*
X6720D01*
Y7415D01*
X6775D01*
Y7500D01*
D02*
G37*
G36*
X505Y7446D02*
Y7368D01*
X583D01*
X582Y7371D01*
X572Y7396D01*
X555Y7418D01*
X533Y7435D01*
X507Y7446D01*
X505Y7446D01*
D02*
G37*
G36*
X455D02*
X453Y7446D01*
X427Y7435D01*
X405Y7418D01*
X388Y7396D01*
X378Y7371D01*
X377Y7368D01*
X455D01*
Y7446D01*
D02*
G37*
G36*
X1000Y7447D02*
X945D01*
Y7362D01*
X1000D01*
Y7447D01*
D02*
G37*
G36*
X6880Y7385D02*
X6825D01*
Y7300D01*
X6880D01*
Y7385D01*
D02*
G37*
G36*
X6775D02*
X6720D01*
Y7300D01*
X6775D01*
Y7385D01*
D02*
G37*
G36*
X9500Y7374D02*
X9477Y7369D01*
X9457Y7356D01*
X9443Y7336D01*
X9439Y7312D01*
X9443Y7289D01*
X9457Y7269D01*
X9477Y7256D01*
X9500Y7251D01*
X9523Y7256D01*
X9543Y7269D01*
X9557Y7289D01*
X9561Y7312D01*
X9557Y7336D01*
X9543Y7356D01*
X9523Y7369D01*
X9500Y7374D01*
D02*
G37*
G36*
X7750D02*
X7727Y7369D01*
X7707Y7356D01*
X7693Y7336D01*
X7689Y7312D01*
X7693Y7289D01*
X7707Y7269D01*
X7727Y7256D01*
X7750Y7251D01*
X7773Y7256D01*
X7793Y7269D01*
X7807Y7289D01*
X7811Y7312D01*
X7807Y7336D01*
X7793Y7356D01*
X7773Y7369D01*
X7750Y7374D01*
D02*
G37*
G36*
X583Y7318D02*
X505D01*
Y7241D01*
X507Y7241D01*
X533Y7252D01*
X555Y7269D01*
X572Y7291D01*
X582Y7316D01*
X583Y7318D01*
D02*
G37*
G36*
X455D02*
X377D01*
X378Y7316D01*
X388Y7291D01*
X405Y7269D01*
X427Y7252D01*
X453Y7241D01*
X455Y7241D01*
Y7318D01*
D02*
G37*
G36*
X3985Y7293D02*
X3900D01*
Y7238D01*
X3985D01*
Y7293D01*
D02*
G37*
G36*
X3850D02*
X3765D01*
Y7238D01*
X3850D01*
Y7293D01*
D02*
G37*
G36*
X1105Y7312D02*
X1050D01*
Y7228D01*
X1105D01*
Y7312D01*
D02*
G37*
G36*
X1000D02*
X945D01*
Y7228D01*
X1000D01*
Y7312D01*
D02*
G37*
G36*
X3258Y7204D02*
X3169D01*
X3170Y7196D01*
X3180Y7181D01*
X3195Y7171D01*
X3212Y7168D01*
X3258D01*
Y7204D01*
D02*
G37*
G36*
X6880Y7250D02*
X6825D01*
Y7165D01*
X6880D01*
Y7250D01*
D02*
G37*
G36*
X6775D02*
X6720D01*
Y7165D01*
X6775D01*
Y7250D01*
D02*
G37*
G36*
X3985Y7188D02*
X3900D01*
Y7132D01*
X3985D01*
Y7188D01*
D02*
G37*
G36*
X3850D02*
X3765D01*
Y7132D01*
X3850D01*
Y7188D01*
D02*
G37*
G36*
X4872Y7043D02*
X4788D01*
Y6988D01*
X4872D01*
Y7043D01*
D02*
G37*
G36*
X4547D02*
X4462D01*
Y6988D01*
X4547D01*
Y7043D01*
D02*
G37*
G36*
X4738D02*
X4653D01*
Y6988D01*
X4738D01*
Y7043D01*
D02*
G37*
G36*
X4412D02*
X4328D01*
Y6988D01*
X4412D01*
Y7043D01*
D02*
G37*
G36*
X4235D02*
X4150D01*
Y6988D01*
X4235D01*
Y7043D01*
D02*
G37*
G36*
X480Y7195D02*
X453Y7192D01*
X427Y7181D01*
X405Y7164D01*
X388Y7142D01*
X378Y7117D01*
X374Y7089D01*
X378Y7062D01*
X388Y7037D01*
X405Y7015D01*
X427Y6998D01*
X453Y6987D01*
X480Y6984D01*
X507Y6987D01*
X533Y6998D01*
X555Y7015D01*
X572Y7037D01*
X582Y7062D01*
X586Y7089D01*
X582Y7117D01*
X572Y7142D01*
X555Y7164D01*
X533Y7181D01*
X507Y7192D01*
X480Y7195D01*
D02*
G37*
G36*
X3353Y7670D02*
X3212D01*
X3195Y7667D01*
X3180Y7657D01*
X3170Y7642D01*
X3167Y7625D01*
Y7594D01*
X3170Y7577D01*
X3180Y7562D01*
Y7530D01*
X3170Y7515D01*
X3167Y7497D01*
Y7468D01*
X3170Y7450D01*
X3180Y7435D01*
Y7403D01*
X3170Y7388D01*
X3167Y7371D01*
Y7340D01*
X3170Y7323D01*
X3180Y7308D01*
Y7276D01*
X3170Y7261D01*
X3169Y7254D01*
X3283D01*
Y7229D01*
X3308D01*
Y7168D01*
X3353D01*
X3359Y7169D01*
X3370Y7159D01*
X3380Y7145D01*
X3376Y7125D01*
X3381Y7102D01*
X3394Y7082D01*
X3414Y7068D01*
X3438Y7064D01*
X3441Y7064D01*
X3474Y7044D01*
X3474Y7043D01*
X3476Y7033D01*
X3425Y6983D01*
X3413Y6984D01*
X3391Y6991D01*
X3381Y7006D01*
X3361Y7019D01*
X3338Y7024D01*
X3314Y7019D01*
X3294Y7006D01*
X3281Y6986D01*
X3276Y6962D01*
X3277Y6960D01*
X3146Y6828D01*
X2809D01*
X2801Y6839D01*
X2793Y6869D01*
X2807Y6889D01*
X2811Y6912D01*
X2812Y6937D01*
X2833Y6943D01*
X2836Y6943D01*
X2856Y6957D01*
X2869Y6977D01*
X2874Y7000D01*
X2869Y7023D01*
X2856Y7043D01*
X2853Y7045D01*
Y7330D01*
X2856Y7332D01*
X2869Y7352D01*
X2874Y7375D01*
X2869Y7398D01*
X2856Y7418D01*
X2836Y7432D01*
X2812Y7436D01*
X2789Y7432D01*
X2769Y7418D01*
X2756Y7398D01*
X2753Y7384D01*
X2727Y7373D01*
X2723Y7373D01*
X2716Y7379D01*
X2703Y7388D01*
X2688Y7391D01*
X2687Y7391D01*
X2648D01*
X2647Y7393D01*
X2645Y7399D01*
Y7428D01*
X2655Y7443D01*
X2658Y7461D01*
Y7490D01*
X2655Y7508D01*
X2645Y7523D01*
Y7555D01*
X2655Y7570D01*
X2658Y7588D01*
Y7618D01*
X2655Y7635D01*
X2645Y7650D01*
X2630Y7660D01*
X2612Y7663D01*
X2473D01*
X2455Y7660D01*
X2440Y7650D01*
X2439Y7648D01*
X2425D01*
X2406Y7645D01*
X2391Y7634D01*
X2366Y7609D01*
X2355Y7594D01*
X2353Y7581D01*
X2347Y7573D01*
X2322Y7559D01*
X2312Y7561D01*
X2289Y7557D01*
X2281Y7551D01*
X2273Y7557D01*
X2250Y7561D01*
X2227Y7557D01*
X2219Y7551D01*
X2211Y7557D01*
X2188Y7561D01*
X2164Y7557D01*
X2144Y7543D01*
X2131Y7523D01*
X2126Y7500D01*
X2131Y7477D01*
X2144Y7457D01*
X2164Y7443D01*
X2188Y7439D01*
X2211Y7443D01*
X2219Y7449D01*
X2227Y7443D01*
X2250Y7439D01*
X2273Y7443D01*
X2281Y7449D01*
X2289Y7443D01*
X2312Y7439D01*
X2322Y7441D01*
X2352Y7421D01*
Y7207D01*
X2349Y7203D01*
X2322Y7184D01*
X2312Y7186D01*
X2289Y7182D01*
X2269Y7168D01*
X2256Y7148D01*
X2251Y7125D01*
X2256Y7102D01*
X2269Y7082D01*
X2289Y7068D01*
X2312Y7064D01*
X2336Y7068D01*
X2337Y7069D01*
X2351D01*
X2352Y7068D01*
X2375Y7064D01*
X2398Y7068D01*
X2418Y7082D01*
X2432Y7102D01*
X2436Y7125D01*
X2436Y7125D01*
X2445Y7138D01*
X2473Y7161D01*
X2612D01*
X2619Y7162D01*
X2645Y7146D01*
X2649Y7141D01*
Y6860D01*
X2649Y6860D01*
X2652Y6844D01*
X2661Y6831D01*
X2734Y6759D01*
X2734Y6759D01*
X2747Y6750D01*
X2762Y6747D01*
X3162D01*
X3162Y6747D01*
X3178Y6750D01*
X3191Y6759D01*
X3267Y6834D01*
X3297Y6822D01*
Y6707D01*
X3294Y6706D01*
X3281Y6686D01*
X3276Y6662D01*
X3277Y6661D01*
X3253Y6631D01*
X2950D01*
X2929Y6627D01*
X2910Y6615D01*
X2835Y6540D01*
X2823Y6521D01*
X2819Y6500D01*
Y6462D01*
X2818Y6461D01*
X2818Y6458D01*
X2812Y6437D01*
X2788Y6436D01*
X2764Y6432D01*
X2744Y6418D01*
X2731Y6398D01*
X2726Y6375D01*
X2731Y6352D01*
X2744Y6332D01*
X2747Y6330D01*
Y6112D01*
X2741Y6107D01*
X2706Y6106D01*
X2686Y6119D01*
X2662Y6124D01*
X2639Y6119D01*
X2635Y6116D01*
X2612Y6108D01*
X2590Y6116D01*
X2586Y6119D01*
X2562Y6124D01*
X2539Y6119D01*
X2535Y6116D01*
X2512Y6108D01*
X2490Y6116D01*
X2486Y6119D01*
X2462Y6124D01*
X2439Y6119D01*
X2419Y6106D01*
X2406Y6086D01*
X2401Y6062D01*
X2406Y6039D01*
X2419Y6019D01*
X2422Y6018D01*
Y5895D01*
X2392Y5873D01*
X2388Y5874D01*
X2364Y5869D01*
X2344Y5856D01*
X2331Y5836D01*
X2326Y5812D01*
X2331Y5789D01*
X2331Y5789D01*
X2295Y5753D01*
X2291Y5755D01*
X2270Y5770D01*
X2274Y5788D01*
X2269Y5811D01*
X2256Y5831D01*
X2236Y5844D01*
X2212Y5849D01*
X2189Y5844D01*
X2169Y5831D01*
X2156Y5811D01*
X2151Y5788D01*
X2156Y5764D01*
X2169Y5744D01*
X2189Y5731D01*
X2212Y5726D01*
X2230Y5730D01*
X2245Y5709D01*
X2247Y5705D01*
X1820Y5278D01*
X1792Y5289D01*
Y5395D01*
X1753D01*
Y5528D01*
X1792D01*
Y5699D01*
X1812Y5711D01*
X1833Y5699D01*
Y5662D01*
X1888D01*
Y5753D01*
X1872Y5778D01*
X1874Y5788D01*
X1869Y5811D01*
X1861Y5822D01*
X1872Y5849D01*
X1875Y5853D01*
X1942D01*
Y5938D01*
X1862D01*
Y5988D01*
X1942D01*
Y6020D01*
X1973Y6039D01*
X1983Y6034D01*
Y5853D01*
X1984D01*
X2003Y5822D01*
X2001Y5812D01*
X2006Y5789D01*
X2019Y5769D01*
X2039Y5756D01*
X2062Y5751D01*
X2086Y5756D01*
X2106Y5769D01*
X2119Y5789D01*
X2124Y5812D01*
X2122Y5822D01*
X2141Y5853D01*
X2142D01*
Y6072D01*
X2142Y6072D01*
X2142D01*
X2151Y6078D01*
X2156Y6082D01*
X2163Y6092D01*
X2169Y6102D01*
X2188Y6126D01*
X2211Y6131D01*
X2231Y6144D01*
X2244Y6164D01*
X2249Y6188D01*
X2244Y6211D01*
X2231Y6231D01*
X2228Y6232D01*
Y6595D01*
X2335D01*
Y6755D01*
X2115D01*
Y6716D01*
X2085D01*
Y6795D01*
X1905D01*
Y6555D01*
X2085D01*
Y6634D01*
X2115D01*
Y6595D01*
X2147D01*
Y6441D01*
X2117Y6428D01*
X2104Y6441D01*
X2091Y6450D01*
X2075Y6453D01*
X2067Y6482D01*
Y6522D01*
X1877D01*
Y6303D01*
X2067D01*
X2072Y6274D01*
Y6269D01*
X2042Y6245D01*
X2041Y6245D01*
X2018Y6240D01*
X1998Y6227D01*
X1985Y6207D01*
X1980Y6185D01*
X1975Y6186D01*
X1952Y6182D01*
X1936Y6171D01*
X1932Y6168D01*
X1931Y6168D01*
X1928Y6167D01*
X1899Y6185D01*
X1899Y6188D01*
X1899Y6190D01*
X1894Y6211D01*
X1881Y6231D01*
X1861Y6244D01*
X1838Y6249D01*
X1814Y6244D01*
X1795Y6231D01*
X1793Y6229D01*
X1757D01*
X1756Y6231D01*
X1736Y6244D01*
X1712Y6249D01*
X1689Y6244D01*
X1685Y6241D01*
X1662Y6233D01*
X1640Y6241D01*
X1636Y6244D01*
X1612Y6249D01*
X1589Y6244D01*
X1585Y6241D01*
X1562Y6233D01*
X1540Y6241D01*
X1536Y6244D01*
X1512Y6249D01*
X1489Y6244D01*
X1469Y6231D01*
X1456Y6211D01*
X1451Y6188D01*
X1456Y6164D01*
X1469Y6144D01*
X1489Y6131D01*
X1512Y6126D01*
X1536Y6131D01*
X1540Y6134D01*
X1562Y6142D01*
X1585Y6134D01*
X1589Y6131D01*
X1612Y6126D01*
X1633Y6130D01*
X1645Y6120D01*
X1655Y6108D01*
X1651Y6088D01*
X1656Y6064D01*
X1669Y6044D01*
X1672Y6043D01*
Y5765D01*
X1645Y5756D01*
X1624Y5776D01*
X1619Y5798D01*
X1606Y5818D01*
X1586Y5832D01*
X1562Y5836D01*
X1552Y5834D01*
X1530Y5859D01*
Y5938D01*
X1370D01*
Y5853D01*
X1413D01*
X1416Y5849D01*
X1426Y5822D01*
X1418Y5811D01*
X1414Y5788D01*
X1418Y5764D01*
X1432Y5744D01*
X1452Y5731D01*
X1475Y5726D01*
X1498Y5731D01*
X1513Y5741D01*
X1519Y5732D01*
X1539Y5718D01*
X1562Y5714D01*
X1586Y5718D01*
X1602Y5730D01*
X1617Y5726D01*
X1633Y5718D01*
Y5616D01*
X1626Y5609D01*
X1602Y5596D01*
X1588Y5599D01*
X1564Y5594D01*
X1544Y5581D01*
X1531Y5561D01*
X1526Y5538D01*
X1499Y5521D01*
X1489Y5519D01*
X1469Y5506D01*
X1456Y5486D01*
X1451Y5462D01*
X1456Y5439D01*
X1465Y5425D01*
X1459Y5404D01*
X1452Y5395D01*
X1432D01*
Y5205D01*
X1442D01*
Y5150D01*
X1419Y5121D01*
X935D01*
X918Y5151D01*
X919Y5152D01*
X924Y5175D01*
X919Y5198D01*
X916Y5203D01*
X908Y5225D01*
X916Y5247D01*
X919Y5252D01*
X924Y5275D01*
X919Y5298D01*
X916Y5303D01*
X908Y5325D01*
X916Y5347D01*
X919Y5352D01*
X924Y5375D01*
X919Y5398D01*
X916Y5403D01*
X908Y5425D01*
X916Y5447D01*
X919Y5452D01*
X924Y5475D01*
X919Y5498D01*
X916Y5503D01*
X908Y5525D01*
X916Y5547D01*
X919Y5552D01*
X924Y5575D01*
X919Y5598D01*
X916Y5603D01*
X908Y5625D01*
X916Y5647D01*
X919Y5652D01*
X924Y5675D01*
X919Y5698D01*
X916Y5703D01*
X908Y5725D01*
X916Y5747D01*
X919Y5752D01*
X924Y5775D01*
X919Y5798D01*
X906Y5818D01*
X919Y5839D01*
X924Y5863D01*
X919Y5886D01*
X906Y5906D01*
X886Y5919D01*
X863Y5924D01*
X839Y5919D01*
X819Y5906D01*
X806Y5886D01*
X801Y5863D01*
X806Y5839D01*
X819Y5819D01*
X806Y5798D01*
X801Y5775D01*
X806Y5752D01*
X809Y5747D01*
X817Y5725D01*
X809Y5703D01*
X806Y5698D01*
X801Y5675D01*
X806Y5652D01*
X809Y5647D01*
X817Y5625D01*
X809Y5603D01*
X806Y5598D01*
X801Y5575D01*
X806Y5552D01*
X809Y5547D01*
X817Y5525D01*
X809Y5503D01*
X806Y5498D01*
X801Y5475D01*
X806Y5452D01*
X809Y5447D01*
X817Y5425D01*
X809Y5403D01*
X806Y5398D01*
X801Y5375D01*
X806Y5352D01*
X809Y5347D01*
X817Y5325D01*
X809Y5303D01*
X806Y5298D01*
X801Y5275D01*
X806Y5252D01*
X809Y5247D01*
X817Y5225D01*
X809Y5203D01*
X806Y5198D01*
X801Y5175D01*
X806Y5152D01*
X807Y5151D01*
X790Y5121D01*
X643D01*
X643Y5121D01*
X627Y5118D01*
X614Y5109D01*
X471Y4966D01*
X357D01*
X356Y4968D01*
X336Y4982D01*
X312Y4986D01*
X289Y4982D01*
X269Y4968D01*
X256Y4948D01*
X251Y4925D01*
X256Y4902D01*
X259Y4897D01*
X267Y4875D01*
X259Y4853D01*
X256Y4848D01*
X251Y4825D01*
X256Y4802D01*
X259Y4797D01*
X267Y4775D01*
X259Y4753D01*
X256Y4748D01*
X251Y4725D01*
X253Y4715D01*
X251Y4698D01*
X233Y4683D01*
X227Y4682D01*
X207Y4668D01*
X193Y4648D01*
X189Y4625D01*
X164Y4619D01*
X144Y4606D01*
X131Y4586D01*
X126Y4562D01*
X102Y4557D01*
X82Y4543D01*
X68Y4523D01*
X64Y4500D01*
X68Y4477D01*
X82Y4457D01*
X102Y4443D01*
X125Y4439D01*
X148Y4443D01*
X168Y4457D01*
X170Y4459D01*
X351D01*
X351Y4459D01*
X366Y4462D01*
X379Y4471D01*
X730Y4822D01*
X945D01*
Y4763D01*
X1025D01*
X1105D01*
Y4822D01*
X1145D01*
Y4628D01*
X1154D01*
Y4571D01*
X1054Y4470D01*
X1042Y4452D01*
X1037Y4431D01*
Y4356D01*
X1007Y4335D01*
X1000Y4336D01*
X977Y4332D01*
X957Y4318D01*
X955Y4316D01*
X925D01*
X925Y4316D01*
X909Y4313D01*
X896Y4304D01*
X896Y4304D01*
X874Y4282D01*
X866Y4269D01*
X863Y4257D01*
X856Y4252D01*
X846Y4238D01*
X842Y4220D01*
Y4140D01*
X846Y4122D01*
X856Y4108D01*
X863Y4103D01*
Y3997D01*
X856Y3992D01*
X846Y3978D01*
X842Y3960D01*
X812Y3936D01*
X789Y3932D01*
X769Y3918D01*
X756Y3898D01*
X751Y3875D01*
X756Y3852D01*
X769Y3832D01*
X768Y3797D01*
X763Y3791D01*
X562D01*
X547Y3788D01*
X534Y3779D01*
X534Y3779D01*
X221Y3466D01*
X212Y3453D01*
X209Y3438D01*
X209Y3437D01*
Y2581D01*
X188Y2561D01*
X164Y2557D01*
X144Y2543D01*
X131Y2523D01*
X126Y2500D01*
X131Y2477D01*
X144Y2457D01*
X164Y2443D01*
X188Y2439D01*
X211Y2443D01*
X229Y2456D01*
X238Y2454D01*
X259Y2445D01*
Y2238D01*
X259Y2238D01*
X262Y2222D01*
X271Y2209D01*
X334Y2146D01*
X347Y2137D01*
X362Y2134D01*
X363Y2134D01*
X364D01*
X371Y2118D01*
X388Y2096D01*
X410Y2079D01*
X435Y2068D01*
X462Y2065D01*
X490Y2068D01*
X515Y2079D01*
X537Y2096D01*
X539Y2098D01*
X569Y2087D01*
Y2000D01*
X539Y1989D01*
X537Y1991D01*
X515Y2008D01*
X490Y2019D01*
X462Y2022D01*
X435Y2019D01*
X410Y2008D01*
X388Y1991D01*
X371Y1969D01*
X360Y1944D01*
X357Y1917D01*
X360Y1889D01*
X371Y1864D01*
X388Y1842D01*
X410Y1825D01*
X435Y1814D01*
X462Y1811D01*
X490Y1814D01*
X515Y1825D01*
X537Y1842D01*
X554Y1864D01*
X561Y1881D01*
X564Y1883D01*
X585Y1889D01*
X595Y1888D01*
X685Y1798D01*
X704Y1786D01*
X725Y1781D01*
X989D01*
X1056Y1714D01*
Y1675D01*
X1032D01*
Y1475D01*
X1193D01*
Y1519D01*
X1332D01*
Y1452D01*
X1350D01*
Y1410D01*
X1332D01*
Y1190D01*
X1332Y1190D01*
X1342Y1160D01*
X1332Y1148D01*
X1332Y1140D01*
Y1062D01*
X1427D01*
Y1038D01*
X1452D01*
Y927D01*
X1512D01*
X1553Y927D01*
Y927D01*
X1742D01*
Y968D01*
X1750Y997D01*
X1766Y1000D01*
X1779Y1009D01*
X1816Y1046D01*
X1816Y1046D01*
X1825Y1059D01*
X1828Y1075D01*
Y1196D01*
X2204Y1571D01*
X2213Y1584D01*
X2216Y1600D01*
X2216Y1600D01*
Y2425D01*
X2216Y2425D01*
X2213Y2441D01*
X2204Y2454D01*
X2204Y2454D01*
X2081Y2576D01*
X2068Y2585D01*
X2052Y2588D01*
X2052Y2588D01*
X2002D01*
X2001Y2591D01*
X1981Y2604D01*
X1958Y2609D01*
X1934Y2604D01*
X1914Y2591D01*
X1901Y2571D01*
X1896Y2548D01*
X1901Y2524D01*
X1914Y2504D01*
X1934Y2491D01*
X1941Y2490D01*
X1947Y2458D01*
X1944Y2456D01*
X1931Y2436D01*
X1926Y2412D01*
X1931Y2389D01*
X1944Y2369D01*
X1952Y2364D01*
X1957Y2332D01*
X1955Y2329D01*
X1943Y2311D01*
X1939Y2288D01*
X1943Y2264D01*
X1957Y2244D01*
X1977Y2231D01*
X2000Y2226D01*
X2022Y2209D01*
Y1692D01*
X1933Y1603D01*
X1742D01*
Y1673D01*
X1552D01*
Y1662D01*
X1523D01*
Y1673D01*
X1456D01*
Y1916D01*
X1475Y1943D01*
X1520D01*
Y2003D01*
X1545D01*
Y2028D01*
X1659D01*
X1657Y2036D01*
X1647Y2051D01*
Y2083D01*
X1657Y2098D01*
X1661Y2116D01*
Y2145D01*
X1657Y2163D01*
X1649Y2175D01*
X1647Y2178D01*
X1647Y2210D01*
X1649Y2213D01*
X1657Y2225D01*
X1661Y2242D01*
Y2273D01*
X1657Y2290D01*
X1647Y2305D01*
Y2337D01*
X1657Y2352D01*
X1661Y2369D01*
Y2400D01*
X1657Y2417D01*
X1647Y2432D01*
X1633Y2442D01*
X1615Y2445D01*
X1586D01*
Y2595D01*
X1610Y2614D01*
X1611Y2614D01*
X1638Y2604D01*
X1641Y2589D01*
X1654Y2569D01*
X1674Y2556D01*
X1698Y2551D01*
X1721Y2556D01*
X1741Y2569D01*
X1754Y2589D01*
X1759Y2612D01*
X1754Y2636D01*
X1741Y2656D01*
X1739Y2657D01*
Y2693D01*
X1741Y2694D01*
X1754Y2714D01*
X1759Y2738D01*
X1754Y2761D01*
X1741Y2781D01*
X1721Y2794D01*
X1699Y2805D01*
X1694Y2828D01*
X1681Y2848D01*
X1661Y2862D01*
X1638Y2866D01*
X1616Y2862D01*
X1614Y2862D01*
X1586Y2879D01*
Y3100D01*
X1588Y3101D01*
X1611Y3106D01*
X1631Y3119D01*
X1632Y3122D01*
X1687D01*
X1688Y3122D01*
X1703Y3125D01*
X1716Y3134D01*
X1879Y3296D01*
X1879Y3296D01*
X1888Y3309D01*
X1891Y3325D01*
Y3512D01*
X1891Y3512D01*
X1888Y3528D01*
X1879Y3541D01*
X1829Y3591D01*
X1816Y3600D01*
X1800Y3603D01*
X1792Y3632D01*
Y3672D01*
X1792D01*
X1789Y3681D01*
X1896Y3788D01*
X1896Y3788D01*
X1904Y3801D01*
X1907Y3817D01*
Y3843D01*
X1914Y3848D01*
X1924Y3862D01*
X1927Y3879D01*
X2013D01*
Y3820D01*
X2233D01*
Y4010D01*
X2013D01*
Y3961D01*
X1927D01*
X1924Y3978D01*
X1914Y3992D01*
X1899Y4002D01*
X1882Y4006D01*
X1852D01*
X1834Y4002D01*
X1819Y3992D01*
X1819D01*
X1804Y4002D01*
X1797Y4004D01*
Y3920D01*
X1747D01*
Y4004D01*
X1724Y4018D01*
X1717Y4024D01*
Y4099D01*
X1723Y4107D01*
X1724Y4108D01*
X1735Y4122D01*
X1809D01*
X1819Y4108D01*
X1834Y4098D01*
X1852Y4094D01*
X1882D01*
X1899Y4098D01*
X1912Y4106D01*
X2013D01*
Y4040D01*
X2233D01*
Y4086D01*
X2602D01*
Y4058D01*
X2823D01*
Y4217D01*
X2823Y4217D01*
X2811Y4247D01*
X2811Y4250D01*
X2807Y4273D01*
X2793Y4293D01*
X2773Y4307D01*
X2750Y4311D01*
X2727Y4307D01*
X2707Y4293D01*
X2693Y4273D01*
X2689Y4250D01*
X2689Y4247D01*
X2666Y4217D01*
X2602D01*
Y4199D01*
X2336D01*
X2319Y4226D01*
X2319Y4229D01*
X2324Y4250D01*
X2319Y4273D01*
X2306Y4293D01*
X2286Y4307D01*
X2262Y4311D01*
X2239Y4307D01*
X2219Y4293D01*
X2206Y4273D01*
X2201Y4250D01*
X2185Y4230D01*
X2027D01*
X2002Y4249D01*
X1999Y4254D01*
X1995Y4274D01*
X1982Y4294D01*
X1980Y4296D01*
Y4474D01*
X1980Y4474D01*
X1977Y4489D01*
X1968Y4502D01*
X1969Y4511D01*
X1981Y4519D01*
X1994Y4539D01*
X1999Y4562D01*
X1994Y4586D01*
X1981Y4606D01*
X1961Y4619D01*
X1938Y4624D01*
X1914Y4619D01*
X1911Y4617D01*
X1887Y4612D01*
X1872Y4625D01*
X1868Y4631D01*
X1848Y4644D01*
X1825Y4649D01*
X1802Y4644D01*
X1782Y4631D01*
X1747Y4632D01*
X1657Y4722D01*
X1657Y4731D01*
X1682Y4759D01*
X1825D01*
X1825Y4759D01*
X1841Y4762D01*
X1854Y4771D01*
X2035Y4952D01*
X2064Y4946D01*
X2075Y4919D01*
X2067Y4908D01*
X2063Y4885D01*
X2067Y4862D01*
X2080Y4842D01*
X2100Y4828D01*
X2124Y4824D01*
X2147Y4828D01*
X2167Y4842D01*
X2180Y4862D01*
X2185Y4885D01*
X2180Y4908D01*
X2168Y4932D01*
X2182Y4952D01*
X2186Y4975D01*
X2182Y4998D01*
X2168Y5018D01*
X2153Y5028D01*
X2147Y5051D01*
X2145Y5063D01*
X2455Y5372D01*
X2459Y5370D01*
X2480Y5355D01*
X2476Y5338D01*
X2481Y5314D01*
X2494Y5294D01*
X2514Y5281D01*
X2538Y5276D01*
X2561Y5281D01*
X2581Y5294D01*
X2602Y5281D01*
X2625Y5276D01*
X2648Y5281D01*
X2668Y5294D01*
X2673Y5301D01*
X2705Y5295D01*
X2706Y5289D01*
X2719Y5269D01*
X2739Y5256D01*
X2762Y5251D01*
X2786Y5256D01*
X2806Y5269D01*
X2819Y5289D01*
X2824Y5312D01*
X2819Y5336D01*
X2806Y5356D01*
X2786Y5369D01*
X2762Y5374D01*
X2739Y5369D01*
X2719Y5356D01*
X2715Y5349D01*
X2683Y5355D01*
X2682Y5361D01*
X2668Y5381D01*
X2648Y5394D01*
X2625Y5399D01*
X2602Y5394D01*
X2581Y5381D01*
X2561Y5394D01*
X2538Y5399D01*
X2520Y5395D01*
X2505Y5416D01*
X2503Y5420D01*
X2816Y5734D01*
X2816Y5734D01*
X2825Y5747D01*
X2828Y5762D01*
Y5875D01*
X2858Y5887D01*
X2948Y5798D01*
X2966Y5786D01*
X2988Y5781D01*
X3088D01*
X3089Y5781D01*
X3112Y5776D01*
X3115Y5774D01*
Y5758D01*
X3153D01*
X3158Y5728D01*
X3144Y5718D01*
X3131Y5698D01*
X3126Y5675D01*
X3100Y5661D01*
X3077Y5657D01*
X3057Y5643D01*
X3044Y5623D01*
X3039Y5600D01*
X3044Y5577D01*
X3057Y5557D01*
X3077Y5544D01*
X3100Y5539D01*
X3123Y5544D01*
X3143Y5557D01*
X3157Y5577D01*
X3161Y5600D01*
X3188Y5614D01*
X3211Y5618D01*
X3231Y5632D01*
X3244Y5652D01*
X3249Y5675D01*
X3244Y5698D01*
X3231Y5718D01*
X3217Y5728D01*
X3222Y5758D01*
X3335D01*
Y5917D01*
X3115D01*
Y5901D01*
X3112Y5899D01*
X3089Y5894D01*
X3088Y5894D01*
X3011D01*
X2931Y5973D01*
Y6413D01*
X2932Y6414D01*
X2936Y6438D01*
X2932Y6461D01*
X2931Y6462D01*
Y6477D01*
X2973Y6519D01*
X3783D01*
Y6478D01*
X3750D01*
X3733Y6476D01*
X3717Y6469D01*
X3704Y6459D01*
X3693Y6445D01*
X3687Y6429D01*
X3684Y6412D01*
X3687Y6396D01*
X3693Y6380D01*
X3704Y6366D01*
X3717Y6356D01*
X3733Y6349D01*
X3750Y6347D01*
X3783D01*
Y6303D01*
X3806D01*
Y6247D01*
X3783D01*
Y6107D01*
X3753Y6077D01*
X3722Y6089D01*
Y6117D01*
X3637D01*
Y6037D01*
X3612D01*
Y6012D01*
X3500D01*
X3473Y5999D01*
X3456Y6006D01*
X3438Y6008D01*
X3419Y6006D01*
X3402Y5999D01*
X3388Y5987D01*
X3376Y5973D01*
X3369Y5956D01*
X3367Y5938D01*
Y5875D01*
X3369Y5857D01*
X3376Y5840D01*
X3388Y5825D01*
X3415Y5798D01*
X3430Y5786D01*
X3447Y5779D01*
X3465Y5777D01*
X3503D01*
Y5758D01*
X3542D01*
Y5542D01*
X3425Y5425D01*
X3414Y5410D01*
X3407Y5393D01*
X3404Y5375D01*
X3407Y5357D01*
X3414Y5340D01*
X3425Y5325D01*
X3440Y5314D01*
X3457Y5307D01*
X3475Y5304D01*
X3493Y5307D01*
X3510Y5314D01*
X3525Y5325D01*
X3662Y5463D01*
X3674Y5477D01*
X3681Y5494D01*
X3683Y5512D01*
Y5758D01*
X3722D01*
X3722Y5758D01*
X3725Y5756D01*
X3727Y5756D01*
X3750Y5751D01*
X3753Y5752D01*
X3783Y5729D01*
Y5672D01*
Y5532D01*
X3710Y5460D01*
X3698Y5441D01*
X3694Y5420D01*
Y5399D01*
X3693Y5398D01*
X3689Y5375D01*
X3693Y5352D01*
X3707Y5332D01*
X3727Y5318D01*
X3750Y5314D01*
X3773Y5318D01*
X3793Y5332D01*
X3803Y5347D01*
X3807Y5352D01*
X3838Y5357D01*
X3839Y5356D01*
X3862Y5351D01*
X3886Y5356D01*
X3906Y5369D01*
X3919Y5389D01*
X3924Y5412D01*
X3922Y5422D01*
X3941Y5453D01*
X3942D01*
Y5672D01*
Y5703D01*
Y5922D01*
X3806D01*
X3796Y5923D01*
X3787Y5952D01*
X3789Y5954D01*
X3793Y5957D01*
X3798Y5963D01*
X3862Y6028D01*
X3942D01*
Y6247D01*
X3919D01*
Y6303D01*
X3942D01*
Y6522D01*
X3919D01*
Y6546D01*
X3914Y6567D01*
X3902Y6585D01*
X3873Y6615D01*
X3855Y6627D01*
X3833Y6631D01*
X3445D01*
X3426Y6655D01*
X3439Y6668D01*
X3462Y6664D01*
X3486Y6668D01*
X3506Y6682D01*
X3519Y6702D01*
X3524Y6725D01*
X3520Y6742D01*
X3532Y6763D01*
X3540Y6772D01*
X3705D01*
X3707Y6769D01*
X3727Y6756D01*
X3750Y6751D01*
X3773Y6756D01*
X3793Y6769D01*
X3807Y6789D01*
X3811Y6812D01*
X3807Y6836D01*
X3794Y6856D01*
X3807Y6877D01*
X3811Y6900D01*
X3811Y6903D01*
X3834Y6932D01*
X3985D01*
Y6932D01*
X4013Y6928D01*
X4015Y6926D01*
Y6882D01*
X4100D01*
Y6962D01*
Y7043D01*
X4060D01*
X4051Y7053D01*
X4057Y7072D01*
X4068Y7082D01*
X4235D01*
Y7243D01*
X4196D01*
Y7275D01*
X4193Y7293D01*
X4186Y7310D01*
X4175Y7325D01*
X4160Y7336D01*
X4143Y7343D01*
X4125Y7346D01*
X4107Y7343D01*
X4090Y7336D01*
X4075Y7325D01*
X4064Y7310D01*
X4057Y7293D01*
X4054Y7275D01*
Y7243D01*
X4015D01*
Y7099D01*
X4013Y7097D01*
X3985Y7093D01*
Y7093D01*
X3765D01*
Y7093D01*
X3738Y7074D01*
X3714Y7069D01*
X3694Y7056D01*
X3659Y7057D01*
X3653Y7062D01*
Y7450D01*
X3653Y7450D01*
X3650Y7466D01*
X3641Y7479D01*
X3482Y7638D01*
X3469Y7647D01*
X3453Y7650D01*
X3453Y7650D01*
X3389D01*
X3385Y7657D01*
X3370Y7667D01*
X3353Y7670D01*
D02*
G37*
G36*
X7162Y7086D02*
X7139Y7082D01*
X7119Y7068D01*
X7106Y7048D01*
X7101Y7025D01*
X7106Y7002D01*
X7119Y6982D01*
X7139Y6968D01*
X7162Y6964D01*
X7186Y6968D01*
X7206Y6982D01*
X7219Y7002D01*
X7224Y7025D01*
X7219Y7048D01*
X7206Y7068D01*
X7186Y7082D01*
X7162Y7086D01*
D02*
G37*
G36*
X2085Y7195D02*
X1905D01*
Y6955D01*
X2085D01*
Y7195D01*
D02*
G37*
G36*
X1845D02*
X1665D01*
Y6955D01*
X1845D01*
Y7195D01*
D02*
G37*
G36*
X5447Y6988D02*
X5362D01*
Y6932D01*
X5447D01*
Y6988D01*
D02*
G37*
G36*
X5312D02*
X5228D01*
Y6932D01*
X5312D01*
Y6988D01*
D02*
G37*
G36*
X5160Y6988D02*
X5075D01*
Y6932D01*
X5160D01*
Y6988D01*
D02*
G37*
G36*
X5025D02*
X4940D01*
Y6932D01*
X5025D01*
Y6988D01*
D02*
G37*
G36*
X1610Y6955D02*
X1525D01*
Y6900D01*
X1610D01*
Y6955D01*
D02*
G37*
G36*
X1475D02*
X1390D01*
Y6900D01*
X1475D01*
Y6955D01*
D02*
G37*
G36*
X2335Y6955D02*
X2250D01*
Y6900D01*
X2335D01*
Y6955D01*
D02*
G37*
G36*
X2200D02*
X2115D01*
Y6900D01*
X2200D01*
Y6955D01*
D02*
G37*
G36*
X4872Y6938D02*
X4788D01*
Y6882D01*
X4872D01*
Y6938D01*
D02*
G37*
G36*
X4738D02*
X4653D01*
Y6882D01*
X4738D01*
Y6938D01*
D02*
G37*
G36*
X4547D02*
X4462D01*
Y6882D01*
X4547D01*
Y6938D01*
D02*
G37*
G36*
X4412D02*
X4328D01*
Y6882D01*
X4412D01*
Y6938D01*
D02*
G37*
G36*
X4235Y6938D02*
X4150D01*
Y6882D01*
X4235D01*
Y6938D01*
D02*
G37*
G36*
X2335Y6850D02*
X2250D01*
Y6795D01*
X2335D01*
Y6850D01*
D02*
G37*
G36*
X2200D02*
X2115D01*
Y6795D01*
X2200D01*
Y6850D01*
D02*
G37*
G36*
X1610Y6850D02*
X1525D01*
Y6795D01*
X1610D01*
Y6850D01*
D02*
G37*
G36*
X1475D02*
X1390D01*
Y6795D01*
X1475D01*
Y6850D01*
D02*
G37*
G36*
X480Y6941D02*
X453Y6938D01*
X427Y6927D01*
X405Y6910D01*
X388Y6888D01*
X378Y6863D01*
X374Y6836D01*
X378Y6808D01*
X388Y6783D01*
X405Y6761D01*
X427Y6744D01*
X453Y6733D01*
X480Y6730D01*
X507Y6733D01*
X533Y6744D01*
X555Y6761D01*
X572Y6783D01*
X582Y6808D01*
X586Y6836D01*
X582Y6863D01*
X572Y6888D01*
X555Y6910D01*
X533Y6927D01*
X507Y6938D01*
X480Y6941D01*
D02*
G37*
G36*
X1845Y6795D02*
X1665D01*
Y6716D01*
X1610D01*
Y6755D01*
X1390D01*
Y6595D01*
X1610D01*
Y6634D01*
X1665D01*
Y6555D01*
X1712D01*
Y6522D01*
X1658D01*
Y6303D01*
X1848D01*
Y6522D01*
X1793D01*
Y6555D01*
X1845D01*
Y6795D01*
D02*
G37*
G36*
X9500Y6686D02*
X9477Y6682D01*
X9457Y6668D01*
X9443Y6648D01*
X9439Y6625D01*
X9443Y6602D01*
X9457Y6582D01*
X9477Y6568D01*
X9500Y6564D01*
X9523Y6568D01*
X9543Y6582D01*
X9557Y6602D01*
X9561Y6625D01*
X9557Y6648D01*
X9543Y6668D01*
X9523Y6682D01*
X9500Y6686D01*
D02*
G37*
G36*
X7750D02*
X7727Y6682D01*
X7707Y6668D01*
X7693Y6648D01*
X7689Y6625D01*
X7693Y6602D01*
X7707Y6582D01*
X7727Y6568D01*
X7750Y6564D01*
X7773Y6568D01*
X7793Y6582D01*
X7807Y6602D01*
X7811Y6625D01*
X7807Y6648D01*
X7793Y6668D01*
X7773Y6682D01*
X7750Y6686D01*
D02*
G37*
G36*
X5330Y6572D02*
X5275D01*
Y6488D01*
X5330D01*
Y6572D01*
D02*
G37*
G36*
X5225D02*
X5170D01*
Y6488D01*
X5225D01*
Y6572D01*
D02*
G37*
G36*
X585Y6686D02*
X375D01*
Y6476D01*
X585D01*
Y6686D01*
D02*
G37*
G36*
X6185Y6493D02*
X6100D01*
Y6438D01*
X6185D01*
Y6493D01*
D02*
G37*
G36*
X4142Y6522D02*
X4088D01*
Y6438D01*
X4142D01*
Y6522D01*
D02*
G37*
G36*
X4038D02*
X3983D01*
Y6438D01*
X4038D01*
Y6522D01*
D02*
G37*
G36*
X5530Y6572D02*
X5370D01*
Y6353D01*
X5530D01*
Y6392D01*
X5562D01*
X5581Y6394D01*
X5598Y6401D01*
X5612Y6413D01*
X5624Y6427D01*
X5631Y6444D01*
X5633Y6462D01*
X5631Y6481D01*
X5624Y6498D01*
X5612Y6512D01*
X5598Y6524D01*
X5581Y6531D01*
X5562Y6533D01*
X5530D01*
Y6572D01*
D02*
G37*
G36*
X5330Y6438D02*
X5275D01*
Y6353D01*
X5330D01*
Y6438D01*
D02*
G37*
G36*
X5225D02*
X5170D01*
Y6353D01*
X5225D01*
Y6438D01*
D02*
G37*
G36*
X6185Y6388D02*
X6100D01*
Y6333D01*
X6185D01*
Y6388D01*
D02*
G37*
G36*
X5965Y6493D02*
X5938Y6474D01*
X5914Y6469D01*
X5894Y6456D01*
X5893Y6453D01*
X5893D01*
X5877Y6450D01*
X5864Y6441D01*
X5864Y6441D01*
X5802Y6380D01*
X5640D01*
Y6263D01*
X5620Y6254D01*
X5610Y6252D01*
X5598Y6261D01*
X5581Y6268D01*
X5562Y6271D01*
X5530D01*
Y6310D01*
X5370D01*
Y6090D01*
Y6060D01*
Y5840D01*
X5370D01*
X5389Y5812D01*
X5391Y5803D01*
X5386Y5796D01*
X5370Y5772D01*
X5370Y5772D01*
X5370Y5772D01*
Y5553D01*
X5530D01*
Y5669D01*
X5888D01*
X5889Y5669D01*
X5913Y5664D01*
X5928Y5667D01*
X5946Y5647D01*
X5948Y5643D01*
X5943Y5636D01*
X5939Y5612D01*
X5943Y5589D01*
X5946Y5585D01*
X5954Y5562D01*
X5946Y5540D01*
X5943Y5536D01*
X5939Y5512D01*
X5943Y5489D01*
X5956Y5469D01*
X5943Y5448D01*
X5939Y5425D01*
X5943Y5402D01*
X5946Y5397D01*
X5954Y5375D01*
X5946Y5353D01*
X5943Y5348D01*
X5939Y5325D01*
X5939Y5322D01*
X5834Y5216D01*
X5798Y5223D01*
X5793Y5231D01*
X5773Y5244D01*
X5750Y5249D01*
X5727Y5244D01*
X5707Y5231D01*
X5693Y5211D01*
X5689Y5188D01*
X5671Y5166D01*
X5607D01*
X5606Y5168D01*
X5586Y5182D01*
X5562Y5186D01*
X5539Y5182D01*
X5519Y5168D01*
X5506Y5148D01*
X5501Y5125D01*
X5502Y5124D01*
X5476Y5097D01*
X5438D01*
Y5012D01*
X5492D01*
Y5068D01*
X5508Y5076D01*
X5522Y5080D01*
X5539Y5068D01*
X5562Y5064D01*
X5586Y5068D01*
X5606Y5082D01*
X5607Y5084D01*
X5800D01*
X5800Y5084D01*
X5816Y5087D01*
X5829Y5096D01*
X5997Y5264D01*
X6000Y5264D01*
X6023Y5268D01*
X6043Y5282D01*
X6057Y5302D01*
X6061Y5325D01*
X6057Y5348D01*
X6054Y5353D01*
X6046Y5375D01*
X6054Y5397D01*
X6057Y5402D01*
X6061Y5425D01*
X6057Y5448D01*
X6044Y5469D01*
X6057Y5489D01*
X6061Y5512D01*
X6057Y5536D01*
X6054Y5540D01*
X6046Y5562D01*
X6054Y5585D01*
X6057Y5589D01*
X6061Y5612D01*
X6086Y5631D01*
X6106Y5644D01*
X6119Y5664D01*
X6124Y5688D01*
X6119Y5711D01*
X6106Y5731D01*
X6086Y5744D01*
X6062Y5749D01*
X6039Y5744D01*
X6019Y5731D01*
X6006Y5711D01*
X6003Y5695D01*
X5996Y5692D01*
X5972Y5713D01*
X5972Y5715D01*
X5974Y5725D01*
X5969Y5748D01*
X5963Y5757D01*
X5981Y5769D01*
X5994Y5789D01*
X5999Y5812D01*
X5994Y5836D01*
X5981Y5856D01*
X5961Y5869D01*
X5938Y5874D01*
X5914Y5869D01*
X5894Y5856D01*
X5881Y5836D01*
X5876Y5812D01*
X5877Y5811D01*
X5853Y5781D01*
X5535D01*
X5511Y5811D01*
X5511Y5812D01*
X5530Y5840D01*
X5530D01*
X5537Y5867D01*
X5562D01*
X5581Y5869D01*
X5598Y5876D01*
X5612Y5888D01*
X5621Y5899D01*
X5627Y5900D01*
X5640Y5909D01*
X5702Y5970D01*
X5860D01*
Y6134D01*
X5860Y6141D01*
X5884Y6149D01*
X5908Y6135D01*
X5914Y6131D01*
X5938Y6125D01*
X5943Y6102D01*
X5957Y6082D01*
X5977Y6068D01*
X6000Y6063D01*
X6006Y6039D01*
X6017Y6022D01*
X6006Y6006D01*
X6001Y5983D01*
X6006Y5959D01*
X6018Y5941D01*
X6006Y5923D01*
X6001Y5900D01*
X6006Y5877D01*
X6019Y5857D01*
X6039Y5843D01*
X6062Y5839D01*
X6086Y5843D01*
X6106Y5857D01*
X6119Y5877D01*
X6124Y5900D01*
X6119Y5923D01*
X6107Y5941D01*
X6119Y5959D01*
X6124Y5983D01*
X6119Y6006D01*
X6108Y6022D01*
X6119Y6039D01*
X6124Y6062D01*
X6119Y6086D01*
X6106Y6106D01*
X6086Y6119D01*
X6062Y6125D01*
X6057Y6148D01*
X6043Y6168D01*
X6023Y6182D01*
X6000Y6187D01*
X5994Y6211D01*
X5981Y6231D01*
X5961Y6244D01*
X5938Y6249D01*
X5914Y6244D01*
X5894Y6231D01*
X5890Y6224D01*
X5860Y6234D01*
Y6322D01*
X5902Y6364D01*
X5914Y6356D01*
X5938Y6351D01*
X5965Y6333D01*
Y6333D01*
X6050D01*
Y6413D01*
Y6493D01*
X5965D01*
Y6493D01*
D02*
G37*
G36*
X3198Y6410D02*
X3127D01*
Y6325D01*
X3198D01*
Y6410D01*
D02*
G37*
G36*
X3077D02*
X3008D01*
Y6325D01*
X3077D01*
Y6410D01*
D02*
G37*
G36*
X4142Y6388D02*
X4088D01*
Y6303D01*
X4142D01*
Y6388D01*
D02*
G37*
G36*
X4038D02*
X3983D01*
Y6303D01*
X4038D01*
Y6388D01*
D02*
G37*
G36*
X5330Y6310D02*
X5275D01*
Y6225D01*
X5330D01*
Y6310D01*
D02*
G37*
G36*
X5225D02*
X5170D01*
Y6225D01*
X5225D01*
Y6310D01*
D02*
G37*
G36*
X3198Y6275D02*
X3127D01*
Y6190D01*
X3198D01*
Y6275D01*
D02*
G37*
G36*
X3077D02*
X3008D01*
Y6190D01*
X3077D01*
Y6275D01*
D02*
G37*
G36*
X4142Y6247D02*
X4088D01*
Y6162D01*
X4142D01*
Y6247D01*
D02*
G37*
G36*
X4038D02*
X3983D01*
Y6162D01*
X4038D01*
Y6247D01*
D02*
G37*
G36*
X3417Y6410D02*
X3228D01*
Y6190D01*
X3403D01*
X3406Y6177D01*
X3419Y6157D01*
X3439Y6143D01*
X3462Y6139D01*
X3486Y6143D01*
X3506Y6157D01*
X3519Y6177D01*
X3524Y6200D01*
X3519Y6223D01*
X3506Y6243D01*
X3498Y6248D01*
Y6260D01*
X3498Y6260D01*
X3495Y6276D01*
X3486Y6289D01*
X3486Y6289D01*
X3446Y6329D01*
X3433Y6338D01*
X3417Y6341D01*
X3417Y6341D01*
Y6410D01*
D02*
G37*
G36*
X5330Y6175D02*
X5275D01*
Y6090D01*
X5330D01*
Y6175D01*
D02*
G37*
G36*
X5225D02*
X5170D01*
Y6090D01*
X5225D01*
Y6175D01*
D02*
G37*
G36*
X3335Y6117D02*
X3250D01*
Y6062D01*
X3335D01*
Y6117D01*
D02*
G37*
G36*
X3200D02*
X3115D01*
Y6062D01*
X3200D01*
Y6117D01*
D02*
G37*
G36*
X3588D02*
X3503D01*
Y6062D01*
X3588D01*
Y6117D01*
D02*
G37*
G36*
X4142Y6112D02*
X4088D01*
Y6028D01*
X4142D01*
Y6112D01*
D02*
G37*
G36*
X4038D02*
X3983D01*
Y6028D01*
X4038D01*
Y6112D01*
D02*
G37*
G36*
X1530Y6072D02*
X1475D01*
Y5988D01*
X1530D01*
Y6072D01*
D02*
G37*
G36*
X1425D02*
X1370D01*
Y5988D01*
X1425D01*
Y6072D01*
D02*
G37*
G36*
X5330Y6060D02*
X5275D01*
Y5975D01*
X5330D01*
Y6060D01*
D02*
G37*
G36*
X5225D02*
X5170D01*
Y5975D01*
X5225D01*
Y6060D01*
D02*
G37*
G36*
X3335Y6012D02*
X3250D01*
Y5958D01*
X3335D01*
Y6012D01*
D02*
G37*
G36*
X3200D02*
X3115D01*
Y5958D01*
X3200D01*
Y6012D01*
D02*
G37*
G36*
X312Y6061D02*
X289Y6057D01*
X269Y6043D01*
X256Y6023D01*
X251Y6000D01*
X256Y5977D01*
X269Y5957D01*
X289Y5943D01*
X312Y5939D01*
X336Y5943D01*
X356Y5957D01*
X369Y5977D01*
X374Y6000D01*
X369Y6023D01*
X356Y6043D01*
X336Y6057D01*
X312Y6061D01*
D02*
G37*
G36*
X9500Y5999D02*
X9477Y5994D01*
X9457Y5981D01*
X9443Y5961D01*
X9439Y5938D01*
X9443Y5914D01*
X9457Y5894D01*
X9477Y5881D01*
X9500Y5876D01*
X9523Y5881D01*
X9543Y5894D01*
X9557Y5914D01*
X9561Y5938D01*
X9557Y5961D01*
X9543Y5981D01*
X9523Y5994D01*
X9500Y5999D01*
D02*
G37*
G36*
X7750D02*
X7727Y5994D01*
X7707Y5981D01*
X7693Y5961D01*
X7689Y5938D01*
X7693Y5914D01*
X7707Y5894D01*
X7727Y5881D01*
X7750Y5876D01*
X7773Y5881D01*
X7793Y5894D01*
X7807Y5914D01*
X7811Y5938D01*
X7807Y5961D01*
X7793Y5981D01*
X7773Y5994D01*
X7750Y5999D01*
D02*
G37*
G36*
X1250Y6186D02*
X1227Y6182D01*
X1207Y6168D01*
X1193Y6148D01*
X1189Y6125D01*
X1193Y6102D01*
X1187Y6072D01*
X1170D01*
Y5853D01*
X1330D01*
Y6072D01*
X1313D01*
X1307Y6102D01*
X1311Y6125D01*
X1307Y6148D01*
X1293Y6168D01*
X1273Y6182D01*
X1250Y6186D01*
D02*
G37*
G36*
X5330Y5925D02*
X5275D01*
Y5840D01*
X5330D01*
Y5925D01*
D02*
G37*
G36*
X5225D02*
X5170D01*
Y5840D01*
X5225D01*
Y5925D01*
D02*
G37*
G36*
X4142Y5922D02*
X4088D01*
Y5838D01*
X4142D01*
Y5922D01*
D02*
G37*
G36*
X4038D02*
X3983D01*
Y5838D01*
X4038D01*
Y5922D01*
D02*
G37*
G36*
X1000Y5999D02*
X977Y5994D01*
X957Y5981D01*
X943Y5961D01*
X939Y5938D01*
X943Y5914D01*
X957Y5894D01*
X977Y5881D01*
X1001Y5875D01*
X1006Y5852D01*
X1019Y5832D01*
X1039Y5818D01*
X1062Y5814D01*
X1086Y5818D01*
X1106Y5832D01*
X1119Y5852D01*
X1124Y5875D01*
X1119Y5898D01*
X1106Y5918D01*
X1086Y5932D01*
X1061Y5938D01*
X1057Y5961D01*
X1043Y5981D01*
X1023Y5994D01*
X1000Y5999D01*
D02*
G37*
G36*
X4312Y5874D02*
X4289Y5869D01*
X4269Y5856D01*
X4256Y5836D01*
X4251Y5812D01*
X4256Y5789D01*
X4256Y5788D01*
Y5746D01*
X4244Y5739D01*
X4226Y5734D01*
X4211Y5744D01*
X4188Y5749D01*
X4172Y5746D01*
X4149Y5759D01*
X4142Y5766D01*
Y5788D01*
X4062D01*
X3983D01*
Y5703D01*
Y5672D01*
Y5588D01*
X4062D01*
Y5538D01*
X3983D01*
Y5453D01*
X3984D01*
X4003Y5422D01*
X4001Y5412D01*
X4006Y5389D01*
X4019Y5369D01*
X4039Y5356D01*
X4062Y5351D01*
X4086Y5356D01*
X4106Y5369D01*
X4115Y5384D01*
X4132Y5390D01*
X4150Y5390D01*
X4164Y5381D01*
X4188Y5376D01*
X4211Y5381D01*
X4231Y5394D01*
X4244Y5414D01*
X4249Y5438D01*
X4276Y5453D01*
X4370Y5453D01*
X4371D01*
X4371D01*
X4381Y5453D01*
X4387Y5449D01*
X4396Y5437D01*
X4396Y5437D01*
X4399Y5434D01*
X4401Y5412D01*
X4403Y5405D01*
X4406Y5389D01*
X4419Y5369D01*
X4439Y5356D01*
X4462Y5351D01*
X4486Y5356D01*
X4506Y5369D01*
X4527Y5356D01*
X4550Y5351D01*
X4573Y5356D01*
X4593Y5369D01*
X4607Y5389D01*
X4611Y5412D01*
X4607Y5436D01*
X4593Y5456D01*
X4592Y5456D01*
Y5538D01*
X4433D01*
Y5485D01*
X4422Y5476D01*
X4413Y5476D01*
X4406Y5479D01*
X4392Y5493D01*
Y5672D01*
X4369D01*
Y5788D01*
X4369Y5789D01*
X4374Y5812D01*
X4369Y5836D01*
X4356Y5856D01*
X4336Y5869D01*
X4312Y5874D01*
D02*
G37*
G36*
X1225Y7571D02*
X1162D01*
X1144Y7568D01*
X1127Y7561D01*
X1113Y7550D01*
X1101Y7535D01*
X1094Y7518D01*
X1092Y7500D01*
X1094Y7482D01*
X1096Y7478D01*
X1081Y7450D01*
X1077Y7447D01*
X1050D01*
Y7362D01*
X1105D01*
Y7397D01*
X1135Y7414D01*
X1145Y7407D01*
Y7228D01*
X1154D01*
Y7125D01*
Y6929D01*
X513Y6287D01*
X501Y6273D01*
X494Y6256D01*
X492Y6238D01*
Y5705D01*
X453D01*
Y5696D01*
X398D01*
X374Y5725D01*
X369Y5748D01*
X356Y5769D01*
X369Y5789D01*
X374Y5812D01*
X369Y5836D01*
X356Y5856D01*
X336Y5869D01*
X312Y5874D01*
X289Y5869D01*
X269Y5856D01*
X256Y5836D01*
X251Y5812D01*
X256Y5789D01*
X269Y5769D01*
X256Y5748D01*
X251Y5725D01*
X227Y5696D01*
X212D01*
X194Y5693D01*
X177Y5686D01*
X163Y5675D01*
X151Y5660D01*
X144Y5643D01*
X142Y5625D01*
Y5525D01*
Y5425D01*
X144Y5407D01*
X151Y5390D01*
X163Y5375D01*
X177Y5364D01*
X194Y5357D01*
X212Y5354D01*
X231Y5357D01*
X248Y5364D01*
X262Y5375D01*
X274Y5390D01*
X281Y5407D01*
X283Y5425D01*
Y5554D01*
X453D01*
Y5545D01*
X672D01*
Y5705D01*
X633D01*
Y6208D01*
X1275Y6850D01*
X1286Y6865D01*
X1293Y6882D01*
X1296Y6900D01*
Y7125D01*
Y7228D01*
X1305D01*
Y7447D01*
X1296D01*
Y7500D01*
X1293Y7518D01*
X1286Y7535D01*
X1275Y7550D01*
X1260Y7561D01*
X1243Y7568D01*
X1225Y7571D01*
D02*
G37*
G36*
X5330Y5772D02*
X5275D01*
Y5687D01*
X5330D01*
Y5772D01*
D02*
G37*
G36*
X5225D02*
X5170D01*
Y5687D01*
X5225D01*
Y5772D01*
D02*
G37*
G36*
X1992Y5747D02*
X1938D01*
Y5662D01*
X1992D01*
Y5747D01*
D02*
G37*
G36*
X4880Y5672D02*
X4825D01*
Y5588D01*
X4880D01*
Y5672D01*
D02*
G37*
G36*
X4775D02*
X4720D01*
Y5588D01*
X4775D01*
Y5672D01*
D02*
G37*
G36*
X4592D02*
X4538D01*
Y5588D01*
X4592D01*
Y5672D01*
D02*
G37*
G36*
X4488D02*
X4433D01*
Y5588D01*
X4488D01*
Y5672D01*
D02*
G37*
G36*
X5330Y5638D02*
X5275D01*
Y5553D01*
X5330D01*
Y5638D01*
D02*
G37*
G36*
X5225D02*
X5170D01*
Y5553D01*
X5225D01*
Y5638D01*
D02*
G37*
G36*
X1992Y5612D02*
X1938D01*
Y5528D01*
X1992D01*
Y5612D01*
D02*
G37*
G36*
X1888D02*
X1833D01*
Y5528D01*
X1888D01*
Y5612D01*
D02*
G37*
G36*
X3438Y5724D02*
X3414Y5719D01*
X3394Y5706D01*
X3381Y5686D01*
X3376Y5662D01*
X3381Y5639D01*
X3394Y5619D01*
X3381Y5598D01*
X3376Y5575D01*
X3381Y5552D01*
X3394Y5532D01*
X3414Y5519D01*
X3438Y5514D01*
X3461Y5519D01*
X3481Y5532D01*
X3494Y5552D01*
X3499Y5575D01*
X3494Y5598D01*
X3481Y5618D01*
X3494Y5639D01*
X3499Y5662D01*
X3494Y5686D01*
X3481Y5706D01*
X3461Y5719D01*
X3438Y5724D01*
D02*
G37*
G36*
X4880Y5538D02*
X4825D01*
Y5453D01*
X4880D01*
Y5538D01*
D02*
G37*
G36*
X4775D02*
X4720D01*
Y5453D01*
X4775D01*
Y5538D01*
D02*
G37*
G36*
X1188Y5811D02*
X1164Y5807D01*
X1144Y5793D01*
X1131Y5773D01*
X1126Y5750D01*
X1131Y5727D01*
X1144Y5707D01*
X1163Y5694D01*
X1165Y5684D01*
X1167Y5662D01*
X1157Y5656D01*
X1143Y5636D01*
X1139Y5612D01*
X1143Y5589D01*
X1146Y5585D01*
X1157Y5556D01*
X1143Y5536D01*
X1139Y5512D01*
X1143Y5489D01*
X1157Y5469D01*
X1177Y5456D01*
X1200Y5451D01*
X1223Y5456D01*
X1243Y5469D01*
X1257Y5489D01*
X1261Y5512D01*
X1257Y5536D01*
X1254Y5540D01*
X1243Y5569D01*
X1257Y5589D01*
X1261Y5612D01*
X1257Y5636D01*
X1243Y5656D01*
X1225Y5668D01*
X1223Y5678D01*
X1221Y5700D01*
X1231Y5707D01*
X1244Y5727D01*
X1249Y5750D01*
X1244Y5773D01*
X1231Y5793D01*
X1211Y5807D01*
X1188Y5811D01*
D02*
G37*
G36*
X672Y5505D02*
X588D01*
Y5450D01*
X672D01*
Y5505D01*
D02*
G37*
G36*
X538D02*
X453D01*
Y5450D01*
X538D01*
Y5505D01*
D02*
G37*
G36*
X672Y5400D02*
X588D01*
Y5345D01*
X672D01*
Y5400D01*
D02*
G37*
G36*
X538D02*
X453D01*
Y5345D01*
X538D01*
Y5400D01*
D02*
G37*
G36*
X5000Y5874D02*
X4977Y5869D01*
X4957Y5856D01*
X4943Y5836D01*
X4939Y5812D01*
X4943Y5789D01*
X4944Y5788D01*
Y5672D01*
X4920D01*
Y5453D01*
X4949D01*
X4956Y5423D01*
X4951Y5400D01*
X4956Y5377D01*
X4969Y5357D01*
X4989Y5343D01*
X5012Y5339D01*
X5036Y5343D01*
X5056Y5357D01*
X5069Y5377D01*
X5074Y5400D01*
X5069Y5423D01*
X5076Y5453D01*
X5080D01*
Y5672D01*
X5056D01*
Y5788D01*
X5057Y5789D01*
X5061Y5812D01*
X5057Y5836D01*
X5043Y5856D01*
X5023Y5869D01*
X5000Y5874D01*
D02*
G37*
G36*
X6688Y5436D02*
X6664Y5432D01*
X6644Y5418D01*
X6631Y5398D01*
X6626Y5375D01*
X6631Y5352D01*
X6644Y5332D01*
X6664Y5318D01*
X6688Y5314D01*
X6711Y5318D01*
X6731Y5332D01*
X6744Y5352D01*
X6749Y5375D01*
X6744Y5398D01*
X6731Y5418D01*
X6711Y5432D01*
X6688Y5436D01*
D02*
G37*
G36*
X9500Y5311D02*
X9477Y5307D01*
X9457Y5293D01*
X9443Y5273D01*
X9439Y5250D01*
X9443Y5227D01*
X9457Y5207D01*
X9477Y5193D01*
X9500Y5189D01*
X9523Y5193D01*
X9543Y5207D01*
X9557Y5227D01*
X9561Y5250D01*
X9557Y5273D01*
X9543Y5293D01*
X9523Y5307D01*
X9500Y5311D01*
D02*
G37*
G36*
X7750D02*
X7727Y5307D01*
X7707Y5293D01*
X7693Y5273D01*
X7689Y5250D01*
X7693Y5227D01*
X7707Y5207D01*
X7727Y5193D01*
X7750Y5189D01*
X7773Y5193D01*
X7793Y5207D01*
X7807Y5227D01*
X7811Y5250D01*
X7807Y5273D01*
X7793Y5293D01*
X7773Y5307D01*
X7750Y5311D01*
D02*
G37*
G36*
X4312Y5196D02*
X4294Y5193D01*
X4277Y5186D01*
X4263Y5175D01*
X4261Y5172D01*
X4256Y5168D01*
X4256D01*
X4236Y5182D01*
X4213Y5186D01*
X4189Y5182D01*
X4169Y5168D01*
X4156Y5148D01*
X4153Y5132D01*
X4122D01*
X4119Y5148D01*
X4106Y5168D01*
X4086Y5182D01*
X4062Y5186D01*
X4039Y5182D01*
X4019Y5168D01*
X4019D01*
X4015Y5172D01*
X4012Y5175D01*
X3998Y5186D01*
X3981Y5193D01*
X3962Y5196D01*
X3944Y5193D01*
X3927Y5186D01*
X3913Y5175D01*
X3901Y5160D01*
X3899Y5154D01*
X3883Y5151D01*
X3867Y5152D01*
X3856Y5168D01*
X3836Y5182D01*
X3812Y5186D01*
X3789Y5182D01*
X3769Y5168D01*
X3756Y5148D01*
X3751Y5125D01*
X3726Y5097D01*
X3683D01*
Y5012D01*
X3763D01*
X3842D01*
Y5052D01*
X3853Y5062D01*
X3871Y5057D01*
X3883Y5045D01*
Y4878D01*
X4042D01*
Y4917D01*
X4233D01*
Y4878D01*
X4392D01*
Y5097D01*
X4383D01*
Y5125D01*
X4381Y5143D01*
X4374Y5160D01*
X4362Y5175D01*
X4348Y5186D01*
X4331Y5193D01*
X4312Y5196D01*
D02*
G37*
G36*
X5388Y5097D02*
X5333D01*
Y5012D01*
X5388D01*
Y5097D01*
D02*
G37*
G36*
X4938D02*
X4883D01*
Y5012D01*
X4938D01*
Y5097D01*
D02*
G37*
G36*
X4592D02*
X4538D01*
Y5012D01*
X4592D01*
Y5097D01*
D02*
G37*
G36*
X4488D02*
X4433D01*
Y5012D01*
X4488D01*
Y5097D01*
D02*
G37*
G36*
X2675Y5224D02*
X2652Y5219D01*
X2632Y5206D01*
X2618Y5186D01*
X2614Y5162D01*
X2618Y5139D01*
X2621Y5135D01*
X2629Y5112D01*
X2621Y5090D01*
X2618Y5086D01*
X2614Y5062D01*
X2618Y5039D01*
X2632Y5018D01*
X2618Y4998D01*
X2614Y4975D01*
X2618Y4952D01*
X2632Y4932D01*
X2652Y4918D01*
X2675Y4914D01*
X2698Y4918D01*
X2718Y4932D01*
X2732Y4952D01*
X2736Y4975D01*
X2732Y4998D01*
X2718Y5019D01*
X2732Y5039D01*
X2736Y5062D01*
X2732Y5086D01*
X2729Y5090D01*
X2721Y5112D01*
X2729Y5135D01*
X2732Y5139D01*
X2736Y5162D01*
X2732Y5186D01*
X2718Y5206D01*
X2698Y5219D01*
X2675Y5224D01*
D02*
G37*
G36*
X3125Y5311D02*
X3102Y5307D01*
X3082Y5293D01*
X3068Y5273D01*
X3064Y5250D01*
X3068Y5227D01*
X3082Y5207D01*
X3092Y5200D01*
X3090Y5178D01*
X3088Y5168D01*
X3069Y5156D01*
X3056Y5136D01*
X3051Y5112D01*
X3056Y5089D01*
X3069Y5069D01*
X3089Y5056D01*
X3105Y5053D01*
Y5022D01*
X3089Y5019D01*
X3069Y5006D01*
X3056Y4986D01*
X3051Y4962D01*
X3056Y4939D01*
X3069Y4919D01*
X3089Y4906D01*
X3112Y4901D01*
X3136Y4906D01*
X3156Y4919D01*
X3169Y4939D01*
X3174Y4962D01*
X3169Y4986D01*
X3156Y5006D01*
X3136Y5019D01*
X3120Y5022D01*
Y5053D01*
X3136Y5056D01*
X3156Y5069D01*
X3169Y5089D01*
X3174Y5112D01*
X3169Y5136D01*
X3156Y5156D01*
X3146Y5162D01*
X3148Y5184D01*
X3150Y5194D01*
X3168Y5207D01*
X3182Y5227D01*
X3186Y5250D01*
X3182Y5273D01*
X3168Y5293D01*
X3148Y5307D01*
X3125Y5311D01*
D02*
G37*
G36*
X5492Y4962D02*
X5438D01*
Y4878D01*
X5492D01*
Y4962D01*
D02*
G37*
G36*
X5388D02*
X5333D01*
Y4878D01*
X5388D01*
Y4962D01*
D02*
G37*
G36*
X5105Y5196D02*
X5062D01*
X5044Y5193D01*
X5027Y5186D01*
X5013Y5175D01*
X5001Y5160D01*
X4994Y5143D01*
X4992Y5125D01*
X4988Y5120D01*
Y5012D01*
X5042D01*
Y5027D01*
X5052Y5040D01*
X5088Y5042D01*
X5133Y4998D01*
Y4878D01*
X5292D01*
Y5097D01*
X5232D01*
X5155Y5175D01*
X5140Y5186D01*
X5123Y5193D01*
X5105Y5196D01*
D02*
G37*
G36*
X5042Y4962D02*
X4988D01*
Y4878D01*
X5042D01*
Y4962D01*
D02*
G37*
G36*
X4938D02*
X4883D01*
Y4878D01*
X4938D01*
Y4962D01*
D02*
G37*
G36*
X4772Y5196D02*
X4754Y5193D01*
X4737Y5186D01*
X4723Y5175D01*
X4711Y5160D01*
X4704Y5143D01*
X4702Y5125D01*
Y5097D01*
X4683D01*
Y4878D01*
X4842D01*
Y4993D01*
X4843Y4997D01*
Y5125D01*
X4841Y5143D01*
X4834Y5160D01*
X4822Y5175D01*
X4808Y5186D01*
X4791Y5193D01*
X4772Y5196D01*
D02*
G37*
G36*
X4592Y4962D02*
X4538D01*
Y4878D01*
X4592D01*
Y4962D01*
D02*
G37*
G36*
X4488D02*
X4433D01*
Y4878D01*
X4488D01*
Y4962D01*
D02*
G37*
G36*
X3842Y4962D02*
X3788D01*
Y4878D01*
X3842D01*
Y4962D01*
D02*
G37*
G36*
X3738D02*
X3683D01*
Y4878D01*
X3738D01*
Y4962D01*
D02*
G37*
G36*
X3375Y4874D02*
X3352Y4869D01*
X3332Y4856D01*
X3318Y4836D01*
X3314Y4812D01*
X3318Y4789D01*
X3332Y4769D01*
X3352Y4756D01*
X3375Y4751D01*
X3398Y4756D01*
X3418Y4769D01*
X3432Y4789D01*
X3436Y4812D01*
X3432Y4836D01*
X3418Y4856D01*
X3398Y4869D01*
X3375Y4874D01*
D02*
G37*
G36*
X4017Y4758D02*
X3983Y4754D01*
X3951Y4741D01*
X3924Y4720D01*
X3907Y4697D01*
X3890Y4695D01*
X3872Y4697D01*
X3855Y4720D01*
X3828Y4741D01*
X3796Y4754D01*
X3762Y4758D01*
X3729Y4754D01*
X3697Y4741D01*
X3670Y4720D01*
X3653Y4697D01*
X3635Y4695D01*
X3618Y4697D01*
X3601Y4720D01*
X3574Y4741D01*
X3542Y4754D01*
X3508Y4758D01*
X3475Y4754D01*
X3443Y4741D01*
X3416Y4720D01*
X3399Y4697D01*
X3381Y4695D01*
X3364Y4697D01*
X3347Y4720D01*
X3320Y4741D01*
X3288Y4754D01*
X3254Y4758D01*
X3221Y4754D01*
X3189Y4741D01*
X3162Y4720D01*
X3141Y4693D01*
X3128Y4661D01*
X3123Y4627D01*
X3128Y4593D01*
X3141Y4561D01*
X3162Y4534D01*
X3184Y4517D01*
X3187Y4500D01*
X3184Y4483D01*
X3162Y4466D01*
X3141Y4439D01*
X3128Y4407D01*
X3127Y4398D01*
X3255D01*
Y4373D01*
X3280D01*
Y4245D01*
X3288Y4246D01*
X3320Y4259D01*
X3347Y4280D01*
X3364Y4303D01*
X3381Y4305D01*
X3399Y4303D01*
X3416Y4280D01*
X3443Y4259D01*
X3475Y4246D01*
X3508Y4242D01*
X3542Y4246D01*
X3574Y4259D01*
X3601Y4280D01*
X3618Y4303D01*
X3635Y4305D01*
X3653Y4303D01*
X3670Y4280D01*
X3697Y4259D01*
X3729Y4246D01*
X3762Y4242D01*
X3796Y4246D01*
X3828Y4259D01*
X3855Y4280D01*
X3872Y4303D01*
X3890Y4305D01*
X3907Y4303D01*
X3924Y4280D01*
X3951Y4259D01*
X3983Y4246D01*
X4017Y4242D01*
X4050Y4246D01*
X4082Y4259D01*
X4109Y4280D01*
X4126Y4303D01*
X4144Y4305D01*
X4161Y4303D01*
X4178Y4280D01*
X4205Y4259D01*
X4237Y4246D01*
X4246Y4245D01*
Y4373D01*
X4271D01*
Y4398D01*
X4398D01*
X4397Y4407D01*
X4384Y4439D01*
X4363Y4466D01*
X4362Y4467D01*
X4372Y4497D01*
X4401D01*
Y4757D01*
X4140D01*
Y4728D01*
X4110Y4718D01*
X4109Y4720D01*
X4082Y4741D01*
X4050Y4754D01*
X4017Y4758D01*
D02*
G37*
G36*
X1105Y4713D02*
X1050D01*
Y4628D01*
X1105D01*
Y4713D01*
D02*
G37*
G36*
X1000D02*
X945D01*
Y4628D01*
X1000D01*
Y4713D01*
D02*
G37*
G36*
X9500Y4624D02*
X9477Y4619D01*
X9457Y4606D01*
X9443Y4586D01*
X9439Y4562D01*
X9443Y4539D01*
X9457Y4519D01*
X9477Y4506D01*
X9500Y4501D01*
X9523Y4506D01*
X9543Y4519D01*
X9557Y4539D01*
X9561Y4562D01*
X9557Y4586D01*
X9543Y4606D01*
X9523Y4619D01*
X9500Y4624D01*
D02*
G37*
G36*
X7750D02*
X7727Y4619D01*
X7707Y4606D01*
X7693Y4586D01*
X7689Y4562D01*
X7693Y4539D01*
X7707Y4519D01*
X7727Y4506D01*
X7750Y4501D01*
X7773Y4506D01*
X7793Y4519D01*
X7807Y4539D01*
X7811Y4562D01*
X7807Y4586D01*
X7793Y4606D01*
X7773Y4619D01*
X7750Y4624D01*
D02*
G37*
G36*
X2500Y4811D02*
X2477Y4807D01*
X2457Y4793D01*
X2443Y4773D01*
X2439Y4750D01*
X2443Y4727D01*
X2457Y4707D01*
X2477Y4693D01*
X2501Y4688D01*
X2506Y4664D01*
X2519Y4644D01*
X2539Y4631D01*
X2564Y4625D01*
X2568Y4602D01*
X2582Y4582D01*
X2602Y4568D01*
X2626Y4562D01*
X2631Y4539D01*
X2644Y4519D01*
X2664Y4506D01*
X2688Y4501D01*
X2711Y4506D01*
X2731Y4519D01*
X2744Y4539D01*
X2749Y4562D01*
X2744Y4586D01*
X2731Y4606D01*
X2711Y4619D01*
X2686Y4625D01*
X2682Y4648D01*
X2668Y4668D01*
X2648Y4682D01*
X2624Y4688D01*
X2619Y4711D01*
X2606Y4731D01*
X2586Y4744D01*
X2561Y4750D01*
X2557Y4773D01*
X2543Y4793D01*
X2523Y4807D01*
X2500Y4811D01*
D02*
G37*
G36*
X2438Y4624D02*
X2414Y4619D01*
X2394Y4606D01*
X2381Y4586D01*
X2376Y4562D01*
X2381Y4539D01*
X2394Y4519D01*
X2414Y4506D01*
X2438Y4501D01*
X2461Y4506D01*
X2481Y4519D01*
X2494Y4539D01*
X2499Y4562D01*
X2494Y4586D01*
X2481Y4606D01*
X2461Y4619D01*
X2438Y4624D01*
D02*
G37*
G36*
X2125Y4749D02*
X2102Y4744D01*
X2082Y4731D01*
X2068Y4711D01*
X2064Y4688D01*
X2068Y4664D01*
X2082Y4644D01*
X2084Y4643D01*
Y4607D01*
X2082Y4606D01*
X2068Y4586D01*
X2064Y4562D01*
X2068Y4539D01*
X2082Y4519D01*
X2102Y4506D01*
X2125Y4501D01*
X2148Y4506D01*
X2168Y4519D01*
X2182Y4539D01*
X2188Y4564D01*
X2211Y4568D01*
X2231Y4582D01*
X2244Y4602D01*
X2249Y4625D01*
X2244Y4648D01*
X2231Y4668D01*
X2211Y4682D01*
X2188Y4686D01*
X2182Y4711D01*
X2168Y4731D01*
X2148Y4744D01*
X2125Y4749D01*
D02*
G37*
G36*
X2875Y4499D02*
X2852Y4494D01*
X2832Y4481D01*
X2818Y4461D01*
X2814Y4438D01*
X2818Y4414D01*
X2832Y4394D01*
X2852Y4381D01*
X2875Y4376D01*
X2898Y4381D01*
X2918Y4394D01*
X2932Y4414D01*
X2936Y4438D01*
X2932Y4461D01*
X2918Y4481D01*
X2898Y4494D01*
X2875Y4499D01*
D02*
G37*
G36*
X4398Y4348D02*
X4296D01*
Y4245D01*
X4304Y4246D01*
X4336Y4259D01*
X4363Y4280D01*
X4384Y4307D01*
X4397Y4339D01*
X4398Y4348D01*
D02*
G37*
G36*
X3230D02*
X3127D01*
X3128Y4339D01*
X3141Y4307D01*
X3162Y4280D01*
X3189Y4259D01*
X3221Y4246D01*
X3230Y4245D01*
Y4348D01*
D02*
G37*
G36*
X312Y4374D02*
X289Y4369D01*
X269Y4356D01*
X256Y4336D01*
X251Y4312D01*
X256Y4289D01*
X269Y4269D01*
X256Y4248D01*
X251Y4225D01*
X256Y4202D01*
X259Y4197D01*
X267Y4175D01*
X259Y4153D01*
X256Y4148D01*
X251Y4125D01*
X256Y4102D01*
X259Y4097D01*
X267Y4075D01*
X259Y4053D01*
X256Y4048D01*
X251Y4025D01*
X256Y4002D01*
X269Y3982D01*
X289Y3968D01*
X312Y3964D01*
X336Y3968D01*
X356Y3982D01*
X369Y4002D01*
X374Y4025D01*
X369Y4048D01*
X366Y4053D01*
X358Y4075D01*
X366Y4097D01*
X369Y4102D01*
X374Y4125D01*
X369Y4148D01*
X366Y4153D01*
X358Y4175D01*
X366Y4197D01*
X369Y4202D01*
X374Y4225D01*
X369Y4248D01*
X356Y4269D01*
X369Y4289D01*
X374Y4312D01*
X369Y4336D01*
X356Y4356D01*
X336Y4369D01*
X312Y4374D01*
D02*
G37*
G36*
X2823Y4017D02*
X2737D01*
Y3962D01*
X2823D01*
Y4017D01*
D02*
G37*
G36*
X2688D02*
X2602D01*
Y3962D01*
X2688D01*
Y4017D01*
D02*
G37*
G36*
X3812Y3874D02*
X3789Y3869D01*
X3788Y3869D01*
X3774D01*
X3773Y3869D01*
X3750Y3874D01*
X3727Y3869D01*
X3726Y3869D01*
X3712D01*
X3711Y3869D01*
X3688Y3874D01*
X3664Y3869D01*
X3644Y3856D01*
X3631Y3836D01*
X3626Y3812D01*
X3631Y3789D01*
X3644Y3769D01*
X3664Y3756D01*
X3688Y3751D01*
X3711Y3756D01*
X3712Y3756D01*
X3726D01*
X3727Y3756D01*
X3750Y3751D01*
X3773Y3756D01*
X3774Y3756D01*
X3788D01*
X3789Y3756D01*
X3812Y3751D01*
X3829Y3755D01*
X3891D01*
X3894Y3752D01*
Y3692D01*
X3840D01*
Y3682D01*
X3814Y3666D01*
X3810Y3665D01*
X3795Y3668D01*
X3715D01*
X3697Y3665D01*
X3683Y3655D01*
X3680Y3651D01*
X3677D01*
X3661Y3648D01*
X3647Y3638D01*
X3632Y3623D01*
X3622Y3609D01*
X3619Y3593D01*
Y3432D01*
X3622Y3416D01*
X3632Y3402D01*
X3647Y3387D01*
X3661Y3377D01*
X3677Y3374D01*
X3680D01*
X3683Y3370D01*
X3697Y3360D01*
X3715Y3357D01*
X3795D01*
X3810Y3360D01*
X3814Y3359D01*
X3840Y3342D01*
Y3333D01*
X3925D01*
Y3412D01*
X3950D01*
D01*
X3925D01*
Y3492D01*
X3840D01*
Y3492D01*
X3814Y3476D01*
X3810Y3475D01*
X3795Y3478D01*
X3715D01*
X3706Y3486D01*
Y3539D01*
X3715Y3547D01*
X3795D01*
X3810Y3550D01*
X3814Y3549D01*
X3840Y3533D01*
Y3533D01*
X3915D01*
X3920Y3532D01*
X3925Y3533D01*
X4060D01*
Y3692D01*
X4006D01*
Y3775D01*
X4002Y3796D01*
X3990Y3815D01*
X3954Y3850D01*
X3936Y3862D01*
X3914Y3867D01*
X3839D01*
X3836Y3869D01*
X3812Y3874D01*
D02*
G37*
G36*
X2823Y3912D02*
X2737D01*
Y3858D01*
X2823D01*
Y3912D01*
D02*
G37*
G36*
X2688D02*
X2602D01*
Y3858D01*
X2688D01*
Y3912D01*
D02*
G37*
G36*
X9500Y3936D02*
X9477Y3932D01*
X9457Y3918D01*
X9443Y3898D01*
X9439Y3875D01*
X9443Y3852D01*
X9457Y3832D01*
X9477Y3818D01*
X9500Y3814D01*
X9523Y3818D01*
X9543Y3832D01*
X9557Y3852D01*
X9561Y3875D01*
X9557Y3898D01*
X9543Y3918D01*
X9523Y3932D01*
X9500Y3936D01*
D02*
G37*
G36*
X7875D02*
X7852Y3932D01*
X7832Y3918D01*
X7818Y3898D01*
X7814Y3875D01*
X7818Y3852D01*
X7832Y3832D01*
X7852Y3818D01*
X7875Y3814D01*
X7898Y3818D01*
X7918Y3832D01*
X7932Y3852D01*
X7936Y3875D01*
X7932Y3898D01*
X7918Y3918D01*
X7898Y3932D01*
X7875Y3936D01*
D02*
G37*
G36*
X3000Y3874D02*
X2977Y3869D01*
X2976Y3869D01*
X2912D01*
X2891Y3864D01*
X2873Y3852D01*
X2514Y3494D01*
X2405D01*
Y3533D01*
X2245D01*
Y3342D01*
X2405D01*
Y3381D01*
X2538D01*
X2559Y3386D01*
X2577Y3398D01*
X2936Y3756D01*
X2976D01*
X2977Y3756D01*
X3000Y3751D01*
X3023Y3756D01*
X3043Y3769D01*
X3057Y3789D01*
X3061Y3812D01*
X3057Y3836D01*
X3043Y3856D01*
X3023Y3869D01*
X3000Y3874D01*
D02*
G37*
G36*
X3410Y3692D02*
X3190D01*
Y3661D01*
X3025D01*
X3025Y3661D01*
X3006Y3657D01*
X2991Y3647D01*
X2991Y3647D01*
X2741Y3397D01*
X2730Y3381D01*
X2727Y3362D01*
Y3161D01*
X2718Y3148D01*
X2714Y3125D01*
X2718Y3102D01*
X2732Y3082D01*
X2752Y3068D01*
X2775Y3064D01*
X2798Y3068D01*
X2818Y3082D01*
X2832Y3102D01*
X2836Y3125D01*
X2832Y3148D01*
X2823Y3161D01*
Y3342D01*
X3045Y3564D01*
X3190D01*
Y3533D01*
X3410D01*
Y3533D01*
X3436Y3549D01*
X3440Y3550D01*
X3455Y3547D01*
X3535D01*
X3553Y3550D01*
X3567Y3560D01*
X3577Y3575D01*
X3581Y3592D01*
Y3622D01*
X3577Y3640D01*
X3567Y3655D01*
X3553Y3665D01*
X3535Y3668D01*
X3455D01*
X3440Y3665D01*
X3436Y3666D01*
X3410Y3682D01*
Y3692D01*
D02*
G37*
G36*
X2375Y4024D02*
X2352Y4019D01*
X2332Y4006D01*
X2318Y3986D01*
X2318Y3982D01*
X2285Y3949D01*
X2273Y3931D01*
X2269Y3910D01*
Y3770D01*
X2245D01*
Y3580D01*
X2405D01*
Y3770D01*
X2381D01*
Y3887D01*
X2405Y3910D01*
X2418Y3919D01*
X2432Y3939D01*
X2436Y3962D01*
X2432Y3986D01*
X2418Y4006D01*
X2398Y4019D01*
X2375Y4024D01*
D02*
G37*
G36*
X4060Y3492D02*
X3975D01*
Y3438D01*
X4060D01*
Y3492D01*
D02*
G37*
G36*
X3275D02*
X3190D01*
Y3438D01*
X3275D01*
Y3492D01*
D02*
G37*
G36*
X3410Y3492D02*
Y3492D01*
X3325D01*
Y3412D01*
X3300D01*
D01*
X3325D01*
Y3333D01*
X3410D01*
Y3342D01*
X3436Y3359D01*
X3440Y3360D01*
X3455Y3357D01*
X3535D01*
X3553Y3360D01*
X3567Y3370D01*
X3577Y3385D01*
X3581Y3403D01*
Y3433D01*
X3577Y3450D01*
X3567Y3465D01*
X3553Y3475D01*
X3535Y3478D01*
X3455D01*
X3440Y3475D01*
X3436Y3476D01*
X3410Y3492D01*
D02*
G37*
G36*
X3275Y3388D02*
X3190D01*
Y3333D01*
X3275D01*
Y3388D01*
D02*
G37*
G36*
X4060Y3388D02*
X3975D01*
Y3333D01*
X4037D01*
X4064Y3312D01*
X4065Y3305D01*
X4068Y3289D01*
X4082Y3269D01*
X4102Y3256D01*
X4125Y3251D01*
X4148Y3256D01*
X4156Y3261D01*
X4164Y3256D01*
X4188Y3251D01*
X4211Y3256D01*
X4231Y3269D01*
X4244Y3289D01*
X4249Y3312D01*
X4244Y3336D01*
X4231Y3356D01*
X4211Y3369D01*
X4188Y3374D01*
X4164Y3369D01*
X4156Y3364D01*
X4148Y3369D01*
X4125Y3374D01*
X4102Y3369D01*
X4090Y3361D01*
X4063Y3372D01*
X4060Y3375D01*
Y3388D01*
D02*
G37*
G36*
X2205Y3770D02*
X2045D01*
Y3580D01*
X2069D01*
Y3533D01*
X2045D01*
Y3342D01*
X2045D01*
X2064Y3312D01*
X2068Y3289D01*
X2082Y3269D01*
X2102Y3256D01*
X2125Y3251D01*
X2148Y3256D01*
X2168Y3269D01*
X2182Y3289D01*
X2186Y3312D01*
X2205Y3342D01*
X2205D01*
Y3533D01*
X2181D01*
Y3580D01*
X2205D01*
Y3770D01*
D02*
G37*
G36*
X9500Y3249D02*
X9477Y3244D01*
X9457Y3231D01*
X9443Y3211D01*
X9439Y3188D01*
X9443Y3164D01*
X9457Y3144D01*
X9477Y3131D01*
X9500Y3126D01*
X9523Y3131D01*
X9543Y3144D01*
X9557Y3164D01*
X9561Y3188D01*
X9557Y3211D01*
X9543Y3231D01*
X9523Y3244D01*
X9500Y3249D01*
D02*
G37*
G36*
X8000D02*
X7977Y3244D01*
X7957Y3231D01*
X7943Y3211D01*
X7939Y3188D01*
X7943Y3164D01*
X7957Y3144D01*
X7977Y3131D01*
X8000Y3126D01*
X8023Y3131D01*
X8043Y3144D01*
X8057Y3164D01*
X8061Y3188D01*
X8057Y3211D01*
X8043Y3231D01*
X8023Y3244D01*
X8000Y3249D01*
D02*
G37*
G36*
X2205Y3210D02*
X2150D01*
Y3125D01*
X2205D01*
Y3210D01*
D02*
G37*
G36*
X2100D02*
X2045D01*
Y3125D01*
X2100D01*
Y3210D01*
D02*
G37*
G36*
X5575Y3124D02*
X5552Y3119D01*
X5532Y3106D01*
X5511Y3119D01*
X5488Y3124D01*
X5464Y3119D01*
X5444Y3106D01*
X5443Y3104D01*
X5407D01*
X5406Y3106D01*
X5386Y3119D01*
X5362Y3124D01*
X5339Y3119D01*
X5319Y3106D01*
X5306Y3086D01*
X5301Y3062D01*
X5283Y3035D01*
X5272Y3031D01*
X5242Y3035D01*
Y3035D01*
X5188D01*
Y2925D01*
Y2815D01*
X5212D01*
Y2785D01*
X5187D01*
Y2675D01*
Y2565D01*
X5212D01*
Y2562D01*
X5300D01*
Y2565D01*
X5584D01*
Y2505D01*
X5490D01*
Y2362D01*
X5488D01*
Y2275D01*
X5490D01*
Y2250D01*
X5600D01*
X5710D01*
Y2275D01*
X5740D01*
Y2250D01*
X5850D01*
X5960D01*
Y2275D01*
X5962D01*
Y2362D01*
X5960D01*
Y2505D01*
X5960Y2579D01*
X5964Y2582D01*
X5981Y2594D01*
X5983Y2597D01*
X5994Y2614D01*
X5999Y2638D01*
X5994Y2661D01*
X5981Y2681D01*
X5961Y2694D01*
X5938Y2699D01*
X5935Y2698D01*
X5905Y2721D01*
Y2815D01*
Y3035D01*
X5864D01*
X5863Y3041D01*
X5854Y3054D01*
X5854Y3054D01*
X5816Y3091D01*
X5803Y3100D01*
X5787Y3103D01*
X5787Y3103D01*
X5620D01*
X5618Y3106D01*
X5598Y3119D01*
X5575Y3124D01*
D02*
G37*
G36*
X3688Y3049D02*
X3664Y3044D01*
X3656Y3039D01*
X3648Y3044D01*
X3625Y3049D01*
X3602Y3044D01*
X3582Y3031D01*
X3568Y3011D01*
X3564Y2988D01*
X3568Y2964D01*
X3582Y2944D01*
X3602Y2931D01*
X3625Y2926D01*
X3648Y2931D01*
X3656Y2936D01*
X3664Y2931D01*
X3688Y2926D01*
X3711Y2931D01*
X3731Y2944D01*
X3744Y2964D01*
X3749Y2988D01*
X3744Y3011D01*
X3731Y3031D01*
X3711Y3044D01*
X3688Y3049D01*
D02*
G37*
G36*
X4750Y3199D02*
X4727Y3194D01*
X4707Y3181D01*
X4693Y3161D01*
X4689Y3138D01*
X4693Y3114D01*
X4699Y3106D01*
X4693Y3098D01*
X4689Y3075D01*
X4693Y3052D01*
X4707Y3032D01*
X4727Y3018D01*
X4750Y3014D01*
X4773Y3018D01*
X4793Y3032D01*
X4807Y3052D01*
X4811Y3075D01*
X4807Y3098D01*
X4801Y3106D01*
X4807Y3114D01*
X4811Y3138D01*
X4807Y3161D01*
X4793Y3181D01*
X4773Y3194D01*
X4750Y3199D01*
D02*
G37*
G36*
X2205Y3075D02*
X2150D01*
Y2990D01*
X2205D01*
Y3075D01*
D02*
G37*
G36*
X2100D02*
X2045D01*
Y2990D01*
X2100D01*
Y3075D01*
D02*
G37*
G36*
X7438Y2999D02*
X7414Y2994D01*
X7394Y2981D01*
X7393Y2979D01*
X7357D01*
X7356Y2981D01*
X7336Y2994D01*
X7312Y2999D01*
X7289Y2994D01*
X7269Y2981D01*
X7256Y2961D01*
X7251Y2938D01*
X7256Y2914D01*
X7269Y2894D01*
X7271Y2893D01*
Y2857D01*
X7269Y2856D01*
X7256Y2836D01*
X7251Y2812D01*
X7256Y2789D01*
X7269Y2769D01*
X7289Y2756D01*
X7312Y2751D01*
X7336Y2756D01*
X7356Y2769D01*
X7369Y2789D01*
X7374Y2812D01*
X7369Y2836D01*
X7356Y2856D01*
X7354Y2857D01*
Y2893D01*
X7356Y2894D01*
X7357Y2896D01*
X7393D01*
X7394Y2894D01*
X7414Y2881D01*
X7438Y2876D01*
X7461Y2881D01*
X7474Y2889D01*
X7500Y2876D01*
X7501Y2875D01*
X7506Y2852D01*
X7519Y2832D01*
X7539Y2818D01*
X7562Y2814D01*
X7586Y2818D01*
X7606Y2832D01*
X7607Y2834D01*
X7643D01*
X7644Y2832D01*
X7664Y2818D01*
X7688Y2814D01*
X7711Y2818D01*
X7731Y2832D01*
X7744Y2852D01*
X7749Y2875D01*
X7744Y2898D01*
X7731Y2918D01*
X7711Y2932D01*
X7688Y2936D01*
X7664Y2932D01*
X7644Y2918D01*
X7643Y2916D01*
X7607D01*
X7606Y2918D01*
X7586Y2932D01*
X7562Y2936D01*
X7539Y2932D01*
X7526Y2923D01*
X7500Y2937D01*
X7499Y2938D01*
X7494Y2961D01*
X7481Y2981D01*
X7461Y2994D01*
X7438Y2999D01*
D02*
G37*
G36*
X5138Y3035D02*
X5083D01*
Y2950D01*
X5138D01*
Y3035D01*
D02*
G37*
G36*
X6725Y3061D02*
X6702Y3057D01*
X6682Y3043D01*
X6668Y3023D01*
X6664Y3000D01*
X6668Y2977D01*
X6682Y2957D01*
X6702Y2943D01*
X6725Y2939D01*
X6748Y2943D01*
X6768Y2957D01*
X6782Y2977D01*
X6786Y3000D01*
X6782Y3023D01*
X6768Y3043D01*
X6748Y3057D01*
X6725Y3061D01*
D02*
G37*
G36*
X9625Y2936D02*
X9602Y2932D01*
X9582Y2918D01*
X9581Y2916D01*
X9544D01*
X9543Y2918D01*
X9523Y2932D01*
X9500Y2936D01*
X9477Y2932D01*
X9457Y2918D01*
X9456Y2916D01*
X9419D01*
X9418Y2918D01*
X9398Y2932D01*
X9375Y2936D01*
X9352Y2932D01*
X9332Y2918D01*
X9331Y2916D01*
X9294D01*
X9293Y2918D01*
X9273Y2932D01*
X9250Y2936D01*
X9227Y2932D01*
X9207Y2918D01*
X9193Y2898D01*
X9189Y2875D01*
X9193Y2852D01*
X9207Y2832D01*
X9227Y2818D01*
X9250Y2814D01*
X9273Y2818D01*
X9293Y2832D01*
X9294Y2834D01*
X9331D01*
X9332Y2832D01*
X9352Y2818D01*
X9375Y2814D01*
X9398Y2818D01*
X9418Y2832D01*
X9419Y2834D01*
X9456D01*
X9457Y2832D01*
X9477Y2818D01*
X9500Y2814D01*
X9523Y2818D01*
X9543Y2832D01*
X9544Y2834D01*
X9581D01*
X9582Y2832D01*
X9602Y2818D01*
X9625Y2814D01*
X9648Y2818D01*
X9668Y2832D01*
X9682Y2852D01*
X9686Y2875D01*
X9682Y2898D01*
X9668Y2918D01*
X9648Y2932D01*
X9625Y2936D01*
D02*
G37*
G36*
X8875D02*
X8852Y2932D01*
X8832Y2918D01*
X8831Y2916D01*
X8794D01*
X8793Y2918D01*
X8773Y2932D01*
X8750Y2936D01*
X8727Y2932D01*
X8707Y2918D01*
X8706Y2916D01*
X8669D01*
X8668Y2918D01*
X8648Y2932D01*
X8625Y2936D01*
X8602Y2932D01*
X8582Y2918D01*
X8568Y2898D01*
X8564Y2875D01*
X8568Y2852D01*
X8582Y2832D01*
X8602Y2818D01*
X8625Y2814D01*
X8648Y2818D01*
X8668Y2832D01*
X8669Y2834D01*
X8706D01*
X8707Y2832D01*
X8727Y2818D01*
X8750Y2814D01*
X8773Y2818D01*
X8793Y2832D01*
X8794Y2834D01*
X8831D01*
X8832Y2832D01*
X8852Y2818D01*
X8875Y2814D01*
X8898Y2818D01*
X8917Y2831D01*
X8918Y2832D01*
X8954Y2831D01*
X8955Y2830D01*
X8974Y2816D01*
X8998Y2812D01*
X9021Y2816D01*
X9041Y2830D01*
X9054Y2849D01*
X9059Y2873D01*
X9054Y2896D01*
X9041Y2916D01*
X9021Y2929D01*
X8998Y2934D01*
X8974Y2929D01*
X8955Y2917D01*
X8955Y2916D01*
X8919Y2917D01*
X8918Y2918D01*
X8898Y2932D01*
X8875Y2936D01*
D02*
G37*
G36*
X8312D02*
X8289Y2932D01*
X8269Y2918D01*
X8268Y2916D01*
X8232D01*
X8231Y2918D01*
X8211Y2932D01*
X8188Y2936D01*
X8164Y2932D01*
X8144Y2918D01*
X8143Y2916D01*
X8107D01*
X8106Y2918D01*
X8086Y2932D01*
X8062Y2936D01*
X8039Y2932D01*
X8019Y2918D01*
X8018Y2916D01*
X7982D01*
X7981Y2918D01*
X7961Y2932D01*
X7938Y2936D01*
X7914Y2932D01*
X7894Y2918D01*
X7881Y2898D01*
X7876Y2875D01*
X7852Y2869D01*
X7832Y2856D01*
X7818Y2836D01*
X7814Y2812D01*
X7818Y2789D01*
X7832Y2769D01*
X7852Y2756D01*
X7875Y2751D01*
X7898Y2756D01*
X7918Y2769D01*
X7932Y2789D01*
X7936Y2812D01*
X7961Y2818D01*
X7981Y2832D01*
X7982Y2834D01*
X8018D01*
X8019Y2832D01*
X8039Y2818D01*
X8062Y2814D01*
X8086Y2818D01*
X8106Y2832D01*
X8107Y2834D01*
X8143D01*
X8144Y2832D01*
X8164Y2818D01*
X8188Y2814D01*
X8211Y2818D01*
X8231Y2832D01*
X8232Y2834D01*
X8268D01*
X8269Y2832D01*
X8289Y2818D01*
X8312Y2814D01*
X8336Y2818D01*
X8356Y2832D01*
X8369Y2852D01*
X8374Y2875D01*
X8369Y2898D01*
X8356Y2918D01*
X8336Y2932D01*
X8312Y2936D01*
D02*
G37*
G36*
X2325Y3311D02*
X2302Y3307D01*
X2282Y3293D01*
X2268Y3273D01*
X2264Y3250D01*
X2266Y3240D01*
X2261Y3233D01*
X2245Y3210D01*
X2245Y3210D01*
X2245Y3210D01*
Y2990D01*
X2271D01*
X2273Y2979D01*
X2285Y2960D01*
X2331Y2915D01*
X2331Y2914D01*
X2344Y2894D01*
X2364Y2881D01*
X2388Y2876D01*
X2411Y2881D01*
X2431Y2894D01*
X2444Y2914D01*
X2449Y2938D01*
X2444Y2961D01*
X2431Y2981D01*
X2411Y2994D01*
X2410Y2994D01*
X2405Y2999D01*
Y3210D01*
X2389Y3233D01*
X2384Y3240D01*
X2386Y3250D01*
X2382Y3273D01*
X2368Y3293D01*
X2348Y3307D01*
X2325Y3311D01*
D02*
G37*
G36*
X5138Y2900D02*
X5083D01*
Y2815D01*
X5138D01*
Y2900D01*
D02*
G37*
G36*
X2250Y2874D02*
X2227Y2869D01*
X2207Y2856D01*
X2193Y2836D01*
X2189Y2812D01*
X2193Y2789D01*
X2207Y2769D01*
X2227Y2756D01*
X2250Y2751D01*
X2273Y2756D01*
X2293Y2769D01*
X2307Y2789D01*
X2311Y2812D01*
X2307Y2836D01*
X2293Y2856D01*
X2273Y2869D01*
X2250Y2874D01*
D02*
G37*
G36*
X5138Y2785D02*
X5083D01*
Y2700D01*
X5138D01*
Y2785D01*
D02*
G37*
G36*
Y2650D02*
X5083D01*
Y2565D01*
X5138D01*
Y2650D01*
D02*
G37*
G36*
X6212Y2599D02*
X6189Y2594D01*
X6169Y2581D01*
X6156Y2561D01*
X6151Y2538D01*
X6152Y2536D01*
X6126Y2511D01*
X6125Y2511D01*
X6102Y2507D01*
X6082Y2493D01*
X6068Y2473D01*
X6064Y2450D01*
X6068Y2427D01*
X6082Y2407D01*
X6102Y2393D01*
X6125Y2389D01*
X6148Y2393D01*
X6168Y2407D01*
X6182Y2427D01*
X6186Y2450D01*
X6186Y2451D01*
X6211Y2477D01*
X6212Y2476D01*
X6227Y2479D01*
X6248Y2463D01*
X6253Y2456D01*
X6251Y2450D01*
X6256Y2427D01*
X6269Y2407D01*
X6289Y2393D01*
X6312Y2389D01*
X6336Y2393D01*
X6356Y2407D01*
X6369Y2427D01*
X6374Y2450D01*
X6369Y2473D01*
X6356Y2493D01*
X6336Y2507D01*
X6312Y2511D01*
X6298Y2508D01*
X6277Y2524D01*
X6272Y2531D01*
X6274Y2538D01*
X6269Y2561D01*
X6256Y2581D01*
X6236Y2594D01*
X6212Y2599D01*
D02*
G37*
G36*
X2225Y2711D02*
X2202Y2707D01*
X2182Y2693D01*
X2168Y2673D01*
X2164Y2650D01*
X2168Y2627D01*
X2182Y2607D01*
X2199Y2595D01*
X2193Y2586D01*
X2189Y2562D01*
X2193Y2539D01*
X2207Y2519D01*
X2227Y2506D01*
X2250Y2501D01*
X2273Y2506D01*
X2293Y2519D01*
X2300Y2529D01*
X2322Y2527D01*
X2332Y2525D01*
X2344Y2507D01*
X2364Y2493D01*
X2388Y2489D01*
X2411Y2493D01*
X2431Y2507D01*
X2444Y2527D01*
X2449Y2550D01*
X2444Y2573D01*
X2431Y2593D01*
X2411Y2607D01*
X2388Y2611D01*
X2364Y2607D01*
X2344Y2593D01*
X2338Y2583D01*
X2316Y2585D01*
X2306Y2587D01*
X2293Y2606D01*
X2276Y2618D01*
X2282Y2627D01*
X2286Y2650D01*
X2282Y2673D01*
X2268Y2693D01*
X2248Y2707D01*
X2225Y2711D01*
D02*
G37*
G36*
X6725Y2586D02*
X6702Y2582D01*
X6682Y2568D01*
X6668Y2548D01*
X6664Y2525D01*
X6668Y2502D01*
X6682Y2482D01*
X6702Y2468D01*
X6725Y2464D01*
X6748Y2468D01*
X6768Y2482D01*
X6782Y2502D01*
X6786Y2525D01*
X6782Y2548D01*
X6768Y2568D01*
X6748Y2582D01*
X6725Y2586D01*
D02*
G37*
G36*
X4138Y2649D02*
X4114Y2644D01*
X4094Y2631D01*
X4081Y2611D01*
X4076Y2588D01*
X4081Y2564D01*
X4086Y2556D01*
X4081Y2548D01*
X4076Y2525D01*
X4081Y2502D01*
X4094Y2482D01*
X4114Y2468D01*
X4138Y2464D01*
X4161Y2468D01*
X4181Y2482D01*
X4194Y2502D01*
X4199Y2525D01*
X4194Y2548D01*
X4189Y2556D01*
X4194Y2564D01*
X4199Y2588D01*
X4194Y2611D01*
X4181Y2631D01*
X4161Y2644D01*
X4138Y2649D01*
D02*
G37*
G36*
X2418Y2436D02*
X2394Y2432D01*
X2375Y2418D01*
X2368D01*
X2348Y2432D01*
X2325Y2436D01*
X2302Y2432D01*
X2282Y2418D01*
X2268Y2398D01*
X2264Y2375D01*
X2268Y2352D01*
X2282Y2332D01*
X2302Y2318D01*
X2325Y2314D01*
X2348Y2318D01*
X2368Y2332D01*
X2375D01*
X2394Y2318D01*
X2418Y2314D01*
X2441Y2318D01*
X2461Y2332D01*
X2474Y2352D01*
X2479Y2375D01*
X2474Y2398D01*
X2461Y2418D01*
X2441Y2432D01*
X2418Y2436D01*
D02*
G37*
G36*
X9538Y2561D02*
X9514Y2557D01*
X9494Y2543D01*
X9481Y2523D01*
X9476Y2500D01*
X9481Y2477D01*
X9494Y2457D01*
X9514Y2443D01*
X9538Y2438D01*
X9546Y2414D01*
X9560Y2394D01*
X9580Y2381D01*
X9603Y2376D01*
X9626Y2381D01*
X9646Y2394D01*
X9660Y2414D01*
X9664Y2438D01*
X9660Y2461D01*
X9646Y2481D01*
X9626Y2494D01*
X9603Y2499D01*
X9594Y2523D01*
X9581Y2543D01*
X9561Y2557D01*
X9538Y2561D01*
D02*
G37*
G36*
X8287D02*
X8264Y2557D01*
X8244Y2543D01*
X8231Y2523D01*
X8226Y2500D01*
X8231Y2477D01*
X8244Y2457D01*
X8264Y2443D01*
X8286Y2439D01*
X8286Y2438D01*
X8291Y2414D01*
X8304Y2394D01*
X8324Y2381D01*
X8347Y2376D01*
X8371Y2381D01*
X8391Y2394D01*
X8404Y2414D01*
X8408Y2438D01*
X8404Y2461D01*
X8391Y2481D01*
X8371Y2494D01*
X8348Y2499D01*
X8348Y2500D01*
X8344Y2523D01*
X8331Y2543D01*
X8311Y2557D01*
X8287Y2561D01*
D02*
G37*
G36*
X2688Y2474D02*
X2664Y2469D01*
X2644Y2456D01*
X2631Y2436D01*
X2626Y2412D01*
X2631Y2389D01*
X2644Y2369D01*
X2664Y2356D01*
X2688Y2351D01*
X2711Y2356D01*
X2731Y2369D01*
X2744Y2389D01*
X2749Y2412D01*
X2744Y2436D01*
X2731Y2456D01*
X2711Y2469D01*
X2688Y2474D01*
D02*
G37*
G36*
X8912Y2561D02*
X8889Y2557D01*
X8869Y2543D01*
X8856Y2523D01*
X8851Y2500D01*
X8856Y2477D01*
X8869Y2457D01*
X8889Y2443D01*
X8912Y2439D01*
X8913Y2438D01*
X8927Y2411D01*
X8918Y2398D01*
X8914Y2375D01*
X8918Y2352D01*
X8932Y2332D01*
X8952Y2318D01*
X8975Y2314D01*
X8998Y2318D01*
X9018Y2332D01*
X9032Y2352D01*
X9036Y2375D01*
X9032Y2398D01*
X9018Y2418D01*
X8998Y2432D01*
X8975Y2436D01*
X8974Y2437D01*
X8961Y2464D01*
X8969Y2477D01*
X8974Y2500D01*
X8969Y2523D01*
X8956Y2543D01*
X8936Y2557D01*
X8912Y2561D01*
D02*
G37*
G36*
X4950Y2324D02*
X4927Y2319D01*
X4919Y2314D01*
X4911Y2319D01*
X4888Y2324D01*
X4864Y2319D01*
X4844Y2306D01*
X4831Y2286D01*
X4826Y2262D01*
X4831Y2239D01*
X4844Y2219D01*
X4864Y2206D01*
X4888Y2201D01*
X4911Y2206D01*
X4919Y2211D01*
X4927Y2206D01*
X4950Y2201D01*
X4973Y2206D01*
X4993Y2219D01*
X5007Y2239D01*
X5011Y2262D01*
X5007Y2286D01*
X4993Y2306D01*
X4973Y2319D01*
X4950Y2324D01*
D02*
G37*
G36*
X7662Y2561D02*
X7639Y2557D01*
X7619Y2543D01*
X7606Y2523D01*
X7601Y2500D01*
X7606Y2477D01*
X7619Y2457D01*
X7639Y2443D01*
X7662Y2439D01*
X7663Y2438D01*
X7677Y2411D01*
X7668Y2398D01*
X7664Y2375D01*
X7668Y2352D01*
X7682Y2332D01*
X7702Y2318D01*
X7725Y2314D01*
X7750Y2313D01*
X7755Y2292D01*
X7756Y2289D01*
X7769Y2269D01*
X7789Y2256D01*
X7812Y2251D01*
X7836Y2256D01*
X7856Y2269D01*
X7869Y2289D01*
X7874Y2312D01*
X7869Y2336D01*
X7856Y2356D01*
X7836Y2369D01*
X7812Y2374D01*
X7788Y2375D01*
X7782Y2396D01*
X7782Y2398D01*
X7768Y2418D01*
X7748Y2432D01*
X7725Y2436D01*
X7724Y2437D01*
X7711Y2464D01*
X7719Y2477D01*
X7724Y2500D01*
X7719Y2523D01*
X7706Y2543D01*
X7686Y2557D01*
X7662Y2561D01*
D02*
G37*
G36*
X7125Y2499D02*
X7102Y2494D01*
X7082Y2481D01*
X7068Y2461D01*
X7064Y2438D01*
X7068Y2414D01*
X7082Y2394D01*
X7102Y2381D01*
X7125Y2376D01*
X7126Y2375D01*
X7139Y2349D01*
X7131Y2336D01*
X7126Y2312D01*
X7131Y2289D01*
X7144Y2269D01*
X7164Y2256D01*
X7188Y2251D01*
X7211Y2256D01*
X7231Y2269D01*
X7244Y2289D01*
X7249Y2312D01*
X7244Y2336D01*
X7231Y2356D01*
X7211Y2369D01*
X7188Y2374D01*
X7187Y2375D01*
X7173Y2401D01*
X7182Y2414D01*
X7186Y2438D01*
X7182Y2461D01*
X7168Y2481D01*
X7148Y2494D01*
X7125Y2499D01*
D02*
G37*
G36*
X9688Y2311D02*
X9664Y2307D01*
X9644Y2293D01*
X9631Y2273D01*
X9626Y2250D01*
X9631Y2227D01*
X9644Y2207D01*
X9664Y2193D01*
X9688Y2189D01*
X9711Y2193D01*
X9731Y2207D01*
X9744Y2227D01*
X9749Y2250D01*
X9744Y2273D01*
X9731Y2293D01*
X9711Y2307D01*
X9688Y2311D01*
D02*
G37*
G36*
X8438D02*
X8414Y2307D01*
X8394Y2293D01*
X8381Y2273D01*
X8376Y2250D01*
X8381Y2227D01*
X8394Y2207D01*
X8414Y2193D01*
X8438Y2189D01*
X8461Y2193D01*
X8481Y2207D01*
X8494Y2227D01*
X8499Y2250D01*
X8494Y2273D01*
X8481Y2293D01*
X8461Y2307D01*
X8438Y2311D01*
D02*
G37*
G36*
X6212Y2198D02*
Y2162D01*
X6247D01*
X6244Y2170D01*
X6234Y2184D01*
X6220Y2194D01*
X6212Y2198D01*
D02*
G37*
G36*
X6162Y2198D02*
X6155Y2194D01*
X6141Y2184D01*
X6131Y2170D01*
X6128Y2162D01*
X6162D01*
Y2198D01*
D02*
G37*
G36*
X2418Y2281D02*
X2394Y2277D01*
X2374Y2263D01*
X2361Y2243D01*
X2356Y2220D01*
X2361Y2197D01*
X2374Y2177D01*
X2394Y2163D01*
X2418Y2159D01*
X2441Y2163D01*
X2461Y2177D01*
X2474Y2197D01*
X2479Y2220D01*
X2474Y2243D01*
X2461Y2263D01*
X2441Y2277D01*
X2418Y2281D01*
D02*
G37*
G36*
X5960Y2200D02*
X5875D01*
Y2145D01*
X5960D01*
Y2200D01*
D02*
G37*
G36*
X5825D02*
X5740D01*
Y2145D01*
X5825D01*
Y2200D01*
D02*
G37*
G36*
X5710Y2200D02*
X5625D01*
Y2145D01*
X5710D01*
Y2200D01*
D02*
G37*
G36*
X5575D02*
X5490D01*
Y2145D01*
X5575D01*
Y2200D01*
D02*
G37*
G36*
X2960Y2167D02*
Y2167D01*
X2740D01*
Y2151D01*
X2711Y2144D01*
X2688Y2149D01*
X2664Y2144D01*
X2644Y2131D01*
X2631Y2111D01*
X2626Y2088D01*
X2631Y2064D01*
X2644Y2044D01*
X2664Y2031D01*
X2688Y2026D01*
X2711Y2031D01*
X2740Y2024D01*
Y2008D01*
X2960D01*
X2983Y2024D01*
X2990Y2028D01*
X3000Y2026D01*
X3023Y2031D01*
X3043Y2044D01*
X3057Y2064D01*
X3061Y2088D01*
X3057Y2111D01*
X3043Y2131D01*
X3023Y2144D01*
X3000Y2149D01*
X2990Y2147D01*
X2983Y2151D01*
X2960Y2167D01*
X2960Y2167D01*
D02*
G37*
G36*
X6162Y2112D02*
X6128D01*
X6131Y2105D01*
X6141Y2091D01*
X6155Y2081D01*
X6162Y2077D01*
Y2112D01*
D02*
G37*
G36*
X6247D02*
X6212D01*
Y2077D01*
X6220Y2081D01*
X6234Y2091D01*
X6244Y2105D01*
X6247Y2112D01*
D02*
G37*
G36*
X7188Y2186D02*
X7164Y2182D01*
X7144Y2168D01*
X7131Y2148D01*
X7126Y2125D01*
X7131Y2102D01*
X7144Y2082D01*
X7164Y2068D01*
X7188Y2064D01*
X7211Y2068D01*
X7231Y2082D01*
X7244Y2102D01*
X7249Y2125D01*
X7244Y2148D01*
X7231Y2168D01*
X7211Y2182D01*
X7188Y2186D01*
D02*
G37*
G36*
X9062Y2311D02*
X9039Y2307D01*
X9019Y2293D01*
X9006Y2273D01*
X9001Y2250D01*
X9006Y2227D01*
X9019Y2207D01*
X9039Y2193D01*
X9055Y2190D01*
Y2160D01*
X9039Y2157D01*
X9019Y2143D01*
X9006Y2123D01*
X9001Y2100D01*
X9006Y2077D01*
X9019Y2057D01*
X9039Y2043D01*
X9062Y2039D01*
X9086Y2043D01*
X9106Y2057D01*
X9119Y2077D01*
X9124Y2100D01*
X9119Y2123D01*
X9106Y2143D01*
X9086Y2157D01*
X9070Y2160D01*
Y2190D01*
X9086Y2193D01*
X9106Y2207D01*
X9119Y2227D01*
X9124Y2250D01*
X9119Y2273D01*
X9106Y2293D01*
X9086Y2307D01*
X9062Y2311D01*
D02*
G37*
G36*
X8462Y2161D02*
X8439Y2157D01*
X8419Y2143D01*
X8406Y2123D01*
X8401Y2100D01*
X8406Y2077D01*
X8419Y2057D01*
X8439Y2043D01*
X8462Y2039D01*
X8486Y2043D01*
X8506Y2057D01*
X8519Y2077D01*
X8524Y2100D01*
X8519Y2123D01*
X8506Y2143D01*
X8486Y2157D01*
X8462Y2161D01*
D02*
G37*
G36*
X6962Y2124D02*
X6939Y2119D01*
X6919Y2106D01*
X6906Y2086D01*
X6901Y2062D01*
X6906Y2039D01*
X6919Y2019D01*
X6939Y2006D01*
X6962Y2001D01*
X6986Y2006D01*
X7006Y2019D01*
X7019Y2039D01*
X7024Y2062D01*
X7019Y2086D01*
X7006Y2106D01*
X6986Y2119D01*
X6962Y2124D01*
D02*
G37*
G36*
X1659Y1978D02*
X1570D01*
Y1943D01*
X1615D01*
X1633Y1946D01*
X1647Y1956D01*
X1657Y1971D01*
X1659Y1978D01*
D02*
G37*
G36*
X2960Y1967D02*
X2875D01*
Y1912D01*
X2960D01*
Y1967D01*
D02*
G37*
G36*
X2825D02*
X2740D01*
Y1923D01*
X2711Y1907D01*
X2710Y1907D01*
X2688Y1911D01*
X2664Y1907D01*
X2644Y1893D01*
X2631Y1873D01*
X2626Y1850D01*
X2631Y1827D01*
X2644Y1807D01*
X2664Y1793D01*
X2688Y1789D01*
X2711Y1793D01*
X2715Y1796D01*
X2740Y1808D01*
X2825D01*
Y1888D01*
Y1967D01*
D02*
G37*
G36*
X9475Y2024D02*
X9452Y2019D01*
X9432Y2006D01*
X9418Y1986D01*
X9414Y1962D01*
X9418Y1939D01*
X9432Y1919D01*
X9452Y1906D01*
X9475Y1901D01*
X9498Y1906D01*
X9518Y1919D01*
X9532Y1939D01*
X9536Y1962D01*
X9532Y1986D01*
X9518Y2006D01*
X9498Y2019D01*
X9475Y2024D01*
D02*
G37*
G36*
X8850D02*
X8827Y2019D01*
X8807Y2006D01*
X8793Y1986D01*
X8789Y1962D01*
X8793Y1939D01*
X8807Y1919D01*
X8827Y1906D01*
X8850Y1901D01*
X8873Y1906D01*
X8893Y1919D01*
X8907Y1939D01*
X8911Y1962D01*
X8907Y1986D01*
X8893Y2006D01*
X8873Y2019D01*
X8850Y2024D01*
D02*
G37*
G36*
X8225D02*
X8202Y2019D01*
X8182Y2006D01*
X8168Y1986D01*
X8164Y1962D01*
X8168Y1939D01*
X8182Y1919D01*
X8202Y1906D01*
X8225Y1901D01*
X8248Y1906D01*
X8268Y1919D01*
X8282Y1939D01*
X8286Y1962D01*
X8282Y1986D01*
X8268Y2006D01*
X8248Y2019D01*
X8225Y2024D01*
D02*
G37*
G36*
X7588D02*
X7564Y2019D01*
X7544Y2006D01*
X7531Y1986D01*
X7526Y1962D01*
X7531Y1939D01*
X7544Y1919D01*
X7564Y1906D01*
X7588Y1901D01*
X7611Y1906D01*
X7631Y1919D01*
X7644Y1939D01*
X7649Y1962D01*
X7644Y1986D01*
X7631Y2006D01*
X7611Y2019D01*
X7588Y2024D01*
D02*
G37*
G36*
X1750Y1836D02*
X1727Y1832D01*
X1707Y1818D01*
X1681D01*
X1661Y1832D01*
X1638Y1836D01*
X1614Y1832D01*
X1594Y1818D01*
X1581Y1798D01*
X1576Y1775D01*
X1581Y1752D01*
X1594Y1732D01*
X1614Y1718D01*
X1638Y1714D01*
X1661Y1718D01*
X1681Y1732D01*
X1707D01*
X1727Y1718D01*
X1750Y1714D01*
X1773Y1718D01*
X1793Y1732D01*
X1807Y1752D01*
X1811Y1775D01*
X1807Y1798D01*
X1793Y1818D01*
X1773Y1832D01*
X1750Y1836D01*
D02*
G37*
G36*
X2960Y1862D02*
X2875D01*
Y1808D01*
X2960D01*
Y1862D01*
D02*
G37*
G36*
X2525Y1911D02*
X2502Y1907D01*
X2482Y1893D01*
X2468Y1873D01*
X2464Y1850D01*
X2468Y1827D01*
X2482Y1807D01*
X2502Y1793D01*
X2525Y1789D01*
X2548Y1793D01*
X2568Y1807D01*
X2582Y1827D01*
X2586Y1850D01*
X2582Y1873D01*
X2568Y1893D01*
X2548Y1907D01*
X2525Y1911D01*
D02*
G37*
G36*
X6212Y1911D02*
X6189Y1907D01*
X6169Y1893D01*
X6156Y1873D01*
X6151Y1850D01*
X6156Y1827D01*
X6169Y1807D01*
X6189Y1793D01*
X6212Y1789D01*
X6236Y1793D01*
X6256Y1807D01*
X6269Y1827D01*
X6274Y1850D01*
X6269Y1873D01*
X6256Y1893D01*
X6236Y1907D01*
X6212Y1911D01*
D02*
G37*
G36*
X3188Y1836D02*
X3164Y1832D01*
X3144Y1818D01*
X3131Y1798D01*
X3126Y1775D01*
X3131Y1752D01*
X3144Y1732D01*
X3164Y1718D01*
X3188Y1714D01*
X3211Y1718D01*
X3231Y1732D01*
X3244Y1752D01*
X3249Y1775D01*
X3244Y1798D01*
X3231Y1818D01*
X3211Y1832D01*
X3188Y1836D01*
D02*
G37*
G36*
X488Y1765D02*
Y1688D01*
X565D01*
X565Y1690D01*
X554Y1715D01*
X537Y1737D01*
X515Y1754D01*
X490Y1765D01*
X488Y1765D01*
D02*
G37*
G36*
X438D02*
X435Y1765D01*
X410Y1754D01*
X388Y1737D01*
X371Y1715D01*
X360Y1690D01*
X360Y1688D01*
X438D01*
Y1765D01*
D02*
G37*
G36*
X1002Y1675D02*
X948D01*
Y1600D01*
X1002D01*
Y1675D01*
D02*
G37*
G36*
X898D02*
X843D01*
Y1600D01*
X898D01*
Y1675D01*
D02*
G37*
G36*
X4562Y1749D02*
X4539Y1744D01*
X4519Y1731D01*
X4506Y1711D01*
X4501Y1688D01*
X4506Y1664D01*
X4511Y1656D01*
X4506Y1648D01*
X4501Y1625D01*
X4506Y1602D01*
X4519Y1582D01*
X4539Y1568D01*
X4562Y1564D01*
X4586Y1568D01*
X4606Y1582D01*
X4619Y1602D01*
X4624Y1625D01*
X4619Y1648D01*
X4614Y1656D01*
X4619Y1664D01*
X4624Y1688D01*
X4619Y1711D01*
X4606Y1731D01*
X4586Y1744D01*
X4562Y1749D01*
D02*
G37*
G36*
X565Y1638D02*
X488D01*
Y1560D01*
X490Y1560D01*
X515Y1571D01*
X537Y1588D01*
X554Y1610D01*
X565Y1635D01*
X565Y1638D01*
D02*
G37*
G36*
X438D02*
X360D01*
X360Y1635D01*
X371Y1610D01*
X388Y1588D01*
X410Y1571D01*
X435Y1560D01*
X438Y1560D01*
Y1638D01*
D02*
G37*
G36*
X1002Y1550D02*
X948D01*
Y1475D01*
X1002D01*
Y1550D01*
D02*
G37*
G36*
X898D02*
X843D01*
Y1475D01*
X898D01*
Y1550D01*
D02*
G37*
G36*
X8438Y1561D02*
X8414Y1557D01*
X8394Y1543D01*
X8381Y1523D01*
X8376Y1500D01*
X8381Y1477D01*
X8394Y1457D01*
X8414Y1443D01*
X8438Y1439D01*
X8461Y1443D01*
X8481Y1457D01*
X8494Y1477D01*
X8499Y1500D01*
X8494Y1523D01*
X8481Y1543D01*
X8461Y1557D01*
X8438Y1561D01*
D02*
G37*
G36*
X1098Y1445D02*
X938D01*
Y1386D01*
X784D01*
X784Y1386D01*
X768Y1383D01*
X755Y1374D01*
X755Y1374D01*
X753Y1372D01*
X750Y1372D01*
X727Y1368D01*
X707Y1354D01*
X694Y1334D01*
X689Y1311D01*
X694Y1288D01*
X707Y1268D01*
X727Y1254D01*
X750Y1250D01*
X774Y1254D01*
X793Y1268D01*
X807Y1288D01*
X810Y1304D01*
X938D01*
Y1245D01*
X1084D01*
Y1160D01*
X1045D01*
Y940D01*
X1205D01*
Y1160D01*
X1166D01*
Y1312D01*
X1163Y1328D01*
X1154Y1341D01*
X1154Y1341D01*
X1121Y1374D01*
X1108Y1383D01*
X1098Y1385D01*
Y1445D01*
D02*
G37*
G36*
X462Y1514D02*
X435Y1511D01*
X410Y1500D01*
X388Y1483D01*
X371Y1461D01*
X360Y1436D01*
X357Y1409D01*
X360Y1381D01*
X371Y1356D01*
X388Y1334D01*
X410Y1317D01*
X435Y1306D01*
X462Y1303D01*
X490Y1306D01*
X515Y1317D01*
X537Y1334D01*
X554Y1356D01*
X565Y1381D01*
X568Y1409D01*
X565Y1436D01*
X554Y1461D01*
X537Y1483D01*
X515Y1500D01*
X490Y1511D01*
X462Y1514D01*
D02*
G37*
G36*
X8725Y1511D02*
X8702Y1507D01*
X8682Y1493D01*
X8668Y1473D01*
X8664Y1450D01*
X8668Y1427D01*
X8678Y1412D01*
X8668Y1398D01*
X8664Y1375D01*
X8668Y1352D01*
X8682Y1332D01*
X8702Y1318D01*
X8725Y1314D01*
X8748Y1318D01*
X8749Y1319D01*
X8781Y1314D01*
X8784Y1309D01*
X8794Y1294D01*
X8814Y1281D01*
X8838Y1276D01*
X8861Y1281D01*
X8881Y1294D01*
X8894Y1314D01*
X8899Y1338D01*
X8894Y1361D01*
X8881Y1381D01*
X8861Y1394D01*
X8838Y1399D01*
X8814Y1394D01*
X8790Y1409D01*
X8782Y1427D01*
X8786Y1450D01*
X8782Y1473D01*
X8768Y1493D01*
X8748Y1507D01*
X8725Y1511D01*
D02*
G37*
G36*
X8250Y1561D02*
X8227Y1557D01*
X8207Y1543D01*
X8193Y1523D01*
X8189Y1500D01*
X8164Y1494D01*
X8144Y1481D01*
X8131Y1461D01*
X8126Y1438D01*
X8102Y1432D01*
X8082Y1418D01*
X8068Y1398D01*
X8064Y1375D01*
X8039Y1369D01*
X8019Y1356D01*
X8006Y1336D01*
X8001Y1312D01*
X7977Y1307D01*
X7957Y1293D01*
X7943Y1273D01*
X7939Y1250D01*
X7943Y1227D01*
X7957Y1207D01*
X7977Y1193D01*
X8000Y1189D01*
X8023Y1193D01*
X8043Y1207D01*
X8057Y1227D01*
X8061Y1250D01*
X8086Y1256D01*
X8106Y1269D01*
X8119Y1289D01*
X8124Y1312D01*
X8148Y1318D01*
X8168Y1332D01*
X8182Y1352D01*
X8186Y1375D01*
X8211Y1381D01*
X8231Y1394D01*
X8244Y1414D01*
X8249Y1438D01*
X8273Y1443D01*
X8293Y1457D01*
X8307Y1477D01*
X8311Y1500D01*
X8307Y1523D01*
X8293Y1543D01*
X8273Y1557D01*
X8250Y1561D01*
D02*
G37*
G36*
X5937Y1286D02*
X5914Y1282D01*
X5894Y1268D01*
X5881Y1249D01*
X5876Y1225D01*
X5881Y1202D01*
X5894Y1182D01*
X5914Y1169D01*
X5937Y1164D01*
X5961Y1169D01*
X5981Y1182D01*
X5994Y1202D01*
X5998Y1225D01*
X5994Y1249D01*
X5981Y1268D01*
X5961Y1282D01*
X5937Y1286D01*
D02*
G37*
G36*
X2712Y1224D02*
X2689Y1219D01*
X2669Y1206D01*
X2656Y1186D01*
X2651Y1162D01*
X2656Y1139D01*
X2669Y1119D01*
X2689Y1106D01*
X2712Y1101D01*
X2736Y1106D01*
X2756Y1119D01*
X2769Y1139D01*
X2774Y1162D01*
X2769Y1186D01*
X2756Y1206D01*
X2736Y1219D01*
X2712Y1224D01*
D02*
G37*
G36*
X2250D02*
X2227Y1219D01*
X2207Y1206D01*
X2193Y1186D01*
X2189Y1162D01*
X2193Y1139D01*
X2207Y1119D01*
X2227Y1106D01*
X2250Y1101D01*
X2273Y1106D01*
X2293Y1119D01*
X2307Y1139D01*
X2311Y1162D01*
X2307Y1186D01*
X2293Y1206D01*
X2273Y1219D01*
X2250Y1224D01*
D02*
G37*
G36*
X1005Y1160D02*
X950D01*
Y1075D01*
X1005D01*
Y1160D01*
D02*
G37*
G36*
X900D02*
X845D01*
Y1075D01*
X900D01*
Y1160D01*
D02*
G37*
G36*
X8413Y1085D02*
X8405Y1082D01*
X8388Y1073D01*
X8370Y1082D01*
X8362Y1085D01*
Y1025D01*
X8338D01*
Y1000D01*
X8278D01*
X8281Y992D01*
X8291Y979D01*
Y971D01*
X8281Y958D01*
X8278Y950D01*
X8338D01*
Y925D01*
X8362D01*
Y865D01*
X8370Y868D01*
X8388Y877D01*
X8405Y868D01*
X8413Y865D01*
Y925D01*
X8438D01*
Y950D01*
X8497D01*
X8494Y958D01*
X8484Y971D01*
Y979D01*
X8494Y992D01*
X8497Y1000D01*
X8438D01*
Y1025D01*
X8413D01*
Y1085D01*
D02*
G37*
G36*
X8312Y1085D02*
X8305Y1082D01*
X8291Y1071D01*
X8281Y1058D01*
X8278Y1050D01*
X8312D01*
Y1085D01*
D02*
G37*
G36*
X8463Y1085D02*
Y1050D01*
X8497D01*
X8494Y1058D01*
X8484Y1071D01*
X8470Y1082D01*
X8463Y1085D01*
D02*
G37*
G36*
X568Y1260D02*
X358D01*
Y1049D01*
X568D01*
Y1260D01*
D02*
G37*
G36*
X8062Y1086D02*
X8039Y1082D01*
X8019Y1068D01*
X8006Y1048D01*
X8001Y1025D01*
X8006Y1002D01*
X8019Y982D01*
X8039Y968D01*
X8062Y964D01*
X8086Y968D01*
X8106Y982D01*
X8119Y1002D01*
X8124Y1025D01*
X8119Y1048D01*
X8106Y1068D01*
X8086Y1082D01*
X8062Y1086D01*
D02*
G37*
G36*
X1005Y1025D02*
X950D01*
Y940D01*
X1005D01*
Y1025D01*
D02*
G37*
G36*
X900D02*
X845D01*
Y940D01*
X900D01*
Y1025D01*
D02*
G37*
G36*
X7275Y1061D02*
X7252Y1057D01*
X7232Y1043D01*
X7218Y1023D01*
X7214Y1000D01*
X7218Y977D01*
X7232Y957D01*
X7252Y943D01*
X7275Y939D01*
X7298Y943D01*
X7318Y957D01*
X7332Y977D01*
X7336Y1000D01*
X7332Y1023D01*
X7318Y1043D01*
X7298Y1057D01*
X7275Y1061D01*
D02*
G37*
G36*
X6288D02*
X6264Y1057D01*
X6244Y1043D01*
X6231Y1023D01*
X6226Y1000D01*
X6231Y977D01*
X6244Y957D01*
X6264Y943D01*
X6288Y939D01*
X6311Y943D01*
X6331Y957D01*
X6344Y977D01*
X6349Y1000D01*
X6344Y1023D01*
X6331Y1043D01*
X6311Y1057D01*
X6288Y1061D01*
D02*
G37*
G36*
X1402Y1012D02*
X1332D01*
Y927D01*
X1402D01*
Y1012D01*
D02*
G37*
G36*
X750Y999D02*
X727Y994D01*
X707Y981D01*
X693Y961D01*
X689Y938D01*
X693Y914D01*
X707Y894D01*
X727Y881D01*
X750Y876D01*
X773Y881D01*
X793Y894D01*
X807Y914D01*
X811Y938D01*
X807Y961D01*
X793Y981D01*
X773Y994D01*
X750Y999D01*
D02*
G37*
G36*
X8497Y900D02*
X8463D01*
Y865D01*
X8470Y868D01*
X8484Y879D01*
X8494Y892D01*
X8497Y900D01*
D02*
G37*
G36*
X8312Y900D02*
X8278D01*
X8281Y892D01*
X8291Y879D01*
X8305Y868D01*
X8312Y865D01*
Y900D01*
D02*
G37*
G36*
X3650Y860D02*
X3595D01*
Y775D01*
X3650D01*
Y860D01*
D02*
G37*
G36*
X4500Y1274D02*
X4477Y1269D01*
X4457Y1256D01*
X4443Y1236D01*
X4439Y1212D01*
X4443Y1189D01*
X4457Y1169D01*
X4477Y1156D01*
X4500Y1151D01*
X4523Y1156D01*
X4524Y1156D01*
X4614D01*
X4621Y1149D01*
Y1110D01*
X4583D01*
Y890D01*
X4620D01*
Y857D01*
X4595D01*
Y668D01*
X4712D01*
Y662D01*
X4988D01*
Y890D01*
X4992D01*
Y1110D01*
X4988D01*
Y1200D01*
X4725D01*
X4717Y1212D01*
X4677Y1252D01*
X4659Y1264D01*
X4638Y1269D01*
X4524D01*
X4523Y1269D01*
X4500Y1274D01*
D02*
G37*
G36*
X3650Y725D02*
X3595D01*
Y640D01*
X3650D01*
Y725D01*
D02*
G37*
G36*
X3488Y1224D02*
X3464Y1219D01*
X3444Y1206D01*
X3431Y1186D01*
X3426Y1162D01*
X3431Y1139D01*
X3444Y1119D01*
X3464Y1106D01*
X3488Y1101D01*
X3508Y1105D01*
X3570Y1043D01*
Y902D01*
X3712D01*
Y860D01*
X3700D01*
Y750D01*
Y640D01*
X3712D01*
Y638D01*
X3812D01*
Y640D01*
X3955D01*
Y694D01*
X4162D01*
X4198Y658D01*
X4207Y644D01*
X4227Y631D01*
X4250Y626D01*
X4273Y631D01*
X4293Y644D01*
X4307Y664D01*
X4311Y688D01*
X4307Y711D01*
X4293Y731D01*
X4273Y744D01*
X4269Y745D01*
X4224Y790D01*
X4206Y802D01*
X4185Y806D01*
X3955D01*
Y860D01*
X3936D01*
Y902D01*
X3980D01*
Y1123D01*
X3812D01*
Y1125D01*
X3712D01*
Y1123D01*
X3649D01*
X3570Y1202D01*
X3551Y1214D01*
X3530Y1219D01*
X3512D01*
X3511Y1219D01*
X3488Y1224D01*
D02*
G37*
G36*
X8062Y676D02*
X8039Y672D01*
X8019Y658D01*
X8006Y638D01*
X8001Y615D01*
X8006Y592D01*
X8019Y572D01*
X8039Y558D01*
X8062Y554D01*
X8086Y558D01*
X8106Y572D01*
X8119Y592D01*
X8124Y615D01*
X8119Y638D01*
X8106Y658D01*
X8086Y672D01*
X8062Y676D01*
D02*
G37*
G36*
X2935Y558D02*
Y480D01*
X3013D01*
X3013Y482D01*
X3002Y508D01*
X2985Y530D01*
X2963Y547D01*
X2938Y557D01*
X2935Y558D01*
D02*
G37*
G36*
X2885D02*
X2883Y557D01*
X2858Y547D01*
X2836Y530D01*
X2819Y508D01*
X2808Y482D01*
X2808Y480D01*
X2885D01*
Y558D01*
D02*
G37*
G36*
X2058Y553D02*
Y475D01*
X2136D01*
X2136Y477D01*
X2125Y503D01*
X2108Y525D01*
X2086Y542D01*
X2061Y552D01*
X2058Y553D01*
D02*
G37*
G36*
X2008D02*
X2006Y552D01*
X1981Y542D01*
X1959Y525D01*
X1942Y503D01*
X1931Y477D01*
X1931Y475D01*
X2008D01*
Y553D01*
D02*
G37*
G36*
X1171D02*
Y475D01*
X1249D01*
X1248Y477D01*
X1238Y503D01*
X1221Y525D01*
X1199Y542D01*
X1173Y552D01*
X1171Y553D01*
D02*
G37*
G36*
X1121D02*
X1119Y552D01*
X1093Y542D01*
X1071Y525D01*
X1054Y503D01*
X1044Y477D01*
X1043Y475D01*
X1121D01*
Y553D01*
D02*
G37*
G36*
X3013Y430D02*
X2935D01*
Y352D01*
X2938Y353D01*
X2963Y363D01*
X2985Y380D01*
X3002Y402D01*
X3013Y428D01*
X3013Y430D01*
D02*
G37*
G36*
X2885D02*
X2808D01*
X2808Y428D01*
X2819Y402D01*
X2836Y380D01*
X2858Y363D01*
X2883Y353D01*
X2885Y352D01*
Y430D01*
D02*
G37*
G36*
X3269Y560D02*
X3059D01*
Y350D01*
X3269D01*
Y560D01*
D02*
G37*
G36*
X2136Y425D02*
X2058D01*
Y347D01*
X2061Y348D01*
X2086Y358D01*
X2108Y375D01*
X2125Y397D01*
X2136Y423D01*
X2136Y425D01*
D02*
G37*
G36*
X2008D02*
X1931D01*
X1931Y423D01*
X1942Y397D01*
X1959Y375D01*
X1981Y358D01*
X2006Y348D01*
X2008Y347D01*
Y425D01*
D02*
G37*
G36*
X1249D02*
X1171D01*
Y347D01*
X1173Y348D01*
X1199Y358D01*
X1221Y375D01*
X1238Y397D01*
X1248Y423D01*
X1249Y425D01*
D02*
G37*
G36*
X1121D02*
X1043D01*
X1044Y423D01*
X1054Y397D01*
X1071Y375D01*
X1093Y358D01*
X1119Y348D01*
X1121Y347D01*
Y425D01*
D02*
G37*
G36*
X2647Y555D02*
X2436D01*
Y345D01*
X2647D01*
Y555D01*
D02*
G37*
G36*
X1759D02*
X1549D01*
Y345D01*
X1759D01*
Y555D01*
D02*
G37*
G36*
X2288Y556D02*
X2260Y552D01*
X2235Y542D01*
X2213Y525D01*
X2196Y503D01*
X2185Y477D01*
X2182Y450D01*
X2185Y423D01*
X2196Y397D01*
X2213Y375D01*
X2235Y358D01*
X2260Y348D01*
X2288Y344D01*
X2315Y348D01*
X2340Y358D01*
X2362Y375D01*
X2379Y397D01*
X2390Y423D01*
X2393Y450D01*
X2390Y477D01*
X2379Y503D01*
X2362Y525D01*
X2340Y542D01*
X2315Y552D01*
X2288Y556D01*
D02*
G37*
G36*
X1400D02*
X1373Y552D01*
X1347Y542D01*
X1325Y525D01*
X1308Y503D01*
X1298Y477D01*
X1294Y450D01*
X1298Y423D01*
X1308Y397D01*
X1325Y375D01*
X1347Y358D01*
X1373Y348D01*
X1400Y344D01*
X1427Y348D01*
X1453Y358D01*
X1475Y375D01*
X1492Y397D01*
X1502Y423D01*
X1506Y450D01*
X1502Y477D01*
X1492Y503D01*
X1475Y525D01*
X1453Y542D01*
X1427Y552D01*
X1400Y556D01*
D02*
G37*
%LPD*%
G36*
X1602Y3453D02*
X1792D01*
X1809Y3429D01*
Y3350D01*
X1785Y3328D01*
X1756Y3331D01*
X1736Y3344D01*
X1712Y3349D01*
X1689Y3344D01*
X1669Y3331D01*
X1668Y3328D01*
X1571D01*
X1571Y3328D01*
X1555Y3325D01*
X1542Y3316D01*
X1542Y3316D01*
X1356Y3130D01*
X1347Y3117D01*
X1344Y3101D01*
X1344Y3101D01*
Y2889D01*
X1091Y2636D01*
X1063Y2648D01*
Y2740D01*
X1118D01*
Y2937D01*
X1118Y2960D01*
X1112Y2967D01*
Y3008D01*
X1118Y3015D01*
X1118Y3038D01*
Y3163D01*
X1135Y3172D01*
X1145Y3175D01*
X1147Y3175D01*
X1147Y3175D01*
X1164Y3163D01*
X1188Y3159D01*
X1211Y3163D01*
X1231Y3177D01*
X1244Y3197D01*
X1249Y3220D01*
X1244Y3243D01*
X1233Y3260D01*
X1244Y3277D01*
X1249Y3300D01*
X1244Y3323D01*
X1231Y3343D01*
X1211Y3357D01*
X1188Y3361D01*
X1164Y3357D01*
X1148Y3346D01*
X1138Y3347D01*
X1134Y3347D01*
X1118Y3357D01*
Y3510D01*
X946D01*
X927Y3510D01*
X879Y3510D01*
X707D01*
Y3325D01*
X707D01*
X690Y3322D01*
X676Y3312D01*
X600Y3236D01*
X588Y3242D01*
X493D01*
Y3188D01*
X443D01*
Y3267D01*
Y3369D01*
X440Y3369D01*
X415Y3358D01*
X393Y3341D01*
X376Y3319D01*
X371Y3307D01*
X341Y3313D01*
Y3396D01*
X604Y3659D01*
X1382D01*
Y3453D01*
X1383Y3413D01*
X1384Y3414D01*
X1398D01*
X1428Y3413D01*
Y3413D01*
X1456Y3409D01*
X1457Y3406D01*
X1470Y3387D01*
X1490Y3373D01*
X1514Y3369D01*
X1537Y3373D01*
X1557Y3387D01*
X1570Y3406D01*
X1573Y3423D01*
X1575Y3430D01*
X1573Y3453D01*
X1573D01*
Y3659D01*
X1602D01*
Y3453D01*
D02*
G37*
G36*
X606Y2789D02*
X619Y2769D01*
X639Y2756D01*
X662Y2751D01*
X678Y2754D01*
X707Y2740D01*
Y2740D01*
X879D01*
X898Y2740D01*
X946Y2740D01*
X982D01*
Y2178D01*
X968Y2164D01*
X912D01*
X909Y2168D01*
X907Y2174D01*
Y2203D01*
X909Y2206D01*
X917Y2218D01*
X921Y2235D01*
Y2266D01*
X917Y2283D01*
X907Y2298D01*
Y2330D01*
X917Y2345D01*
X921Y2362D01*
Y2392D01*
X917Y2410D01*
X907Y2425D01*
X893Y2435D01*
X875Y2438D01*
X735D01*
X717Y2435D01*
X716Y2434D01*
X654D01*
X633Y2430D01*
X615Y2418D01*
X595Y2398D01*
X567Y2412D01*
X568Y2425D01*
X565Y2452D01*
X554Y2477D01*
X537Y2499D01*
X515Y2516D01*
X490Y2527D01*
X462Y2530D01*
X435Y2527D01*
X410Y2516D01*
X388Y2499D01*
X371Y2477D01*
X341Y2483D01*
Y2634D01*
X363Y2653D01*
X572D01*
Y2804D01*
X603Y2807D01*
X606Y2789D01*
D02*
G37*
G36*
X1384Y2775D02*
Y2466D01*
X1362Y2449D01*
X1339Y2444D01*
X1319Y2431D01*
X1306Y2411D01*
X1301Y2388D01*
X1306Y2364D01*
X1319Y2344D01*
X1339Y2331D01*
X1362Y2326D01*
X1384Y2309D01*
Y2269D01*
X1384Y2269D01*
X1387Y2254D01*
X1396Y2240D01*
X1408Y2229D01*
X1408Y2229D01*
X1421Y2220D01*
X1423Y2219D01*
Y2189D01*
X1408Y2186D01*
X1390Y2174D01*
X1360Y2144D01*
X1348Y2126D01*
X1344Y2105D01*
Y1673D01*
X1332D01*
Y1631D01*
X1193D01*
Y1675D01*
X1169D01*
Y1738D01*
X1164Y1759D01*
X1152Y1777D01*
X1052Y1877D01*
X1034Y1889D01*
X1012Y1894D01*
X763D01*
X754Y1906D01*
X769Y1936D01*
X875D01*
X893Y1939D01*
X907Y1949D01*
X912Y1956D01*
X959D01*
X959Y1956D01*
X975Y1959D01*
X988Y1968D01*
X1119Y2099D01*
X1119Y2099D01*
X1128Y2112D01*
X1131Y2127D01*
X1131Y2128D01*
Y2311D01*
X1150Y2326D01*
X1173Y2331D01*
X1193Y2344D01*
X1207Y2364D01*
X1211Y2388D01*
X1207Y2411D01*
X1193Y2431D01*
X1173Y2444D01*
X1150Y2449D01*
X1131Y2464D01*
Y2561D01*
X1356Y2786D01*
X1384Y2775D01*
D02*
G37*
%LPC*%
G36*
X493Y3369D02*
Y3292D01*
X570D01*
X570Y3294D01*
X559Y3319D01*
X542Y3341D01*
X520Y3358D01*
X495Y3369D01*
X493Y3369D01*
D02*
G37*
%LPD*%
D10*
X1588Y3162D02*
X1688D01*
X1850Y3325D01*
Y3512D01*
X312Y4925D02*
X488D01*
X643Y5080D02*
X1680D01*
X488Y4925D02*
X643Y5080D01*
X2788Y5762D02*
Y6375D01*
X1612Y4800D02*
X1825D01*
X2788Y5762D01*
X6212Y7338D02*
X6391D01*
X6416Y7362D01*
X6422D01*
X5800Y5125D02*
X6000Y5325D01*
X5562Y5125D02*
X5800D01*
X7670Y7670D02*
Y8282D01*
X7632Y7632D02*
X7670Y7670D01*
X7632Y7632D02*
X7632D01*
X7450Y7538D02*
X7538D01*
X7632Y7632D01*
X3538Y7038D02*
Y7388D01*
X3442Y7482D02*
X3538Y7388D01*
X3283Y7482D02*
X3442D01*
X3338Y6838D02*
X3538Y7038D01*
X3700Y6900D02*
X3750D01*
X3612Y6988D02*
Y7450D01*
Y6988D02*
X3700Y6900D01*
X3453Y7610D02*
X3612Y7450D01*
X2812Y7000D02*
Y7375D01*
X2544Y7350D02*
X2688D01*
X2750Y6912D02*
Y7288D01*
X2688Y7350D02*
X2750Y7288D01*
X2690Y6860D02*
X2762Y6788D01*
X2690Y6860D02*
Y7185D01*
X2762Y6788D02*
X3162D01*
X3338Y6962D01*
X2653Y7221D02*
X2690Y7185D01*
X2542Y7221D02*
X2653D01*
X2542Y7349D02*
X2544Y7350D01*
X3338Y6662D02*
Y6838D01*
X3283Y7610D02*
X3453D01*
X1385Y2873D02*
Y3101D01*
X1090Y2577D02*
X1385Y2873D01*
Y3101D02*
X1571Y3288D01*
X1090Y2127D02*
Y2577D01*
X1437Y2258D02*
X1557D01*
X1425Y2269D02*
X1437Y2258D01*
X1425Y2269D02*
Y3085D01*
X1565Y3225D01*
X959Y1997D02*
X1090Y2127D01*
X818Y1997D02*
X959D01*
X805D02*
X818D01*
X1023Y2161D02*
Y2850D01*
X985Y2124D02*
X1023Y2161D01*
X1545Y3120D02*
X1588Y3162D01*
X1545Y2384D02*
Y3120D01*
X1571Y3288D02*
X1712D01*
X805Y2124D02*
X818D01*
X868D02*
X985D01*
X818D02*
X868D01*
X1565Y3225D02*
X1650D01*
X1648Y1038D02*
X1750D01*
X1788Y1075D01*
Y1212D01*
X2175Y1600D01*
X1950Y1562D02*
X2062Y1675D01*
Y2350D01*
X1648Y1562D02*
X1950D01*
X1648Y1038D02*
X1686Y1076D01*
X2175Y1600D02*
Y2425D01*
X2052Y2548D02*
X2175Y2425D01*
X1775Y1300D02*
X2125Y1650D01*
X2088Y2412D02*
X2125Y2375D01*
Y1650D02*
Y2375D01*
X1648Y1300D02*
X1775D01*
X3462Y6812D02*
X3750D01*
X2188Y6638D02*
X2225Y6675D01*
X2188Y6188D02*
Y6638D01*
X1752Y6412D02*
Y6672D01*
X1800Y3562D02*
X1850Y3512D01*
X1698Y3562D02*
X1800D01*
X1958Y2548D02*
X2052D01*
X1988Y2412D02*
X2088D01*
X750Y1311D02*
X784Y1345D01*
X1018D01*
X1093D02*
X1125Y1312D01*
X1018Y1345D02*
X1093D01*
X1125Y1050D02*
Y1312D01*
X662Y2812D02*
X765D01*
X802Y2850D01*
X188Y2500D02*
X250Y2562D01*
Y3438D02*
X562Y3750D01*
X250Y2562D02*
Y3438D01*
X588Y3700D02*
X1750D01*
X300Y3412D02*
X588Y3700D01*
X300Y2238D02*
Y3412D01*
X1038Y3750D02*
X1093Y3806D01*
X562Y3750D02*
X1038D01*
X1500Y6675D02*
X1500Y6675D01*
X1755D01*
X1760Y4950D02*
X2600Y5790D01*
X2562Y6062D02*
X2600Y6025D01*
Y5790D02*
Y6025D01*
X688Y4950D02*
X1760D01*
X1772Y4903D02*
X2675Y5806D01*
X697Y4903D02*
X1772D01*
X357Y4562D02*
X697Y4903D01*
X2675Y5806D02*
Y5812D01*
X351Y4500D02*
X713Y4862D01*
X1810D02*
X2735Y5788D01*
X713Y4862D02*
X1810D01*
X2735Y5788D02*
Y5990D01*
X2462Y5800D02*
Y6062D01*
X654Y5030D02*
X1692D01*
X2462Y5800D01*
X1715Y4990D02*
X2538Y5812D01*
X671Y4990D02*
X1715D01*
X1680Y5080D02*
X2380Y5780D01*
Y5805D02*
X2388Y5812D01*
X2380Y5780D02*
Y5805D01*
X998Y3920D02*
X999Y3919D01*
Y3813D02*
Y3919D01*
Y3813D02*
X1000Y3812D01*
X1093Y3806D02*
Y3920D01*
X1750Y3700D02*
X1867Y3817D01*
X7575Y8512D02*
Y8803D01*
X1825Y4588D02*
X1939Y4474D01*
Y4251D02*
Y4474D01*
X3458Y6205D02*
X3462Y6200D01*
X3458Y6205D02*
Y6260D01*
X3417Y6300D02*
X3458Y6260D01*
X3322Y6300D02*
X3417D01*
X5562Y5938D02*
X5612D01*
X5680Y6010D02*
X5735Y6065D01*
X5680Y6006D02*
Y6010D01*
X5612Y5938D02*
X5680Y6006D01*
X5735Y6065D02*
X5750D01*
X5765Y6285D02*
X5893Y6413D01*
X5938D01*
X5750Y6285D02*
X5765D01*
X5450Y5950D02*
X5462Y5938D01*
X5000Y5562D02*
X5012Y5550D01*
X5000Y5562D02*
X5000Y5562D01*
X5958Y8688D02*
X6072Y8803D01*
X6088D01*
X5812Y8688D02*
X5958D01*
X2062Y5812D02*
Y5962D01*
X1867Y3817D02*
Y3920D01*
X1850Y8512D02*
Y8688D01*
X2662Y6062D02*
X2735Y5990D01*
X1556Y4180D02*
X1677D01*
X1424Y4312D02*
X1556Y4180D01*
X1312Y4312D02*
X1424D01*
X1672Y3925D02*
X1677Y3920D01*
X1712Y5300D02*
Y5638D01*
X903Y4253D02*
X925Y4275D01*
X1000D01*
X903Y3920D02*
Y4253D01*
X1677Y3920D02*
Y4180D01*
X462Y2425D02*
X476D01*
X362Y2175D02*
X458D01*
X462Y2170D01*
X300Y2238D02*
X362Y2175D01*
X2118Y3920D02*
X2123Y3915D01*
X1867Y3920D02*
X2118D01*
X1345D02*
X1350Y3915D01*
X1093Y3920D02*
X1345D01*
X5562Y2925D02*
X5625D01*
X5488Y3000D02*
X5562Y2925D01*
X5488Y3000D02*
Y3062D01*
X5625Y2675D02*
Y2925D01*
X1712Y5638D02*
Y6088D01*
X5362Y2677D02*
Y3062D01*
X5361Y2676D02*
X5362Y2677D01*
X5361Y2676D02*
X5362Y2675D01*
X5575Y3063D02*
X5787D01*
X5825Y3025D01*
Y2925D02*
Y3025D01*
Y2675D02*
Y2925D01*
Y2450D02*
Y2675D01*
Y2450D02*
X5850Y2425D01*
X5625Y2450D02*
Y2675D01*
X5600Y2425D02*
X5625Y2450D01*
X1500Y8562D02*
X1507Y8555D01*
X1500Y8562D02*
Y8688D01*
X1995Y6675D02*
X2225D01*
X1995Y6675D02*
X1995Y6675D01*
X2112Y6125D02*
Y6375D01*
X1973Y6412D02*
X2075D01*
X2112Y6375D01*
X1752Y6672D02*
X1755Y6675D01*
X449Y4825D02*
X654Y5030D01*
X312Y4825D02*
X449D01*
X406Y4725D02*
X671Y4990D01*
X312Y4725D02*
X406D01*
X362Y4625D02*
X688Y4950D01*
X250Y4625D02*
X362D01*
X188Y4562D02*
X357D01*
X125Y4500D02*
X351D01*
X8688Y8062D02*
X8689Y8064D01*
Y8349D01*
X8689Y8350D01*
X8812Y8125D02*
X8814Y8127D01*
Y8348D01*
X8817Y8350D01*
X8940Y8190D02*
Y8347D01*
X8938Y8188D02*
X8940Y8190D01*
Y8347D02*
X8943Y8350D01*
D11*
X3662Y3432D02*
X3677Y3417D01*
Y3608D02*
X3755D01*
X3662Y3593D02*
X3677Y3608D01*
Y3417D02*
X3755D01*
X3662Y3432D02*
Y3593D01*
X7015Y8447D02*
X7112Y8350D01*
X7000Y8447D02*
X7015D01*
X7112Y8350D02*
X7119D01*
X7540Y8002D02*
X7575Y8038D01*
X7477Y8002D02*
X7540D01*
X7475Y8000D02*
X7477Y8002D01*
X6993Y8440D02*
X7000Y8447D01*
X6738Y8440D02*
X6993D01*
D13*
X4467Y6557D02*
D03*
X4578D02*
D03*
X4688D02*
D03*
X4797D02*
D03*
X4908D02*
D03*
X4467Y6447D02*
D03*
X4908D02*
D03*
X4467Y6338D02*
D03*
X4908D02*
D03*
X4467Y6228D02*
D03*
X4908D02*
D03*
X4467Y6117D02*
D03*
X4578D02*
D03*
X4688D02*
D03*
X4797D02*
D03*
X4908D02*
D03*
D69*
X4271Y4627D02*
D03*
X1115Y9747D02*
D03*
Y8788D02*
D03*
X2675Y9747D02*
D03*
Y8788D02*
D03*
D74*
X4512Y5562D02*
D03*
X4312D02*
D03*
X5625Y2675D02*
D03*
X5825D02*
D03*
X5162D02*
D03*
X5362D02*
D03*
X5975Y8250D02*
D03*
X6175D02*
D03*
X1712Y5638D02*
D03*
X1912D02*
D03*
X1862Y5962D02*
D03*
X2062D02*
D03*
X4062Y5812D02*
D03*
X3862D02*
D03*
X5825Y2925D02*
D03*
X5625D02*
D03*
X5162D02*
D03*
X5362D02*
D03*
X6800Y7275D02*
D03*
X7000D02*
D03*
X6175Y8000D02*
D03*
X5975D02*
D03*
X2325Y3100D02*
D03*
X2125D02*
D03*
X4762Y4988D02*
D03*
X4962D02*
D03*
X5212D02*
D03*
X5412D02*
D03*
X3962D02*
D03*
X3762D02*
D03*
X3862Y6138D02*
D03*
X4062D02*
D03*
X3862Y6412D02*
D03*
X4062D02*
D03*
X1225Y7338D02*
D03*
X1025D02*
D03*
X5450Y6200D02*
D03*
X5250D02*
D03*
X5450Y5950D02*
D03*
X5250D02*
D03*
X4488Y7450D02*
D03*
X4688D02*
D03*
X5450Y6462D02*
D03*
X5250D02*
D03*
X1250Y5962D02*
D03*
X1450D02*
D03*
X3862Y5562D02*
D03*
X4062D02*
D03*
X1225Y4738D02*
D03*
X1025D02*
D03*
X4312Y4988D02*
D03*
X4512D02*
D03*
X5000Y5562D02*
D03*
X4800D02*
D03*
X5450Y5662D02*
D03*
X5250D02*
D03*
X925Y1050D02*
D03*
X1125D02*
D03*
X7000Y7525D02*
D03*
X6800D02*
D03*
X5975Y7750D02*
D03*
X6175D02*
D03*
X2125Y7988D02*
D03*
X1925D02*
D03*
X3875Y750D02*
D03*
X3675D02*
D03*
D75*
X1712Y5300D02*
D03*
X1512D02*
D03*
X2325Y3438D02*
D03*
X2125D02*
D03*
X2325Y3675D02*
D03*
X2125D02*
D03*
X4675Y763D02*
D03*
X4875D02*
D03*
D76*
X7238Y8228D02*
D03*
Y8428D02*
D03*
D90*
X3950Y3612D02*
D03*
Y3412D02*
D03*
X3300Y3612D02*
D03*
Y3412D02*
D03*
X5050Y7012D02*
D03*
Y7212D02*
D03*
X4762Y6962D02*
D03*
Y7162D02*
D03*
X3488Y8012D02*
D03*
Y7812D02*
D03*
X2775Y8075D02*
D03*
Y7875D02*
D03*
X5625Y7212D02*
D03*
Y7012D02*
D03*
X2850Y1888D02*
D03*
Y2088D02*
D03*
X5812Y9025D02*
D03*
Y8825D02*
D03*
X5338Y7012D02*
D03*
Y7212D02*
D03*
X5850Y2225D02*
D03*
Y2425D02*
D03*
X5600Y2225D02*
D03*
Y2425D02*
D03*
X5288Y8838D02*
D03*
Y9038D02*
D03*
X9150Y8938D02*
D03*
Y8738D02*
D03*
X3612Y5838D02*
D03*
Y6038D02*
D03*
X5638Y7488D02*
D03*
Y7688D02*
D03*
X6075Y6612D02*
D03*
Y6412D02*
D03*
X4125Y7162D02*
D03*
Y6962D02*
D03*
X3225Y5838D02*
D03*
Y6038D02*
D03*
X4438Y7162D02*
D03*
Y6962D02*
D03*
X562Y5625D02*
D03*
Y5425D02*
D03*
X3875Y7012D02*
D03*
Y7212D02*
D03*
X2712Y4138D02*
D03*
Y3938D02*
D03*
X2675Y9350D02*
D03*
Y9150D02*
D03*
X1500Y6675D02*
D03*
Y6875D02*
D03*
X2225Y6675D02*
D03*
Y6875D02*
D03*
D100*
X802Y2850D02*
D03*
X1023D02*
D03*
X3322Y6300D02*
D03*
X3102D02*
D03*
X1427Y1038D02*
D03*
X1648D02*
D03*
X1698Y3562D02*
D03*
X1477D02*
D03*
X1752Y6412D02*
D03*
X1973D02*
D03*
X6990Y7862D02*
D03*
X7210D02*
D03*
X6503D02*
D03*
X6722D02*
D03*
X1427Y1562D02*
D03*
X1648D02*
D03*
X1427Y1300D02*
D03*
X1648D02*
D03*
X1232Y7988D02*
D03*
X1012D02*
D03*
X1465D02*
D03*
X1685D02*
D03*
X802Y3125D02*
D03*
X1023D02*
D03*
X802Y3400D02*
D03*
X1023D02*
D03*
X3885Y1012D02*
D03*
X3665D02*
D03*
X4678Y1000D02*
D03*
X4897D02*
D03*
D101*
X1438Y9160D02*
D03*
Y8940D02*
D03*
Y9610D02*
D03*
Y9390D02*
D03*
X5750Y6065D02*
D03*
Y6285D02*
D03*
X6088Y9022D02*
D03*
Y8803D02*
D03*
X5550Y9035D02*
D03*
Y8815D02*
D03*
X7000Y8447D02*
D03*
Y8228D02*
D03*
X7575Y8803D02*
D03*
Y9022D02*
D03*
X7250Y9022D02*
D03*
Y8803D02*
D03*
X2123Y3915D02*
D03*
Y4135D02*
D03*
X1350Y3915D02*
D03*
Y4135D02*
D03*
D107*
X2912Y3812D02*
X3000D01*
X2325Y3438D02*
X2538D01*
X2912Y3812D01*
X1500Y5288D02*
X1512Y5275D01*
X1864Y4170D02*
Y4436D01*
X1429Y2134D02*
X1542D01*
X1545Y2131D01*
X1400Y1600D02*
Y2105D01*
X1429Y2134D01*
X1112Y1575D02*
X1425D01*
X1400Y1600D02*
X1425Y1575D01*
X1012Y1838D02*
X1112Y1738D01*
X725Y1838D02*
X1012D01*
X1112Y1575D02*
Y1738D01*
X626Y2250D02*
X805D01*
X805Y2250D01*
X625Y2250D02*
X626Y2250D01*
X654Y2378D02*
X805D01*
X805Y2377D01*
X625Y2349D02*
X654Y2378D01*
X625Y2250D02*
Y2349D01*
X2312Y7125D02*
X2375D01*
X1427Y1300D02*
Y1562D01*
X3862Y6138D02*
Y6412D01*
Y6108D02*
Y6138D01*
X2325Y3000D02*
X2388Y2938D01*
X2325Y3000D02*
Y3100D01*
X2325Y3250D02*
X2325Y3250D01*
Y3100D02*
Y3250D01*
X625Y1938D02*
Y2250D01*
Y1938D02*
X725Y1838D01*
X3950Y3612D02*
Y3775D01*
X3914Y3811D02*
X3950Y3775D01*
X3812Y3812D02*
X3814Y3811D01*
X3914D01*
X3750Y3812D02*
X3812D01*
X3688D02*
X3750D01*
X3750Y6000D02*
X3752Y6002D01*
X3757D01*
X3862Y6108D01*
X6800Y7275D02*
X6800Y7275D01*
Y7150D02*
Y7275D01*
X1514Y3430D02*
Y3526D01*
X2125Y3312D02*
Y3438D01*
X2950Y6575D02*
X3833D01*
X1477Y3562D02*
X1514Y3526D01*
X2875Y6438D02*
Y6500D01*
Y5950D02*
Y6438D01*
X1512Y3850D02*
Y3912D01*
X1475Y4125D02*
X1512Y4088D01*
Y3912D02*
Y4088D01*
X1360Y4125D02*
X1475D01*
X1350Y4135D02*
X1360Y4125D01*
X1562Y4738D02*
X1864Y4436D01*
X1512Y4738D02*
X1513Y4738D01*
X1562D01*
X1864Y4170D02*
X1872Y4162D01*
X2125Y3438D02*
Y3675D01*
X2096Y4162D02*
X2123Y4135D01*
X1872Y4162D02*
X2096D01*
X2712Y4138D02*
X2725D01*
X2750Y4162D01*
Y4250D01*
X2131Y4142D02*
X2708D01*
X2712Y4138D01*
X2123Y4135D02*
X2131Y4142D01*
X1250Y5962D02*
Y6125D01*
X2875Y6500D02*
X2950Y6575D01*
X3862Y6412D02*
Y6546D01*
X3833Y6575D02*
X3862Y6546D01*
X3112Y5838D02*
X3225D01*
X2875Y5950D02*
X2988Y5838D01*
X5450Y5712D02*
X5463Y5725D01*
X5913D01*
X4947Y7188D02*
X5025D01*
X4914Y7155D02*
X4947Y7188D01*
X4914Y7152D02*
Y7155D01*
X4912Y7150D02*
X4914Y7152D01*
X5025Y7188D02*
X5050Y7212D01*
X5212D01*
Y7275D01*
X3988Y7013D02*
X3988Y7013D01*
X3875Y7013D02*
X3988D01*
X3875Y7012D02*
X3875Y7013D01*
X4488Y7450D02*
Y7600D01*
X4550D01*
X5338Y7212D02*
X5471D01*
X5212D02*
X5338D01*
X2988Y5838D02*
X3112D01*
X1093Y4180D02*
Y4431D01*
Y4167D02*
Y4180D01*
X5638Y7487D02*
X5638Y7487D01*
X5638Y7488D02*
X5875D01*
X6075Y6612D02*
Y7288D01*
X5875Y7488D02*
X6075Y7288D01*
X5638Y7488D02*
X5638Y7487D01*
X5938Y6612D02*
X6075D01*
X5475Y7132D02*
Y7208D01*
X5471Y7212D02*
X5475Y7208D01*
Y7132D02*
X5595Y7012D01*
X5475Y7208D02*
Y7275D01*
X5595Y7012D02*
X5625D01*
Y6912D02*
Y7012D01*
X5450Y5712D02*
Y5812D01*
Y5662D02*
Y5712D01*
Y5652D02*
Y5662D01*
X4312Y5562D02*
Y5812D01*
Y5533D02*
Y5562D01*
X5012Y5400D02*
Y5550D01*
X4228Y5511D02*
X4291D01*
X4189Y5473D02*
X4228Y5511D01*
X4291D02*
X4312Y5533D01*
X4189Y5439D02*
Y5473D01*
X4188Y5438D02*
X4189Y5439D01*
X5000Y5562D02*
Y5812D01*
X3862Y5533D02*
Y5562D01*
X3750Y5420D02*
X3862Y5533D01*
X3750Y5375D02*
Y5420D01*
X3862Y5562D02*
Y5812D01*
X3750D02*
X3862D01*
X3738Y7012D02*
X3875D01*
X1252Y9377D02*
X1424D01*
X1250Y9375D02*
X1252Y9377D01*
X1424D02*
X1438Y9390D01*
X7000Y7245D02*
Y7275D01*
Y7245D02*
X7025Y7220D01*
X7055D01*
X7062Y7212D01*
X7150D01*
X7000Y7275D02*
X7006Y7281D01*
Y7519D01*
X7000Y7525D02*
X7006Y7519D01*
X6990Y7841D02*
Y7862D01*
Y7841D02*
X7000Y7831D01*
Y7532D02*
Y7831D01*
X6968Y7862D02*
X7000Y7831D01*
X6722Y7862D02*
X6990D01*
X6175Y8250D02*
Y8625D01*
Y8000D02*
Y8250D01*
Y7750D02*
Y8000D01*
X6390Y7750D02*
X6447Y7807D01*
X6503Y7847D02*
Y7862D01*
X6462Y7807D02*
X6503Y7847D01*
X6447Y7807D02*
X6462D01*
X6175Y7750D02*
X6390D01*
X6505Y8343D02*
X6507Y8345D01*
X6505Y7865D02*
Y8343D01*
X6503Y7862D02*
X6505Y7865D01*
X2862Y2088D02*
X3000D01*
X2688D02*
X2850D01*
X2375Y3960D02*
Y3962D01*
X2325Y3910D02*
X2375Y3960D01*
X2325Y3675D02*
Y3910D01*
X1093Y4167D02*
X1098Y4162D01*
X1323D02*
X1350Y4135D01*
X1098Y4162D02*
X1323D01*
X1093Y4431D02*
X1225Y4562D01*
X3665Y1012D02*
Y1027D01*
X3530Y1162D02*
X3665Y1027D01*
X3488Y1162D02*
X3530D01*
X3880Y755D02*
Y1007D01*
X3885Y1012D01*
X3875Y750D02*
X3880Y755D01*
X3875Y750D02*
X4185D01*
X4247Y688D01*
X4250D01*
X4886Y989D02*
X4898Y1000D01*
Y1135D02*
X4898Y1135D01*
X4898Y1000D02*
Y1135D01*
X4886Y774D02*
Y989D01*
X4875Y763D02*
X4886Y774D01*
X4676Y764D02*
Y999D01*
X4675Y763D02*
X4676Y764D01*
Y999D02*
X4678Y1000D01*
Y1173D01*
X4638Y1212D02*
X4678Y1173D01*
X4500Y1212D02*
X4638D01*
X1925Y7988D02*
Y8150D01*
X1800Y8238D02*
X1920D01*
X1725Y8028D02*
Y8162D01*
X1800Y8238D01*
X1920D02*
X1945Y8262D01*
X1685Y7988D02*
X1725Y8028D01*
X1945Y8262D02*
Y8282D01*
X1412Y8325D02*
X1418Y8319D01*
Y8209D02*
Y8319D01*
Y8209D02*
X1475Y8153D01*
Y8150D02*
Y8153D01*
X1218Y8003D02*
Y8310D01*
X1202Y8325D02*
X1218Y8310D01*
Y8003D02*
X1232Y7988D01*
X1465D01*
Y8003D02*
X1602Y8140D01*
X1465Y7988D02*
Y8003D01*
X1602Y8140D02*
Y8325D01*
X2675Y8788D02*
Y9150D01*
X6749Y8239D02*
X7226D01*
X6738Y8250D02*
X6749Y8239D01*
X7226D02*
X7238Y8228D01*
X5960Y9302D02*
Y9545D01*
Y9302D02*
X6000Y9262D01*
X6338D02*
X6507Y9093D01*
X6000Y9262D02*
X6338D01*
X6507Y8907D02*
Y9093D01*
X6747Y9012D02*
X7565D01*
X6738Y9003D02*
X6747Y9012D01*
X7565D02*
X7575Y9022D01*
X1500Y5288D02*
X1512Y5300D01*
D108*
X1225Y7338D02*
Y7500D01*
Y6900D02*
Y7125D01*
X562Y6238D02*
X1225Y6900D01*
X4438Y7162D02*
X4447Y7172D01*
X4539D01*
X4562Y7196D01*
Y7275D01*
X5450Y6200D02*
X5562D01*
X5450Y6462D02*
X5562D01*
X3962Y4988D02*
Y5125D01*
Y4988D02*
X4312D01*
X5212D02*
Y5017D01*
X5105Y5125D02*
X5212Y5017D01*
X5062Y5125D02*
X5105D01*
X4762Y4988D02*
X4772Y4997D01*
Y5125D01*
X4312Y4988D02*
Y5125D01*
X5462Y5938D02*
X5562D01*
X4762Y7162D02*
Y7275D01*
X4125Y7162D02*
Y7275D01*
X3612Y5512D02*
Y5838D01*
X3475Y5375D02*
X3612Y5512D01*
X3438Y5875D02*
Y5938D01*
X3603Y5847D02*
X3612Y5838D01*
X3465Y5847D02*
X3603D01*
X3438Y5875D02*
X3465Y5847D01*
X5638Y7338D02*
Y7400D01*
Y7487D01*
X3312Y7812D02*
X3488D01*
X3250D02*
X3312D01*
X2912Y7875D02*
X2975D01*
X2775D02*
X2912D01*
X2475Y7962D02*
Y8125D01*
Y7962D02*
X2562Y7875D01*
X2775D01*
X2475Y8125D02*
Y8188D01*
X3312Y9438D02*
Y9500D01*
Y8688D02*
Y9438D01*
Y8625D02*
Y8688D01*
X7238Y8428D02*
Y8566D01*
X7284Y8612D02*
X7325D01*
X7238Y8566D02*
X7284Y8612D01*
X7325D02*
X7388D01*
X7253Y8428D02*
X7262Y8438D01*
X7238Y8428D02*
X7253D01*
X6743Y8807D02*
X7245D01*
X7062Y8812D02*
Y8875D01*
X6718Y8812D02*
X6728Y8822D01*
X6738Y8812D02*
X6743Y8807D01*
X7245D02*
X7250Y8803D01*
X6718Y8812D02*
X6738D01*
X1225Y7188D02*
Y7338D01*
Y7125D02*
Y7188D01*
X1162Y7500D02*
X1225D01*
X562Y5625D02*
Y6238D01*
X212Y5625D02*
X562D01*
X212Y5625D02*
X212Y5625D01*
X212Y5525D02*
Y5625D01*
Y5425D02*
Y5525D01*
X1225Y4562D02*
Y4738D01*
Y4562D02*
X1225Y4562D01*
X1438Y9160D02*
Y9390D01*
X1112Y8893D02*
X1159Y8940D01*
X1112Y8790D02*
Y8893D01*
X1159Y8940D02*
X1438D01*
X1112Y8790D02*
X1115Y8788D01*
X1111Y8784D02*
X1115Y8788D01*
X1107Y8555D02*
X1111Y8559D01*
Y8784D01*
X1012Y8325D02*
X1012Y8325D01*
Y7988D02*
Y8325D01*
X797Y8561D02*
X1012Y8345D01*
X480Y8561D02*
X797D01*
X1012Y8325D02*
Y8345D01*
X1225Y4738D02*
X1512D01*
Y5150D02*
Y5275D01*
D110*
X3025Y3612D02*
X3300D01*
X2775Y3125D02*
Y3362D01*
X3025Y3612D01*
X3283Y7355D02*
X3417D01*
X3438Y7125D02*
Y7334D01*
X3417Y7355D02*
X3438Y7334D01*
X3283Y7356D02*
X3283Y7355D01*
X2400Y7475D02*
Y7575D01*
Y7157D02*
Y7475D01*
X2400Y7475D02*
X2542D01*
X2400Y7475D02*
X2400Y7475D01*
X2540Y7600D02*
X2542Y7603D01*
X2425Y7600D02*
X2540D01*
X2400Y7575D02*
X2425Y7600D01*
X2375Y7132D02*
X2400Y7157D01*
X2375Y7125D02*
Y7132D01*
X3303Y3610D02*
X3492D01*
X3495Y3608D01*
X3300Y3612D02*
X3303Y3610D01*
X454Y1925D02*
X462Y1917D01*
X3755Y3608D02*
X3758Y3610D01*
X3892D01*
X3920Y3583D01*
X5750Y8793D02*
X5783Y8825D01*
X5750Y8762D02*
Y8793D01*
X5681Y8691D02*
Y8694D01*
X5750Y8762D01*
X5783Y8825D02*
X5812D01*
X5565Y8815D02*
X5612Y8768D01*
Y8650D02*
Y8768D01*
X5550Y8815D02*
X5565D01*
X9150Y8938D02*
Y9088D01*
X8308Y8533D02*
X8412Y8638D01*
X8308Y8350D02*
Y8533D01*
X8412Y8638D02*
X8825D01*
X8943Y8756D01*
Y8930D01*
X9143D01*
D111*
X483Y2919D02*
Y2997D01*
X535Y2867D02*
X642Y2974D01*
Y3163D02*
X723Y3244D01*
X604Y2990D02*
Y3179D01*
X520Y2811D02*
Y2852D01*
X788Y3140D02*
Y3229D01*
X773Y3281D02*
X788Y3296D01*
X468Y3012D02*
X483Y2997D01*
X498Y2904D02*
X519D01*
X707Y3281D02*
X773D01*
X788Y3296D02*
Y3385D01*
X468Y2758D02*
X520Y2811D01*
X604Y3179D02*
X707Y3281D01*
X788Y3385D02*
X802Y3400D01*
X483Y2919D02*
X498Y2904D01*
X519D02*
X604Y2990D01*
X520Y2852D02*
X535Y2867D01*
X773Y3244D02*
X788Y3229D01*
X642Y2974D02*
Y3163D01*
X723Y3244D02*
X773D01*
X535Y2867D02*
X535D01*
X788Y3140D02*
X802Y3125D01*
X1178Y3220D02*
X1188D01*
X1157Y3241D02*
X1178Y3220D01*
X1129Y3279D02*
X1157D01*
X1090Y3281D02*
X1126D01*
X1178Y3300D02*
X1188D01*
X1075Y3296D02*
Y3348D01*
Y3296D02*
X1090Y3281D01*
X1075Y3229D02*
X1090Y3244D01*
X1111D01*
X1113Y3241D02*
X1157D01*
X1111Y3244D02*
X1113Y3241D01*
X1126Y3281D02*
X1129Y3279D01*
X1023Y3400D02*
X1075Y3348D01*
Y3177D02*
Y3229D01*
X1023Y3125D02*
X1075Y3177D01*
X1157Y3279D02*
X1178Y3300D01*
D112*
X3920Y3583D02*
X3950Y3612D01*
D114*
X8338Y925D02*
D03*
X8438Y1025D02*
D03*
X8338D02*
D03*
X8438Y925D02*
D03*
X6188Y2138D02*
D03*
D115*
X4688Y6338D02*
D03*
D116*
X468Y2758D02*
D03*
X480Y8561D02*
D03*
X462Y1155D02*
D03*
X475Y7700D02*
D03*
X480Y6582D02*
D03*
D117*
X468Y3012D02*
D03*
Y3267D02*
D03*
X6215Y9545D02*
D03*
X2910Y455D02*
D03*
X2033Y450D02*
D03*
X2288D02*
D03*
X1146D02*
D03*
X1400D02*
D03*
X480Y8814D02*
D03*
X462Y1917D02*
D03*
Y1409D02*
D03*
Y1662D02*
D03*
Y2170D02*
D03*
Y2425D02*
D03*
X475Y8208D02*
D03*
Y7954D02*
D03*
X480Y7343D02*
D03*
Y7089D02*
D03*
Y6836D02*
D03*
D118*
X3762Y4627D02*
D03*
X4017Y4373D02*
D03*
Y4627D02*
D03*
X4271Y4373D02*
D03*
X3508Y4627D02*
D03*
X3254D02*
D03*
X3508Y4373D02*
D03*
X3762D02*
D03*
X3254D02*
D03*
D119*
X6969Y9486D02*
D03*
X7223D02*
D03*
X6969Y9739D02*
D03*
X7223D02*
D03*
X7731Y9486D02*
D03*
X7477Y9739D02*
D03*
Y9486D02*
D03*
D120*
X7731Y9739D02*
D03*
D121*
X5960Y9545D02*
D03*
X3165Y455D02*
D03*
X2542Y450D02*
D03*
X1654D02*
D03*
D122*
X9500Y500D02*
D03*
Y9500D02*
D03*
X500D02*
D03*
Y500D02*
D03*
D123*
X9812Y8625D02*
D03*
Y8312D02*
D03*
Y8000D02*
D03*
Y7688D02*
D03*
Y7375D02*
D03*
Y7062D02*
D03*
Y6750D02*
D03*
Y6438D02*
D03*
Y6125D02*
D03*
Y5812D02*
D03*
Y5500D02*
D03*
Y5188D02*
D03*
Y4875D02*
D03*
Y4562D02*
D03*
Y4250D02*
D03*
Y3938D02*
D03*
Y3625D02*
D03*
Y3312D02*
D03*
Y3000D02*
D03*
Y2688D02*
D03*
Y2375D02*
D03*
Y2062D02*
D03*
Y1750D02*
D03*
Y1438D02*
D03*
Y1125D02*
D03*
X2562Y6875D02*
D03*
X2812Y7500D02*
D03*
X2938Y7625D02*
D03*
X3750Y8188D02*
D03*
X3250Y8250D02*
D03*
X3062Y1688D02*
D03*
Y1875D02*
D03*
X3500Y938D02*
D03*
X3000D02*
D03*
X2688D02*
D03*
X2188D02*
D03*
X1375Y812D02*
D03*
X188Y1162D02*
D03*
Y1412D02*
D03*
Y1662D02*
D03*
Y1912D02*
D03*
Y2188D02*
D03*
X438Y3438D02*
D03*
X1812Y2000D02*
D03*
X3100Y6175D02*
D03*
X400Y3938D02*
D03*
X562D02*
D03*
X4500Y688D02*
D03*
X4375D02*
D03*
X2475Y2012D02*
D03*
X2312Y2188D02*
D03*
X2000D02*
D03*
X2525Y1850D02*
D03*
X7950Y3812D02*
D03*
X7825Y4500D02*
D03*
X7812Y5188D02*
D03*
X7238Y2988D02*
D03*
X7238Y4340D02*
D03*
X7238Y5125D02*
D03*
Y5350D02*
D03*
X7475Y6600D02*
D03*
X7625Y7300D02*
D03*
X7450Y7138D02*
D03*
X7238Y6525D02*
D03*
X2012Y4800D02*
D03*
X1775Y4738D02*
D03*
X1862Y4675D02*
D03*
X2625Y1688D02*
D03*
X1888Y3025D02*
D03*
X8225Y2238D02*
D03*
X8850Y2250D02*
D03*
X4862Y2162D02*
D03*
X2875Y6938D02*
D03*
X3712Y7388D02*
D03*
X3938Y7700D02*
D03*
X3750D02*
D03*
X3412D02*
D03*
X2612Y6162D02*
D03*
X2262Y6500D02*
D03*
X3100Y6950D02*
D03*
X3062Y7238D02*
D03*
Y7488D02*
D03*
X1838Y7312D02*
D03*
X3125Y1438D02*
D03*
X2625D02*
D03*
X2188D02*
D03*
X6850Y2312D02*
D03*
X7238Y5825D02*
D03*
Y5925D02*
D03*
X7050Y6525D02*
D03*
X6888Y5975D02*
D03*
X7000Y5825D02*
D03*
Y5925D02*
D03*
X6875Y6500D02*
D03*
X9075Y2675D02*
D03*
Y2575D02*
D03*
X3000Y3938D02*
D03*
X675Y3612D02*
D03*
X1000D02*
D03*
X1212Y812D02*
D03*
X2000D02*
D03*
X3312D02*
D03*
X2850D02*
D03*
X2388D02*
D03*
X3938Y1962D02*
D03*
X4962Y600D02*
D03*
X4712D02*
D03*
X7562Y1000D02*
D03*
X7688Y1150D02*
D03*
X7812Y988D02*
D03*
X7388Y6725D02*
D03*
X7075Y6875D02*
D03*
X6900Y7025D02*
D03*
X6700Y5250D02*
D03*
X6425Y4725D02*
D03*
X6700Y4738D02*
D03*
Y4362D02*
D03*
X6638Y3938D02*
D03*
Y3750D02*
D03*
X6388Y6500D02*
D03*
X6250Y5250D02*
D03*
X6750Y9688D02*
D03*
X8438Y9625D02*
D03*
X8312Y9750D02*
D03*
X125Y3012D02*
D03*
Y3462D02*
D03*
X5138Y7625D02*
D03*
X9150Y8500D02*
D03*
X7875Y8612D02*
D03*
X7700D02*
D03*
X6612Y7688D02*
D03*
X6075Y6312D02*
D03*
X6212Y6412D02*
D03*
X6175Y7062D02*
D03*
X6125Y7375D02*
D03*
X6000Y5325D02*
D03*
X7450Y7538D02*
D03*
Y7650D02*
D03*
X3438Y7125D02*
D03*
X2812Y7375D02*
D03*
Y7000D02*
D03*
X2750Y6912D02*
D03*
X3338Y6962D02*
D03*
X1850Y4038D02*
D03*
X1188Y3125D02*
D03*
X1262Y2388D02*
D03*
Y1300D02*
D03*
Y1475D02*
D03*
Y1725D02*
D03*
X1962Y2000D02*
D03*
X950Y2700D02*
D03*
X1312Y3125D02*
D03*
Y3250D02*
D03*
X1688Y3000D02*
D03*
X1188Y3562D02*
D03*
X562D02*
D03*
X662Y2688D02*
D03*
X562Y2562D02*
D03*
X375D02*
D03*
X662Y2500D02*
D03*
X3750Y6900D02*
D03*
X3338Y6662D02*
D03*
X3462Y6725D02*
D03*
Y6812D02*
D03*
X2375Y7125D02*
D03*
X2312D02*
D03*
X3738Y7112D02*
D03*
X1588Y3162D02*
D03*
X1650Y3225D02*
D03*
X1712Y3288D02*
D03*
X2775Y3125D02*
D03*
X625Y2250D02*
D03*
X750Y1311D02*
D03*
X662Y2812D02*
D03*
X188Y2500D02*
D03*
X2312Y2488D02*
D03*
X6725Y2525D02*
D03*
X7312Y2938D02*
D03*
X8962Y1475D02*
D03*
X5938Y6525D02*
D03*
X3188Y2000D02*
D03*
X3113Y3700D02*
D03*
X4188Y2188D02*
D03*
X2875Y8250D02*
D03*
Y8438D02*
D03*
Y8625D02*
D03*
X1475Y6500D02*
D03*
Y6312D02*
D03*
X3188Y5575D02*
D03*
Y5675D02*
D03*
X3100Y5600D02*
D03*
X3100Y5725D02*
D03*
X3750Y5600D02*
D03*
X8750Y7250D02*
D03*
X7438Y7312D02*
D03*
X6500Y8625D02*
D03*
X7000Y8062D02*
D03*
X7312Y7975D02*
D03*
X1750Y8312D02*
D03*
X1812Y7812D02*
D03*
Y7688D02*
D03*
X2188Y7812D02*
D03*
Y7688D02*
D03*
X312Y8062D02*
D03*
X375Y6312D02*
D03*
X312Y6100D02*
D03*
X838Y6350D02*
D03*
X562Y6375D02*
D03*
X1125Y6938D02*
D03*
X1250Y6750D02*
D03*
X2812Y6562D02*
D03*
X125Y8375D02*
D03*
X312Y8250D02*
D03*
Y8500D02*
D03*
Y5062D02*
D03*
Y5188D02*
D03*
Y5312D02*
D03*
X5688Y250D02*
D03*
X5375Y562D02*
D03*
Y312D02*
D03*
X3625Y1475D02*
D03*
X3812Y1625D02*
D03*
Y1312D02*
D03*
X4188Y2875D02*
D03*
X3750Y6000D02*
D03*
X3750Y5912D02*
D03*
X5775Y7375D02*
D03*
X5750Y5188D02*
D03*
X8438Y2575D02*
D03*
Y2675D02*
D03*
X7812Y2562D02*
D03*
X9062Y2338D02*
D03*
X9612Y2325D02*
D03*
X8562Y2938D02*
D03*
Y3250D02*
D03*
X9075Y3812D02*
D03*
X8562Y3688D02*
D03*
Y3938D02*
D03*
X9075Y4500D02*
D03*
X8562Y4375D02*
D03*
Y4625D02*
D03*
X8950Y5062D02*
D03*
Y5288D02*
D03*
X8562Y5062D02*
D03*
Y5312D02*
D03*
X8550Y5750D02*
D03*
Y5938D02*
D03*
X8700D02*
D03*
X8875Y5875D02*
D03*
X9000Y6000D02*
D03*
X8562Y6500D02*
D03*
X9000Y6688D02*
D03*
X8875Y6562D02*
D03*
X8688Y6625D02*
D03*
X9375Y7312D02*
D03*
X9500Y7188D02*
D03*
X9375Y6625D02*
D03*
X9500Y6500D02*
D03*
X9375Y5938D02*
D03*
X9500Y5812D02*
D03*
X9375Y5250D02*
D03*
X9500Y5125D02*
D03*
Y4438D02*
D03*
X9375Y4562D02*
D03*
X9500Y3750D02*
D03*
X9375Y3875D02*
D03*
X9625Y3000D02*
D03*
Y3188D02*
D03*
X7750Y7188D02*
D03*
Y6500D02*
D03*
Y5812D02*
D03*
X7625Y5938D02*
D03*
X7562Y6312D02*
D03*
X7625Y6625D02*
D03*
X7438Y6438D02*
D03*
X7562Y7000D02*
D03*
X7438Y6875D02*
D03*
X8375Y3688D02*
D03*
X8125D02*
D03*
X8375Y3938D02*
D03*
X8125D02*
D03*
X8375Y4375D02*
D03*
X8125D02*
D03*
X8375Y4625D02*
D03*
X8125D02*
D03*
Y5062D02*
D03*
X8375D02*
D03*
Y5312D02*
D03*
X8125D02*
D03*
X8375Y5750D02*
D03*
X8125D02*
D03*
X8375Y6000D02*
D03*
X8125D02*
D03*
X8375Y6438D02*
D03*
X8125D02*
D03*
X8375Y6688D02*
D03*
X8125D02*
D03*
X8375Y7112D02*
D03*
X8125Y7125D02*
D03*
X8375Y7375D02*
D03*
X8125D02*
D03*
Y7812D02*
D03*
X8375D02*
D03*
X9125D02*
D03*
Y7375D02*
D03*
Y7125D02*
D03*
Y6688D02*
D03*
Y6438D02*
D03*
Y6000D02*
D03*
Y5750D02*
D03*
Y5312D02*
D03*
Y5062D02*
D03*
Y4625D02*
D03*
Y4375D02*
D03*
Y3938D02*
D03*
Y3688D02*
D03*
X7788Y2900D02*
D03*
X7812Y2688D02*
D03*
X8125Y3062D02*
D03*
Y3250D02*
D03*
X8438D02*
D03*
Y3062D02*
D03*
Y2875D02*
D03*
X9125Y3250D02*
D03*
Y3062D02*
D03*
Y2875D02*
D03*
X4938Y6912D02*
D03*
X4612D02*
D03*
X4288D02*
D03*
Y7162D02*
D03*
X5125Y8125D02*
D03*
X5375D02*
D03*
X5625D02*
D03*
X6312Y8000D02*
D03*
X6325Y7062D02*
D03*
X6438Y5250D02*
D03*
X9312Y8938D02*
D03*
Y9062D02*
D03*
X4125Y9250D02*
D03*
X4813Y8876D02*
D03*
X4750Y9250D02*
D03*
X4375Y9438D02*
D03*
Y9812D02*
D03*
X3938Y9438D02*
D03*
X3750D02*
D03*
X3938Y9688D02*
D03*
X3750D02*
D03*
X4375Y8625D02*
D03*
X4812D02*
D03*
X6062Y8400D02*
D03*
Y8625D02*
D03*
X5125Y5688D02*
D03*
Y5938D02*
D03*
X4438D02*
D03*
X4625D02*
D03*
X4812D02*
D03*
Y5688D02*
D03*
X4625D02*
D03*
X4438D02*
D03*
X3562Y2438D02*
D03*
X3750D02*
D03*
Y2188D02*
D03*
X3562D02*
D03*
Y3125D02*
D03*
X3750D02*
D03*
Y2875D02*
D03*
X3562D02*
D03*
X4125Y3125D02*
D03*
X4188Y3188D02*
D03*
X4350Y2550D02*
D03*
X4875Y2625D02*
D03*
X4438Y1812D02*
D03*
Y1625D02*
D03*
X4862Y1875D02*
D03*
X4688Y1625D02*
D03*
X4975Y1688D02*
D03*
X5125Y1538D02*
D03*
X5012Y1325D02*
D03*
X5112Y1225D02*
D03*
X5262Y1400D02*
D03*
X5400Y1262D02*
D03*
X5938Y375D02*
D03*
X5688Y1000D02*
D03*
X5500Y812D02*
D03*
X6000Y688D02*
D03*
X5812Y500D02*
D03*
X7875Y1438D02*
D03*
X7688D02*
D03*
X7375Y1938D02*
D03*
X7125Y1438D02*
D03*
X6938D02*
D03*
X7062Y1688D02*
D03*
X7188Y2000D02*
D03*
X8500Y1875D02*
D03*
X8312D02*
D03*
X8562Y1500D02*
D03*
X8438Y1688D02*
D03*
X8562D02*
D03*
X8225Y288D02*
D03*
Y562D02*
D03*
X8562Y788D02*
D03*
X8625Y550D02*
D03*
X8762Y675D02*
D03*
X8825Y938D02*
D03*
Y1188D02*
D03*
X7875Y562D02*
D03*
Y312D02*
D03*
X7688Y562D02*
D03*
Y312D02*
D03*
X6750Y562D02*
D03*
X7062D02*
D03*
X7375D02*
D03*
Y312D02*
D03*
X7062D02*
D03*
X6750D02*
D03*
X6438D02*
D03*
Y562D02*
D03*
X6125Y312D02*
D03*
Y562D02*
D03*
X4812Y1312D02*
D03*
X4625D02*
D03*
X4125Y938D02*
D03*
X4250D02*
D03*
X4375Y1312D02*
D03*
X4125D02*
D03*
X5500Y62D02*
D03*
X5188D02*
D03*
Y312D02*
D03*
X4875Y62D02*
D03*
Y312D02*
D03*
X4562Y62D02*
D03*
Y312D02*
D03*
X4250Y62D02*
D03*
Y312D02*
D03*
X3938Y62D02*
D03*
Y312D02*
D03*
X3625Y62D02*
D03*
Y312D02*
D03*
X3312Y62D02*
D03*
Y312D02*
D03*
X3125Y125D02*
D03*
X3062Y250D02*
D03*
X8812Y9438D02*
D03*
X8562D02*
D03*
X9188Y9188D02*
D03*
X9000Y9375D02*
D03*
X8875Y9188D02*
D03*
X9000Y9062D02*
D03*
X2750Y2312D02*
D03*
X2688Y2188D02*
D03*
X2250Y2938D02*
D03*
X2125Y2750D02*
D03*
X3125Y3438D02*
D03*
Y3188D02*
D03*
X2875D02*
D03*
X3125Y3000D02*
D03*
X2875D02*
D03*
Y2812D02*
D03*
X3125D02*
D03*
Y2625D02*
D03*
X2875D02*
D03*
Y2438D02*
D03*
X3125D02*
D03*
X3138Y2250D02*
D03*
X2875D02*
D03*
X4375Y3938D02*
D03*
X4188D02*
D03*
X3938D02*
D03*
X3312D02*
D03*
X3625D02*
D03*
X3438Y3812D02*
D03*
X5250Y3062D02*
D03*
X5875D02*
D03*
X6500Y2375D02*
D03*
X6062D02*
D03*
Y2562D02*
D03*
X6562Y2938D02*
D03*
X6438Y3112D02*
D03*
Y3375D02*
D03*
Y3562D02*
D03*
X6300Y3125D02*
D03*
Y3225D02*
D03*
X6125Y3250D02*
D03*
X6438Y3750D02*
D03*
X6250Y3688D02*
D03*
X6125D02*
D03*
Y4125D02*
D03*
Y3875D02*
D03*
X6250D02*
D03*
Y4125D02*
D03*
Y4312D02*
D03*
Y4500D02*
D03*
X6238Y4675D02*
D03*
X6055Y4776D02*
D03*
X6250Y4938D02*
D03*
X5988Y4925D02*
D03*
X5862Y5050D02*
D03*
X6000Y5188D02*
D03*
X5812Y5375D02*
D03*
X4312Y8375D02*
D03*
X4125D02*
D03*
X3938D02*
D03*
X3750D02*
D03*
X3938Y8688D02*
D03*
X3750D02*
D03*
X4375Y8750D02*
D03*
X4875Y9900D02*
D03*
X5062D02*
D03*
X5250D02*
D03*
Y9688D02*
D03*
X5062D02*
D03*
X4875D02*
D03*
X5750Y9812D02*
D03*
Y9625D02*
D03*
Y9438D02*
D03*
X6725D02*
D03*
X6500D02*
D03*
X7100Y9112D02*
D03*
X6725Y9225D02*
D03*
X6938D02*
D03*
X6500D02*
D03*
X5950Y9025D02*
D03*
X5912Y9225D02*
D03*
X5750D02*
D03*
X4312Y9250D02*
D03*
Y9000D02*
D03*
X3938Y9250D02*
D03*
Y9000D02*
D03*
X3750Y9250D02*
D03*
Y9000D02*
D03*
X2938Y9250D02*
D03*
X2562Y9000D02*
D03*
X2375Y9250D02*
D03*
Y9000D02*
D03*
X2125Y9250D02*
D03*
Y9000D02*
D03*
X1875Y9250D02*
D03*
Y9000D02*
D03*
X1625Y9250D02*
D03*
Y9000D02*
D03*
X2375Y6875D02*
D03*
X1812D02*
D03*
X2188Y7000D02*
D03*
Y7312D02*
D03*
X1688D02*
D03*
X1625Y7750D02*
D03*
X1375Y7625D02*
D03*
X2338Y8250D02*
D03*
X2250Y8000D02*
D03*
X2088Y8188D02*
D03*
X2150Y8250D02*
D03*
X7438Y1000D02*
D03*
X7100Y912D02*
D03*
Y1088D02*
D03*
X6938Y1188D02*
D03*
X6738D02*
D03*
X6625Y1088D02*
D03*
X6438D02*
D03*
X6625Y912D02*
D03*
X6438D02*
D03*
X6188D02*
D03*
X6000D02*
D03*
X5838D02*
D03*
Y1088D02*
D03*
X6000D02*
D03*
X6188D02*
D03*
X4875Y2375D02*
D03*
X5062Y2250D02*
D03*
Y2062D02*
D03*
Y1875D02*
D03*
X5188Y1750D02*
D03*
X5625Y1425D02*
D03*
X5500Y1500D02*
D03*
X5312Y1625D02*
D03*
X5438D02*
D03*
X5850Y1312D02*
D03*
Y1462D02*
D03*
X6025Y1862D02*
D03*
Y1988D02*
D03*
X6388Y1812D02*
D03*
Y1688D02*
D03*
Y1462D02*
D03*
Y1588D02*
D03*
X6500Y1312D02*
D03*
X6725Y1662D02*
D03*
X6812Y1562D02*
D03*
X6575Y1812D02*
D03*
Y1688D02*
D03*
X6650Y1938D02*
D03*
X6688Y2062D02*
D03*
X6475Y2025D02*
D03*
X6500Y2250D02*
D03*
Y2500D02*
D03*
X6000Y2875D02*
D03*
X6125Y3000D02*
D03*
X6300D02*
D03*
X4500Y3812D02*
D03*
X6062Y3562D02*
D03*
X5088Y3312D02*
D03*
Y3125D02*
D03*
X5125Y3562D02*
D03*
X5000Y3688D02*
D03*
X4875Y3500D02*
D03*
Y3312D02*
D03*
Y3125D02*
D03*
X5938Y3375D02*
D03*
X5750D02*
D03*
X5562D02*
D03*
X5375D02*
D03*
X5188D02*
D03*
X5938Y3750D02*
D03*
X5750D02*
D03*
X5562D02*
D03*
X5375D02*
D03*
X5188D02*
D03*
X5062Y4000D02*
D03*
X4875Y4188D02*
D03*
X4812Y4375D02*
D03*
X4800Y4575D02*
D03*
X4562D02*
D03*
X4762Y5400D02*
D03*
X4650D02*
D03*
X4875D02*
D03*
X5125D02*
D03*
X5250D02*
D03*
X5375D02*
D03*
X5638Y5275D02*
D03*
X5450Y5475D02*
D03*
X5625Y6788D02*
D03*
X5488Y6925D02*
D03*
X5238Y6875D02*
D03*
X5362Y6750D02*
D03*
X5438Y6625D02*
D03*
X5875Y8375D02*
D03*
X5800Y8125D02*
D03*
X5688Y8250D02*
D03*
X5500D02*
D03*
X5312Y8312D02*
D03*
X5125D02*
D03*
X5000Y8188D02*
D03*
X4812Y8375D02*
D03*
X4725Y8288D02*
D03*
X4875Y8062D02*
D03*
Y7912D02*
D03*
Y7688D02*
D03*
X4412D02*
D03*
X3875Y7912D02*
D03*
X3750D02*
D03*
X3938Y7562D02*
D03*
X3750D02*
D03*
X3875Y6900D02*
D03*
X3750Y6725D02*
D03*
Y6500D02*
D03*
Y6312D02*
D03*
Y6162D02*
D03*
Y5688D02*
D03*
X4088Y4875D02*
D03*
X4438Y4688D02*
D03*
X4312Y4812D02*
D03*
X3375Y4938D02*
D03*
X3738Y5200D02*
D03*
X3650Y5375D02*
D03*
Y5225D02*
D03*
X3562Y5300D02*
D03*
X938Y6762D02*
D03*
X125Y3750D02*
D03*
X250Y3625D02*
D03*
X312Y3812D02*
D03*
X250Y3938D02*
D03*
X100Y4375D02*
D03*
Y4125D02*
D03*
Y3938D02*
D03*
X1125Y9450D02*
D03*
Y9250D02*
D03*
X938Y9312D02*
D03*
X1000Y9125D02*
D03*
X750Y9112D02*
D03*
X612Y8938D02*
D03*
Y8688D02*
D03*
X812Y8938D02*
D03*
Y8688D02*
D03*
X612Y7000D02*
D03*
Y7375D02*
D03*
Y7688D02*
D03*
Y8000D02*
D03*
Y8312D02*
D03*
X812D02*
D03*
Y8000D02*
D03*
Y7688D02*
D03*
Y7375D02*
D03*
Y7125D02*
D03*
Y6875D02*
D03*
X800Y6662D02*
D03*
X1250Y6400D02*
D03*
X1188Y6500D02*
D03*
X1100Y6600D02*
D03*
X938Y6438D02*
D03*
X1038Y6312D02*
D03*
X1250D02*
D03*
X2625Y5338D02*
D03*
X2762Y5312D02*
D03*
X3175Y5175D02*
D03*
Y5025D02*
D03*
X3088Y4850D02*
D03*
Y4625D02*
D03*
Y4750D02*
D03*
X3175Y4812D02*
D03*
X3150Y4500D02*
D03*
X2812Y4312D02*
D03*
X2875Y4250D02*
D03*
X2938Y4188D02*
D03*
X3000Y4125D02*
D03*
X1938Y5788D02*
D03*
X2450Y5325D02*
D03*
X2350Y5088D02*
D03*
X2475D02*
D03*
X2438Y4688D02*
D03*
X2350Y4962D02*
D03*
X2562Y5000D02*
D03*
X2250Y2812D02*
D03*
X2388Y2550D02*
D03*
X2325Y2375D02*
D03*
X2418D02*
D03*
X2250Y2562D02*
D03*
X2225Y2650D02*
D03*
X2418Y2220D02*
D03*
X2788Y4500D02*
D03*
X2438Y4562D02*
D03*
X2875Y4438D02*
D03*
X1462Y5700D02*
D03*
X1475Y5788D02*
D03*
X1562Y5775D02*
D03*
X1650Y5788D02*
D03*
X2250Y6062D02*
D03*
X5485Y8633D02*
D03*
X5742Y8640D02*
D03*
X6350Y7200D02*
D03*
X6800Y7150D02*
D03*
X1000Y3812D02*
D03*
X4312Y5412D02*
D03*
X4213Y5125D02*
D03*
X3962Y5412D02*
D03*
X4562Y7275D02*
D03*
X4875Y7562D02*
D03*
X5163Y7538D02*
D03*
X5775Y7275D02*
D03*
X5926Y5904D02*
D03*
X6062Y5983D02*
D03*
Y5900D02*
D03*
X6212Y7338D02*
D03*
X6422Y7362D02*
D03*
X2125Y3312D02*
D03*
X1514Y3430D02*
D03*
X1512Y3850D02*
D03*
Y3912D02*
D03*
X1612Y4800D02*
D03*
X1825Y4588D02*
D03*
X1525Y4562D02*
D03*
X2750Y4250D02*
D03*
X2212Y5788D02*
D03*
X1812D02*
D03*
X1588Y5538D02*
D03*
X1512Y5462D02*
D03*
X2538Y5338D02*
D03*
X1188Y5750D02*
D03*
X1250Y6125D02*
D03*
X5562Y6200D02*
D03*
X3750Y6412D02*
D03*
X3112Y5838D02*
D03*
X2788Y6375D02*
D03*
X5562Y6462D02*
D03*
X3962Y5125D02*
D03*
X3812D02*
D03*
X4062D02*
D03*
X5062D02*
D03*
X4772D02*
D03*
X4312D02*
D03*
X5938Y6413D02*
D03*
X5913Y5725D02*
D03*
X6062Y5688D02*
D03*
X4912Y7150D02*
D03*
X5562Y5938D02*
D03*
X5212Y7275D02*
D03*
X4762Y7275D02*
D03*
Y7600D02*
D03*
X4662D02*
D03*
X3988Y7013D02*
D03*
X4125Y7275D02*
D03*
X4488Y7600D02*
D03*
X4550D02*
D03*
X4188Y7562D02*
D03*
X4312Y7625D02*
D03*
X2875Y6438D02*
D03*
X3475Y5375D02*
D03*
X3438Y5875D02*
D03*
Y5938D02*
D03*
Y5662D02*
D03*
X3438Y5575D02*
D03*
X3125Y5250D02*
D03*
X2975Y7875D02*
D03*
X5638Y7400D02*
D03*
X3312Y7812D02*
D03*
X3250D02*
D03*
X2912Y7875D02*
D03*
X2475Y8188D02*
D03*
Y8125D02*
D03*
X5638Y7338D02*
D03*
X6188Y6938D02*
D03*
X6250Y7000D02*
D03*
X6188Y6812D02*
D03*
X5938Y6612D02*
D03*
X5475Y7275D02*
D03*
X5625Y6912D02*
D03*
X5450Y5812D02*
D03*
X5012Y5400D02*
D03*
X4312Y5812D02*
D03*
X5000D02*
D03*
X4188Y5688D02*
D03*
X4462Y5412D02*
D03*
X4550D02*
D03*
X4188Y5438D02*
D03*
X3750Y5375D02*
D03*
X3462Y6200D02*
D03*
X3750Y5812D02*
D03*
X3738Y7012D02*
D03*
X1125Y8125D02*
D03*
Y8188D02*
D03*
X1250Y9375D02*
D03*
X1000Y5938D02*
D03*
X3312Y9500D02*
D03*
Y9438D02*
D03*
Y8625D02*
D03*
Y8688D02*
D03*
X3750Y6812D02*
D03*
X7150Y7212D02*
D03*
X5288Y8410D02*
D03*
X6175Y8625D02*
D03*
X6338Y8162D02*
D03*
X7119Y8350D02*
D03*
X7475Y8000D02*
D03*
X7038Y8625D02*
D03*
X7388Y8612D02*
D03*
X7325D02*
D03*
X6800Y8625D02*
D03*
X7062Y8875D02*
D03*
Y8812D02*
D03*
X7375Y8462D02*
D03*
X7500Y8650D02*
D03*
X6500Y8775D02*
D03*
X5681Y8691D02*
D03*
X5612Y8650D02*
D03*
X9150Y9088D02*
D03*
X5562Y5125D02*
D03*
X6688Y5375D02*
D03*
X7162Y7025D02*
D03*
X4138Y2588D02*
D03*
Y2525D02*
D03*
X4950Y2262D02*
D03*
X4888D02*
D03*
X4750Y3138D02*
D03*
Y3075D02*
D03*
X8438Y1500D02*
D03*
X8725Y1450D02*
D03*
Y1375D02*
D03*
X8838Y1338D02*
D03*
X8438Y2250D02*
D03*
X7812Y2312D02*
D03*
X7312Y2812D02*
D03*
X7438Y2938D02*
D03*
X7562Y2875D02*
D03*
X7688D02*
D03*
X7875Y2812D02*
D03*
X9688Y2250D02*
D03*
X9062D02*
D03*
X8462Y2100D02*
D03*
X9062D02*
D03*
X2062Y5812D02*
D03*
X2675D02*
D03*
X2538D02*
D03*
X2388D02*
D03*
X5812Y8688D02*
D03*
X4962Y8400D02*
D03*
X1850Y8688D02*
D03*
X750Y938D02*
D03*
X812Y3875D02*
D03*
X1312Y4312D02*
D03*
X1625Y5150D02*
D03*
X2125Y4975D02*
D03*
X1062Y5875D02*
D03*
X1200Y5612D02*
D03*
X862Y5375D02*
D03*
X1000Y4275D02*
D03*
X1188Y3812D02*
D03*
X1958Y2548D02*
D03*
X1162Y7500D02*
D03*
X1225D02*
D03*
Y7125D02*
D03*
X3688Y2988D02*
D03*
X3625D02*
D03*
X4125Y3312D02*
D03*
X4188D02*
D03*
X212Y5525D02*
D03*
Y5625D02*
D03*
Y5425D02*
D03*
X2675Y4975D02*
D03*
X1188Y3220D02*
D03*
Y3300D02*
D03*
X2712Y1162D02*
D03*
X2250D02*
D03*
X3000Y2088D02*
D03*
X2688D02*
D03*
Y2412D02*
D03*
X2388Y2938D02*
D03*
X2325Y3250D02*
D03*
X3000Y3812D02*
D03*
X2688Y1850D02*
D03*
X2375Y3962D02*
D03*
X1612Y4288D02*
D03*
X1939Y4251D02*
D03*
X1375Y4375D02*
D03*
X1250D02*
D03*
X1612Y4562D02*
D03*
X1225Y4562D02*
D03*
X1638Y2805D02*
D03*
X1698Y2738D02*
D03*
X1150Y2388D02*
D03*
X1362D02*
D03*
X2688Y4562D02*
D03*
X2625Y4625D02*
D03*
X2562Y4688D02*
D03*
X2500Y4750D02*
D03*
X2062Y2350D02*
D03*
X3112Y5112D02*
D03*
X2262Y4250D02*
D03*
X3112Y4962D02*
D03*
X1988Y2412D02*
D03*
X2000Y2288D02*
D03*
X1750Y1775D02*
D03*
X1698Y2612D02*
D03*
X1638Y1775D02*
D03*
Y2675D02*
D03*
X3188Y1775D02*
D03*
X3488Y1162D02*
D03*
X4250Y688D02*
D03*
X4898Y1135D02*
D03*
X4500Y1212D02*
D03*
X4562Y1625D02*
D03*
Y1688D02*
D03*
X2312Y7500D02*
D03*
X3812Y3812D02*
D03*
X3750D02*
D03*
X3688D02*
D03*
X2250Y7500D02*
D03*
X2188D02*
D03*
X1925Y8150D02*
D03*
X1475D02*
D03*
X3375Y4812D02*
D03*
X1225Y7188D02*
D03*
X1712Y6088D02*
D03*
X1512Y4738D02*
D03*
Y5150D02*
D03*
X5362Y3062D02*
D03*
X5575Y3063D02*
D03*
X5488Y3062D02*
D03*
X1500Y8688D02*
D03*
X312Y5725D02*
D03*
X863Y5863D02*
D03*
X312Y5812D02*
D03*
Y6000D02*
D03*
X2188Y6188D02*
D03*
X2112Y6125D02*
D03*
X125Y4500D02*
D03*
X188Y4562D02*
D03*
X250Y4625D02*
D03*
X312Y4725D02*
D03*
Y4825D02*
D03*
Y4925D02*
D03*
X2662Y6062D02*
D03*
X2462D02*
D03*
X2562D02*
D03*
X312Y4025D02*
D03*
Y4125D02*
D03*
Y4225D02*
D03*
Y4312D02*
D03*
X2188Y4625D02*
D03*
X2125Y4688D02*
D03*
X2124Y4885D02*
D03*
X8688Y8062D02*
D03*
X8812Y8125D02*
D03*
X8938Y8188D02*
D03*
X6000Y5425D02*
D03*
Y5512D02*
D03*
Y5612D02*
D03*
X8000Y3188D02*
D03*
X7875Y3875D02*
D03*
X6125Y2450D02*
D03*
X6312D02*
D03*
X6288Y1000D02*
D03*
X6212Y1850D02*
D03*
Y2538D02*
D03*
X9500Y5938D02*
D03*
X1838Y6188D02*
D03*
X1712Y6188D02*
D03*
X4062Y5412D02*
D03*
X1512Y6188D02*
D03*
X2125Y4562D02*
D03*
X1938D02*
D03*
X2041Y6184D02*
D03*
X1975Y6125D02*
D03*
X1612Y6188D02*
D03*
X9500Y7312D02*
D03*
X7750D02*
D03*
Y6625D02*
D03*
X9500D02*
D03*
X7750Y5938D02*
D03*
Y5250D02*
D03*
X9500D02*
D03*
Y4562D02*
D03*
X7750D02*
D03*
X9500Y3875D02*
D03*
X8062Y615D02*
D03*
X7188Y2125D02*
D03*
X7125Y2438D02*
D03*
X7188Y2312D02*
D03*
X6962Y2062D02*
D03*
X9603Y2438D02*
D03*
X8347D02*
D03*
X7588Y1962D02*
D03*
X8225D02*
D03*
X8850D02*
D03*
X9475D02*
D03*
X7725Y2375D02*
D03*
X8975D02*
D03*
X9538Y2500D02*
D03*
X8912D02*
D03*
X8287D02*
D03*
X7662D02*
D03*
X6725Y3000D02*
D03*
X8062Y1025D02*
D03*
X5938Y5812D02*
D03*
X6062Y6062D02*
D03*
X6000Y6125D02*
D03*
X5938Y6188D02*
D03*
X8000Y1250D02*
D03*
X8250Y1500D02*
D03*
X8188Y1438D02*
D03*
X8125Y1375D02*
D03*
X8062Y1312D02*
D03*
X7275Y1000D02*
D03*
X9500Y3188D02*
D03*
X8312Y2875D02*
D03*
X8188D02*
D03*
X7938D02*
D03*
X8062D02*
D03*
X8625D02*
D03*
X8750D02*
D03*
X8875D02*
D03*
X8998Y2873D02*
D03*
X9250Y2875D02*
D03*
X9375D02*
D03*
X9500D02*
D03*
X9625D02*
D03*
X3862Y5412D02*
D03*
X1200Y5512D02*
D03*
X5937Y1225D02*
D03*
X5938Y2638D02*
D03*
X862Y5675D02*
D03*
X2675Y5162D02*
D03*
Y5062D02*
D03*
X862Y5775D02*
D03*
Y5575D02*
D03*
Y5475D02*
D03*
Y5175D02*
D03*
Y5275D02*
D03*
D124*
X4688Y6338D02*
D03*
D125*
X3283Y7610D02*
D03*
Y7482D02*
D03*
Y7356D02*
D03*
Y7229D02*
D03*
X2542Y7603D02*
D03*
Y7475D02*
D03*
Y7349D02*
D03*
Y7221D02*
D03*
X805Y1997D02*
D03*
Y2124D02*
D03*
Y2250D02*
D03*
Y2377D02*
D03*
X1545Y2003D02*
D03*
Y2131D02*
D03*
Y2258D02*
D03*
Y2384D02*
D03*
D126*
X3755Y3608D02*
D03*
Y3512D02*
D03*
Y3417D02*
D03*
X3495D02*
D03*
Y3608D02*
D03*
D127*
X8943Y8350D02*
D03*
X8817D02*
D03*
X8689D02*
D03*
X8562D02*
D03*
X8436D02*
D03*
X8308D02*
D03*
X8182D02*
D03*
X8054D02*
D03*
X8943Y8930D02*
D03*
X8817D02*
D03*
X8689D02*
D03*
X8562D02*
D03*
X8436D02*
D03*
X8308D02*
D03*
X8182D02*
D03*
X8054D02*
D03*
D128*
X1755Y6675D02*
D03*
Y7075D02*
D03*
X1995D02*
D03*
Y6675D02*
D03*
D129*
X1867Y3920D02*
D03*
X1772D02*
D03*
X1677D02*
D03*
Y4180D02*
D03*
X1867D02*
D03*
X1093Y3920D02*
D03*
X998D02*
D03*
X903D02*
D03*
Y4180D02*
D03*
X1093D02*
D03*
D130*
X1507Y8555D02*
D03*
X1412Y8325D02*
D03*
X1602D02*
D03*
X1018Y1345D02*
D03*
X1112Y1575D02*
D03*
X923D02*
D03*
X7575Y8038D02*
D03*
X7480Y7807D02*
D03*
X7670D02*
D03*
X7575Y8512D02*
D03*
X7480Y8282D02*
D03*
X7670D02*
D03*
X1107Y8555D02*
D03*
X1012Y8325D02*
D03*
X1202D02*
D03*
X1945Y8282D02*
D03*
X2040Y8512D02*
D03*
X1850D02*
D03*
D131*
X6507Y8345D02*
D03*
X6738Y8250D02*
D03*
Y8440D02*
D03*
X6507Y8907D02*
D03*
X6738Y8812D02*
D03*
Y9003D02*
D03*
D132*
X8264Y9486D02*
X8689Y9061D01*
X7731Y9486D02*
X8264D01*
X5288Y8410D02*
Y8838D01*
X8817Y8930D02*
Y9058D01*
X8136Y9739D02*
X8817Y9058D01*
X7731Y9739D02*
X8136D01*
X8689Y8930D02*
Y9061D01*
X8262Y9362D02*
X8562Y9062D01*
X7650Y9362D02*
X8262D01*
X8562Y8930D02*
Y9062D01*
X7550Y9300D02*
X8200D01*
X8436Y9064D01*
Y8930D02*
Y9064D01*
X7288Y9150D02*
X7975D01*
X8054Y8930D02*
Y9071D01*
X7975Y9150D02*
X8054Y9071D01*
X8182Y8930D02*
Y9068D01*
X7375Y9200D02*
X8050D01*
X8182Y9068D01*
X8125Y9250D02*
X8308Y9067D01*
X7462Y9250D02*
X8125D01*
X8308Y8930D02*
Y9067D01*
X7594Y9419D02*
X7650Y9362D01*
X7100Y9338D02*
X7288Y9150D01*
X6969Y9739D02*
X7100Y9608D01*
Y9338D02*
Y9608D01*
X7350Y9362D02*
X7462Y9250D01*
X7350Y9362D02*
Y9612D01*
X7594Y9419D02*
Y9623D01*
X7477Y9739D02*
X7594Y9623D01*
X7477Y9373D02*
X7550Y9300D01*
X7477Y9373D02*
Y9486D01*
X7223Y9739D02*
X7350Y9612D01*
X7223Y9352D02*
X7375Y9200D01*
X7223Y9352D02*
Y9486D01*
D133*
X3750Y6412D02*
X3862D01*
M02*
