M48
;Layer_Color=9474304
;FILE_FORMAT=4:2
METRIC,LZ
;TYPE=PLATED
T1F00S00C0.20
T2F00S00C0.30
T3F00S00C1.00
T4F00S00C1.10
T5F00S00C3.00
T6F00S00C3.40
%
T01
X004467Y006117
Y006228
Y006338
Y006447
Y006557
X004578
X004688
X004797
X004908
Y006447
Y006338
Y006228
Y006117
X004797
X004688
X004578
T02
X007375Y000312
Y000562
X007688
X007875
X008062Y000615
X008225Y000562
Y000288
X007875Y000312
X007688
X007812Y000988
X007562Y001
X007438
X007688Y00115
Y001438
X007875
X008Y00125
X008062Y001312
X008125Y001375
X008188Y001438
X00825Y0015
X008438
X008562
Y001688
X008438
X0085Y001875
X008312
X008225Y001962
Y002238
X008438Y00225
X008462Y0021
X008347Y002438
X008287Y0025
X008438Y002575
Y002675
Y002875
X008312
X008188
X008062
X007938
X007875Y002812
X007788Y0029
X007688Y002875
X007562
X007438Y002938
X007812Y002688
Y002562
X007662Y0025
X007725Y002375
X007812Y002312
X007588Y001962
X007375Y001938
X00885Y001962
Y00225
X009062
Y002338
X008975Y002375
X008912Y0025
X009075Y002575
Y002675
X009125Y002875
X00925
X009375
X0095
X009625
Y003
X009812
Y003312
X009625Y003188
X0095
X009125Y00325
Y003062
X008998Y002873
X008875Y002875
X00875
X008625
X008562Y002938
X008438Y003062
Y00325
X008562
X008125
Y003062
X008Y003188
X009062Y0021
X009475Y001962
X009812Y002062
Y002375
X009688Y00225
X009612Y002325
X009603Y002438
X009538Y0025
X009812Y002688
Y00175
Y001438
Y001125
X008825Y001188
X008838Y001338
X008725Y001375
Y00145
X008962Y001475
X008825Y000938
X008762Y000675
X008625Y00055
X008562Y000788
X008438Y000925
X008338
Y001025
X008438
X008062
X007275Y001
X0071Y000912
Y001088
X006938Y001188
X006738
X006625Y001088
Y000912
X006438
Y001088
X006288Y001
X006188Y000912
Y001088
X006
X005838
Y000912
X006
Y000688
X006125Y000562
Y000312
X005938Y000375
X005812Y0005
X005688Y00025
X005375Y000312
X005188
Y000062
X0055
X005375Y000562
X0055Y000812
X005688Y001
X005937Y001225
X00585Y001312
Y001462
X005625Y001425
X0055Y0015
X005438Y001625
X005312
X005188Y00175
X005062Y001875
Y002062
Y00225
X00495Y002262
X004888
X004862Y002162
X004875Y002375
Y002625
Y003125
X00475Y003138
Y003075
X004875Y003312
X005088
Y003125
X00525Y003062
X005362
X005488
X005575Y003063
X005875Y003062
X006Y002875
X006125Y003
X0063
Y003125
Y003225
X006125Y00325
X006438Y003112
X006562Y002938
X006725Y003
Y002525
X0065Y0025
Y002375
Y00225
X006475Y002025
X006688Y002062
X00665Y001938
X006575Y001812
Y001688
X006725Y001662
X006812Y001562
X006938Y001438
X007125
X007062Y001688
X007188Y002
Y002125
Y002312
X007125Y002438
X00685Y002312
X006962Y002062
X006388Y001812
Y001688
Y001588
Y001462
X0065Y001312
X006438Y000562
Y000312
X00675
Y000562
X007062
Y000312
X004875
Y000062
X004562
Y000312
X00425
Y000062
X003938
Y000312
X003625
Y000062
X0035Y000938
X003488Y001162
X003625Y001475
X003812Y001625
Y001312
X004125
X004375
X0045Y001212
X004625Y001312
X004812
X005012Y001325
X005112Y001225
X004898Y001135
X004962Y0006
X004712
X0045Y000688
X004375
X00425
Y000938
X004125
X004438Y001625
X004562
Y001688
X004688Y001625
X004975Y001688
X004862Y001875
X004438Y001812
X004188Y002188
X004138Y002525
Y002588
X00435Y00255
X004188Y002875
X004125Y003125
X004188Y003188
Y003312
X004125
X00375Y003125
X003562
X003625Y002988
X003688
X00375Y002875
X003562
Y002438
X00375
Y002188
X003562
X003938Y001962
X005125Y001538
X005262Y0014
X0054Y001262
X006025Y001862
Y001988
X006188Y002138
X006212Y00185
X006062Y002375
X006125Y00245
X006212Y002538
X006062Y002562
X005938Y002638
X006312Y00245
X007312Y002812
Y002938
X007238Y002988
X003125Y003
Y003188
X002875
X002775Y003125
X002875Y003
Y002812
Y002625
Y002438
Y00225
X00275Y002312
X002688Y002412
Y002188
Y002088
Y00185
X002525
X002475Y002012
X002418Y00222
X002312Y002188
X002325Y002375
X002418
X002388Y00255
X002312Y002488
X00225Y002562
X002225Y00265
X00225Y002812
Y002938
X002388
X002325Y00325
X002125Y003312
X001712Y003288
X00165Y003225
X001588Y003162
X001688Y003
X001888Y003025
X001638Y002805
X001698Y002738
X001638Y002675
X001698Y002612
X001958Y002548
X001988Y002412
X002062Y00235
X002Y002288
Y002188
X001962Y002
X001812
X00175Y001775
X001638
X001262Y001725
Y001475
Y0013
X00075Y001311
X00075Y000938
X001212Y000812
X001375
X002
X002188Y000938
X00225Y001162
X002188Y001438
X002625
Y001688
X003062
Y001875
X003188Y001775
Y002
X003Y002088
X003138Y00225
X003125Y002438
Y002625
Y002812
X002125Y00275
X001362Y002388
X001262
X00115
X00095Y0027
X000662Y002688
Y002812
Y0025
X000562Y002562
X000375
X000188Y0025
Y002188
Y001912
Y001662
Y001412
Y001162
X000625Y00225
X000125Y003012
X001188Y003125
Y00322
Y0033
X001312Y00325
Y003125
X002712Y001162
X002688Y000938
X00285Y000812
X003Y000938
X003312Y000812
Y000312
Y000062
X003125Y000125
X003062Y00025
X002388Y000812
X003125Y001438
Y003438
X003113Y0037
X003Y003812
Y003938
Y004125
X002938Y004188
X002875Y00425
X002812Y004312
X00275Y00425
X002788Y0045
X002875Y004438
X002688Y004562
X002625Y004625
X002562Y004688
X002438
Y004562
X0025Y00475
X002562Y005
X002675Y004975
X002675Y005062
Y005162
X002625Y005338
X002538
X00245Y005325
X002475Y005088
X00235
Y004962
X002125Y004975
X002124Y004885
X002012Y0048
X002125Y004688
X002188Y004625
X002125Y004562
X001938
X001825Y004588
X001862Y004675
X001775Y004738
X001612Y0048
X001512Y004738
X001525Y004562
X001612
X001612Y004288
X001312Y004312
X001375Y004375
X00125
X001225Y004562
X001Y004275
Y003812
X001188
Y003562
X001Y003612
X000675
X000562Y003562
X000438Y003438
X000125Y003462
Y00375
X0001Y003938
X00025
X0004
X000562
X000812Y003875
X000312Y003812
Y004025
Y004125
Y004225
Y004312
X0001Y004375
X000125Y0045
X000188Y004562
X00025Y004625
X000312Y004725
Y004825
Y004925
Y005062
Y005188
Y005312
X000212Y005425
Y005525
Y005625
X000312Y005725
Y005812
Y006
Y0061
X000375Y006312
X000562Y006375
X000838Y00635
X000938Y006438
X001038Y006312
X00125
Y0064
X001188Y0065
X0011Y0066
X00125Y00675
X001125Y006938
X001225Y007125
Y007188
X000812Y007125
Y006875
X0008Y006662
X000938Y006762
X000612Y007
X001812Y006875
X001838Y007312
X001688
X002188
X002312Y007125
X002375
Y006875
X002562
X00275Y006912
X002875Y006938
X002812Y007
X0031Y00695
X003338Y006962
Y006662
X002812Y006562
X002875Y006438
X002788Y006375
X002612Y006162
X002662Y006062
X002562
X002462
X00225
X002188Y006188
X002112Y006125
X002041Y006184
X001975Y006125
X001838Y006188
X001712Y006188
Y006088
X001612Y006188
X001512
X001475Y006312
Y0065
X00125Y006125
X001188Y00575
X0012Y005612
X0012Y005512
X001512Y005462
X001588Y005538
X001562Y005775
X001475Y005788
X001462Y0057
X00165Y005788
X001812
X001938
X002062Y005812
X002212Y005788
X002388Y005812
X002538
X002675
X003112Y005838
X0031Y005725
X0031Y0056
X003188Y005575
Y005675
X003125Y00525
X003175Y005175
X003112Y005112
X003175Y005025
X003112Y004962
X003088Y00485
Y00475
Y004625
X00315Y0045
X003175Y004812
X002762Y005312
X0031Y006175
X003062Y007238
X002188Y007
X002262Y0065
X001Y005938
X001062Y005875
X000863Y005863
X000862Y005775
Y005675
Y005575
Y005475
Y005375
Y005275
Y005175
X001512Y00515
X001625
X001939Y004251
X00185Y004038
X001512Y003912
Y00385
X001514Y00343
X002375Y003962
X002262Y00425
X003312Y003938
X00025Y003625
X0001Y004125
X003438Y003812
X003688
X00375
X003812
X003938Y003938
X004188
X004375
X0045Y003812
X005Y003688
X005125Y003562
X005188Y003375
X005375
X005562
X00575
X005938
X006062Y003562
X006125Y003688
X00625
Y003875
X006125
Y004125
X00625
Y004312
Y0045
X006238Y004675
X006425Y004725
X0067Y004738
Y004362
X006638Y003938
Y00375
X006438
Y003562
Y003375
X005938Y00375
X00575
X005562
X005375
X005188
X005062Y004
X004875Y004188
X004812Y004375
X0048Y004575
X004562
X004438Y004688
X004312Y004812
X004088Y004875
X004062Y005125
X003962
X003812
X003738Y0052
X00365Y005225
Y005375
X00375
X003862Y005412
X003962
X004062
X004188Y005438
X004312Y005412
X004462
X00455
X00465Y0054
X004762
X004875
X005012
X005125
X00525
X005375
X00545Y005475
Y005812
X005562Y005938
Y0062
Y006462
X005438Y006625
X005362Y00675
X005238Y006875
X005488Y006925
X005625Y006912
Y006788
X005938Y006612
Y006525
X005938Y006413
X005938Y006188
X006Y006125
X006062Y006062
Y005983
Y0059
X005926Y005904
X005938Y005812
X005913Y005725
X006062Y005688
X006Y005612
Y005512
Y005425
Y005325
Y005188
X00575
X005638Y005275
X005562Y005125
X005862Y00505
X005988Y004925
X006055Y004776
X00625Y004938
Y00525
X006438
X0067
X006688Y005375
X007238Y00535
Y005125
Y005825
Y005925
X007
Y005825
X006888Y005975
X006875Y0065
X00705Y006525
X007238
X007075Y006875
X007162Y007025
X00715Y007212
X0068Y00715
X0069Y007025
X006325Y007062
X00625Y007
X006188Y006938
Y006812
X006175Y007062
X006212Y007338
X00635Y0072
X005775Y007275
X005638Y007338
X005475Y007275
X005212Y007275
X004912Y00715
X004938Y006912
X004612
X004288
Y007162
X004125Y007275
X003988Y007013
X003875Y0069
X00375
Y006812
Y006725
Y0065
Y006412
Y006312
Y006162
X00375Y006
X00375Y005912
Y005812
Y005688
Y0056
X003438Y005575
X003438Y005662
Y005875
Y005938
X003462Y0062
Y006725
Y006812
X003438Y007125
X003738Y007112
Y007012
X004562Y007275
X004762
X004812Y005938
X004625
X004438
Y005688
X004625
X004812
X005125
Y005938
X005Y005812
X004312
X004188Y005688
X004213Y005125
X004312Y005125
X004772
X005062
X005812Y005375
X006075Y006312
X006212Y006412
X006388Y0065
X007238Y00434
X004875Y0035
X003625Y003938
X003375Y004812
Y004938
X003475Y005375
X003562Y0053
X00775Y00525
X007812Y005188
X008125Y005062
X008375
X008562
Y005312
X008375
X008125
Y00575
X008375
X00855
Y005938
X0087
X008875Y005875
X009Y006
X009125
Y00575
X009375Y005938
X0095
Y005812
X009812
Y006125
Y006438
Y00675
Y007062
X0095Y007188
Y007312
X009375
X009125Y007125
Y006688
X009
X008875Y006562
X008688Y006625
X008562Y0065
X008375Y006438
X008125
Y006688
X008375
Y007112
X008125Y007125
X00775Y007188
Y007312
X007625Y0073
X007438Y007312
X00745Y007138
X007562Y007
X007438Y006875
X007388Y006725
X007475Y0066
X007625Y006625
X00775
Y0065
X007562Y006312
X007438Y006438
X007625Y005938
X00775
Y005812
X008125Y006
X008375
X009125Y006438
X009375Y006625
X0095
Y0065
Y00525
X009375
X0095Y005125
X009812Y005188
Y0055
Y004875
Y004562
Y00425
Y003938
Y003625
X0095Y00375
Y003875
X009375
X009125Y003938
X009075Y003812
X009125Y003688
X008562
X008375
X008125
Y003938
X008375
X008562
Y004375
X008375
X008125
Y004625
X008375
X008562
X009125
X009075Y0045
X009125Y004375
X0095Y004438
Y004562
X009375
X009125Y005062
X00895
Y005288
X009125Y005312
X007825Y0045
X00775Y004562
X007875Y003875
X00795Y003812
X00875Y00725
X008375Y007375
X008125
Y007812
X008375
X008688Y008062
X008812Y008125
X008938Y008188
X00915Y0085
Y009088
X009188Y009188
X009312Y009062
Y008938
X009Y009062
X008875Y009188
X008812Y009438
X008562
X008438Y009625
X008312Y00975
X009Y009375
X009812Y008625
Y008312
Y008
Y007688
Y007375
X009125
Y007812
X00745Y00765
Y007538
X007475Y008
X007375Y008462
X007388Y008612
X0075Y00865
X0077Y008612
X007875
X007325
X007038Y008625
X007062Y008812
Y008875
X0071Y009112
X006938Y009225
X006725
Y009438
X0065
Y009225
Y008775
Y008625
X0068
X007119Y00835
X007Y008062
X007312Y007975
X006612Y007688
X006422Y007362
X006125Y007375
X005775
X005638Y0074
X005163Y007538
X005138Y007625
X004875Y007688
Y007562
X004762Y0076
X004662
X00455
X004488
X004412Y007688
X004312Y007625
X004188Y007562
X003938
Y0077
X00375
Y007562
X003712Y007388
X00375Y007912
X003875
X00375Y008188
Y008375
X003938
X004125
X004312
X004375Y008625
Y00875
X004312Y009
Y00925
X004125
X003938
Y009438
X00375
Y00925
Y009
X003938
Y008688
X00375
Y009688
X003938
X004375Y009812
Y009438
X00475Y00925
X004813Y008876
X004812Y008625
Y008375
X004725Y008288
X004962Y0084
X005125Y008312
Y008125
X005Y008188
X004875Y008062
Y007912
X005375Y008125
X005625
X0058
X005688Y00825
X0055
X005312Y008312
X005288Y00841
X005485Y008633
X005612Y00865
X005681Y008691
X005742Y00864
X005812Y008688
X006062Y008625
X006175
X006062Y0084
X005875Y008375
X006338Y008162
X006312Y008
X00595Y009025
X005912Y009225
X00575
Y009438
Y009625
Y009812
X00525Y0099
X005062
X004875
Y009688
X005062
X00525
X00675
X003412Y0077
X003312Y007812
X00325
X002975Y007875
X002912
X002938Y007625
X002812Y0075
Y007375
X003062Y007488
X002312Y0075
X00225
X002188
Y007688
Y007812
X00225Y008
X002338Y00825
X00215
X002088Y008188
X001925Y00815
X00175Y008312
X001475Y00815
X001125Y008125
Y008188
X000812Y008312
X000612
Y008
X000812
Y007688
X000612
Y007375
X000812
X001162Y0075
X001225
X001375Y007625
X001625Y00775
X001812Y007812
Y007688
X00185Y008688
X001875Y009
X002125
X002375
X002562
X002375Y00925
X002125
X001875
X001625
Y009
X0015Y008688
X000812
X000612
Y008938
X000812
X00075Y009112
X001Y009125
X001125Y00925
Y00945
X00125Y009375
X000938Y009312
X000312Y0085
Y00825
Y008062
X000125Y008375
X002475Y008188
Y008125
X002875Y00825
Y008438
Y008625
X003312
Y008688
X00325Y00825
X003312Y009438
Y0095
X002938Y00925
T03
X001146Y00045
X0014
X001654
X002033
X002288
X002542
X00291Y000455
X003165
X000462Y001155
Y001409
Y001662
Y001917
Y00217
Y002425
X000468Y002758
Y003012
Y003267
X00048Y006582
Y006836
Y007089
Y007343
X00596Y009545
X006215
X002675Y009747
Y008788
X001115
X00048Y008814
Y008561
X000475Y008208
Y007954
Y0077
X001115Y009747
T04
X003254Y004373
Y004627
X003508
X003762
X004017
Y004373
X004271
Y004627
X003762Y004373
X003508
X007477Y009486
X007731
Y009739
X007477
X007223
Y009486
X006969
Y009739
T05
X004688Y006338
T06
X0095Y0005
X0005
X0095Y0095
X0005
M30
